<svg width="900" height="400" viewBox="0 0 900 400" fill="none" xmlns="http://www.w3.org/2000/svg">
<rect width="900" height="400" rx="10" fill="#242424"/>
<path d="M462 189C462.55 189 463 189.45 463 190V209.987L462.688 209.581L454.188 198.581C453.906 198.213 453.462 198 453 198C452.538 198 452.1 198.213 451.812 198.581L446.625 205.294L444.719 202.625C444.438 202.231 443.988 202 443.5 202C443.012 202 442.562 202.231 442.281 202.631L437.281 209.631L437 210.019V190C437 189.45 437.45 189 438 189H462ZM438 186C435.794 186 434 187.794 434 190V210C434 212.206 435.794 214 438 214H462C464.206 214 466 212.206 466 210V190C466 187.794 464.206 186 462 186H438ZM443 198C443.394 198 443.784 197.922 444.148 197.772C444.512 197.621 444.843 197.4 445.121 197.121C445.4 196.843 445.621 196.512 445.772 196.148C445.922 195.784 446 195.394 446 195C446 194.606 445.922 194.216 445.772 193.852C445.621 193.488 445.4 193.157 445.121 192.879C444.843 192.6 444.512 192.379 444.148 192.228C443.784 192.078 443.394 192 443 192C442.606 192 442.216 192.078 441.852 192.228C441.488 192.379 441.157 192.6 440.879 192.879C440.6 193.157 440.379 193.488 440.228 193.852C440.078 194.216 440 194.606 440 195C440 195.394 440.078 195.784 440.228 196.148C440.379 196.512 440.6 196.843 440.879 197.121C441.157 197.4 441.488 197.621 441.852 197.772C442.216 197.922 442.606 198 443 198Z" fill="#676767"/>
</svg>
