<svg width="1535" height="1103" viewBox="0 0 1535 1103" fill="none" xmlns="http://www.w3.org/2000/svg">
<rect width="1535" height="941" fill="black"/>
<path d="M274.903 398.497C275.107 397.962 274.669 397.445 274.217 397.686C274.119 397.739 274.043 397.829 273.997 397.944C273.786 398.481 274.232 398.998 274.684 398.757C274.782 398.703 274.858 398.614 274.903 398.497Z" fill="white" fill-opacity="0.1"/>
<path d="M638.068 429.479C638.272 428.944 637.833 428.426 637.379 428.667C637.281 428.721 637.205 428.81 637.16 428.926C636.956 429.462 637.394 429.979 637.848 429.738C637.947 429.685 638.022 429.595 638.068 429.479Z" fill="white" fill-opacity="0.1"/>
<path d="M559.67 378.414C559.874 377.879 559.436 377.362 558.983 377.603C558.885 377.656 558.81 377.746 558.765 377.861C558.554 378.396 558.999 378.913 559.452 378.673C559.55 378.619 559.624 378.53 559.67 378.414Z" fill="white" fill-opacity="0.1"/>
<path d="M453.19 133.059C453.401 132.524 452.955 132.007 452.502 132.248C452.404 132.301 452.329 132.39 452.284 132.506C452.08 133.041 452.517 133.558 452.97 133.318C453.068 133.264 453.144 133.175 453.19 133.059Z" fill="white" fill-opacity="0.1"/>
<path d="M518.857 119.324C519.068 118.791 518.622 118.266 518.17 118.515C518.072 118.568 517.996 118.657 517.951 118.773C517.747 119.307 518.184 119.822 518.637 119.582C518.735 119.529 518.811 119.44 518.857 119.324Z" fill="white" fill-opacity="0.1"/>
<path d="M1284.6 9.02166C1284.8 8.4866 1284.37 7.96938 1283.91 8.21015C1283.81 8.26365 1283.74 8.35283 1283.69 8.46876C1283.49 9.00382 1283.92 9.52104 1284.38 9.28027C1284.48 9.22677 1284.55 9.13759 1284.6 9.02166Z" fill="white" fill-opacity="0.8"/>
<path d="M945.895 451.101C946.099 450.566 945.66 450.049 945.206 450.29C945.108 450.343 945.033 450.433 944.987 450.548C944.783 451.083 945.222 451.6 945.676 451.36C945.774 451.306 945.849 451.217 945.895 451.101Z" fill="white" fill-opacity="0.8"/>
<path d="M1035.85 481.633C1036.06 481.098 1035.62 480.581 1035.16 480.822C1035.06 480.876 1034.99 480.965 1034.94 481.08C1034.74 481.616 1035.18 482.133 1035.63 481.892C1035.73 481.838 1035.8 481.749 1035.85 481.633Z" fill="white" fill-opacity="0.1"/>
<path d="M1221.61 359.817C1221.82 359.282 1221.38 358.765 1220.92 359.006C1220.82 359.059 1220.75 359.149 1220.7 359.264C1220.5 359.799 1220.93 360.316 1221.39 360.076C1221.49 360.022 1221.56 359.933 1221.61 359.817Z" fill="white" fill-opacity="0.1"/>
<path d="M1264.51 166.154C1264.72 165.619 1264.28 165.102 1263.82 165.343C1263.72 165.397 1263.65 165.485 1263.6 165.602C1263.4 166.137 1263.83 166.654 1264.29 166.413C1264.39 166.359 1264.46 166.27 1264.51 166.154Z" fill="white" fill-opacity="0.1"/>
<path d="M1220.69 20.0207C1220.89 19.4856 1220.46 18.9684 1220 19.2091C1219.9 19.2626 1219.83 19.3519 1219.78 19.4678C1219.57 20.0029 1220.01 20.5201 1220.47 20.2793C1220.57 20.2258 1220.64 20.1366 1220.69 20.0207Z" fill="white" fill-opacity="0.1"/>
<path d="M1296.73 55.4938C1296.94 54.9588 1296.5 54.4415 1296.05 54.6823C1295.94 54.7358 1295.87 54.825 1295.82 54.9409C1295.62 55.4759 1296.06 55.9932 1296.51 55.7524C1296.61 55.6989 1296.68 55.6097 1296.73 55.4938Z" fill="white" fill-opacity="0.1"/>
<path d="M1213.83 84.092C1214.04 83.5569 1213.59 83.0397 1213.14 83.2805C1213.04 83.334 1212.97 83.4231 1212.92 83.539C1212.71 84.0741 1213.15 84.5913 1213.6 84.3505C1213.7 84.297 1213.78 84.2079 1213.83 84.092Z" fill="white" fill-opacity="0.1"/>
<path d="M1215.85 211.592C1216.06 211.057 1215.62 210.54 1215.16 210.78C1215.06 210.834 1214.99 210.923 1214.94 211.039C1214.74 211.574 1215.17 212.091 1215.63 211.85C1215.73 211.797 1215.8 211.707 1215.85 211.592Z" fill="white" fill-opacity="0.1"/>
<path d="M1375.6 231.849C1375.8 231.314 1375.36 230.797 1374.91 231.037C1374.81 231.091 1374.74 231.18 1374.69 231.296C1374.47 231.831 1374.92 232.348 1375.37 232.107C1375.47 232.054 1375.54 231.964 1375.6 231.849Z" fill="white" fill-opacity="0.1"/>
<path d="M527.317 242.573C527.521 242.038 527.083 241.521 526.63 241.762C526.532 241.816 526.456 241.905 526.412 242.02C526.2 242.555 526.645 243.073 527.098 242.832C527.196 242.778 527.271 242.689 527.317 242.573Z" fill="white" fill-opacity="0.1"/>
<path d="M783.115 420.12C783.319 419.585 782.88 419.068 782.426 419.309C782.328 419.362 782.252 419.452 782.207 419.567C782.003 420.102 782.441 420.62 782.895 420.379C782.993 420.325 783.069 420.236 783.115 420.12Z" fill="white" fill-opacity="0.1"/>
<path d="M645.99 373.698C646.202 373.162 645.757 372.645 645.304 372.885C645.206 372.939 645.13 373.028 645.084 373.145C644.881 373.68 645.319 374.197 645.771 373.957C645.869 373.903 645.945 373.814 645.99 373.698Z" fill="white" fill-opacity="0.1"/>
<path d="M388.65 444.878C388.855 444.343 388.417 443.825 387.964 444.066C387.866 444.12 387.79 444.209 387.746 444.325C387.534 444.86 387.979 445.377 388.432 445.136C388.53 445.083 388.605 444.994 388.65 444.878Z" fill="white" fill-opacity="0.1"/>
<path d="M997.456 11.4049C997.667 10.8699 997.222 10.3527 996.769 10.5935C996.671 10.647 996.596 10.7361 996.551 10.8521C996.347 11.3871 996.784 11.9043 997.237 11.6636C997.335 11.6101 997.411 11.5209 997.456 11.4049Z" fill="white" fill-opacity="0.8"/>
<path d="M529.339 484.466C529.543 483.931 529.105 483.414 528.652 483.654C528.554 483.708 528.478 483.797 528.434 483.913C528.223 484.448 528.668 484.965 529.121 484.725C529.219 484.671 529.293 484.582 529.339 484.466Z" fill="white" fill-opacity="0.8"/>
<path d="M396.875 53.2179C397.087 52.6829 396.642 52.1656 396.189 52.4065C396.091 52.46 396.016 52.5491 395.971 52.665C395.766 53.2001 396.204 53.7173 396.657 53.4765C396.755 53.423 396.831 53.3339 396.875 53.2179Z" fill="white" fill-opacity="0.1"/>
<path d="M520.239 22.1291C520.443 21.594 520.006 21.0768 519.553 21.3176C519.455 21.3711 519.379 21.4602 519.334 21.5762C519.123 22.1112 519.568 22.6285 520.021 22.3876C520.119 22.3341 520.194 22.245 520.239 22.1291Z" fill="white" fill-opacity="0.8"/>
<path d="M228.043 333.134C228.248 332.599 227.809 332.082 227.355 332.322C227.257 332.376 227.181 332.465 227.136 332.581C226.931 333.116 227.37 333.633 227.824 333.392C227.922 333.339 227.998 333.249 228.043 333.134Z" fill="white" fill-opacity="0.8"/>
<path d="M288.322 309.476C288.533 308.941 288.088 308.424 287.635 308.665C287.537 308.718 287.461 308.808 287.416 308.923C287.212 309.46 287.65 309.977 288.103 309.736C288.201 309.682 288.276 309.593 288.322 309.476Z" fill="white" fill-opacity="0.1"/>
<path d="M296.795 171.078C296.999 170.543 296.561 170.026 296.107 170.266C296.009 170.32 295.933 170.409 295.887 170.525C295.683 171.06 296.122 171.577 296.576 171.336C296.674 171.283 296.75 171.193 296.795 171.078Z" fill="white" fill-opacity="0.1"/>
<path d="M289.718 234.232C289.922 233.697 289.484 233.18 289.031 233.421C288.933 233.474 288.857 233.564 288.813 233.679C288.602 234.214 289.046 234.731 289.499 234.491C289.597 234.437 289.672 234.348 289.718 234.232Z" fill="white" fill-opacity="0.1"/>
<path d="M380.612 489.444C380.816 488.909 380.378 488.392 379.925 488.633C379.827 488.687 379.752 488.775 379.706 488.892C379.495 489.427 379.94 489.944 380.393 489.703C380.491 489.649 380.567 489.56 380.612 489.444Z" fill="white" fill-opacity="0.8"/>
<path d="M518.511 311.363C518.715 310.828 518.276 310.311 517.822 310.552C517.723 310.606 517.647 310.695 517.603 310.81C517.397 311.345 517.837 311.863 518.291 311.622C518.389 311.568 518.465 311.479 518.511 311.363Z" fill="white" fill-opacity="0.1"/>
<path d="M484.53 263.577C484.734 263.042 484.295 262.525 483.841 262.766C483.743 262.819 483.667 262.909 483.622 263.024C483.418 263.559 483.856 264.078 484.31 263.836C484.408 263.783 484.484 263.694 484.53 263.577Z" fill="white" fill-opacity="0.8"/>
<path d="M349.693 176.103C350.147 176.344 350.586 175.828 350.381 175.294C350.336 175.178 350.26 175.089 350.162 175.036C349.708 174.787 349.269 175.312 349.473 175.846C349.519 175.961 349.595 176.049 349.693 176.103Z" fill="white" fill-opacity="0.8"/>
<path d="M392.232 355.227C392.436 354.691 391.998 354.174 391.546 354.414C391.447 354.468 391.372 354.557 391.327 354.674C391.115 355.209 391.56 355.726 392.013 355.485C392.111 355.432 392.187 355.342 392.232 355.227Z" fill="white" fill-opacity="0.1"/>
<path d="M711.329 407.012C711.533 406.477 711.096 405.96 710.643 406.201C710.545 406.254 710.469 406.344 710.424 406.459C710.213 406.994 710.658 407.512 711.111 407.271C711.209 407.217 711.284 407.128 711.329 407.012Z" fill="white" fill-opacity="0.1"/>
<path d="M851.866 498.762C852.071 498.229 851.633 497.713 851.18 497.953C851.082 498.007 851.006 498.095 850.961 498.211C850.75 498.745 851.195 499.269 851.648 499.02C851.746 498.967 851.821 498.878 851.866 498.762Z" fill="white" fill-opacity="0.1"/>
<path d="M783.115 461.825C783.319 461.29 782.88 460.773 782.426 461.014C782.328 461.067 782.252 461.157 782.207 461.272C782.003 461.807 782.441 462.325 782.895 462.084C782.993 462.03 783.069 461.941 783.115 461.825Z" fill="white" fill-opacity="0.8"/>
<path d="M1088.92 296.151C1089.12 295.615 1088.68 295.098 1088.23 295.339C1088.13 295.393 1088.05 295.482 1088.01 295.598C1087.8 296.133 1088.24 296.65 1088.7 296.409C1088.79 296.355 1088.87 296.266 1088.92 296.151Z" fill="white" fill-opacity="0.8"/>
<path d="M511.594 106.481C511.797 105.946 511.36 105.429 510.907 105.67C510.809 105.723 510.733 105.812 510.688 105.928C510.476 106.463 510.922 106.98 511.374 106.74C511.472 106.686 511.548 106.597 511.594 106.481Z" fill="white" fill-opacity="0.1"/>
<path d="M1161.55 129.401C1161.76 128.866 1161.32 128.349 1160.87 128.59C1160.77 128.643 1160.7 128.733 1160.64 128.848C1160.43 129.383 1160.89 129.9 1161.33 129.66C1161.43 129.606 1161.5 129.517 1161.55 129.401Z" fill="white" fill-opacity="0.1"/>
<path d="M1176.44 30.9881C1176.64 30.4544 1176.2 29.9386 1175.75 30.1788C1175.66 30.232 1175.58 30.3211 1175.54 30.4366C1175.33 30.9702 1175.77 31.495 1176.22 31.246C1176.32 31.1926 1176.4 31.1037 1176.44 30.9881Z" fill="white" fill-opacity="0.1"/>
<path d="M1106.75 247.921C1106.96 247.386 1106.52 246.869 1106.07 247.11C1105.97 247.163 1105.89 247.253 1105.85 247.368C1105.64 247.903 1106.08 248.42 1106.53 248.18C1106.63 248.126 1106.71 248.037 1106.75 247.921Z" fill="white" fill-opacity="0.1"/>
<path d="M226.021 11.4026C226.225 10.869 225.787 10.3532 225.335 10.5933C225.236 10.6467 225.161 10.7356 225.116 10.8512C224.904 11.3848 225.35 11.9096 225.802 11.6606C225.9 11.6072 225.976 11.5182 226.021 11.4026Z" fill="white" fill-opacity="0.1"/>
<path d="M1301.57 94.0076C1301.11 93.7586 1300.68 94.2833 1300.88 94.8169C1300.93 94.9325 1301 95.0215 1301.1 95.0749C1301.56 95.315 1301.99 94.7992 1301.79 94.2656C1301.74 94.1499 1301.67 94.061 1301.57 94.0076Z" fill="white" fill-opacity="0.1"/>
<path d="M792.21 24.5124C792.422 23.9773 791.977 23.4601 791.524 23.7009C791.426 23.7544 791.351 23.8435 791.306 23.9595C791.101 24.4945 791.539 25.0118 791.992 24.7709C792.09 24.7174 792.166 24.6283 792.21 24.5124Z" fill="white" fill-opacity="0.1"/>
<path d="M638.177 336.056C638.382 335.521 637.942 335.004 637.489 335.244C637.39 335.298 637.315 335.387 637.269 335.503C637.065 336.038 637.504 336.555 637.958 336.314C638.057 336.261 638.133 336.171 638.177 336.056Z" fill="white" fill-opacity="0.1"/>
<path d="M699.275 39.2059C699.48 38.6722 699.042 38.1564 698.589 38.3965C698.491 38.4499 698.415 38.5389 698.37 38.6545C698.159 39.1881 698.604 39.7128 699.057 39.4638C699.155 39.4104 699.231 39.3215 699.275 39.2059Z" fill="white" fill-opacity="0.1"/>
<path d="M1133.95 373.648C1134.16 373.113 1133.72 372.596 1133.26 372.837C1133.16 372.89 1133.09 372.98 1133.04 373.095C1132.84 373.63 1133.28 374.147 1133.73 373.907C1133.83 373.853 1133.9 373.764 1133.95 373.648Z" fill="white" fill-opacity="0.8"/>
<path d="M273.701 56.8654C273.913 56.3304 273.468 55.8131 273.015 56.0539C272.917 56.1074 272.841 56.1965 272.795 56.3125C272.592 56.8475 273.03 57.3648 273.483 57.124C273.581 57.0705 273.656 56.9813 273.701 56.8654Z" fill="white" fill-opacity="0.8"/>
<path d="M128.96 69.7926C129.164 69.2576 128.725 68.7403 128.271 68.9812C128.173 69.0347 128.097 69.1238 128.052 69.2397C127.847 69.7748 128.286 70.292 128.74 70.0512C128.838 69.9977 128.914 69.9086 128.96 69.7926Z" fill="white" fill-opacity="0.1"/>
<path d="M277.949 114.076C278.153 113.541 277.714 113.024 277.26 113.265C277.162 113.318 277.086 113.408 277.041 113.524C276.837 114.059 277.275 114.576 277.729 114.335C277.828 114.281 277.903 114.192 277.949 114.076Z" fill="white" fill-opacity="0.1"/>
<path d="M583.573 40.0031C583.777 39.4681 583.338 38.9508 582.884 39.1916C582.786 39.2451 582.71 39.3342 582.665 39.4502C582.461 39.9852 582.899 40.5025 583.353 40.2617C583.451 40.2082 583.527 40.119 583.573 40.0031Z" fill="white" fill-opacity="0.1"/>
<path d="M608.597 510.163C608.808 509.628 608.363 509.111 607.91 509.352C607.812 509.405 607.737 509.495 607.691 509.61C607.487 510.145 607.925 510.662 608.378 510.422C608.476 510.368 608.552 510.279 608.597 510.163Z" fill="white" fill-opacity="0.1"/>
<path d="M1256.29 493.998C1256.49 493.463 1256.06 492.946 1255.6 493.187C1255.5 493.24 1255.43 493.33 1255.38 493.445C1255.18 493.98 1255.61 494.497 1256.07 494.257C1256.17 494.203 1256.24 494.114 1256.29 493.998Z" fill="white" fill-opacity="0.1"/>
<path d="M936.476 82.2428C936.68 81.7078 936.242 81.1906 935.789 81.4313C935.691 81.4848 935.615 81.5741 935.571 81.6899C935.359 82.225 935.804 82.7422 936.257 82.5015C936.355 82.448 936.43 82.3587 936.476 82.2428Z" fill="white" fill-opacity="0.1"/>
<path d="M977.31 46.7091C977.521 46.1741 977.076 45.6568 976.624 45.8977C976.525 45.9512 976.45 46.0403 976.405 46.1562C976.201 46.6914 976.639 47.2085 977.092 46.9678C977.19 46.9143 977.265 46.8251 977.31 46.7091Z" fill="white" fill-opacity="0.1"/>
<path d="M312.972 278.321C313.176 277.786 312.738 277.269 312.285 277.509C312.187 277.563 312.111 277.652 312.067 277.768C311.856 278.303 312.3 278.82 312.753 278.579C312.851 278.526 312.926 278.436 312.972 278.321Z" fill="white" fill-opacity="0.1"/>
<path d="M564.354 104.224C564.558 103.689 564.119 103.171 563.665 103.412C563.567 103.466 563.492 103.555 563.446 103.671C563.242 104.206 563.681 104.723 564.135 104.482C564.233 104.429 564.308 104.34 564.354 104.224Z" fill="white" fill-opacity="0.1"/>
<path d="M1032.65 375.401C1032.86 374.865 1032.41 374.348 1031.96 374.589C1031.86 374.643 1031.79 374.732 1031.74 374.848C1031.54 375.383 1031.97 375.9 1032.43 375.659C1032.53 375.605 1032.6 375.516 1032.65 375.401Z" fill="white" fill-opacity="0.1"/>
<path d="M1250.22 311.685C1250.44 311.15 1249.99 310.633 1249.54 310.874C1249.44 310.927 1249.36 311.017 1249.31 311.132C1249.11 311.667 1249.55 312.184 1250 311.944C1250.1 311.89 1250.17 311.801 1250.22 311.685Z" fill="white" fill-opacity="0.8"/>
<path d="M1262.43 243.182C1262.63 242.647 1262.2 242.13 1261.74 242.371C1261.64 242.424 1261.57 242.514 1261.52 242.629C1261.32 243.164 1261.75 243.682 1262.21 243.441C1262.31 243.387 1262.38 243.299 1262.43 243.182Z" fill="white" fill-opacity="0.1"/>
<path d="M493.044 200.868C492.839 200.333 493.278 199.816 493.732 200.056C493.83 200.11 493.906 200.199 493.952 200.315C494.156 200.85 493.717 201.367 493.263 201.126C493.165 201.073 493.089 200.983 493.044 200.868Z" fill="white" fill-opacity="0.1"/>
<path d="M815.571 446.335C815.367 445.8 815.806 445.283 816.26 445.524C816.358 445.577 816.433 445.667 816.479 445.782C816.683 446.317 816.244 446.834 815.79 446.594C815.692 446.54 815.617 446.451 815.571 446.335Z" fill="white" fill-opacity="0.1"/>
<path d="M433.391 428.434C433.187 427.899 433.625 427.38 434.078 427.622C434.176 427.675 434.252 427.764 434.296 427.881C434.507 428.416 434.063 428.933 433.61 428.692C433.512 428.639 433.437 428.549 433.391 428.434Z" fill="white" fill-opacity="0.1"/>
<path d="M720.532 448.718C720.328 448.183 720.766 447.666 721.22 447.906C721.318 447.96 721.394 448.049 721.44 448.165C721.644 448.7 721.205 449.217 720.751 448.976C720.653 448.923 720.577 448.833 720.532 448.718Z" fill="white" fill-opacity="0.1"/>
<path d="M850.959 465.398C850.755 464.864 851.192 464.348 851.645 464.589C851.743 464.643 851.819 464.731 851.864 464.847C852.075 465.38 851.63 465.905 851.177 465.656C851.079 465.603 851.004 465.514 850.959 465.398Z" fill="white" fill-opacity="0.1"/>
<path d="M390.832 326.06C390.629 325.525 391.065 325.008 391.518 325.248C391.616 325.302 391.692 325.391 391.738 325.507C391.949 326.042 391.503 326.559 391.051 326.318C390.953 326.265 390.877 326.175 390.832 326.06Z" fill="white" fill-opacity="0.1"/>
<path d="M333.516 132.139C333.97 131.89 334.409 132.414 334.204 132.948C334.159 133.064 334.083 133.152 333.985 133.205C333.531 133.446 333.092 132.93 333.296 132.396C333.342 132.281 333.418 132.191 333.516 132.139Z" fill="white" fill-opacity="0.1"/>
<path d="M243.312 311.975C243.108 311.44 243.546 310.923 243.999 311.163C244.097 311.217 244.173 311.305 244.217 311.422C244.428 311.957 243.984 312.474 243.531 312.233C243.433 312.18 243.358 312.09 243.312 311.975Z" fill="white" fill-opacity="0.1"/>
<path d="M1057.5 39.0104C1057.29 38.4754 1057.74 37.9581 1058.19 38.1989C1058.29 38.2524 1058.36 38.3416 1058.41 38.4575C1058.61 38.9925 1058.18 39.5098 1057.72 39.269C1057.63 39.2155 1057.55 39.1263 1057.5 39.0104Z" fill="white" fill-opacity="0.8"/>
<path d="M1173.99 359.892C1173.79 359.359 1174.23 358.834 1174.68 359.083C1174.78 359.136 1174.86 359.225 1174.9 359.341C1175.1 359.875 1174.67 360.39 1174.21 360.15C1174.11 360.096 1174.04 360.008 1173.99 359.892Z" fill="white" fill-opacity="0.1"/>
<path d="M1211.18 412.933C1210.96 412.398 1211.41 411.881 1211.86 412.122C1211.97 412.175 1212.04 412.264 1212.09 412.38C1212.29 412.915 1211.85 413.433 1211.4 413.192C1211.3 413.138 1211.23 413.049 1211.18 412.933Z" fill="white" fill-opacity="0.8"/>
<path d="M1302.9 152.012C1302.7 151.477 1303.13 150.96 1303.59 151.201C1303.69 151.254 1303.76 151.344 1303.81 151.459C1304.02 151.994 1303.58 152.512 1303.12 152.271C1303.02 152.217 1302.95 152.128 1302.9 152.012Z" fill="white" fill-opacity="0.1"/>
<path d="M1279.08 118.257C1278.87 117.721 1279.31 117.204 1279.76 117.445C1279.86 117.499 1279.94 117.588 1279.98 117.704C1280.18 118.239 1279.75 118.756 1279.29 118.515C1279.2 118.462 1279.12 118.372 1279.08 118.257Z" fill="white" fill-opacity="0.8"/>
<path d="M1208.87 279.512C1208.66 278.977 1209.1 278.46 1209.56 278.701C1209.66 278.754 1209.73 278.844 1209.78 278.959C1209.98 279.494 1209.55 280.012 1209.09 279.771C1208.99 279.717 1208.92 279.628 1208.87 279.512Z" fill="white" fill-opacity="0.1"/>
<path d="M898.478 1.87225C898.274 1.33719 898.712 0.819961 899.165 1.06074C899.263 1.11424 899.339 1.20341 899.383 1.31934C899.595 1.8544 899.15 2.37163 898.697 2.13085C898.599 2.07735 898.524 1.98818 898.478 1.87225Z" fill="white" fill-opacity="0.1"/>
<path d="M874.58 14.3571C874.375 13.8221 874.814 13.3048 875.268 13.5456C875.367 13.5991 875.442 13.6884 875.488 13.8042C875.692 14.3393 875.253 14.8565 874.799 14.6158C874.701 14.5623 874.625 14.473 874.58 14.3571Z" fill="white" fill-opacity="0.1"/>
<path d="M317.082 407.011C316.878 406.476 317.316 405.958 317.77 406.2C317.869 406.252 317.945 406.342 317.99 406.458C318.194 406.993 317.755 407.511 317.301 407.27C317.203 407.216 317.127 407.127 317.082 407.011Z" fill="white" fill-opacity="0.1"/>
<path d="M193.773 260.448C193.562 259.914 194.007 259.39 194.46 259.639C194.558 259.691 194.633 259.781 194.679 259.896C194.882 260.43 194.445 260.946 193.992 260.705C193.894 260.652 193.818 260.564 193.773 260.448Z" fill="white" fill-opacity="0.1"/>
<path d="M229.152 235.928C228.941 235.393 229.386 234.876 229.838 235.116C229.936 235.17 230.012 235.259 230.058 235.375C230.261 235.91 229.823 236.427 229.371 236.186C229.273 236.133 229.197 236.043 229.152 235.928Z" fill="white" fill-opacity="0.8"/>
<path d="M406.255 263.01C406.052 262.475 406.49 261.958 406.943 262.198C407.041 262.252 407.116 262.341 407.161 262.457C407.372 262.992 406.928 263.509 406.475 263.268C406.377 263.215 406.301 263.125 406.255 263.01Z" fill="white" fill-opacity="0.1"/>
<path d="M151.305 135.33C151.102 134.795 151.539 134.278 151.992 134.519C152.09 134.572 152.166 134.662 152.211 134.777C152.422 135.312 151.977 135.829 151.524 135.589C151.426 135.535 151.351 135.446 151.305 135.33Z" fill="white" fill-opacity="0.1"/>
<path d="M1323.05 204.39C1322.85 203.855 1323.28 203.338 1323.74 203.578C1323.84 203.632 1323.91 203.721 1323.96 203.837C1324.16 204.372 1323.72 204.889 1323.27 204.648C1323.17 204.595 1323.09 204.505 1323.05 204.39Z" fill="white" fill-opacity="0.1"/>
<path d="M1368.64 163.272C1368.18 163.514 1367.75 162.995 1367.95 162.46C1368 162.345 1368.07 162.255 1368.17 162.202C1368.63 161.961 1369.06 162.478 1368.86 163.013C1368.81 163.13 1368.74 163.219 1368.64 163.272Z" fill="white" fill-opacity="0.8"/>
<path d="M1344.03 124.861C1343.58 125.11 1343.14 124.585 1343.34 124.052C1343.39 123.936 1343.46 123.848 1343.57 123.794C1344.02 123.554 1344.45 124.069 1344.25 124.603C1344.2 124.719 1344.13 124.808 1344.03 124.861Z" fill="white" fill-opacity="0.1"/>
<path d="M947.847 23.8332C947.643 23.2981 948.082 22.7809 948.536 23.0216C948.634 23.0753 948.71 23.1644 948.755 23.2803C948.96 23.8154 948.521 24.3326 948.067 24.0918C947.969 24.0383 947.893 23.9492 947.847 23.8332Z" fill="white" fill-opacity="0.1"/>
<path d="M340.647 244.848C340.444 244.313 340.881 243.796 341.334 244.036C341.432 244.09 341.507 244.178 341.553 244.295C341.764 244.83 341.319 245.347 340.866 245.106C340.768 245.053 340.692 244.963 340.647 244.848Z" fill="white" fill-opacity="0.1"/>
<path d="M639.647 14.9796C639.443 14.4446 639.882 13.9274 640.336 14.1682C640.434 14.2217 640.51 14.3108 640.555 14.4267C640.759 14.9618 640.32 15.479 639.867 15.2382C639.768 15.1847 639.693 15.0956 639.647 14.9796Z" fill="white" fill-opacity="0.1"/>
<path d="M586.412 84.0891C586.209 83.554 586.647 83.0368 587.1 83.2775C587.198 83.331 587.273 83.4203 587.318 83.5362C587.53 84.0712 587.085 84.5885 586.632 84.3477C586.534 84.2942 586.458 84.205 586.412 84.0891Z" fill="white" fill-opacity="0.1"/>
<path d="M681.786 84.427C681.582 83.8918 682.021 83.3747 682.475 83.6154C682.573 83.6689 682.648 83.7582 682.694 83.874C682.898 84.4091 682.459 84.9263 682.005 84.6856C681.906 84.6321 681.832 84.5428 681.786 84.427Z" fill="white" fill-opacity="0.1"/>
<path d="M515.818 432.985C515.614 432.45 516.053 431.933 516.507 432.174C516.605 432.228 516.681 432.317 516.726 432.433C516.93 432.968 516.491 433.485 516.038 433.244C515.939 433.19 515.864 433.101 515.818 432.985Z" fill="white" fill-opacity="0.1"/>
<path d="M1204.33 439.164C1204.12 438.629 1204.56 438.112 1205.02 438.353C1205.11 438.406 1205.19 438.496 1205.23 438.611C1205.43 439.146 1205 439.665 1204.54 439.423C1204.45 439.37 1204.37 439.281 1204.33 439.164Z" fill="white" fill-opacity="0.8"/>
<path d="M688.178 461.825C687.974 461.29 688.413 460.773 688.867 461.014C688.965 461.067 689.041 461.157 689.086 461.272C689.291 461.807 688.852 462.325 688.398 462.084C688.3 462.03 688.224 461.941 688.178 461.825Z" fill="white" fill-opacity="0.1"/>
<path d="M756.93 496.381C756.726 495.846 757.165 495.329 757.619 495.57C757.717 495.624 757.793 495.713 757.838 495.829C758.043 496.364 757.604 496.881 757.15 496.64C757.052 496.586 756.976 496.497 756.93 496.381Z" fill="white" fill-opacity="0.8"/>
<path d="M879.856 415.069C879.651 414.534 880.091 414.017 880.545 414.257C880.643 414.311 880.719 414.399 880.764 414.516C880.969 415.051 880.53 415.568 880.076 415.328C879.977 415.274 879.901 415.185 879.856 415.069Z" fill="white" fill-opacity="0.8"/>
<path d="M635.603 467.783C635.399 467.248 635.838 466.731 636.292 466.972C636.39 467.025 636.466 467.115 636.511 467.23C636.715 467.765 636.277 468.283 635.823 468.042C635.725 467.988 635.649 467.899 635.603 467.783Z" fill="white" fill-opacity="0.8"/>
<path d="M677.056 509.489C676.852 508.954 677.29 508.437 677.743 508.677C677.841 508.731 677.917 508.82 677.961 508.936C678.173 509.471 677.728 509.988 677.275 509.747C677.177 509.694 677.102 509.604 677.056 509.489Z" fill="white" fill-opacity="0.1"/>
<path d="M401.026 88.966C400.822 88.431 401.26 87.9137 401.713 88.1545C401.811 88.208 401.887 88.2971 401.931 88.4131C402.142 88.9481 401.698 89.4654 401.245 89.2245C401.147 89.171 401.072 89.0819 401.026 88.966Z" fill="white" fill-opacity="0.1"/>
<path d="M994.872 422.483C994.668 421.948 995.105 421.43 995.558 421.671C995.656 421.725 995.732 421.814 995.777 421.93C995.988 422.465 995.543 422.982 995.09 422.741C994.992 422.689 994.916 422.599 994.872 422.483Z" fill="white" fill-opacity="0.1"/>
<path d="M960.046 407.295C959.834 406.76 960.279 406.243 960.732 406.484C960.83 406.537 960.905 406.627 960.95 406.742C961.155 407.277 960.717 407.794 960.264 407.554C960.166 407.5 960.09 407.412 960.046 407.295Z" fill="white" fill-opacity="0.1"/>
<path d="M1137.09 192.528C1136.88 191.994 1137.32 191.47 1137.78 191.719C1137.88 191.771 1137.95 191.86 1138 191.976C1138.2 192.51 1137.76 193.026 1137.31 192.785C1137.21 192.731 1137.14 192.643 1137.09 192.528Z" fill="white" fill-opacity="0.1"/>
<path d="M1067.97 70.3976C1067.77 69.8626 1068.21 69.3453 1068.66 69.5861C1068.76 69.6396 1068.83 69.7288 1068.88 69.8447C1069.08 70.3797 1068.64 70.897 1068.19 70.6562C1068.09 70.6027 1068.02 70.5136 1067.97 70.3976Z" fill="white" fill-opacity="0.8"/>
<path d="M1014.75 86.4753C1014.55 85.9402 1014.98 85.423 1015.44 85.6638C1015.53 85.7173 1015.61 85.8064 1015.65 85.9223C1015.87 86.4574 1015.42 86.9746 1014.97 86.7338C1014.87 86.6803 1014.8 86.5912 1014.75 86.4753Z" fill="white" fill-opacity="0.1"/>
<path d="M1087.39 422.104C1087.18 421.569 1087.62 421.052 1088.08 421.293C1088.17 421.346 1088.25 421.436 1088.3 421.551C1088.5 422.086 1088.06 422.603 1087.61 422.363C1087.51 422.309 1087.43 422.22 1087.39 422.104Z" fill="white" fill-opacity="0.1"/>
<path d="M1073.81 112.521C1073.6 111.986 1074.05 111.469 1074.5 111.71C1074.6 111.763 1074.67 111.852 1074.72 111.968C1074.92 112.503 1074.49 113.021 1074.03 112.78C1073.94 112.726 1073.86 112.637 1073.81 112.521Z" fill="white" fill-opacity="0.1"/>
<path d="M1131.02 66.2157C1130.82 65.682 1131.25 65.1662 1131.71 65.4063C1131.81 65.4596 1131.88 65.5487 1131.93 65.6642C1132.14 66.1978 1131.69 66.7226 1131.24 66.4736C1131.14 66.4202 1131.07 66.3313 1131.02 66.2157Z" fill="white" fill-opacity="0.1"/>
<path d="M1178.09 291.743C1177.88 291.208 1178.32 290.691 1178.77 290.931C1178.87 290.985 1178.94 291.074 1179 291.19C1179.21 291.725 1178.76 292.242 1178.31 292.001C1178.21 291.948 1178.14 291.858 1178.09 291.743Z" fill="white" fill-opacity="0.1"/>
<path d="M1152.01 234.854C1151.81 234.319 1152.24 233.802 1152.7 234.043C1152.8 234.096 1152.87 234.186 1152.92 234.301C1153.12 234.836 1152.69 235.353 1152.23 235.113C1152.13 235.059 1152.05 234.97 1152.01 234.854Z" fill="white" fill-opacity="0.1"/>
<path d="M1266.5 371.265C1266.29 370.73 1266.73 370.213 1267.19 370.453C1267.29 370.507 1267.36 370.596 1267.41 370.712C1267.61 371.247 1267.18 371.764 1266.72 371.523C1266.62 371.47 1266.55 371.38 1266.5 371.265Z" fill="white" fill-opacity="0.1"/>
<path d="M1129 324.793C1128.8 324.258 1129.23 323.741 1129.69 323.982C1129.78 324.035 1129.86 324.125 1129.9 324.24C1130.12 324.775 1129.67 325.292 1129.22 325.052C1129.12 324.998 1129.05 324.909 1129 324.793Z" fill="white" fill-opacity="0.1"/>
<path d="M1297.55 333.944C1297.35 333.409 1297.78 332.892 1298.24 333.132C1298.33 333.186 1298.41 333.274 1298.45 333.391C1298.66 333.926 1298.22 334.443 1297.76 334.203C1297.67 334.149 1297.59 334.06 1297.55 333.944Z" fill="white" fill-opacity="0.1"/>
<path d="M336.175 334.035C335.972 333.5 336.41 332.983 336.863 333.223C336.961 333.277 337.036 333.366 337.081 333.482C337.292 334.017 336.848 334.534 336.395 334.293C336.297 334.24 336.221 334.152 336.175 334.035Z" fill="white" fill-opacity="0.1"/>
<path d="M1138.27 427.32C1138.06 426.783 1138.5 426.266 1138.96 426.507C1139.06 426.561 1139.13 426.65 1139.18 426.767C1139.38 427.302 1138.94 427.819 1138.49 427.578C1138.39 427.525 1138.31 427.435 1138.27 427.32Z" fill="white" fill-opacity="0.1"/>
<path d="M896.456 461.825C896.252 461.29 896.691 460.773 897.144 461.014C897.243 461.067 897.318 461.157 897.364 461.272C897.568 461.807 897.129 462.325 896.675 462.084C896.577 462.03 896.501 461.941 896.456 461.825Z" fill="white" fill-opacity="0.1"/>
<path d="M1122.79 484.678C1122.57 484.143 1123.02 483.626 1123.47 483.866C1123.57 483.92 1123.64 484.008 1123.69 484.125C1123.89 484.66 1123.46 485.177 1123 484.936C1122.91 484.883 1122.83 484.793 1122.79 484.678Z" fill="white" fill-opacity="0.8"/>
<path d="M991.54 124.606C991.752 124.071 991.307 123.553 990.854 123.794C990.756 123.848 990.681 123.937 990.636 124.053C990.431 124.588 990.869 125.105 991.322 124.864C991.42 124.811 991.496 124.721 991.54 124.606Z" fill="white" fill-opacity="0.8"/>
<path d="M1113.88 244.956C1114.09 244.421 1113.65 243.904 1113.19 244.145C1113.09 244.198 1113.02 244.288 1112.97 244.403C1112.77 244.938 1113.21 245.455 1113.66 245.215C1113.76 245.161 1113.84 245.072 1113.88 244.956Z" fill="white" fill-opacity="0.1"/>
<path d="M1068.77 163.892C1068.56 163.357 1069 162.84 1069.46 163.08C1069.56 163.134 1069.63 163.222 1069.68 163.339C1069.88 163.874 1069.44 164.391 1068.99 164.15C1068.89 164.097 1068.82 164.007 1068.77 163.892Z" fill="white" fill-opacity="0.8"/>
<path d="M1061.92 190.122C1061.71 189.587 1062.15 189.07 1062.61 189.311C1062.7 189.364 1062.78 189.454 1062.83 189.569C1063.03 190.104 1062.59 190.623 1062.14 190.381C1062.04 190.328 1061.97 190.239 1061.92 190.122Z" fill="white" fill-opacity="0.8"/>
<path d="M1124.1 122.223C1123.89 121.688 1124.33 121.171 1124.78 121.411C1124.88 121.465 1124.96 121.554 1125 121.67C1125.21 122.205 1124.77 122.722 1124.32 122.481C1124.22 122.428 1124.14 122.338 1124.1 122.223Z" fill="white" fill-opacity="0.1"/>
<path d="M995.859 178.278C995.655 177.741 996.094 177.224 996.548 177.465C996.647 177.519 996.723 177.608 996.767 177.725C996.971 178.26 996.532 178.777 996.079 178.536C995.98 178.483 995.905 178.393 995.859 178.278Z" fill="white" fill-opacity="0.1"/>
<path d="M980.376 235.636C980.165 235.101 980.61 234.584 981.063 234.824C981.161 234.878 981.236 234.966 981.281 235.083C981.485 235.618 981.048 236.135 980.595 235.894C980.497 235.841 980.421 235.751 980.376 235.636Z" fill="white" fill-opacity="0.8"/>
<path d="M1066.5 348.639C1066.29 348.104 1066.73 347.587 1067.18 347.827C1067.28 347.881 1067.36 347.969 1067.4 348.086C1067.61 348.621 1067.17 349.138 1066.72 348.897C1066.62 348.844 1066.54 348.754 1066.5 348.639Z" fill="white" fill-opacity="0.1"/>
<path d="M1325.97 281.011C1325.77 280.476 1326.21 279.959 1326.66 280.2C1326.75 280.253 1326.83 280.343 1326.87 280.458C1327.08 280.993 1326.64 281.511 1326.2 281.27C1326.09 281.216 1326.01 281.127 1325.97 281.011Z" fill="white" fill-opacity="0.1"/>
<path d="M1407.73 92.6884C1407.27 92.9375 1406.84 92.4127 1407.04 91.8791C1407.09 91.7635 1407.16 91.6745 1407.26 91.6211C1407.72 91.381 1408.15 91.8969 1407.95 92.4304C1407.9 92.5461 1407.83 92.635 1407.73 92.6884Z" fill="white" fill-opacity="0.1"/>
<path d="M912.849 168.694C913.054 168.159 912.615 167.642 912.161 167.883C912.063 167.937 911.987 168.026 911.941 168.142C911.737 168.677 912.176 169.194 912.63 168.953C912.728 168.899 912.804 168.81 912.849 168.694Z" fill="white" fill-opacity="0.8"/>
<path d="M892.758 325.827C892.969 325.292 892.523 324.775 892.071 325.016C891.973 325.069 891.897 325.158 891.852 325.274C891.649 325.809 892.087 326.327 892.538 326.086C892.637 326.032 892.712 325.943 892.758 325.827Z" fill="white" fill-opacity="0.1"/>
<path d="M848.94 179.693C849.143 179.158 848.705 178.641 848.252 178.882C848.154 178.935 848.079 179.024 848.034 179.14C847.822 179.675 848.267 180.193 848.72 179.952C848.818 179.899 848.894 179.81 848.94 179.693Z" fill="white" fill-opacity="0.1"/>
<path d="M924.982 215.167C925.186 214.632 924.747 214.114 924.293 214.355C924.195 214.409 924.12 214.498 924.074 214.614C923.87 215.149 924.309 215.666 924.763 215.425C924.861 215.372 924.936 215.282 924.982 215.167Z" fill="white" fill-opacity="0.1"/>
<path d="M672.906 285.47C673.117 284.935 672.672 284.418 672.219 284.659C672.121 284.712 672.046 284.802 672.001 284.917C671.797 285.452 672.234 285.97 672.687 285.729C672.785 285.675 672.861 285.586 672.906 285.47Z" fill="white" fill-opacity="0.1"/>
<path d="M844.094 371.265C844.306 370.73 843.861 370.213 843.408 370.453C843.31 370.507 843.235 370.596 843.189 370.712C842.985 371.247 843.423 371.764 843.876 371.523C843.974 371.47 844.05 371.38 844.094 371.265Z" fill="white" fill-opacity="0.1"/>
<path d="M1003.84 391.522C1004.05 390.987 1003.61 390.469 1003.16 390.71C1003.06 390.764 1002.98 390.853 1002.94 390.969C1002.73 391.504 1003.17 392.021 1003.63 391.78C1003.72 391.727 1003.8 391.637 1003.84 391.522Z" fill="white" fill-opacity="0.1"/>
<path d="M625.706 171.078C625.917 170.543 625.472 170.026 625.019 170.266C624.921 170.32 624.846 170.409 624.801 170.525C624.597 171.06 625.034 171.577 625.487 171.336C625.585 171.283 625.661 171.193 625.706 171.078Z" fill="white" fill-opacity="0.8"/>
<path d="M620.637 330.779C620.841 330.244 620.403 329.727 619.95 329.968C619.852 330.022 619.777 330.111 619.732 330.226C619.521 330.762 619.965 331.279 620.418 331.038C620.516 330.984 620.592 330.895 620.637 330.779Z" fill="white" fill-opacity="0.1"/>
<path d="M804.69 190.662C804.894 190.128 804.456 189.612 804.003 189.851C803.905 189.905 803.83 189.994 803.784 190.11C803.573 190.644 804.018 191.168 804.471 190.919C804.569 190.865 804.645 190.777 804.69 190.662Z" fill="white" fill-opacity="0.1"/>
<path d="M735.003 407.594C735.206 407.059 734.769 406.542 734.317 406.782C734.218 406.836 734.143 406.925 734.097 407.041C733.886 407.576 734.331 408.093 734.784 407.852C734.882 407.799 734.958 407.709 735.003 407.594Z" fill="white" fill-opacity="0.1"/>
<path d="M929.818 253.681C929.364 253.432 928.925 253.956 929.13 254.49C929.175 254.606 929.251 254.694 929.349 254.747C929.803 254.988 930.242 254.472 930.038 253.938C929.992 253.823 929.916 253.733 929.818 253.681Z" fill="white" fill-opacity="0.1"/>
<path d="M564.726 241.916C564.93 241.381 564.492 240.863 564.039 241.104C563.941 241.158 563.865 241.247 563.821 241.363C563.609 241.898 564.054 242.415 564.507 242.174C564.605 242.121 564.68 242.032 564.726 241.916Z" fill="white" fill-opacity="0.1"/>
<path d="M605.561 206.382C605.772 205.847 605.327 205.33 604.874 205.57C604.776 205.624 604.7 205.713 604.655 205.829C604.451 206.364 604.889 206.881 605.342 206.641C605.44 206.587 605.515 206.498 605.561 206.382Z" fill="white" fill-opacity="0.1"/>
<path d="M890.676 402.855C890.88 402.32 890.442 401.803 889.988 402.044C889.89 402.097 889.814 402.187 889.768 402.302C889.564 402.837 890.003 403.354 890.457 403.114C890.556 403.06 890.631 402.972 890.676 402.855Z" fill="white" fill-opacity="0.1"/>
<path d="M685.754 198.683C685.543 198.148 685.988 197.631 686.441 197.872C686.539 197.925 686.615 198.015 686.66 198.13C686.864 198.665 686.426 199.182 685.974 198.942C685.876 198.888 685.8 198.799 685.754 198.683Z" fill="white" fill-opacity="0.8"/>
<path d="M931.151 311.685C930.947 311.15 931.385 310.633 931.838 310.874C931.936 310.927 932.012 311.017 932.056 311.132C932.267 311.667 931.823 312.184 931.37 311.944C931.272 311.89 931.197 311.801 931.151 311.685Z" fill="white" fill-opacity="0.1"/>
<path d="M907.326 277.929C907.114 277.394 907.559 276.877 908.012 277.117C908.11 277.171 908.185 277.26 908.231 277.376C908.435 277.911 907.997 278.428 907.544 278.187C907.446 278.135 907.37 278.046 907.326 277.929Z" fill="white" fill-opacity="0.8"/>
<path d="M951.3 364.063C951.097 363.528 951.535 363.01 951.988 363.251C952.086 363.305 952.161 363.394 952.206 363.51C952.417 364.045 951.973 364.562 951.52 364.321C951.422 364.268 951.346 364.178 951.3 364.063Z" fill="white" fill-opacity="0.1"/>
<path d="M996.891 322.945C996.437 323.187 995.998 322.668 996.202 322.133C996.247 322.018 996.323 321.928 996.421 321.875C996.875 321.634 997.314 322.151 997.11 322.686C997.064 322.803 996.99 322.892 996.891 322.945Z" fill="white" fill-opacity="0.8"/>
<path d="M972.282 284.534C971.828 284.783 971.389 284.258 971.594 283.724C971.639 283.609 971.715 283.521 971.813 283.467C972.267 283.226 972.706 283.742 972.501 284.276C972.456 284.392 972.38 284.481 972.282 284.534Z" fill="white" fill-opacity="0.1"/>
<path d="M576.097 183.506C575.893 182.971 576.332 182.454 576.786 182.694C576.884 182.748 576.96 182.837 577.005 182.953C577.21 183.488 576.771 184.005 576.317 183.765C576.219 183.711 576.143 183.622 576.097 183.506Z" fill="white" fill-opacity="0.1"/>
<path d="M765.34 352.201C765.129 351.667 765.575 351.142 766.028 351.391C766.126 351.444 766.201 351.533 766.246 351.649C766.45 352.183 766.013 352.699 765.56 352.458C765.461 352.404 765.386 352.316 765.34 352.201Z" fill="white" fill-opacity="0.1"/>
<path d="M696.221 230.071C696.016 229.536 696.455 229.019 696.909 229.259C697.008 229.313 697.083 229.402 697.129 229.518C697.333 230.053 696.894 230.57 696.44 230.329C696.341 230.276 696.265 230.186 696.221 230.071Z" fill="white" fill-opacity="0.8"/>
<path d="M643 246.148C642.796 245.613 643.233 245.096 643.686 245.337C643.784 245.39 643.86 245.48 643.905 245.595C644.116 246.13 643.671 246.647 643.218 246.407C643.12 246.353 643.045 246.264 643 246.148Z" fill="white" fill-opacity="0.1"/>
<path d="M702.064 272.193C701.852 271.658 702.298 271.141 702.751 271.382C702.849 271.436 702.924 271.525 702.97 271.641C703.174 272.176 702.736 272.693 702.283 272.452C702.185 272.4 702.109 272.31 702.064 272.193Z" fill="white" fill-opacity="0.1"/>
<path d="M590.105 267.594C589.901 267.06 590.339 266.544 590.792 266.785C590.89 266.839 590.966 266.927 591.01 267.042C591.222 267.576 590.777 268.1 590.324 267.851C590.226 267.799 590.151 267.71 590.105 267.594Z" fill="white" fill-opacity="0.1"/>
<path d="M780.26 394.527C780.055 393.992 780.494 393.475 780.948 393.715C781.047 393.769 781.122 393.858 781.167 393.974C781.372 394.509 780.933 395.026 780.479 394.786C780.381 394.732 780.305 394.643 780.26 394.527Z" fill="white" fill-opacity="0.1"/>
<path d="M1035.98 252.361C1035.53 252.61 1035.09 252.085 1035.29 251.552C1035.34 251.436 1035.41 251.348 1035.51 251.294C1035.96 251.054 1036.4 251.569 1036.2 252.103C1036.15 252.219 1036.08 252.308 1035.98 252.361Z" fill="white" fill-opacity="0.1"/>
<path d="M358.576 292.62C358.364 292.085 358.809 291.568 359.262 291.809C359.36 291.862 359.435 291.952 359.481 292.067C359.685 292.602 359.247 293.12 358.794 292.879C358.696 292.825 358.62 292.736 358.576 292.62Z" fill="white" fill-opacity="0.1"/>
<path d="M565.843 466.592C565.632 466.057 566.077 465.54 566.53 465.78C566.628 465.834 566.703 465.923 566.748 466.039C566.952 466.574 566.515 467.091 566.062 466.85C565.964 466.797 565.888 466.707 565.843 466.592Z" fill="white" fill-opacity="0.1"/>
<path d="M467.77 460.634C467.559 460.099 468.004 459.582 468.456 459.822C468.555 459.876 468.629 459.965 468.675 460.081C468.879 460.616 468.441 461.133 467.988 460.892C467.89 460.839 467.814 460.749 467.77 460.634Z" fill="white" fill-opacity="0.8"/>
<path d="M561.798 422.503C561.587 421.968 562.032 421.451 562.485 421.692C562.583 421.745 562.658 421.835 562.703 421.95C562.907 422.485 562.47 423.002 562.017 422.762C561.919 422.708 561.843 422.619 561.798 422.503Z" fill="white" fill-opacity="0.1"/>
<path d="M443.667 327.356C443.456 326.821 443.902 326.303 444.354 326.544C444.452 326.598 444.528 326.687 444.573 326.803C444.776 327.338 444.339 327.855 443.887 327.614C443.789 327.561 443.713 327.471 443.667 327.356Z" fill="white" fill-opacity="0.1"/>
<path d="M560.661 324.874C560.449 324.339 560.894 323.822 561.347 324.063C561.445 324.116 561.521 324.206 561.566 324.321C561.77 324.856 561.332 325.373 560.879 325.133C560.781 325.079 560.706 324.991 560.661 324.874Z" fill="white" fill-opacity="0.1"/>
<path d="M492.572 396.758C492.368 396.223 492.807 395.706 493.261 395.946C493.359 396 493.434 396.089 493.48 396.205C493.684 396.74 493.245 397.257 492.791 397.016C492.692 396.963 492.618 396.874 492.572 396.758Z" fill="white" fill-opacity="0.1"/>
<path d="M858.943 51.9191C859.148 51.3841 858.71 50.8668 858.257 51.1076C858.159 51.1611 858.083 51.2503 858.039 51.3662C857.827 51.9012 858.272 52.4185 858.725 52.1777C858.823 52.1242 858.898 52.035 858.943 51.9191Z" fill="white" fill-opacity="0.1"/>
<path d="M828.612 157.97C828.817 157.435 828.379 156.918 827.926 157.159C827.828 157.212 827.752 157.302 827.707 157.417C827.496 157.952 827.941 158.47 828.394 158.229C828.492 158.175 828.567 158.086 828.612 157.97Z" fill="white" fill-opacity="0.8"/>
<path d="M732.665 101.938C732.461 101.403 732.898 100.885 733.351 101.126C733.449 101.18 733.525 101.269 733.57 101.385C733.781 101.92 733.336 102.437 732.883 102.196C732.785 102.143 732.71 102.054 732.665 101.938Z" fill="white" fill-opacity="0.1"/>
<path d="M815.091 106.49C814.886 105.955 815.325 105.438 815.779 105.678C815.877 105.732 815.953 105.821 815.999 105.937C816.203 106.472 815.764 106.989 815.31 106.749C815.212 106.695 815.136 106.606 815.091 106.49Z" fill="white" fill-opacity="0.1"/>
<path d="M865.117 140.097C864.905 139.562 865.35 139.045 865.803 139.285C865.901 139.339 865.976 139.428 866.021 139.544C866.226 140.079 865.788 140.596 865.335 140.355C865.237 140.302 865.161 140.212 865.117 140.097Z" fill="white" fill-opacity="0.1"/>
<path d="M767.044 134.139C766.832 133.604 767.277 133.087 767.73 133.327C767.828 133.381 767.903 133.47 767.948 133.586C768.153 134.121 767.715 134.638 767.262 134.397C767.164 134.344 767.088 134.254 767.044 134.139Z" fill="white" fill-opacity="0.8"/>
<path d="M861.072 96.008C860.86 95.4729 861.305 94.9557 861.758 95.1965C861.856 95.25 861.931 95.3391 861.977 95.4551C862.181 95.9901 861.743 96.5074 861.29 96.2665C861.192 96.213 861.116 96.1239 861.072 96.008Z" fill="white" fill-opacity="0.1"/>
<path d="M791.845 70.2623C791.641 69.7273 792.08 69.2101 792.534 69.4508C792.632 69.5043 792.708 69.5936 792.753 69.7094C792.958 70.2446 792.519 70.7617 792.065 70.521C791.966 70.4675 791.891 70.3783 791.845 70.2623Z" fill="white" fill-opacity="0.1"/>
<path d="M329.519 375.475C329.315 374.94 329.754 374.423 330.208 374.663C330.306 374.717 330.382 374.806 330.427 374.922C330.631 375.457 330.192 375.974 329.738 375.733C329.639 375.68 329.565 375.59 329.519 375.475Z" fill="white" fill-opacity="0.8"/>
<path d="M211.969 93.6247C211.765 93.0896 212.204 92.5724 212.658 92.8132C212.756 92.8667 212.832 92.9558 212.877 93.0718C213.082 93.6068 212.643 94.1241 212.189 93.8832C212.09 93.8297 212.015 93.7406 211.969 93.6247Z" fill="white" fill-opacity="0.1"/>
<path d="M457.441 34.0232C457.237 33.4896 457.675 32.9738 458.128 33.2139C458.226 33.2673 458.302 33.3563 458.347 33.4719C458.558 34.0055 458.113 34.5302 457.66 34.2812C457.562 34.2278 457.487 34.1389 457.441 34.0232Z" fill="white" fill-opacity="0.1"/>
<path d="M348.896 11.9152C348.692 11.3801 349.131 10.8629 349.585 11.1037C349.683 11.1572 349.758 11.2464 349.804 11.3623C350.008 11.8974 349.569 12.4146 349.115 12.1738C349.016 12.1203 348.942 12.0311 348.896 11.9152Z" fill="white" fill-opacity="0.1"/>
<path d="M349.465 46.0685C349.254 45.5335 349.699 45.0162 350.152 45.257C350.25 45.3105 350.325 45.3997 350.37 45.5156C350.574 46.0506 350.137 46.5679 349.684 46.3271C349.586 46.2736 349.51 46.1845 349.465 46.0685Z" fill="white" fill-opacity="0.1"/>
<path d="M516.301 67.4098C516.09 66.8748 516.535 66.3575 516.988 66.5984C517.086 66.6519 517.16 66.741 517.206 66.8569C517.41 67.392 516.972 67.9092 516.519 67.6684C516.421 67.6149 516.346 67.5258 516.301 67.4098Z" fill="white" fill-opacity="0.1"/>
<path d="M256.456 173.461C256.252 172.926 256.691 172.409 257.145 172.65C257.243 172.703 257.318 172.793 257.364 172.908C257.568 173.443 257.129 173.96 256.675 173.72C256.577 173.666 256.501 173.577 256.456 173.461Z" fill="white" fill-opacity="0.1"/>
<path d="M203.597 158.492C203.393 157.957 203.831 157.44 204.284 157.681C204.382 157.734 204.458 157.824 204.503 157.939C204.714 158.474 204.269 158.992 203.816 158.751C203.718 158.697 203.643 158.608 203.597 158.492Z" fill="white" fill-opacity="0.1"/>
<g filter="url(#filter0_f_28_421)">
<path d="M1219 510.5C1219 589.932 1171.48 666.111 1086.91 722.278C1002.33 778.446 887.613 810 768 810C648.387 810 533.674 778.446 449.095 722.279C364.516 666.111 317 589.932 317 510.5L768 510.5H1219Z" fill="#575757"/>
</g>
<g clip-path="url(#clip0_28_421)">
<mask id="mask0_28_421" style="mask-type:luminance" maskUnits="userSpaceOnUse" x="256" y="276" width="1027" height="286">
<path d="M1282.14 276.445H256V561.554H1282.14V276.445Z" fill="white"/>
</mask>
<g mask="url(#mask0_28_421)">
<path d="M769.425 1334.91C1094.7 1334.91 1358.39 1104.35 1358.39 819.935C1358.39 535.52 1094.7 304.957 769.425 304.957C444.151 304.957 180.465 535.52 180.465 819.935C180.465 1104.35 444.151 1334.91 769.425 1334.91Z" fill="url(#paint0_linear_28_421)" fill-opacity="0.1"/>
<path d="M1358.03 819.935C1358.03 961.957 1292.19 1090.58 1185.68 1183.72C1079.16 1276.85 931.998 1334.47 769.425 1334.47C606.852 1334.47 459.685 1276.85 353.172 1183.72C246.656 1090.58 180.821 961.957 180.821 819.935C180.821 677.912 246.656 549.291 353.172 456.155C459.685 363.021 606.852 305.402 769.425 305.402C931.998 305.402 1079.16 363.021 1185.68 456.155C1292.19 549.291 1358.03 677.912 1358.03 819.935Z" stroke="url(#paint1_linear_28_421)" stroke-opacity="0.2"/>
</g>
</g>
<defs>
<filter id="filter0_f_28_421" x="24.3677" y="217.868" width="1487.26" height="884.765" filterUnits="userSpaceOnUse" color-interpolation-filters="sRGB">
<feFlood flood-opacity="0" result="BackgroundImageFix"/>
<feBlend mode="normal" in="SourceGraphic" in2="BackgroundImageFix" result="shape"/>
<feGaussianBlur stdDeviation="146.316" result="effect1_foregroundBlur_28_421"/>
</filter>
<linearGradient id="paint0_linear_28_421" x1="769.425" y1="304.956" x2="770.057" y2="642.721" gradientUnits="userSpaceOnUse">
<stop offset="0.0001"/>
<stop offset="0.536" stop-opacity="0.9"/>
<stop offset="1" stop-opacity="0"/>
</linearGradient>
<linearGradient id="paint1_linear_28_421" x1="769.425" y1="304.956" x2="769.425" y2="906.774" gradientUnits="userSpaceOnUse">
<stop stop-color="white"/>
<stop offset="0.388766" stop-opacity="0"/>
</linearGradient>
<clipPath id="clip0_28_421">
<rect width="1024" height="286" fill="white" transform="translate(256 276)"/>
</clipPath>
</defs>
</svg>
