<svg width="1100" height="260" viewBox="0 0 1100 260" fill="none" xmlns="http://www.w3.org/2000/svg">
<rect width="1100" height="260" rx="10" fill="#242424"/>
<rect x="0.5" y="0.5" width="1099" height="259" rx="9.5" stroke="white" stroke-opacity="0.15"/>
<path d="M561.25 119.688C561.766 119.688 562.188 120.109 562.188 120.625V139.363L561.895 138.982L553.926 128.67C553.662 128.324 553.246 128.125 552.812 128.125C552.379 128.125 551.969 128.324 551.699 128.67L546.836 134.963L545.049 132.461C544.785 132.092 544.363 131.875 543.906 131.875C543.449 131.875 543.027 132.092 542.764 132.467L538.076 139.029L537.812 139.393V120.625C537.812 120.109 538.234 119.688 538.75 119.688H561.25ZM538.75 116.875C536.682 116.875 535 118.557 535 120.625V139.375C535 141.443 536.682 143.125 538.75 143.125H561.25C563.318 143.125 565 141.443 565 139.375V120.625C565 118.557 563.318 116.875 561.25 116.875H538.75ZM543.438 128.125C543.807 128.125 544.173 128.052 544.514 127.911C544.855 127.77 545.165 127.562 545.426 127.301C545.687 127.04 545.895 126.73 546.036 126.389C546.177 126.048 546.25 125.682 546.25 125.312C546.25 124.943 546.177 124.577 546.036 124.236C545.895 123.895 545.687 123.585 545.426 123.324C545.165 123.063 544.855 122.855 544.514 122.714C544.173 122.573 543.807 122.5 543.438 122.5C543.068 122.5 542.702 122.573 542.361 122.714C542.02 122.855 541.71 123.063 541.449 123.324C541.188 123.585 540.98 123.895 540.839 124.236C540.698 124.577 540.625 124.943 540.625 125.312C540.625 125.682 540.698 126.048 540.839 126.389C540.98 126.73 541.188 127.04 541.449 127.301C541.71 127.562 542.02 127.77 542.361 127.911C542.702 128.052 543.068 128.125 543.438 128.125Z" fill="#676767"/>
</svg>
