<svg width="2860" height="1603" viewBox="0 0 2860 1603" fill="none" xmlns="http://www.w3.org/2000/svg">
<rect width="1535" height="646" transform="translate(567 686)" fill="black"/>
<mask id="mask0_24_27" style="mask-type:luminance" maskUnits="userSpaceOnUse" x="695" y="686" width="1280" height="461">
<path d="M695 686H1974.97V1146.91H695V686Z" fill="white"/>
</mask>
<g mask="url(#mask0_24_27)">
<g filter="url(#filter0_f_24_27)">
<path d="M925.454 25L895 52.6329L1429.28 537.428L1802.02 859.378L1459.74 509.794L925.454 25Z" fill="url(#paint0_linear_24_27)"/>
</g>
<g filter="url(#filter1_f_24_27)">
<path d="M745.454 99L715 126.633L1249.28 611.428L1622.02 933.378L1279.74 583.794L745.454 99Z" fill="url(#paint1_linear_24_27)"/>
</g>
<g filter="url(#filter2_f_24_27)">
<path d="M384.454 94L354 121.633L888.283 606.428L1261.02 928.378L918.737 578.794L384.454 94Z" fill="url(#paint2_linear_24_27)"/>
</g>
</g>
<path opacity="0.11" d="M279.723 1392.88C280.482 1392.39 280.699 1391.37 280.206 1390.62C279.712 1389.85 278.697 1389.64 277.937 1390.13C277.178 1390.63 276.961 1391.64 277.454 1392.4C277.948 1393.16 278.962 1393.38 279.723 1392.88Z" fill="white" fill-opacity="0.4"/>
<path d="M289.094 1397.55C289.663 1397.18 289.825 1396.42 289.455 1395.85C289.086 1395.28 288.325 1395.11 287.756 1395.48C287.185 1395.85 287.023 1396.62 287.393 1397.18C287.763 1397.75 288.525 1397.92 289.094 1397.55Z" fill="white" fill-opacity="0.4"/>
<path d="M302.417 1368.39C302.987 1368.02 303.149 1367.26 302.779 1366.69C302.409 1366.12 301.648 1365.96 301.078 1366.33C300.508 1366.7 300.346 1367.46 300.716 1368.03C301.086 1368.6 301.846 1368.76 302.417 1368.39Z" fill="white" fill-opacity="0.4"/>
<path d="M243.084 1404.93C243.655 1404.56 243.817 1403.8 243.447 1403.23C243.077 1402.66 242.315 1402.5 241.745 1402.87C241.176 1403.24 241.014 1404 241.384 1404.57C241.754 1405.14 242.514 1405.3 243.084 1404.93Z" fill="white" fill-opacity="0.4"/>
<path opacity="0.11" d="M219.758 1443.52C220.517 1443.03 220.733 1442.01 220.241 1441.25C219.747 1440.49 218.732 1440.28 217.972 1440.77C217.212 1441.26 216.996 1442.28 217.489 1443.04C217.983 1443.8 218.997 1444.01 219.758 1443.52Z" fill="white" fill-opacity="0.4"/>
<path d="M196.884 1436.87C197.264 1436.62 197.373 1436.12 197.126 1435.74C196.88 1435.36 196.372 1435.25 195.992 1435.5C195.613 1435.74 195.505 1436.25 195.751 1436.63C195.998 1437.01 196.505 1437.12 196.884 1436.87Z" fill="white" fill-opacity="0.4"/>
<path d="M295.052 1421.04C295.431 1420.79 295.54 1420.28 295.293 1419.9C295.048 1419.52 294.54 1419.41 294.16 1419.66C293.78 1419.91 293.673 1420.41 293.92 1420.79C294.166 1421.17 294.672 1421.28 295.052 1421.04Z" fill="white" fill-opacity="0.4"/>
<path d="M444.936 1323.77C445.315 1323.53 445.423 1323.02 445.176 1322.64C444.93 1322.26 444.422 1322.15 444.044 1322.4C443.664 1322.65 443.555 1323.15 443.802 1323.53C444.048 1323.91 444.556 1324.02 444.936 1323.77Z" fill="white" fill-opacity="0.4"/>
<path d="M495.775 1238.02C496.154 1237.77 496.262 1237.26 496.015 1236.88C495.769 1236.5 495.261 1236.4 494.881 1236.64C494.503 1236.89 494.394 1237.4 494.641 1237.78C494.887 1238.15 495.395 1238.26 495.775 1238.02Z" fill="white" fill-opacity="0.4"/>
<path d="M555.161 1270.8C555.541 1270.56 555.65 1270.05 555.403 1269.67C555.157 1269.29 554.649 1269.18 554.269 1269.43C553.89 1269.68 553.782 1270.18 554.029 1270.56C554.275 1270.94 554.783 1271.05 555.161 1270.8Z" fill="white" fill-opacity="0.4"/>
<path d="M54.9615 1552.42C55.3411 1552.17 55.4491 1551.67 55.2028 1551.29C54.9565 1550.91 54.4492 1550.8 54.0696 1551.04C53.6901 1551.29 53.5821 1551.8 53.8284 1552.18C54.0747 1552.56 54.582 1552.67 54.9615 1552.42Z" fill="white" fill-opacity="0.4"/>
<path opacity="0.11" d="M20.5631 1521.98C20.9427 1521.74 21.0505 1521.23 20.8044 1520.85C20.558 1520.47 20.0507 1520.36 19.6711 1520.61C19.2917 1520.86 19.1837 1521.36 19.43 1521.74C19.6762 1522.12 20.1836 1522.23 20.5631 1521.98Z" fill="white" fill-opacity="0.4"/>
<path opacity="0.11" d="M1.26522 1556.98C1.64475 1556.73 1.75277 1556.23 1.50648 1555.85C1.26019 1555.47 0.75288 1555.36 0.373352 1555.61C-0.00616098 1555.85 -0.114181 1556.36 0.132113 1556.74C0.378404 1557.12 0.885711 1557.23 1.26522 1556.98Z" fill="white" fill-opacity="0.4"/>
<path opacity="0.11" d="M50.7204 1583.51C51.0999 1583.26 51.2079 1582.76 50.9616 1582.38C50.7153 1582 50.208 1581.89 49.8285 1582.14C49.4489 1582.38 49.3409 1582.89 49.5872 1583.27C49.8335 1583.65 50.3408 1583.76 50.7204 1583.51Z" fill="white" fill-opacity="0.4"/>
<path opacity="0.11" d="M196.491 1449.82C196.87 1449.58 196.979 1449.07 196.732 1448.69C196.486 1448.31 195.978 1448.2 195.599 1448.45C195.219 1448.7 195.112 1449.2 195.357 1449.58C195.604 1449.96 196.111 1450.07 196.491 1449.82Z" fill="white" fill-opacity="0.4"/>
<path opacity="0.11" d="M309.751 1446.68C310.131 1446.43 310.238 1445.92 309.991 1445.54C309.745 1445.17 309.239 1445.06 308.859 1445.3C308.48 1445.55 308.371 1446.06 308.618 1446.44C308.863 1446.82 309.371 1446.92 309.751 1446.68Z" fill="white" fill-opacity="0.4"/>
<path opacity="0.11" d="M437.281 1354.14C437.659 1353.89 437.768 1353.39 437.521 1353.01C437.275 1352.63 436.767 1352.52 436.387 1352.77C436.008 1353.01 435.9 1353.52 436.147 1353.9C436.393 1354.28 436.901 1354.39 437.281 1354.14Z" fill="white" fill-opacity="0.4"/>
<path opacity="0.3" d="M75.4371 1514.71C75.8166 1514.46 75.9246 1513.95 75.6784 1513.57C75.4321 1513.19 74.9247 1513.08 74.5452 1513.33C74.1656 1513.58 74.0577 1514.09 74.304 1514.46C74.5502 1514.84 75.0577 1514.95 75.4371 1514.71Z" fill="white" fill-opacity="0.4"/>
<path d="M209.466 1374.97C209.846 1374.72 209.953 1374.21 209.706 1373.83C209.461 1373.45 208.953 1373.35 208.573 1373.59C208.195 1373.84 208.086 1374.34 208.333 1374.72C208.579 1375.1 209.087 1375.21 209.466 1374.97Z" fill="white" fill-opacity="0.4"/>
<path d="M314.45 1304.88C314.83 1304.64 314.937 1304.13 314.69 1303.75C314.445 1303.37 313.937 1303.26 313.557 1303.51C313.179 1303.76 313.07 1304.26 313.317 1304.64C313.563 1305.02 314.071 1305.13 314.45 1304.88Z" fill="white" fill-opacity="0.4"/>
<path d="M203.764 1468.55C204.143 1468.31 204.251 1467.8 204.004 1467.42C203.758 1467.04 203.25 1466.93 202.872 1467.18C202.492 1467.43 202.384 1467.94 202.631 1468.31C202.876 1468.69 203.384 1468.8 203.764 1468.55Z" fill="white" fill-opacity="0.4"/>
<path opacity="0.3" d="M155.638 1499.79C156.017 1499.54 156.126 1499.03 155.879 1498.65C155.633 1498.27 155.125 1498.17 154.746 1498.41C154.366 1498.66 154.259 1499.17 154.506 1499.55C154.751 1499.93 155.259 1500.03 155.638 1499.79Z" fill="white" fill-opacity="0.4"/>
<path opacity="0.11" d="M71.6102 1493.74C71.9897 1493.5 72.0977 1492.99 71.8513 1492.61C71.605 1492.23 71.0977 1492.12 70.7181 1492.37C70.3387 1492.62 70.2307 1493.12 70.477 1493.5C70.7233 1493.88 71.2306 1493.99 71.6102 1493.74Z" fill="white" fill-opacity="0.4"/>
<path opacity="0.3" d="M232.557 1383.43C232.937 1383.19 233.046 1382.68 232.799 1382.3C232.553 1381.92 232.045 1381.81 231.665 1382.06C231.286 1382.31 231.178 1382.81 231.424 1383.19C231.671 1383.57 232.178 1383.68 232.557 1383.43Z" fill="white" fill-opacity="0.4"/>
<path opacity="0.3" d="M223.932 1474.03C224.312 1473.79 224.421 1473.28 224.174 1472.9C223.928 1472.52 223.42 1472.41 223.041 1472.66C222.661 1472.91 222.554 1473.41 222.801 1473.79C223.046 1474.17 223.554 1474.28 223.932 1474.03Z" fill="white" fill-opacity="0.4"/>
<path opacity="0.3" d="M145.203 1534.89C145.583 1534.65 145.692 1534.14 145.445 1533.76C145.199 1533.38 144.691 1533.27 144.312 1533.52C143.932 1533.76 143.825 1534.27 144.07 1534.65C144.317 1535.03 144.824 1535.14 145.203 1534.89Z" fill="white" fill-opacity="0.4"/>
<path opacity="0.3" d="M95.3776 1501.77C95.7571 1501.53 95.8651 1501.02 95.6188 1500.64C95.3725 1500.26 94.8652 1500.15 94.4857 1500.4C94.1061 1500.64 93.9981 1501.15 94.2444 1501.53C94.4908 1501.91 94.998 1502.02 95.3776 1501.77Z" fill="white" fill-opacity="0.4"/>
<path opacity="0.3" d="M521.657 1222.2C522.036 1221.95 522.145 1221.45 521.898 1221.07C521.653 1220.69 521.145 1220.58 520.765 1220.82C520.385 1221.07 520.278 1221.58 520.524 1221.96C520.771 1222.34 521.279 1222.44 521.657 1222.2Z" fill="white" fill-opacity="0.4"/>
<path opacity="0.11" d="M392.677 1265.84C393.055 1265.59 393.164 1265.09 392.917 1264.71C392.671 1264.33 392.163 1264.22 391.784 1264.47C391.405 1264.71 391.297 1265.22 391.544 1265.6C391.789 1265.98 392.297 1266.09 392.677 1265.84Z" fill="white" fill-opacity="0.4"/>
<path opacity="0.11" d="M522.279 1263.81C522.659 1263.56 522.768 1263.05 522.521 1262.67C522.275 1262.29 521.767 1262.18 521.387 1262.43C521.008 1262.68 520.9 1263.18 521.147 1263.56C521.393 1263.94 521.901 1264.05 522.279 1263.81Z" fill="white" fill-opacity="0.4"/>
<path opacity="0.3" d="M352.358 1382.87C353.117 1382.38 353.333 1381.36 352.84 1380.6C352.346 1379.85 351.332 1379.63 350.571 1380.12C349.812 1380.61 349.596 1381.63 350.088 1382.39C350.582 1383.15 351.597 1383.37 352.358 1382.87Z" fill="white" fill-opacity="0.4"/>
<path opacity="0.11" d="M379.539 1335.93C380.299 1335.43 380.515 1334.42 380.022 1333.66C379.528 1332.9 378.514 1332.68 377.753 1333.17C376.994 1333.67 376.778 1334.68 377.27 1335.44C377.764 1336.2 378.779 1336.42 379.539 1335.93Z" fill="white" fill-opacity="0.4"/>
<path d="M363.581 1312.08C364.152 1311.72 364.314 1310.95 363.944 1310.38C363.574 1309.81 362.812 1309.65 362.243 1310.02C361.673 1310.39 361.511 1311.15 361.881 1311.72C362.251 1312.29 363.012 1312.45 363.581 1312.08Z" fill="white" fill-opacity="0.4"/>
<path d="M362.995 1415.06C363.565 1414.69 363.727 1413.93 363.357 1413.36C362.987 1412.79 362.226 1412.62 361.656 1412.99C361.086 1413.36 360.924 1414.12 361.294 1414.69C361.664 1415.26 362.425 1415.43 362.995 1415.06Z" fill="white" fill-opacity="0.4"/>
<path d="M600.164 1280.68C600.734 1280.31 600.896 1279.55 600.526 1278.98C600.156 1278.41 599.395 1278.25 598.824 1278.62C598.255 1278.99 598.093 1279.75 598.463 1280.32C598.833 1280.89 599.595 1281.05 600.164 1280.68Z" fill="white" fill-opacity="0.4"/>
<path d="M146.388 1558.55C146.957 1558.18 147.119 1557.42 146.749 1556.85C146.38 1556.28 145.619 1556.12 145.048 1556.49C144.479 1556.86 144.317 1557.62 144.687 1558.19C145.057 1558.76 145.817 1558.92 146.388 1558.55Z" fill="white" fill-opacity="0.4"/>
<path d="M44.6949 1602.07C45.2644 1601.7 45.4266 1600.94 45.0569 1600.37C44.6872 1599.81 43.9258 1599.64 43.3562 1600.01C42.7866 1600.38 42.6245 1601.14 42.9942 1601.71C43.3638 1602.28 44.1252 1602.44 44.6949 1602.07Z" fill="white" fill-opacity="0.4"/>
<path d="M15.1598 1582.16C15.7294 1581.79 15.8916 1581.03 15.5219 1580.46C15.1522 1579.89 14.3907 1579.73 13.8212 1580.1C13.2515 1580.47 13.0895 1581.23 13.4592 1581.8C13.8287 1582.37 14.5902 1582.53 15.1598 1582.16Z" fill="white" fill-opacity="0.4"/>
<path d="M339.508 1347.25C340.078 1346.88 340.24 1346.12 339.871 1345.55C339.501 1344.98 338.739 1344.82 338.169 1345.19C337.6 1345.56 337.438 1346.32 337.808 1346.89C338.178 1347.46 338.938 1347.62 339.508 1347.25Z" fill="white" fill-opacity="0.4"/>
<path d="M252.896 1475.76C253.467 1475.39 253.629 1474.62 253.259 1474.06C252.889 1473.49 252.127 1473.32 251.558 1473.69C250.989 1474.06 250.827 1474.82 251.197 1475.39C251.566 1475.96 252.327 1476.13 252.896 1475.76Z" fill="white" fill-opacity="0.4"/>
<path d="M445.333 1392.89C445.903 1392.52 446.065 1391.76 445.695 1391.19C445.325 1390.62 444.564 1390.46 443.994 1390.83C443.424 1391.2 443.262 1391.96 443.632 1392.53C444.002 1393.1 444.763 1393.26 445.333 1392.89Z" fill="white" fill-opacity="0.4"/>
<path d="M597.176 1227.91C597.745 1227.54 597.907 1226.78 597.538 1226.2C597.168 1225.64 596.407 1225.47 595.836 1225.84C595.267 1226.21 595.105 1226.97 595.475 1227.54C595.845 1228.11 596.605 1228.28 597.176 1227.91Z" fill="white" fill-opacity="0.4"/>
<path d="M589.139 1179.39C589.71 1179.02 589.872 1178.25 589.502 1177.69C589.133 1177.12 588.371 1176.95 587.801 1177.32C587.232 1177.69 587.07 1178.45 587.44 1179.02C587.81 1179.59 588.57 1179.75 589.139 1179.39Z" fill="white" fill-opacity="0.4"/>
<path opacity="0.3" d="M420.752 1275.96C421.511 1275.47 421.728 1274.45 421.235 1273.69C420.741 1272.94 419.726 1272.72 418.966 1273.21C418.207 1273.71 417.99 1274.72 418.483 1275.48C418.977 1276.24 419.992 1276.46 420.752 1275.96Z" fill="white" fill-opacity="0.4"/>
<path d="M389.068 1227.15C389.827 1226.66 390.044 1225.64 389.55 1224.88C389.057 1224.13 388.043 1223.91 387.282 1224.4C386.523 1224.89 386.306 1225.91 386.799 1226.67C387.292 1227.43 388.308 1227.65 389.068 1227.15Z" fill="white" fill-opacity="0.4"/>
<path d="M465.972 1268.11C466.541 1267.74 466.703 1266.98 466.333 1266.41C465.964 1265.84 465.203 1265.68 464.632 1266.05C464.063 1266.42 463.901 1267.18 464.271 1267.75C464.641 1268.32 465.403 1268.48 465.972 1268.11Z" fill="white" fill-opacity="0.4"/>
<path opacity="0.3" d="M481.916 1219.66C482.675 1219.17 482.892 1218.15 482.399 1217.39C481.905 1216.63 480.89 1216.41 480.13 1216.91C479.371 1217.4 479.154 1218.42 479.647 1219.18C480.14 1219.94 481.156 1220.15 481.916 1219.66Z" fill="white" fill-opacity="0.4"/>
<path opacity="0.3" d="M581.656 1224.3C582.415 1223.81 582.632 1222.79 582.138 1222.03C581.645 1221.28 580.631 1221.06 579.87 1221.55C579.111 1222.04 578.894 1223.06 579.387 1223.82C579.88 1224.58 580.896 1224.8 581.656 1224.3Z" fill="white" fill-opacity="0.4"/>
<path opacity="0.3" d="M502.11 1277.88C502.869 1277.38 503.085 1276.37 502.592 1275.61C502.098 1274.85 501.084 1274.63 500.323 1275.13C499.564 1275.62 499.348 1276.64 499.84 1277.39C500.333 1278.15 501.349 1278.37 502.11 1277.88Z" fill="white" fill-opacity="0.4"/>
<path opacity="0.3" d="M115.068 1545.66C115.828 1545.16 116.044 1544.15 115.551 1543.39C115.058 1542.63 114.042 1542.41 113.283 1542.91C112.523 1543.4 112.307 1544.41 112.8 1545.17C113.293 1545.93 114.308 1546.15 115.068 1545.66Z" fill="white" fill-opacity="0.4"/>
<path opacity="0.3" d="M34.8343 1543.99C35.594 1543.49 35.8102 1542.48 35.3171 1541.72C34.8241 1540.96 33.8087 1540.74 33.0489 1541.23C32.2893 1541.73 32.0731 1542.74 32.566 1543.5C33.0591 1544.26 34.0747 1544.48 34.8343 1543.99Z" fill="white" fill-opacity="0.4"/>
<path opacity="0.11" d="M540.084 1221.97C540.843 1221.48 541.06 1220.46 540.567 1219.7C540.073 1218.94 539.058 1218.73 538.298 1219.22C537.539 1219.71 537.322 1220.73 537.815 1221.49C538.309 1222.25 539.324 1222.46 540.084 1221.97Z" fill="white" fill-opacity="0.4"/>
<path opacity="0.3" d="M117.979 1456.81C118.739 1456.32 118.955 1455.3 118.462 1454.54C117.969 1453.78 116.954 1453.57 116.194 1454.06C115.434 1454.55 115.218 1455.57 115.711 1456.33C116.204 1457.09 117.22 1457.31 117.979 1456.81Z" fill="white" fill-opacity="0.4"/>
<path opacity="0.11" d="M90.4937 1455.11C91.2534 1454.61 91.4695 1453.6 90.9765 1452.84C90.4835 1452.08 89.4681 1451.86 88.7083 1452.36C87.9486 1452.85 87.7324 1453.87 88.2254 1454.62C88.7185 1455.38 89.7339 1455.6 90.4937 1455.11Z" fill="white" fill-opacity="0.4"/>
<path opacity="0.3" d="M113.552 1502.67C114.312 1502.18 114.528 1501.17 114.035 1500.41C113.542 1499.65 112.527 1499.43 111.767 1499.92C111.007 1500.42 110.791 1501.43 111.284 1502.19C111.777 1502.95 112.793 1503.17 113.552 1502.67Z" fill="white" fill-opacity="0.4"/>
<path d="M156.069 1474.11C156.638 1473.74 156.8 1472.97 156.43 1472.4C156.06 1471.83 155.3 1471.67 154.729 1472.04C154.16 1472.41 153.998 1473.17 154.367 1473.74C154.737 1474.31 155.499 1474.48 156.069 1474.11Z" fill="white" fill-opacity="0.4"/>
<path opacity="0.11" d="M381.23 1028.64C381.989 1028.15 382.205 1027.13 381.713 1026.37C381.218 1025.61 380.204 1025.4 379.443 1025.89C378.684 1026.38 378.468 1027.4 378.96 1028.16C379.455 1028.92 380.469 1029.13 381.23 1028.64Z" fill="white" fill-opacity="0.4"/>
<path d="M390.601 1033.31C391.17 1032.94 391.332 1032.18 390.962 1031.61C390.592 1031.04 389.832 1030.88 389.261 1031.25C388.692 1031.61 388.53 1032.38 388.9 1032.95C389.269 1033.51 390.03 1033.68 390.601 1033.31Z" fill="white" fill-opacity="0.4"/>
<path d="M403.923 1004.15C404.494 1003.78 404.655 1003.02 404.286 1002.45C403.916 1001.88 403.154 1001.71 402.584 1002.08C402.015 1002.45 401.853 1003.22 402.223 1003.79C402.593 1004.36 403.353 1004.52 403.923 1004.15Z" fill="white" fill-opacity="0.4"/>
<path d="M344.59 1040.69C345.16 1040.32 345.322 1039.56 344.952 1038.99C344.582 1038.42 343.821 1038.26 343.251 1038.63C342.681 1039 342.519 1039.76 342.889 1040.33C343.259 1040.9 344.019 1041.06 344.59 1040.69Z" fill="white" fill-opacity="0.4"/>
<path opacity="0.11" d="M321.264 1079.28C322.023 1078.79 322.239 1077.77 321.747 1077.01C321.253 1076.25 320.238 1076.04 319.478 1076.53C318.718 1077.02 318.502 1078.04 318.995 1078.8C319.489 1079.56 320.503 1079.77 321.264 1079.28Z" fill="white" fill-opacity="0.4"/>
<path d="M298.39 1072.63C298.768 1072.38 298.877 1071.88 298.63 1071.5C298.384 1071.12 297.876 1071.01 297.497 1071.26C297.118 1071.5 297.009 1072.01 297.256 1072.39C297.502 1072.77 298.01 1072.88 298.39 1072.63Z" fill="white" fill-opacity="0.4"/>
<path d="M396.56 1056.8C396.938 1056.55 397.047 1056.04 396.8 1055.66C396.554 1055.28 396.046 1055.17 395.667 1055.42C395.288 1055.67 395.179 1056.18 395.426 1056.56C395.672 1056.93 396.18 1057.04 396.56 1056.8Z" fill="white" fill-opacity="0.4"/>
<path d="M546.439 959.535C546.819 959.29 546.928 958.782 546.681 958.402C546.435 958.022 545.927 957.915 545.548 958.161C545.168 958.408 545.061 958.914 545.308 959.294C545.553 959.673 546.061 959.782 546.439 959.535Z" fill="white" fill-opacity="0.4"/>
<path d="M597.28 873.777C597.659 873.53 597.768 873.024 597.521 872.644C597.275 872.265 596.767 872.157 596.388 872.403C596.008 872.65 595.901 873.156 596.146 873.536C596.393 873.916 596.9 874.023 597.28 873.777Z" fill="white" fill-opacity="0.4"/>
<path d="M656.668 906.566C657.047 906.321 657.155 905.813 656.908 905.433C656.662 905.054 656.154 904.946 655.776 905.192C655.397 905.439 655.288 905.945 655.535 906.325C655.78 906.705 656.288 906.813 656.668 906.566Z" fill="white" fill-opacity="0.4"/>
<path d="M156.467 1188.18C156.846 1187.93 156.955 1187.42 156.708 1187.05C156.462 1186.67 155.954 1186.56 155.575 1186.8C155.195 1187.05 155.088 1187.56 155.335 1187.94C155.58 1188.32 156.088 1188.43 156.467 1188.18Z" fill="white" fill-opacity="0.4"/>
<path opacity="0.11" d="M122.068 1157.74C122.448 1157.5 122.556 1156.99 122.309 1156.61C122.063 1156.23 121.556 1156.12 121.176 1156.37C120.797 1156.62 120.689 1157.12 120.935 1157.5C121.181 1157.88 121.689 1157.99 122.068 1157.74Z" fill="white" fill-opacity="0.4"/>
<path opacity="0.11" d="M102.77 1192.74C103.15 1192.49 103.258 1191.99 103.011 1191.61C102.765 1191.23 102.258 1191.12 101.878 1191.37C101.499 1191.61 101.391 1192.12 101.637 1192.5C101.883 1192.88 102.391 1192.99 102.77 1192.74Z" fill="white" fill-opacity="0.4"/>
<path opacity="0.11" d="M152.227 1219.27C152.606 1219.02 152.714 1218.52 152.468 1218.14C152.221 1217.76 151.714 1217.65 151.335 1217.9C150.955 1218.14 150.846 1218.65 151.093 1219.03C151.339 1219.41 151.847 1219.52 152.227 1219.27Z" fill="white" fill-opacity="0.4"/>
<path opacity="0.11" d="M297.997 1085.58C298.376 1085.34 298.485 1084.83 298.237 1084.45C297.992 1084.07 297.484 1083.96 297.104 1084.21C296.725 1084.46 296.617 1084.96 296.864 1085.34C297.11 1085.72 297.618 1085.83 297.997 1085.58Z" fill="white" fill-opacity="0.4"/>
<path opacity="0.11" d="M411.256 1082.44C411.634 1082.19 411.743 1081.68 411.496 1081.31C411.25 1080.93 410.742 1080.82 410.363 1081.06C409.985 1081.31 409.876 1081.82 410.123 1082.2C410.368 1082.58 410.876 1082.68 411.256 1082.44Z" fill="white" fill-opacity="0.4"/>
<path opacity="0.11" d="M538.787 989.9C539.167 989.653 539.274 989.146 539.027 988.767C538.782 988.387 538.274 988.28 537.896 988.525C537.516 988.772 537.407 989.279 537.654 989.659C537.9 990.038 538.408 990.146 538.787 989.9Z" fill="white" fill-opacity="0.4"/>
<path opacity="0.3" d="M176.942 1150.47C177.322 1150.22 177.429 1149.71 177.182 1149.33C176.937 1148.95 176.429 1148.85 176.051 1149.09C175.671 1149.34 175.562 1149.85 175.809 1150.23C176.055 1150.61 176.563 1150.71 176.942 1150.47Z" fill="white" fill-opacity="0.4"/>
<path d="M310.973 1010.72C311.352 1010.48 311.46 1009.97 311.214 1009.59C310.967 1009.21 310.46 1009.1 310.081 1009.35C309.701 1009.6 309.592 1010.1 309.839 1010.48C310.085 1010.86 310.593 1010.97 310.973 1010.72Z" fill="white" fill-opacity="0.4"/>
<path d="M415.954 940.644C416.334 940.398 416.442 939.89 416.195 939.51C415.95 939.131 415.442 939.023 415.062 939.269C414.683 939.516 414.575 940.023 414.822 940.402C415.068 940.782 415.576 940.889 415.954 940.644Z" fill="white" fill-opacity="0.4"/>
<path d="M305.269 1104.32C305.648 1104.07 305.757 1103.56 305.51 1103.18C305.264 1102.8 304.756 1102.7 304.377 1102.94C303.997 1103.19 303.89 1103.69 304.137 1104.07C304.382 1104.45 304.89 1104.56 305.269 1104.32Z" fill="white" fill-opacity="0.4"/>
<path opacity="0.3" d="M257.145 1135.55C257.524 1135.3 257.632 1134.79 257.385 1134.41C257.139 1134.03 256.631 1133.93 256.253 1134.17C255.873 1134.42 255.764 1134.93 256.011 1135.31C256.257 1135.69 256.765 1135.79 257.145 1135.55Z" fill="white" fill-opacity="0.4"/>
<path opacity="0.11" d="M173.114 1129.5C173.494 1129.26 173.603 1128.75 173.356 1128.37C173.11 1127.99 172.602 1127.88 172.223 1128.13C171.843 1128.38 171.736 1128.88 171.981 1129.26C172.228 1129.64 172.735 1129.75 173.114 1129.5Z" fill="white" fill-opacity="0.4"/>
<path opacity="0.3" d="M334.064 1019.19C334.443 1018.95 334.551 1018.44 334.304 1018.06C334.058 1017.68 333.55 1017.57 333.17 1017.82C332.792 1018.07 332.683 1018.57 332.93 1018.95C333.176 1019.33 333.684 1019.44 334.064 1019.19Z" fill="white" fill-opacity="0.4"/>
<path opacity="0.3" d="M325.44 1109.79C325.82 1109.55 325.927 1109.04 325.68 1108.66C325.435 1108.28 324.927 1108.17 324.549 1108.42C324.169 1108.66 324.06 1109.17 324.307 1109.55C324.553 1109.93 325.061 1110.04 325.44 1109.79Z" fill="white" fill-opacity="0.4"/>
<path opacity="0.3" d="M246.711 1170.65C247.09 1170.41 247.198 1169.9 246.951 1169.52C246.706 1169.14 246.198 1169.03 245.818 1169.28C245.439 1169.53 245.331 1170.03 245.578 1170.41C245.824 1170.79 246.332 1170.9 246.711 1170.65Z" fill="white" fill-opacity="0.4"/>
<path opacity="0.3" d="M196.885 1137.53C197.264 1137.28 197.372 1136.78 197.126 1136.4C196.879 1136.02 196.373 1135.91 195.993 1136.16C195.613 1136.4 195.505 1136.91 195.752 1137.29C195.997 1137.67 196.505 1137.78 196.885 1137.53Z" fill="white" fill-opacity="0.4"/>
<path opacity="0.3" d="M623.164 857.959C623.542 857.712 623.651 857.205 623.404 856.826C623.159 856.446 622.651 856.339 622.271 856.584C621.893 856.831 621.784 857.338 622.031 857.717C622.277 858.097 622.785 858.204 623.164 857.959Z" fill="white" fill-opacity="0.4"/>
<path opacity="0.11" d="M494.182 901.601C494.562 901.355 494.67 900.847 494.423 900.468C494.178 900.09 493.67 899.981 493.29 900.228C492.911 900.473 492.803 900.981 493.049 901.361C493.296 901.739 493.802 901.848 494.182 901.601Z" fill="white" fill-opacity="0.4"/>
<path opacity="0.11" d="M623.785 899.565C624.165 899.319 624.272 898.811 624.025 898.432C623.78 898.053 623.272 897.945 622.893 898.192C622.514 898.437 622.405 898.945 622.652 899.325C622.898 899.704 623.406 899.812 623.785 899.565Z" fill="white" fill-opacity="0.4"/>
<path opacity="0.3" d="M453.864 1018.63C454.624 1018.14 454.84 1017.12 454.347 1016.37C453.853 1015.61 452.839 1015.39 452.078 1015.88C451.319 1016.38 451.103 1017.39 451.595 1018.15C452.089 1018.91 453.104 1019.13 453.864 1018.63Z" fill="white" fill-opacity="0.4"/>
<path opacity="0.11" d="M481.044 971.685C481.803 971.191 482.02 970.177 481.527 969.416C481.033 968.657 480.018 968.44 479.258 968.933C478.499 969.427 478.282 970.442 478.775 971.202C479.268 971.961 480.284 972.178 481.044 971.685Z" fill="white" fill-opacity="0.4"/>
<path d="M465.089 947.843C465.659 947.473 465.82 946.713 465.451 946.143C465.081 945.574 464.32 945.411 463.749 945.781C463.18 946.15 463.018 946.912 463.388 947.482C463.758 948.051 464.518 948.213 465.089 947.843Z" fill="white" fill-opacity="0.4"/>
<path d="M464.499 1050.82C465.07 1050.45 465.232 1049.68 464.862 1049.12C464.492 1048.55 463.73 1048.38 463.161 1048.75C462.591 1049.12 462.429 1049.88 462.799 1050.45C463.169 1051.02 463.93 1051.19 464.499 1050.82Z" fill="white" fill-opacity="0.4"/>
<path d="M701.669 916.441C702.239 916.072 702.401 915.311 702.031 914.742C701.661 914.172 700.9 914.009 700.33 914.379C699.76 914.749 699.598 915.511 699.968 916.08C700.338 916.649 701.098 916.811 701.669 916.441Z" fill="white" fill-opacity="0.4"/>
<path d="M247.893 1194.31C248.462 1193.94 248.624 1193.18 248.254 1192.61C247.885 1192.04 247.123 1191.88 246.553 1192.25C245.984 1192.62 245.822 1193.38 246.192 1193.95C246.562 1194.52 247.322 1194.68 247.893 1194.31Z" fill="white" fill-opacity="0.4"/>
<path d="M146.202 1237.83C146.772 1237.46 146.934 1236.7 146.564 1236.13C146.194 1235.56 145.433 1235.4 144.863 1235.77C144.293 1236.14 144.131 1236.9 144.501 1237.47C144.871 1238.04 145.632 1238.2 146.202 1237.83Z" fill="white" fill-opacity="0.4"/>
<path d="M116.666 1217.92C117.235 1217.55 117.397 1216.79 117.028 1216.22C116.658 1215.65 115.897 1215.49 115.327 1215.86C114.757 1216.23 114.595 1216.99 114.965 1217.56C115.335 1218.13 116.096 1218.29 116.666 1217.92Z" fill="white" fill-opacity="0.4"/>
<path d="M441.015 983.011C441.584 982.641 441.746 981.879 441.376 981.31C441.007 980.741 440.246 980.579 439.675 980.948C439.106 981.317 438.944 982.079 439.314 982.648C439.684 983.218 440.444 983.38 441.015 983.011Z" fill="white" fill-opacity="0.4"/>
<path d="M354.403 1111.52C354.972 1111.15 355.134 1110.38 354.764 1109.81C354.394 1109.24 353.634 1109.08 353.063 1109.45C352.493 1109.82 352.331 1110.58 352.701 1111.15C353.071 1111.72 353.832 1111.89 354.403 1111.52Z" fill="white" fill-opacity="0.4"/>
<path d="M546.837 1028.65C547.408 1028.28 547.57 1027.52 547.2 1026.95C546.83 1026.38 546.068 1026.22 545.499 1026.59C544.929 1026.96 544.767 1027.72 545.137 1028.29C545.507 1028.85 546.268 1029.02 546.837 1028.65Z" fill="white" fill-opacity="0.4"/>
<path d="M698.683 863.665C699.252 863.295 699.414 862.535 699.044 861.964C698.674 861.395 697.914 861.233 697.343 861.603C696.774 861.972 696.612 862.733 696.982 863.304C697.351 863.873 698.112 864.035 698.683 863.665Z" fill="white" fill-opacity="0.4"/>
<path d="M690.647 815.146C691.216 814.776 691.378 814.015 691.008 813.445C690.638 812.876 689.878 812.714 689.307 813.083C688.738 813.453 688.576 814.214 688.946 814.784C689.315 815.353 690.076 815.516 690.647 815.146Z" fill="white" fill-opacity="0.4"/>
<path opacity="0.3" d="M522.255 911.723C523.016 911.229 523.232 910.214 522.74 909.454C522.246 908.695 521.231 908.478 520.471 908.971C519.711 909.465 519.495 910.48 519.988 911.24C520.48 911.999 521.496 912.216 522.255 911.723Z" fill="white" fill-opacity="0.4"/>
<path d="M490.573 862.912C491.332 862.419 491.549 861.403 491.056 860.644C490.562 859.885 489.548 859.668 488.787 860.161C488.028 860.654 487.811 861.67 488.304 862.429C488.798 863.189 489.813 863.404 490.573 862.912Z" fill="white" fill-opacity="0.4"/>
<path d="M567.478 903.871C568.047 903.502 568.209 902.74 567.839 902.17C567.469 901.601 566.707 901.439 566.138 901.809C565.569 902.177 565.407 902.939 565.777 903.509C566.146 904.078 566.907 904.24 567.478 903.871Z" fill="white" fill-opacity="0.4"/>
<path opacity="0.3" d="M583.423 855.419C584.182 854.926 584.399 853.91 583.906 853.151C583.412 852.39 582.397 852.174 581.637 852.668C580.878 853.161 580.661 854.177 581.154 854.936C581.648 855.695 582.663 855.912 583.423 855.419Z" fill="white" fill-opacity="0.4"/>
<path opacity="0.3" d="M683.161 860.062C683.921 859.569 684.137 858.553 683.644 857.794C683.15 857.035 682.136 856.818 681.375 857.311C680.616 857.804 680.399 858.82 680.892 859.579C681.386 860.339 682.401 860.554 683.161 860.062Z" fill="white" fill-opacity="0.4"/>
<path opacity="0.3" d="M603.614 913.636C604.374 913.144 604.59 912.128 604.097 911.369C603.603 910.608 602.589 910.392 601.828 910.886C601.069 911.378 600.853 912.393 601.345 913.154C601.839 913.913 602.854 914.129 603.614 913.636Z" fill="white" fill-opacity="0.4"/>
<path opacity="0.3" d="M216.573 1181.42C217.333 1180.92 217.549 1179.91 217.056 1179.15C216.562 1178.39 215.548 1178.17 214.787 1178.67C214.028 1179.16 213.812 1180.17 214.304 1180.94C214.798 1181.69 215.813 1181.91 216.573 1181.42Z" fill="white" fill-opacity="0.4"/>
<path opacity="0.3" d="M136.339 1179.75C137.099 1179.25 137.315 1178.24 136.822 1177.48C136.329 1176.72 135.314 1176.5 134.554 1177C133.794 1177.49 133.578 1178.5 134.071 1179.26C134.564 1180.02 135.58 1180.24 136.339 1179.75Z" fill="white" fill-opacity="0.4"/>
<path opacity="0.11" d="M641.589 857.73C642.348 857.237 642.564 856.221 642.072 855.462C641.578 854.703 640.563 854.487 639.803 854.979C639.043 855.472 638.827 856.488 639.32 857.247C639.814 858.008 640.828 858.224 641.589 857.73Z" fill="white" fill-opacity="0.4"/>
<path opacity="0.3" d="M219.485 1092.57C220.244 1092.08 220.46 1091.06 219.967 1090.3C219.473 1089.54 218.459 1089.33 217.698 1089.82C216.939 1090.32 216.723 1091.33 217.215 1092.09C217.709 1092.85 218.724 1093.07 219.485 1092.57Z" fill="white" fill-opacity="0.4"/>
<path opacity="0.11" d="M191.999 1090.87C192.758 1090.37 192.975 1089.36 192.482 1088.6C191.988 1087.84 190.973 1087.62 190.213 1088.12C189.454 1088.61 189.237 1089.62 189.73 1090.38C190.224 1091.14 191.239 1091.36 191.999 1090.87Z" fill="white" fill-opacity="0.4"/>
<path opacity="0.3" d="M215.058 1138.44C215.817 1137.94 216.033 1136.93 215.541 1136.17C215.047 1135.41 214.032 1135.19 213.271 1135.69C212.512 1136.18 212.296 1137.19 212.789 1137.95C213.283 1138.71 214.297 1138.93 215.058 1138.44Z" fill="white" fill-opacity="0.4"/>
<path d="M257.575 1109.86C258.145 1109.49 258.307 1108.73 257.937 1108.16C257.567 1107.59 256.805 1107.43 256.236 1107.8C255.666 1108.17 255.504 1108.93 255.874 1109.5C256.244 1110.07 257.005 1110.23 257.575 1109.86Z" fill="white" fill-opacity="0.4"/>
<path opacity="0.11" d="M812.645 901.759C813.404 901.266 813.62 900.25 813.128 899.491C812.634 898.73 811.619 898.515 810.858 899.008C810.099 899.501 809.883 900.517 810.375 901.276C810.87 902.035 811.884 902.251 812.645 901.759Z" fill="white" fill-opacity="0.4"/>
<path d="M822.016 906.423C822.585 906.053 822.747 905.291 822.377 904.722C822.008 904.152 821.247 903.99 820.676 904.36C820.107 904.73 819.945 905.491 820.315 906.06C820.684 906.629 821.445 906.793 822.016 906.423Z" fill="white" fill-opacity="0.4"/>
<path d="M835.339 877.264C835.909 876.894 836.071 876.133 835.701 875.564C835.331 874.993 834.57 874.831 834 875.201C833.43 875.571 833.268 876.333 833.638 876.902C834.008 877.471 834.769 877.633 835.339 877.264Z" fill="white" fill-opacity="0.4"/>
<path d="M776.005 913.809C776.575 913.44 776.736 912.678 776.367 912.108C775.997 911.539 775.236 911.377 774.665 911.747C774.096 912.117 773.934 912.877 774.304 913.447C774.674 914.016 775.434 914.179 776.005 913.809Z" fill="white" fill-opacity="0.4"/>
<path opacity="0.11" d="M752.679 952.394C753.438 951.902 753.654 950.886 753.162 950.126C752.668 949.367 751.653 949.151 750.892 949.644C750.133 950.136 749.917 951.152 750.409 951.911C750.904 952.672 751.918 952.888 752.679 952.394Z" fill="white" fill-opacity="0.4"/>
<path d="M729.806 945.746C730.185 945.5 730.293 944.992 730.046 944.612C729.8 944.233 729.292 944.125 728.913 944.371C728.534 944.618 728.425 945.125 728.673 945.504C728.918 945.884 729.426 945.993 729.806 945.746Z" fill="white" fill-opacity="0.4"/>
<path d="M827.973 929.911C828.351 929.664 828.46 929.158 828.213 928.778C827.967 928.399 827.459 928.29 827.08 928.537C826.7 928.782 826.593 929.29 826.84 929.67C827.085 930.049 827.593 930.157 827.973 929.911Z" fill="white" fill-opacity="0.4"/>
<path d="M977.856 832.65C978.234 832.404 978.343 831.896 978.096 831.517C977.85 831.137 977.342 831.03 976.963 831.275C976.583 831.522 976.476 832.029 976.723 832.409C976.968 832.788 977.476 832.897 977.856 832.65Z" fill="white" fill-opacity="0.4"/>
<path d="M1028.69 746.892C1029.07 746.646 1029.18 746.139 1028.94 745.759C1028.69 745.38 1028.18 745.272 1027.8 745.518C1027.42 745.764 1027.32 746.271 1027.56 746.651C1027.81 747.031 1028.32 747.139 1028.69 746.892Z" fill="white" fill-opacity="0.4"/>
<path d="M1088.08 779.679C1088.46 779.432 1088.57 778.925 1088.32 778.546C1088.08 778.166 1087.57 778.058 1087.19 778.304C1086.81 778.551 1086.7 779.058 1086.95 779.437C1087.2 779.817 1087.7 779.925 1088.08 779.679Z" fill="white" fill-opacity="0.4"/>
<path d="M587.882 1061.29C588.261 1061.05 588.369 1060.54 588.122 1060.16C587.876 1059.78 587.368 1059.67 586.989 1059.92C586.611 1060.17 586.502 1060.67 586.749 1061.05C586.994 1061.43 587.502 1061.54 587.882 1061.29Z" fill="white" fill-opacity="0.4"/>
<path opacity="0.11" d="M553.484 1030.86C553.864 1030.61 553.971 1030.11 553.724 1029.73C553.479 1029.35 552.971 1029.24 552.593 1029.49C552.213 1029.73 552.104 1030.24 552.351 1030.62C552.597 1031 553.105 1031.11 553.484 1030.86Z" fill="white" fill-opacity="0.4"/>
<path opacity="0.11" d="M534.185 1065.86C534.564 1065.61 534.673 1065.1 534.426 1064.72C534.181 1064.34 533.673 1064.23 533.293 1064.48C532.913 1064.73 532.806 1065.24 533.053 1065.62C533.299 1065.99 533.807 1066.1 534.185 1065.86Z" fill="white" fill-opacity="0.4"/>
<path opacity="0.11" d="M583.641 1092.39C584.019 1092.14 584.128 1091.63 583.881 1091.25C583.635 1090.87 583.127 1090.76 582.748 1091.01C582.368 1091.26 582.261 1091.77 582.508 1092.14C582.753 1092.52 583.261 1092.63 583.641 1092.39Z" fill="white" fill-opacity="0.4"/>
<path opacity="0.11" d="M729.412 958.698C729.792 958.452 729.899 957.944 729.652 957.566C729.407 957.187 728.9 957.078 728.52 957.325C728.141 957.57 728.032 958.078 728.279 958.458C728.525 958.838 729.033 958.945 729.412 958.698Z" fill="white" fill-opacity="0.4"/>
<path opacity="0.11" d="M842.661 955.554C843.039 955.307 843.148 954.8 842.901 954.421C842.655 954.041 842.147 953.932 841.767 954.179C841.388 954.425 841.28 954.933 841.527 955.312C841.773 955.692 842.281 955.8 842.661 955.554Z" fill="white" fill-opacity="0.4"/>
<path opacity="0.11" d="M970.203 863.016C970.581 862.769 970.69 862.263 970.443 861.883C970.197 861.503 969.689 861.396 969.309 861.642C968.93 861.889 968.822 862.395 969.069 862.775C969.315 863.154 969.823 863.262 970.203 863.016Z" fill="white" fill-opacity="0.4"/>
<path opacity="0.3" d="M608.356 1023.58C608.735 1023.34 608.844 1022.83 608.597 1022.45C608.352 1022.07 607.844 1021.96 607.464 1022.21C607.084 1022.45 606.977 1022.96 607.223 1023.34C607.47 1023.72 607.976 1023.83 608.356 1023.58Z" fill="white" fill-opacity="0.4"/>
<path d="M742.386 883.841C742.764 883.594 742.873 883.087 742.626 882.708C742.381 882.328 741.873 882.221 741.493 882.466C741.113 882.713 741.006 883.22 741.253 883.599C741.499 883.979 742.007 884.087 742.386 883.841Z" fill="white" fill-opacity="0.4"/>
<path d="M847.371 813.76C847.749 813.514 847.858 813.006 847.611 812.627C847.365 812.247 846.857 812.139 846.477 812.386C846.098 812.632 845.99 813.139 846.237 813.519C846.483 813.898 846.991 814.006 847.371 813.76Z" fill="white" fill-opacity="0.4"/>
<path d="M736.684 977.432C737.063 977.186 737.171 976.678 736.924 976.299C736.678 975.919 736.17 975.812 735.79 976.059C735.412 976.304 735.303 976.812 735.55 977.19C735.796 977.57 736.304 977.679 736.684 977.432Z" fill="white" fill-opacity="0.4"/>
<path opacity="0.3" d="M688.558 1008.66C688.938 1008.42 689.046 1007.91 688.799 1007.53C688.554 1007.15 688.046 1007.04 687.666 1007.29C687.287 1007.54 687.179 1008.04 687.425 1008.42C687.672 1008.8 688.178 1008.91 688.558 1008.66Z" fill="white" fill-opacity="0.4"/>
<path opacity="0.11" d="M604.529 1002.62C604.909 1002.37 605.018 1001.87 604.771 1001.49C604.525 1001.11 604.017 1001 603.637 1001.24C603.258 1001.49 603.15 1002 603.397 1002.38C603.643 1002.76 604.151 1002.87 604.529 1002.62Z" fill="white" fill-opacity="0.4"/>
<path opacity="0.3" d="M765.478 892.309C765.857 892.064 765.966 891.556 765.719 891.176C765.474 890.797 764.966 890.689 764.586 890.935C764.206 891.182 764.099 891.688 764.345 892.068C764.592 892.448 765.098 892.556 765.478 892.309Z" fill="white" fill-opacity="0.4"/>
<path opacity="0.3" d="M756.856 982.908C757.235 982.663 757.343 982.155 757.097 981.775C756.85 981.395 756.342 981.288 755.964 981.534C755.584 981.781 755.475 982.287 755.722 982.667C755.968 983.046 756.476 983.155 756.856 982.908Z" fill="white" fill-opacity="0.4"/>
<path opacity="0.3" d="M678.123 1043.77C678.503 1043.52 678.612 1043.02 678.365 1042.64C678.119 1042.26 677.611 1042.15 677.232 1042.39C676.852 1042.64 676.744 1043.15 676.99 1043.53C677.237 1043.91 677.744 1044.01 678.123 1043.77Z" fill="white" fill-opacity="0.4"/>
<path opacity="0.3" d="M628.299 1010.65C628.677 1010.4 628.786 1009.89 628.539 1009.51C628.294 1009.13 627.786 1009.03 627.406 1009.27C627.026 1009.52 626.919 1010.03 627.166 1010.41C627.412 1010.78 627.92 1010.89 628.299 1010.65Z" fill="white" fill-opacity="0.4"/>
<path opacity="0.3" d="M1054.58 731.075C1054.96 730.829 1055.07 730.321 1054.82 729.942C1054.57 729.562 1054.07 729.454 1053.69 729.701C1053.31 729.947 1053.2 730.454 1053.45 730.834C1053.69 731.213 1054.2 731.321 1054.58 731.075Z" fill="white" fill-opacity="0.4"/>
<path opacity="0.11" d="M925.598 774.716C925.977 774.47 926.086 773.963 925.839 773.583C925.593 773.204 925.085 773.096 924.706 773.342C924.326 773.588 924.219 774.096 924.466 774.475C924.711 774.855 925.219 774.963 925.598 774.716Z" fill="white" fill-opacity="0.4"/>
<path opacity="0.11" d="M1055.2 772.68C1055.58 772.434 1055.69 771.927 1055.44 771.547C1055.2 771.168 1054.69 771.06 1054.31 771.306C1053.93 771.552 1053.82 772.06 1054.07 772.439C1054.31 772.819 1054.82 772.927 1055.2 772.68Z" fill="white" fill-opacity="0.4"/>
<path opacity="0.3" d="M885.278 891.748C886.038 891.256 886.254 890.24 885.761 889.48C885.267 888.721 884.253 888.505 883.492 888.998C882.733 889.49 882.517 890.506 883.009 891.265C883.503 892.026 884.518 892.241 885.278 891.748Z" fill="white" fill-opacity="0.4"/>
<path opacity="0.11" d="M912.459 844.801C913.218 844.307 913.435 843.293 912.942 842.532C912.448 841.773 911.433 841.557 910.673 842.049C909.914 842.543 909.697 843.558 910.19 844.319C910.684 845.078 911.699 845.294 912.459 844.801Z" fill="white" fill-opacity="0.4"/>
<path d="M896.504 820.96C897.074 820.59 897.236 819.829 896.866 819.259C896.496 818.69 895.735 818.528 895.164 818.897C894.595 819.267 894.433 820.028 894.803 820.598C895.173 821.167 895.933 821.33 896.504 820.96Z" fill="white" fill-opacity="0.4"/>
<path d="M895.915 923.933C896.485 923.563 896.647 922.801 896.277 922.232C895.907 921.662 895.145 921.5 894.576 921.87C894.006 922.239 893.844 923.001 894.214 923.57C894.584 924.139 895.344 924.301 895.915 923.933Z" fill="white" fill-opacity="0.4"/>
<path d="M1133.08 789.558C1133.65 789.189 1133.82 788.427 1133.45 787.858C1133.08 787.288 1132.32 787.126 1131.74 787.496C1131.18 787.865 1131.01 788.627 1131.38 789.196C1131.75 789.766 1132.51 789.928 1133.08 789.558Z" fill="white" fill-opacity="0.4"/>
<path d="M679.308 1067.43C679.877 1067.06 680.039 1066.29 679.669 1065.73C679.3 1065.16 678.539 1064.99 677.968 1065.36C677.399 1065.73 677.237 1066.49 677.607 1067.06C677.977 1067.63 678.737 1067.8 679.308 1067.43Z" fill="white" fill-opacity="0.4"/>
<path d="M577.618 1110.95C578.187 1110.58 578.349 1109.82 577.979 1109.25C577.609 1108.68 576.849 1108.52 576.278 1108.89C575.708 1109.26 575.546 1110.02 575.916 1110.59C576.286 1111.16 577.047 1111.32 577.618 1110.95Z" fill="white" fill-opacity="0.4"/>
<path d="M548.081 1091.04C548.651 1090.67 548.813 1089.91 548.443 1089.34C548.073 1088.77 547.312 1088.6 546.742 1088.97C546.172 1089.34 546.01 1090.1 546.38 1090.67C546.75 1091.24 547.511 1091.41 548.081 1091.04Z" fill="white" fill-opacity="0.4"/>
<path d="M872.431 856.126C873 855.757 873.162 854.995 872.792 854.425C872.423 853.856 871.662 853.694 871.091 854.064C870.522 854.432 870.36 855.194 870.73 855.764C871.1 856.333 871.86 856.496 872.431 856.126Z" fill="white" fill-opacity="0.4"/>
<path d="M785.818 984.632C786.387 984.262 786.549 983.5 786.179 982.931C785.809 982.361 785.049 982.199 784.478 982.569C783.909 982.939 783.747 983.7 784.117 984.269C784.486 984.838 785.247 985.002 785.818 984.632Z" fill="white" fill-opacity="0.4"/>
<path d="M978.253 901.764C978.823 901.394 978.985 900.633 978.615 900.063C978.245 899.494 977.484 899.332 976.913 899.702C976.344 900.071 976.182 900.832 976.552 901.401C976.922 901.972 977.682 902.134 978.253 901.764Z" fill="white" fill-opacity="0.4"/>
<path d="M1130.1 736.782C1130.67 736.412 1130.83 735.65 1130.46 735.081C1130.09 734.511 1129.33 734.349 1128.76 734.719C1128.19 735.088 1128.03 735.85 1128.4 736.419C1128.77 736.989 1129.53 737.151 1130.1 736.782Z" fill="white" fill-opacity="0.4"/>
<path d="M1122.06 688.261C1122.63 687.891 1122.79 687.13 1122.42 686.56C1122.05 685.991 1121.29 685.829 1120.72 686.198C1120.15 686.568 1119.99 687.329 1120.36 687.899C1120.73 688.469 1121.49 688.631 1122.06 688.261Z" fill="white" fill-opacity="0.4"/>
<path opacity="0.3" d="M953.661 784.839C954.42 784.346 954.637 783.33 954.144 782.571C953.65 781.811 952.636 781.595 951.875 782.088C951.116 782.581 950.899 783.596 951.392 784.356C951.886 785.116 952.901 785.332 953.661 784.839Z" fill="white" fill-opacity="0.4"/>
<path d="M921.989 736.028C922.748 735.535 922.964 734.52 922.471 733.76C921.977 733 920.963 732.784 920.202 733.277C919.443 733.77 919.227 734.786 919.719 735.545C920.213 736.305 921.228 736.521 921.989 736.028Z" fill="white" fill-opacity="0.4"/>
<path d="M998.893 776.987C999.462 776.618 999.624 775.856 999.254 775.287C998.885 774.717 998.124 774.555 997.553 774.925C996.984 775.294 996.822 776.056 997.192 776.625C997.561 777.195 998.322 777.357 998.893 776.987Z" fill="white" fill-opacity="0.4"/>
<path opacity="0.3" d="M1014.84 728.535C1015.6 728.042 1015.81 727.027 1015.32 726.267C1014.83 725.507 1013.81 725.291 1013.05 725.784C1012.29 726.277 1012.08 727.292 1012.57 728.052C1013.06 728.812 1014.08 729.028 1014.84 728.535Z" fill="white" fill-opacity="0.4"/>
<path opacity="0.3" d="M1114.58 733.178C1115.34 732.685 1115.55 731.67 1115.06 730.91C1114.57 730.151 1113.55 729.934 1112.79 730.427C1112.03 730.92 1111.82 731.936 1112.31 732.695C1112.8 733.455 1113.82 733.671 1114.58 733.178Z" fill="white" fill-opacity="0.4"/>
<path opacity="0.3" d="M1035.03 786.752C1035.79 786.259 1036 785.244 1035.51 784.484C1035.02 783.725 1034 783.508 1033.24 784.001C1032.48 784.494 1032.27 785.51 1032.76 786.269C1033.25 787.029 1034.27 787.245 1035.03 786.752Z" fill="white" fill-opacity="0.4"/>
<path opacity="0.3" d="M647.988 1054.53C648.748 1054.04 648.964 1053.03 648.471 1052.27C647.977 1051.51 646.963 1051.29 646.202 1051.78C645.443 1052.28 645.227 1053.29 645.719 1054.05C646.213 1054.81 647.228 1055.03 647.988 1054.53Z" fill="white" fill-opacity="0.4"/>
<path opacity="0.3" d="M567.755 1052.86C568.514 1052.37 568.731 1051.36 568.238 1050.59C567.744 1049.84 566.729 1049.62 565.969 1050.11C565.209 1050.6 564.993 1051.62 565.486 1052.38C565.98 1053.14 566.994 1053.36 567.755 1052.86Z" fill="white" fill-opacity="0.4"/>
<path opacity="0.11" d="M1073 730.847C1073.76 730.354 1073.98 729.338 1073.49 728.578C1072.99 727.819 1071.98 727.603 1071.22 728.095C1070.46 728.589 1070.24 729.604 1070.73 730.364C1071.23 731.123 1072.24 731.34 1073 730.847Z" fill="white" fill-opacity="0.4"/>
<path opacity="0.3" d="M650.9 965.688C651.659 965.194 651.875 964.18 651.382 963.419C650.888 962.66 649.874 962.443 649.113 962.936C648.354 963.43 648.138 964.445 648.63 965.205C649.124 965.964 650.139 966.181 650.9 965.688Z" fill="white" fill-opacity="0.4"/>
<path opacity="0.11" d="M623.414 963.983C624.174 963.49 624.39 962.474 623.897 961.715C623.403 960.955 622.389 960.738 621.628 961.232C620.869 961.725 620.653 962.741 621.145 963.5C621.639 964.259 622.654 964.476 623.414 963.983Z" fill="white" fill-opacity="0.4"/>
<path opacity="0.3" d="M646.473 1011.55C647.232 1011.06 647.448 1010.04 646.956 1009.28C646.462 1008.52 645.447 1008.31 644.687 1008.8C643.927 1009.29 643.711 1010.31 644.204 1011.07C644.698 1011.83 645.712 1012.04 646.473 1011.55Z" fill="white" fill-opacity="0.4"/>
<path d="M688.99 982.981C689.559 982.611 689.721 981.85 689.351 981.28C688.981 980.71 688.221 980.548 687.65 980.918C687.08 981.288 686.919 982.05 687.288 982.619C687.658 983.189 688.419 983.351 688.99 982.981Z" fill="white" fill-opacity="0.4"/>
<path opacity="0.11" d="M2579.92 209.39C2579.16 209.883 2578.95 210.899 2579.44 211.658C2579.93 212.418 2580.95 212.633 2581.71 212.141C2582.47 211.648 2582.68 210.632 2582.19 209.873C2581.7 209.114 2580.68 208.897 2579.92 209.39Z" fill="white" fill-opacity="0.4"/>
<path d="M2570.55 204.726C2569.98 205.096 2569.82 205.858 2570.19 206.427C2570.56 206.997 2571.32 207.159 2571.89 206.789C2572.46 206.419 2572.62 205.658 2572.25 205.089C2571.88 204.52 2571.12 204.356 2570.55 204.726Z" fill="white" fill-opacity="0.4"/>
<path d="M2557.23 233.885C2556.66 234.255 2556.5 235.016 2556.87 235.585C2557.24 236.156 2558 236.318 2558.57 235.948C2559.14 235.578 2559.3 234.816 2558.93 234.247C2558.56 233.677 2557.8 233.515 2557.23 233.885Z" fill="white" fill-opacity="0.4"/>
<path d="M2616.56 197.339C2615.99 197.709 2615.83 198.471 2616.2 199.041C2616.57 199.61 2617.33 199.772 2617.9 199.402C2618.47 199.034 2618.63 198.272 2618.26 197.702C2617.89 197.133 2617.13 196.97 2616.56 197.339Z" fill="white" fill-opacity="0.4"/>
<path opacity="0.11" d="M2639.89 158.753C2639.13 159.246 2638.91 160.262 2639.4 161.021C2639.9 161.78 2640.91 161.997 2641.67 161.504C2642.43 161.011 2642.65 159.995 2642.16 159.236C2641.66 158.475 2640.65 158.261 2639.89 158.753Z" fill="white" fill-opacity="0.4"/>
<path d="M2662.76 165.403C2662.38 165.649 2662.27 166.157 2662.52 166.536C2662.76 166.916 2663.27 167.024 2663.65 166.778C2664.03 166.531 2664.14 166.024 2663.89 165.645C2663.65 165.265 2663.14 165.156 2662.76 165.403Z" fill="white" fill-opacity="0.4"/>
<path d="M2564.59 181.237C2564.21 181.484 2564.1 181.991 2564.35 182.37C2564.6 182.75 2565.1 182.859 2565.48 182.612C2565.86 182.366 2565.97 181.858 2565.72 181.479C2565.48 181.099 2564.97 180.992 2564.59 181.237Z" fill="white" fill-opacity="0.4"/>
<path d="M2414.71 278.499C2414.33 278.744 2414.22 279.252 2414.47 279.632C2414.71 280.012 2415.22 280.119 2415.6 279.873C2415.98 279.626 2416.09 279.12 2415.84 278.74C2415.6 278.361 2415.09 278.252 2414.71 278.499Z" fill="white" fill-opacity="0.4"/>
<path d="M2363.87 364.256C2363.49 364.502 2363.38 365.01 2363.63 365.389C2363.88 365.769 2364.38 365.877 2364.76 365.631C2365.14 365.384 2365.25 364.877 2365 364.498C2364.76 364.118 2364.25 364.011 2363.87 364.256Z" fill="white" fill-opacity="0.4"/>
<path d="M2304.48 331.47C2304.1 331.716 2303.99 332.224 2304.24 332.603C2304.49 332.983 2305 333.09 2305.38 332.845C2305.75 332.598 2305.86 332.091 2305.62 331.712C2305.37 331.332 2304.86 331.223 2304.48 331.47Z" fill="white" fill-opacity="0.4"/>
<path d="M2804.68 49.8541C2804.3 50.0998 2804.2 50.6078 2804.44 50.9874C2804.69 51.3669 2805.2 51.4745 2805.57 51.2288C2805.95 50.9818 2806.06 50.4752 2805.82 50.0956C2805.57 49.716 2805.06 49.6071 2804.68 49.8541Z" fill="white" fill-opacity="0.4"/>
<path opacity="0.11" d="M2839.08 80.2889C2838.7 80.5359 2838.59 81.0438 2838.84 81.422C2839.09 81.8016 2839.59 81.9105 2839.97 81.6635C2840.35 81.4179 2840.46 80.9099 2840.21 80.5303C2839.97 80.1507 2839.46 80.0433 2839.08 80.2889Z" fill="white" fill-opacity="0.4"/>
<path opacity="0.11" d="M2858.38 45.2921C2858 45.5391 2857.89 46.0457 2858.14 46.4253C2858.38 46.8049 2858.89 46.9137 2859.27 46.6667C2859.65 46.421 2859.76 45.913 2859.51 45.5334C2859.27 45.1539 2858.76 45.0464 2858.38 45.2921Z" fill="white" fill-opacity="0.4"/>
<path opacity="0.11" d="M2808.92 18.7639C2808.54 19.0095 2808.44 19.5174 2808.68 19.897C2808.93 20.2752 2809.44 20.3841 2809.82 20.1371C2810.2 19.8914 2810.3 19.3835 2810.06 19.0039C2809.81 18.6243 2809.3 18.5169 2808.92 18.7639Z" fill="white" fill-opacity="0.4"/>
<path opacity="0.11" d="M2663.15 152.449C2662.77 152.695 2662.67 153.203 2662.91 153.583C2663.16 153.961 2663.67 154.07 2664.05 153.823C2664.43 153.577 2664.53 153.069 2664.29 152.689C2664.04 152.31 2663.53 152.202 2663.15 152.449Z" fill="white" fill-opacity="0.4"/>
<path opacity="0.11" d="M2549.89 155.595C2549.51 155.842 2549.41 156.349 2549.65 156.728C2549.9 157.108 2550.41 157.217 2550.79 156.97C2551.16 156.724 2551.27 156.216 2551.03 155.836C2550.78 155.457 2550.27 155.349 2549.89 155.595Z" fill="white" fill-opacity="0.4"/>
<path opacity="0.11" d="M2422.36 248.133C2421.99 248.38 2421.88 248.886 2422.12 249.266C2422.37 249.645 2422.88 249.753 2423.26 249.507C2423.64 249.26 2423.74 248.754 2423.5 248.374C2423.25 247.994 2422.74 247.887 2422.36 248.133Z" fill="white" fill-opacity="0.4"/>
<path opacity="0.3" d="M2784.21 87.5667C2783.83 87.8137 2783.72 88.3203 2783.97 88.6999C2784.21 89.0795 2784.72 89.1883 2785.1 88.9413C2785.48 88.6957 2785.59 88.1878 2785.34 87.8082C2785.09 87.4286 2784.59 87.3211 2784.21 87.5667Z" fill="white" fill-opacity="0.4"/>
<path d="M2650.18 227.308C2649.8 227.555 2649.69 228.061 2649.94 228.441C2650.18 228.821 2650.69 228.928 2651.07 228.682C2651.45 228.435 2651.56 227.929 2651.31 227.549C2651.07 227.17 2650.56 227.062 2650.18 227.308Z" fill="white" fill-opacity="0.4"/>
<path d="M2545.19 297.389C2544.81 297.635 2544.71 298.143 2544.95 298.522C2545.2 298.902 2545.71 299.009 2546.09 298.764C2546.47 298.517 2546.57 298.01 2546.33 297.631C2546.08 297.251 2545.57 297.142 2545.19 297.389Z" fill="white" fill-opacity="0.4"/>
<path d="M2655.88 133.718C2655.5 133.964 2655.39 134.472 2655.64 134.851C2655.89 135.231 2656.39 135.338 2656.77 135.091C2657.15 134.846 2657.26 134.338 2657.01 133.959C2656.77 133.58 2656.26 133.471 2655.88 133.718Z" fill="white" fill-opacity="0.4"/>
<path opacity="0.3" d="M2704.01 102.485C2703.63 102.731 2703.52 103.239 2703.77 103.619C2704.01 103.998 2704.52 104.106 2704.9 103.86C2705.28 103.613 2705.39 103.106 2705.14 102.727C2704.89 102.347 2704.39 102.238 2704.01 102.485Z" fill="white" fill-opacity="0.4"/>
<path opacity="0.11" d="M2788.03 108.529C2787.65 108.775 2787.55 109.283 2787.79 109.663C2788.04 110.042 2788.55 110.15 2788.93 109.904C2789.31 109.657 2789.41 109.151 2789.17 108.771C2788.92 108.391 2788.41 108.282 2788.03 108.529Z" fill="white" fill-opacity="0.4"/>
<path opacity="0.3" d="M2627.09 218.84C2626.71 219.085 2626.6 219.593 2626.85 219.973C2627.09 220.352 2627.6 220.46 2627.98 220.214C2628.36 219.967 2628.47 219.461 2628.22 219.081C2627.97 218.701 2627.47 218.592 2627.09 218.84Z" fill="white" fill-opacity="0.4"/>
<path opacity="0.3" d="M2635.71 128.241C2635.33 128.486 2635.22 128.994 2635.47 129.374C2635.72 129.753 2636.22 129.861 2636.6 129.615C2636.98 129.368 2637.09 128.862 2636.84 128.482C2636.6 128.102 2636.09 127.994 2635.71 128.241Z" fill="white" fill-opacity="0.4"/>
<path opacity="0.3" d="M2714.44 67.3811C2714.06 67.6267 2713.95 68.1347 2714.2 68.5129C2714.45 68.8925 2714.95 69.0014 2715.33 68.7543C2715.71 68.5087 2715.82 68.0007 2715.57 67.6211C2715.33 67.2415 2714.82 67.1341 2714.44 67.3811Z" fill="white" fill-opacity="0.4"/>
<path opacity="0.3" d="M2764.27 100.502C2763.89 100.748 2763.78 101.256 2764.03 101.636C2764.27 102.015 2764.78 102.123 2765.16 101.877C2765.54 101.63 2765.65 101.123 2765.4 100.744C2765.15 100.364 2764.65 100.255 2764.27 100.502Z" fill="white" fill-opacity="0.4"/>
<path opacity="0.3" d="M2337.99 380.074C2337.61 380.319 2337.5 380.827 2337.75 381.207C2337.99 381.586 2338.5 381.694 2338.88 381.448C2339.26 381.201 2339.37 380.695 2339.12 380.315C2338.87 379.936 2338.37 379.828 2337.99 380.074Z" fill="white" fill-opacity="0.4"/>
<path opacity="0.11" d="M2466.97 336.433C2466.59 336.678 2466.48 337.186 2466.73 337.565C2466.97 337.944 2467.48 338.053 2467.86 337.806C2468.24 337.56 2468.35 337.052 2468.1 336.673C2467.86 336.293 2467.35 336.186 2466.97 336.433Z" fill="white" fill-opacity="0.4"/>
<path opacity="0.11" d="M2337.37 338.468C2336.99 338.715 2336.88 339.223 2337.12 339.601C2337.37 339.98 2337.88 340.089 2338.26 339.842C2338.64 339.597 2338.74 339.089 2338.5 338.709C2338.25 338.329 2337.74 338.222 2337.37 338.468Z" fill="white" fill-opacity="0.4"/>
<path opacity="0.3" d="M2507.29 219.4C2506.53 219.893 2506.31 220.909 2506.8 221.668C2507.3 222.427 2508.31 222.644 2509.07 222.151C2509.83 221.658 2510.05 220.643 2509.56 219.883C2509.06 219.123 2508.05 218.906 2507.29 219.4Z" fill="white" fill-opacity="0.4"/>
<path opacity="0.11" d="M2480.11 266.348C2479.35 266.842 2479.13 267.856 2479.62 268.617C2480.12 269.376 2481.13 269.592 2481.89 269.1C2482.65 268.606 2482.87 267.591 2482.37 266.83C2481.88 266.071 2480.87 265.855 2480.11 266.348Z" fill="white" fill-opacity="0.4"/>
<path d="M2496.06 290.189C2495.49 290.558 2495.33 291.32 2495.7 291.889C2496.07 292.459 2496.83 292.62 2497.4 292.252C2497.97 291.882 2498.13 291.12 2497.76 290.551C2497.39 289.981 2496.63 289.82 2496.06 290.189Z" fill="white" fill-opacity="0.4"/>
<path d="M2496.65 187.216C2496.08 187.586 2495.92 188.348 2496.29 188.917C2496.66 189.486 2497.42 189.648 2497.99 189.279C2498.56 188.91 2498.72 188.148 2498.35 187.579C2497.98 187.009 2497.22 186.847 2496.65 187.216Z" fill="white" fill-opacity="0.4"/>
<path d="M2259.48 321.591C2258.91 321.959 2258.75 322.721 2259.12 323.291C2259.49 323.86 2260.25 324.022 2260.82 323.654C2261.39 323.284 2261.55 322.522 2261.18 321.952C2260.81 321.383 2260.05 321.221 2259.48 321.591Z" fill="white" fill-opacity="0.4"/>
<path d="M2713.26 43.7222C2712.69 44.0921 2712.53 44.854 2712.9 45.4234C2713.26 45.9928 2714.03 46.1547 2714.6 45.7849C2715.17 45.4151 2715.33 44.6545 2714.96 44.0851C2714.59 43.5143 2713.83 43.3524 2713.26 43.7222Z" fill="white" fill-opacity="0.4"/>
<path d="M2814.95 0.198469C2814.38 0.568295 2814.22 1.3289 2814.59 1.8983C2814.96 2.46769 2815.72 2.63098 2816.29 2.26116C2816.86 1.89133 2817.02 1.12936 2816.65 0.559968C2816.28 -0.00942414 2815.52 -0.171356 2814.95 0.198469Z" fill="white" fill-opacity="0.4"/>
<path d="M2844.48 20.1119C2843.92 20.4818 2843.75 21.2437 2844.12 21.8131C2844.49 22.3825 2845.25 22.5444 2845.82 22.1745C2846.39 21.8047 2846.56 21.0441 2846.19 20.4747C2845.82 19.9039 2845.05 19.7421 2844.48 20.1119Z" fill="white" fill-opacity="0.4"/>
<path d="M2520.14 255.023C2519.57 255.392 2519.4 256.154 2519.77 256.724C2520.14 257.293 2520.91 257.455 2521.48 257.085C2522.04 256.717 2522.21 255.955 2521.84 255.385C2521.47 254.816 2520.71 254.653 2520.14 255.023Z" fill="white" fill-opacity="0.4"/>
<path d="M2606.75 126.517C2606.18 126.887 2606.02 127.649 2606.39 128.218C2606.76 128.788 2607.52 128.949 2608.09 128.58C2608.66 128.21 2608.82 127.449 2608.45 126.88C2608.08 126.31 2607.32 126.147 2606.75 126.517Z" fill="white" fill-opacity="0.4"/>
<path d="M2414.31 209.384C2413.74 209.754 2413.58 210.516 2413.95 211.086C2414.32 211.655 2415.08 211.817 2415.65 211.447C2416.22 211.077 2416.38 210.317 2416.01 209.747C2415.64 209.176 2414.88 209.015 2414.31 209.384Z" fill="white" fill-opacity="0.4"/>
<path d="M2262.47 374.367C2261.9 374.737 2261.74 375.498 2262.11 376.068C2262.48 376.638 2263.24 376.8 2263.81 376.43C2264.38 376.06 2264.54 375.299 2264.17 374.729C2263.8 374.159 2263.04 373.997 2262.47 374.367Z" fill="white" fill-opacity="0.4"/>
<path d="M2270.51 422.888C2269.93 423.257 2269.77 424.019 2270.14 424.588C2270.51 425.158 2271.27 425.319 2271.84 424.951C2272.41 424.581 2272.57 423.819 2272.2 423.25C2271.84 422.68 2271.07 422.518 2270.51 422.888Z" fill="white" fill-opacity="0.4"/>
<path opacity="0.3" d="M2438.89 326.309C2438.13 326.802 2437.92 327.818 2438.41 328.579C2438.9 329.338 2439.92 329.554 2440.68 329.062C2441.44 328.567 2441.65 327.553 2441.16 326.792C2440.67 326.033 2439.65 325.817 2438.89 326.309Z" fill="white" fill-opacity="0.4"/>
<path d="M2470.58 375.121C2469.82 375.614 2469.6 376.63 2470.09 377.389C2470.59 378.148 2471.6 378.364 2472.36 377.872C2473.12 377.379 2473.34 376.363 2472.85 375.604C2472.35 374.843 2471.34 374.628 2470.58 375.121Z" fill="white" fill-opacity="0.4"/>
<path d="M2393.67 334.161C2393.1 334.531 2392.94 335.293 2393.31 335.862C2393.68 336.432 2394.44 336.593 2395.01 336.224C2395.58 335.855 2395.74 335.093 2395.37 334.524C2395 333.954 2394.24 333.791 2393.67 334.161Z" fill="white" fill-opacity="0.4"/>
<path opacity="0.3" d="M2377.73 382.614C2376.97 383.106 2376.75 384.122 2377.25 384.881C2377.74 385.642 2378.75 385.858 2379.51 385.364C2380.27 384.872 2380.49 383.856 2380 383.096C2379.5 382.337 2378.49 382.121 2377.73 382.614Z" fill="white" fill-opacity="0.4"/>
<path opacity="0.3" d="M2277.99 377.971C2277.23 378.463 2277.01 379.479 2277.51 380.238C2278 380.997 2279.01 381.214 2279.77 380.721C2280.53 380.229 2280.75 379.213 2280.26 378.453C2279.76 377.693 2278.75 377.478 2277.99 377.971Z" fill="white" fill-opacity="0.4"/>
<path opacity="0.3" d="M2357.54 324.396C2356.78 324.889 2356.56 325.905 2357.05 326.664C2357.55 327.424 2358.56 327.641 2359.32 327.147C2360.08 326.654 2360.3 325.638 2359.8 324.879C2359.31 324.12 2358.3 323.903 2357.54 324.396Z" fill="white" fill-opacity="0.4"/>
<path opacity="0.3" d="M2744.58 56.6156C2743.82 57.1097 2743.6 58.1242 2744.09 58.8848C2744.59 59.644 2745.6 59.8603 2746.36 59.3677C2747.12 58.8736 2747.34 57.8591 2746.84 57.0985C2746.35 56.3393 2745.34 56.123 2744.58 56.6156Z" fill="white" fill-opacity="0.4"/>
<path opacity="0.3" d="M2824.81 58.2876C2824.05 58.7803 2823.83 59.7949 2824.33 60.5554C2824.82 61.3146 2825.84 61.531 2826.6 61.0383C2827.36 60.5457 2827.57 59.5297 2827.08 58.7691C2826.59 58.0099 2825.57 57.7936 2824.81 58.2876Z" fill="white" fill-opacity="0.4"/>
<path opacity="0.11" d="M2319.56 380.303C2318.8 380.795 2318.58 381.811 2319.08 382.57C2319.57 383.33 2320.59 383.546 2321.35 383.053C2322.11 382.561 2322.32 381.545 2321.83 380.785C2321.34 380.025 2320.32 379.809 2319.56 380.303Z" fill="white" fill-opacity="0.4"/>
<path opacity="0.3" d="M2741.67 145.46C2740.91 145.954 2740.69 146.969 2741.18 147.73C2741.68 148.489 2742.69 148.705 2743.45 148.212C2744.21 147.718 2744.43 146.704 2743.93 145.943C2743.44 145.184 2742.42 144.968 2741.67 145.46Z" fill="white" fill-opacity="0.4"/>
<path opacity="0.11" d="M2769.15 147.166C2768.39 147.658 2768.18 148.674 2768.67 149.434C2769.16 150.194 2770.18 150.411 2770.94 149.917C2771.7 149.424 2771.91 148.408 2771.42 147.649C2770.93 146.89 2769.91 146.673 2769.15 147.166Z" fill="white" fill-opacity="0.4"/>
<path opacity="0.3" d="M2746.09 99.598C2745.33 100.091 2745.12 101.107 2745.61 101.866C2746.1 102.626 2747.12 102.843 2747.88 102.349C2748.64 101.856 2748.85 100.84 2748.36 100.081C2747.87 99.3216 2746.85 99.1054 2746.09 99.598Z" fill="white" fill-opacity="0.4"/>
<path d="M2703.58 128.168C2703.01 128.538 2702.84 129.298 2703.21 129.869C2703.58 130.439 2704.34 130.601 2704.92 130.231C2705.49 129.861 2705.65 129.1 2705.28 128.53C2704.91 127.96 2704.15 127.798 2703.58 128.168Z" fill="white" fill-opacity="0.4"/>
<path opacity="0.11" d="M2478.41 573.631C2477.66 574.123 2477.44 575.139 2477.93 575.898C2478.43 576.659 2479.44 576.875 2480.2 576.381C2480.96 575.889 2481.18 574.873 2480.68 574.114C2480.19 573.354 2479.18 573.138 2478.41 573.631Z" fill="white" fill-opacity="0.4"/>
<path d="M2469.04 568.965C2468.47 569.335 2468.31 570.097 2468.68 570.667C2469.05 571.236 2469.81 571.398 2470.38 571.028C2470.95 570.66 2471.11 569.898 2470.74 569.328C2470.38 568.759 2469.61 568.596 2469.04 568.965Z" fill="white" fill-opacity="0.4"/>
<path d="M2455.72 598.126C2455.15 598.496 2454.99 599.256 2455.36 599.827C2455.73 600.396 2456.49 600.558 2457.06 600.188C2457.63 599.819 2457.79 599.057 2457.42 598.487C2457.05 597.918 2456.29 597.756 2455.72 598.126Z" fill="white" fill-opacity="0.4"/>
<path d="M2515.05 561.579C2514.48 561.949 2514.32 562.711 2514.69 563.28C2515.06 563.849 2515.82 564.011 2516.39 563.641C2516.96 563.273 2517.13 562.511 2516.76 561.942C2516.39 561.372 2515.63 561.21 2515.05 561.579Z" fill="white" fill-opacity="0.4"/>
<path opacity="0.11" d="M2538.38 522.994C2537.62 523.487 2537.41 524.503 2537.9 525.262C2538.39 526.021 2539.41 526.237 2540.17 525.745C2540.93 525.252 2541.14 524.236 2540.65 523.477C2540.16 522.716 2539.14 522.501 2538.38 522.994Z" fill="white" fill-opacity="0.4"/>
<path d="M2561.25 529.642C2560.88 529.888 2560.77 530.396 2561.01 530.776C2561.26 531.155 2561.77 531.263 2562.15 531.017C2562.53 530.77 2562.64 530.264 2562.39 529.884C2562.14 529.504 2561.63 529.395 2561.25 529.642Z" fill="white" fill-opacity="0.4"/>
<path d="M2463.08 545.478C2462.71 545.724 2462.6 546.232 2462.84 546.61C2463.09 546.989 2463.6 547.098 2463.98 546.851C2464.36 546.606 2464.47 546.098 2464.22 545.718C2463.97 545.338 2463.46 545.231 2463.08 545.478Z" fill="white" fill-opacity="0.4"/>
<path d="M2313.21 642.738C2312.83 642.984 2312.72 643.492 2312.96 643.871C2313.21 644.251 2313.72 644.358 2314.1 644.113C2314.48 643.866 2314.58 643.359 2314.34 642.979C2314.09 642.6 2313.58 642.491 2313.21 642.738Z" fill="white" fill-opacity="0.4"/>
<path d="M2262.36 728.496C2261.99 728.743 2261.88 729.249 2262.12 729.629C2262.37 730.009 2262.88 730.116 2263.26 729.87C2263.64 729.623 2263.74 729.117 2263.5 728.737C2263.25 728.358 2262.74 728.25 2262.36 728.496Z" fill="white" fill-opacity="0.4"/>
<path d="M2202.98 695.707C2202.6 695.952 2202.49 696.46 2202.74 696.84C2202.98 697.22 2203.49 697.327 2203.87 697.081C2204.25 696.834 2204.36 696.328 2204.11 695.948C2203.86 695.569 2203.36 695.46 2202.98 695.707Z" fill="white" fill-opacity="0.4"/>
<path d="M2703.18 414.095C2702.8 414.341 2702.69 414.849 2702.94 415.228C2703.18 415.608 2703.69 415.715 2704.07 415.47C2704.45 415.223 2704.56 414.716 2704.31 414.336C2704.06 413.957 2703.56 413.848 2703.18 414.095Z" fill="white" fill-opacity="0.4"/>
<path opacity="0.11" d="M2737.58 444.529C2737.2 444.775 2737.09 445.283 2737.34 445.663C2737.58 446.041 2738.09 446.15 2738.47 445.903C2738.85 445.657 2738.96 445.149 2738.71 444.77C2738.46 444.39 2737.96 444.282 2737.58 444.529Z" fill="white" fill-opacity="0.4"/>
<path opacity="0.11" d="M2756.87 409.533C2756.49 409.78 2756.39 410.286 2756.63 410.666C2756.88 411.046 2757.39 411.154 2757.77 410.907C2758.15 410.662 2758.25 410.154 2758.01 409.774C2757.76 409.395 2757.25 409.287 2756.87 409.533Z" fill="white" fill-opacity="0.4"/>
<path opacity="0.11" d="M2707.42 383.004C2707.04 383.25 2706.93 383.758 2707.18 384.138C2707.42 384.517 2707.93 384.625 2708.31 384.378C2708.69 384.132 2708.8 383.624 2708.55 383.245C2708.31 382.866 2707.8 382.757 2707.42 383.004Z" fill="white" fill-opacity="0.4"/>
<path opacity="0.11" d="M2561.65 516.69C2561.27 516.936 2561.16 517.444 2561.41 517.823C2561.65 518.202 2562.16 518.31 2562.54 518.063C2562.92 517.818 2563.03 517.31 2562.78 516.93C2562.53 516.552 2562.03 516.443 2561.65 516.69Z" fill="white" fill-opacity="0.4"/>
<path opacity="0.11" d="M2448.39 519.836C2448.01 520.081 2447.9 520.589 2448.15 520.968C2448.39 521.347 2448.9 521.456 2449.28 521.209C2449.66 520.963 2449.77 520.455 2449.52 520.076C2449.28 519.696 2448.77 519.589 2448.39 519.836Z" fill="white" fill-opacity="0.4"/>
<path opacity="0.11" d="M2320.86 612.373C2320.48 612.62 2320.37 613.127 2320.62 613.506C2320.86 613.886 2321.37 613.993 2321.75 613.748C2322.13 613.501 2322.24 612.994 2321.99 612.615C2321.74 612.235 2321.24 612.128 2320.86 612.373Z" fill="white" fill-opacity="0.4"/>
<path opacity="0.3" d="M2682.7 451.806C2682.32 452.053 2682.22 452.56 2682.46 452.939C2682.71 453.319 2683.22 453.428 2683.59 453.181C2683.97 452.935 2684.08 452.427 2683.84 452.047C2683.59 451.668 2683.08 451.56 2682.7 451.806Z" fill="white" fill-opacity="0.4"/>
<path d="M2548.67 591.549C2548.29 591.796 2548.18 592.302 2548.43 592.682C2548.68 593.061 2549.18 593.169 2549.56 592.923C2549.94 592.678 2550.05 592.17 2549.81 591.79C2549.56 591.41 2549.05 591.303 2548.67 591.549Z" fill="white" fill-opacity="0.4"/>
<path d="M2443.69 661.63C2443.31 661.875 2443.2 662.383 2443.45 662.763C2443.69 663.143 2444.2 663.25 2444.58 663.004C2444.96 662.757 2445.07 662.251 2444.82 661.871C2444.58 661.492 2444.07 661.384 2443.69 661.63Z" fill="white" fill-opacity="0.4"/>
<path d="M2554.38 497.957C2554 498.203 2553.89 498.711 2554.13 499.091C2554.38 499.47 2554.89 499.578 2555.27 499.332C2555.65 499.085 2555.75 498.579 2555.51 498.199C2555.26 497.819 2554.75 497.71 2554.38 497.957Z" fill="white" fill-opacity="0.4"/>
<path opacity="0.3" d="M2602.5 466.726C2602.12 466.972 2602.01 467.48 2602.26 467.859C2602.51 468.239 2603.01 468.346 2603.39 468.101C2603.77 467.854 2603.88 467.347 2603.63 466.967C2603.39 466.588 2602.88 466.479 2602.5 466.726Z" fill="white" fill-opacity="0.4"/>
<path opacity="0.11" d="M2686.53 472.769C2686.15 473.015 2686.04 473.523 2686.29 473.902C2686.53 474.282 2687.04 474.389 2687.42 474.144C2687.8 473.897 2687.91 473.39 2687.66 473.01C2687.42 472.631 2686.91 472.522 2686.53 472.769Z" fill="white" fill-opacity="0.4"/>
<path opacity="0.3" d="M2525.58 583.08C2525.2 583.326 2525.09 583.834 2525.34 584.213C2525.59 584.593 2526.09 584.701 2526.47 584.455C2526.85 584.208 2526.96 583.701 2526.71 583.322C2526.47 582.942 2525.96 582.833 2525.58 583.08Z" fill="white" fill-opacity="0.4"/>
<path opacity="0.3" d="M2534.2 492.481C2533.82 492.727 2533.72 493.235 2533.96 493.615C2534.21 493.994 2534.72 494.102 2535.1 493.856C2535.48 493.609 2535.58 493.102 2535.34 492.723C2535.09 492.343 2534.58 492.234 2534.2 492.481Z" fill="white" fill-opacity="0.4"/>
<path opacity="0.3" d="M2612.93 431.621C2612.55 431.866 2612.45 432.374 2612.69 432.754C2612.94 433.132 2613.45 433.241 2613.83 432.994C2614.21 432.748 2614.31 432.24 2614.07 431.861C2613.82 431.481 2613.31 431.374 2612.93 431.621Z" fill="white" fill-opacity="0.4"/>
<path opacity="0.3" d="M2662.76 464.743C2662.38 464.988 2662.27 465.496 2662.52 465.876C2662.77 466.256 2663.27 466.363 2663.65 466.117C2664.03 465.87 2664.14 465.364 2663.89 464.984C2663.65 464.605 2663.14 464.496 2662.76 464.743Z" fill="white" fill-opacity="0.4"/>
<path opacity="0.3" d="M2236.48 744.314C2236.1 744.561 2235.99 745.068 2236.24 745.448C2236.49 745.827 2236.99 745.935 2237.37 745.689C2237.75 745.442 2237.86 744.935 2237.61 744.556C2237.37 744.176 2236.86 744.069 2236.48 744.314Z" fill="white" fill-opacity="0.4"/>
<path opacity="0.11" d="M2365.46 700.672C2365.08 700.918 2364.97 701.426 2365.22 701.805C2365.47 702.184 2365.97 702.293 2366.35 702.046C2366.73 701.8 2366.84 701.292 2366.6 700.912C2366.35 700.534 2365.84 700.425 2365.46 700.672Z" fill="white" fill-opacity="0.4"/>
<path opacity="0.11" d="M2235.86 702.708C2235.48 702.954 2235.37 703.462 2235.62 703.842C2235.86 704.22 2236.37 704.329 2236.75 704.082C2237.13 703.836 2237.24 703.328 2236.99 702.948C2236.75 702.569 2236.24 702.461 2235.86 702.708Z" fill="white" fill-opacity="0.4"/>
<path opacity="0.3" d="M2405.78 583.64C2405.02 584.133 2404.8 585.149 2405.3 585.908C2405.79 586.667 2406.81 586.883 2407.57 586.391C2408.33 585.898 2408.54 584.882 2408.05 584.123C2407.56 583.362 2406.54 583.147 2405.78 583.64Z" fill="white" fill-opacity="0.4"/>
<path opacity="0.11" d="M2378.6 630.588C2377.84 631.082 2377.62 632.097 2378.12 632.857C2378.61 633.617 2379.63 633.833 2380.39 633.34C2381.15 632.846 2381.36 631.832 2380.87 631.071C2380.38 630.312 2379.36 630.096 2378.6 630.588Z" fill="white" fill-opacity="0.4"/>
<path d="M2394.56 654.43C2393.99 654.8 2393.82 655.56 2394.19 656.13C2394.56 656.699 2395.32 656.862 2395.9 656.493C2396.46 656.123 2396.63 655.361 2396.26 654.791C2395.89 654.222 2395.13 654.06 2394.56 654.43Z" fill="white" fill-opacity="0.4"/>
<path d="M2395.15 551.457C2394.57 551.826 2394.41 552.588 2394.78 553.158C2395.15 553.727 2395.91 553.889 2396.48 553.521C2397.05 553.151 2397.22 552.389 2396.85 551.819C2396.48 551.25 2395.72 551.088 2395.15 551.457Z" fill="white" fill-opacity="0.4"/>
<path d="M2157.98 685.832C2157.41 686.202 2157.24 686.962 2157.61 687.532C2157.98 688.101 2158.74 688.264 2159.31 687.894C2159.88 687.525 2160.05 686.763 2159.68 686.193C2159.31 685.624 2158.55 685.462 2157.98 685.832Z" fill="white" fill-opacity="0.4"/>
<path d="M2611.75 407.963C2611.18 408.333 2611.02 409.095 2611.39 409.664C2611.76 410.233 2612.52 410.395 2613.09 410.025C2613.66 409.656 2613.82 408.895 2613.45 408.326C2613.08 407.755 2612.32 407.593 2611.75 407.963Z" fill="white" fill-opacity="0.4"/>
<path d="M2713.44 364.439C2712.87 364.809 2712.71 365.57 2713.08 366.139C2713.45 366.708 2714.21 366.872 2714.78 366.502C2715.35 366.132 2715.51 365.37 2715.14 364.801C2714.77 364.231 2714.01 364.069 2713.44 364.439Z" fill="white" fill-opacity="0.4"/>
<path d="M2742.98 384.353C2742.41 384.722 2742.25 385.484 2742.62 386.054C2742.99 386.623 2743.75 386.785 2744.32 386.415C2744.89 386.045 2745.05 385.285 2744.68 384.715C2744.31 384.145 2743.55 383.983 2742.98 384.353Z" fill="white" fill-opacity="0.4"/>
<path d="M2418.63 619.262C2418.06 619.632 2417.9 620.394 2418.27 620.963C2418.64 621.532 2419.4 621.694 2419.97 621.324C2420.54 620.956 2420.7 620.194 2420.33 619.625C2419.96 619.055 2419.2 618.893 2418.63 619.262Z" fill="white" fill-opacity="0.4"/>
<path d="M2505.24 490.758C2504.67 491.127 2504.51 491.889 2504.88 492.459C2505.25 493.028 2506.01 493.19 2506.58 492.82C2507.15 492.452 2507.31 491.69 2506.94 491.12C2506.57 490.551 2505.81 490.388 2505.24 490.758Z" fill="white" fill-opacity="0.4"/>
<path d="M2312.81 573.625C2312.24 573.995 2312.07 574.757 2312.44 575.326C2312.81 575.896 2313.58 576.058 2314.15 575.688C2314.72 575.318 2314.88 574.557 2314.51 573.988C2314.14 573.419 2313.38 573.255 2312.81 573.625Z" fill="white" fill-opacity="0.4"/>
<path d="M2160.96 738.608C2160.39 738.978 2160.23 739.738 2160.6 740.309C2160.97 740.879 2161.73 741.04 2162.3 740.671C2162.87 740.301 2163.03 739.54 2162.66 738.969C2162.29 738.4 2161.53 738.238 2160.96 738.608Z" fill="white" fill-opacity="0.4"/>
<path d="M2169 787.127C2168.43 787.497 2168.27 788.258 2168.64 788.828C2169.01 789.397 2169.77 789.56 2170.34 789.19C2170.91 788.82 2171.07 788.059 2170.7 787.489C2170.33 786.92 2169.57 786.758 2169 787.127Z" fill="white" fill-opacity="0.4"/>
<path opacity="0.3" d="M2337.39 690.55C2336.63 691.044 2336.41 692.059 2336.9 692.819C2337.4 693.579 2338.41 693.795 2339.17 693.302C2339.93 692.808 2340.15 691.794 2339.66 691.033C2339.16 690.274 2338.15 690.058 2337.39 690.55Z" fill="white" fill-opacity="0.4"/>
<path d="M2369.07 739.362C2368.31 739.854 2368.1 740.87 2368.59 741.629C2369.08 742.389 2370.1 742.605 2370.86 742.112C2371.62 741.62 2371.83 740.604 2371.34 739.844C2370.85 739.084 2369.83 738.869 2369.07 739.362Z" fill="white" fill-opacity="0.4"/>
<path d="M2292.17 698.402C2291.6 698.772 2291.44 699.534 2291.81 700.103C2292.18 700.672 2292.94 700.834 2293.51 700.464C2294.08 700.096 2294.24 699.334 2293.87 698.765C2293.5 698.195 2292.74 698.033 2292.17 698.402Z" fill="white" fill-opacity="0.4"/>
<path opacity="0.3" d="M2276.22 746.854C2275.46 747.347 2275.25 748.363 2275.74 749.122C2276.23 749.883 2277.25 750.099 2278.01 749.605C2278.77 749.112 2278.98 748.096 2278.49 747.337C2278 746.578 2276.98 746.362 2276.22 746.854Z" fill="white" fill-opacity="0.4"/>
<path opacity="0.3" d="M2176.48 742.211C2175.72 742.704 2175.51 743.72 2176 744.479C2176.49 745.238 2177.51 745.455 2178.27 744.962C2179.03 744.469 2179.25 743.453 2178.75 742.694C2178.26 741.934 2177.24 741.719 2176.48 742.211Z" fill="white" fill-opacity="0.4"/>
<path opacity="0.3" d="M2256.03 688.637C2255.27 689.129 2255.05 690.145 2255.55 690.905C2256.04 691.665 2257.06 691.881 2257.82 691.387C2258.58 690.895 2258.79 689.88 2258.3 689.12C2257.81 688.36 2256.79 688.144 2256.03 688.637Z" fill="white" fill-opacity="0.4"/>
<path opacity="0.3" d="M2643.07 420.855C2642.31 421.349 2642.1 422.364 2642.59 423.124C2643.08 423.883 2644.1 424.1 2644.86 423.607C2645.62 423.113 2645.83 422.099 2645.34 421.338C2644.85 420.579 2643.83 420.362 2643.07 420.855Z" fill="white" fill-opacity="0.4"/>
<path opacity="0.3" d="M2723.31 422.527C2722.55 423.02 2722.33 424.034 2722.82 424.795C2723.32 425.554 2724.33 425.77 2725.09 425.278C2725.85 424.785 2726.07 423.769 2725.57 423.01C2725.08 422.249 2724.06 422.033 2723.31 422.527Z" fill="white" fill-opacity="0.4"/>
<path opacity="0.11" d="M2218.06 744.543C2217.3 745.036 2217.08 746.052 2217.57 746.811C2218.07 747.57 2219.08 747.787 2219.84 747.294C2220.6 746.801 2220.82 745.785 2220.32 745.026C2219.83 744.266 2218.82 744.049 2218.06 744.543Z" fill="white" fill-opacity="0.4"/>
<path opacity="0.3" d="M2640.16 509.7C2639.4 510.194 2639.18 511.208 2639.68 511.969C2640.17 512.728 2641.19 512.945 2641.95 512.452C2642.71 511.958 2642.92 510.943 2642.43 510.183C2641.94 509.423 2640.92 509.207 2640.16 509.7Z" fill="white" fill-opacity="0.4"/>
<path opacity="0.11" d="M2667.65 511.407C2666.89 511.899 2666.67 512.915 2667.16 513.674C2667.66 514.435 2668.67 514.651 2669.43 514.157C2670.19 513.665 2670.41 512.649 2669.91 511.889C2669.42 511.13 2668.41 510.914 2667.65 511.407Z" fill="white" fill-opacity="0.4"/>
<path opacity="0.3" d="M2644.59 463.837C2643.83 464.33 2643.61 465.346 2644.1 466.105C2644.6 466.866 2645.61 467.082 2646.37 466.588C2647.13 466.095 2647.35 465.079 2646.86 464.32C2646.36 463.561 2645.35 463.345 2644.59 463.837Z" fill="white" fill-opacity="0.4"/>
<path d="M2602.07 492.409C2601.5 492.779 2601.34 493.539 2601.71 494.11C2602.08 494.679 2602.84 494.841 2603.41 494.471C2603.98 494.102 2604.14 493.341 2603.77 492.77C2603.4 492.201 2602.64 492.039 2602.07 492.409Z" fill="white" fill-opacity="0.4"/>
<path opacity="0.11" d="M2047 700.515C2046.24 701.007 2046.02 702.023 2046.52 702.782C2047.01 703.543 2048.03 703.758 2048.79 703.265C2049.55 702.773 2049.76 701.757 2049.27 700.997C2048.77 700.238 2047.76 700.022 2047 700.515Z" fill="white" fill-opacity="0.4"/>
<path d="M2037.63 695.85C2037.06 696.22 2036.9 696.982 2037.27 697.552C2037.64 698.121 2038.4 698.283 2038.97 697.913C2039.54 697.543 2039.7 696.783 2039.33 696.213C2038.96 695.644 2038.2 695.481 2037.63 695.85Z" fill="white" fill-opacity="0.4"/>
<path d="M2024.31 725.009C2023.74 725.379 2023.57 726.14 2023.94 726.709C2024.31 727.28 2025.07 727.442 2025.64 727.072C2026.21 726.702 2026.38 725.94 2026.01 725.371C2025.64 724.801 2024.88 724.64 2024.31 725.009Z" fill="white" fill-opacity="0.4"/>
<path d="M2083.64 688.464C2083.07 688.834 2082.91 689.596 2083.28 690.165C2083.65 690.734 2084.41 690.896 2084.98 690.526C2085.55 690.157 2085.71 689.396 2085.34 688.827C2084.97 688.257 2084.21 688.094 2083.64 688.464Z" fill="white" fill-opacity="0.4"/>
<path opacity="0.11" d="M2106.97 649.879C2106.21 650.372 2105.99 651.388 2106.48 652.147C2106.98 652.906 2107.99 653.123 2108.75 652.63C2109.51 652.137 2109.73 651.121 2109.24 650.362C2108.74 649.601 2107.73 649.385 2106.97 649.879Z" fill="white" fill-opacity="0.4"/>
<path d="M2129.84 656.528C2129.46 656.773 2129.35 657.281 2129.6 657.661C2129.84 658.04 2130.35 658.148 2130.73 657.902C2131.11 657.655 2131.22 657.149 2130.97 656.769C2130.73 656.389 2130.22 656.281 2129.84 656.528Z" fill="white" fill-opacity="0.4"/>
<path d="M2031.67 672.362C2031.29 672.609 2031.18 673.115 2031.43 673.495C2031.68 673.874 2032.19 673.983 2032.56 673.736C2032.94 673.491 2033.05 672.983 2032.8 672.603C2032.56 672.223 2032.05 672.116 2031.67 672.362Z" fill="white" fill-opacity="0.4"/>
<path d="M1881.79 769.623C1881.41 769.869 1881.3 770.377 1881.55 770.756C1881.79 771.136 1882.3 771.243 1882.68 770.998C1883.06 770.751 1883.17 770.244 1882.92 769.865C1882.68 769.485 1882.17 769.376 1881.79 769.623Z" fill="white" fill-opacity="0.4"/>
<path d="M1830.95 855.381C1830.57 855.627 1830.46 856.134 1830.71 856.514C1830.95 856.893 1831.46 857.001 1831.84 856.755C1832.22 856.509 1832.33 856.001 1832.08 855.622C1831.84 855.242 1831.33 855.134 1830.95 855.381Z" fill="white" fill-opacity="0.4"/>
<path d="M1771.56 822.595C1771.18 822.841 1771.07 823.348 1771.32 823.728C1771.57 824.107 1772.07 824.215 1772.45 823.969C1772.83 823.723 1772.94 823.215 1772.69 822.836C1772.45 822.456 1771.94 822.348 1771.56 822.595Z" fill="white" fill-opacity="0.4"/>
<path d="M2271.76 540.979C2271.38 541.224 2271.28 541.732 2271.52 542.112C2271.77 542.492 2272.28 542.599 2272.66 542.353C2273.03 542.106 2273.14 541.6 2272.9 541.22C2272.65 540.841 2272.14 540.732 2271.76 540.979Z" fill="white" fill-opacity="0.4"/>
<path opacity="0.11" d="M2306.16 571.413C2305.78 571.659 2305.67 572.167 2305.92 572.545C2306.17 572.925 2306.67 573.034 2307.05 572.787C2307.43 572.541 2307.54 572.033 2307.29 571.653C2307.05 571.274 2306.54 571.166 2306.16 571.413Z" fill="white" fill-opacity="0.4"/>
<path opacity="0.11" d="M2325.46 536.417C2325.08 536.664 2324.97 537.17 2325.22 537.55C2325.46 537.929 2325.97 538.038 2326.35 537.791C2326.73 537.546 2326.84 537.038 2326.59 536.658C2326.35 536.278 2325.84 536.171 2325.46 536.417Z" fill="white" fill-opacity="0.4"/>
<path opacity="0.11" d="M2276 509.888C2275.63 510.134 2275.52 510.642 2275.76 511.02C2276.01 511.4 2276.52 511.508 2276.9 511.261C2277.28 511.016 2277.38 510.508 2277.14 510.128C2276.89 509.749 2276.38 509.641 2276 509.888Z" fill="white" fill-opacity="0.4"/>
<path opacity="0.11" d="M2130.23 643.575C2129.85 643.821 2129.75 644.329 2129.99 644.707C2130.24 645.087 2130.74 645.196 2131.12 644.949C2131.5 644.703 2131.61 644.195 2131.37 643.815C2131.12 643.436 2130.61 643.328 2130.23 643.575Z" fill="white" fill-opacity="0.4"/>
<path opacity="0.11" d="M2016.98 646.72C2016.61 646.967 2016.5 647.473 2016.74 647.853C2016.99 648.232 2017.5 648.341 2017.88 648.094C2018.26 647.849 2018.36 647.341 2018.12 646.961C2017.87 646.581 2017.36 646.474 2016.98 646.72Z" fill="white" fill-opacity="0.4"/>
<path opacity="0.11" d="M1889.44 739.257C1889.06 739.504 1888.95 740.011 1889.2 740.39C1889.45 740.77 1889.96 740.877 1890.34 740.632C1890.71 740.385 1890.82 739.878 1890.58 739.498C1890.33 739.119 1889.82 739.011 1889.44 739.257Z" fill="white" fill-opacity="0.4"/>
<path opacity="0.3" d="M2251.29 578.691C2250.91 578.938 2250.8 579.445 2251.05 579.824C2251.29 580.204 2251.8 580.313 2252.18 580.066C2252.56 579.82 2252.67 579.312 2252.42 578.933C2252.17 578.553 2251.67 578.446 2251.29 578.691Z" fill="white" fill-opacity="0.4"/>
<path d="M2117.26 718.432C2116.88 718.679 2116.77 719.186 2117.02 719.566C2117.26 719.945 2117.77 720.053 2118.15 719.807C2118.53 719.56 2118.64 719.053 2118.39 718.674C2118.15 718.294 2117.64 718.187 2117.26 718.432Z" fill="white" fill-opacity="0.4"/>
<path d="M2012.27 788.514C2011.9 788.76 2011.79 789.267 2012.03 789.647C2012.28 790.026 2012.79 790.134 2013.17 789.888C2013.55 789.642 2013.65 789.134 2013.41 788.755C2013.16 788.375 2012.65 788.267 2012.27 788.514Z" fill="white" fill-opacity="0.4"/>
<path d="M2122.96 624.841C2122.58 625.087 2122.47 625.595 2122.72 625.974C2122.97 626.354 2123.47 626.461 2123.85 626.214C2124.23 625.969 2124.34 625.461 2124.09 625.083C2123.85 624.703 2123.34 624.594 2122.96 624.841Z" fill="white" fill-opacity="0.4"/>
<path opacity="0.3" d="M2171.09 593.61C2170.71 593.855 2170.6 594.363 2170.85 594.743C2171.09 595.123 2171.6 595.23 2171.98 594.984C2172.36 594.737 2172.47 594.231 2172.22 593.851C2171.97 593.472 2171.47 593.363 2171.09 593.61Z" fill="white" fill-opacity="0.4"/>
<path opacity="0.11" d="M2255.12 599.654C2254.74 599.9 2254.63 600.408 2254.87 600.787C2255.12 601.167 2255.63 601.274 2256.01 601.029C2256.39 600.782 2256.49 600.275 2256.25 599.895C2256 599.516 2255.49 599.407 2255.12 599.654Z" fill="white" fill-opacity="0.4"/>
<path opacity="0.3" d="M2094.17 709.964C2093.79 710.209 2093.68 710.717 2093.93 711.097C2094.17 711.477 2094.68 711.584 2095.06 711.338C2095.44 711.091 2095.55 710.585 2095.3 710.205C2095.05 709.826 2094.55 709.717 2094.17 709.964Z" fill="white" fill-opacity="0.4"/>
<path opacity="0.3" d="M2102.79 619.365C2102.41 619.611 2102.3 620.119 2102.55 620.498C2102.79 620.878 2103.3 620.985 2103.68 620.74C2104.06 620.493 2104.17 619.986 2103.92 619.606C2103.68 619.227 2103.17 619.118 2102.79 619.365Z" fill="white" fill-opacity="0.4"/>
<path opacity="0.3" d="M2181.52 558.504C2181.14 558.751 2181.03 559.258 2181.28 559.637C2181.53 560.017 2182.03 560.126 2182.41 559.879C2182.79 559.633 2182.9 559.125 2182.65 558.746C2182.41 558.366 2181.9 558.259 2181.52 558.504Z" fill="white" fill-opacity="0.4"/>
<path opacity="0.3" d="M2231.35 591.627C2230.97 591.872 2230.86 592.38 2231.11 592.76C2231.35 593.139 2231.86 593.247 2232.24 593.001C2232.62 592.754 2232.73 592.248 2232.48 591.868C2232.23 591.488 2231.72 591.38 2231.35 591.627Z" fill="white" fill-opacity="0.4"/>
<path opacity="0.3" d="M1805.07 871.198C1804.69 871.444 1804.58 871.952 1804.83 872.331C1805.07 872.711 1805.58 872.819 1805.96 872.572C1806.34 872.326 1806.45 871.819 1806.2 871.439C1805.95 871.06 1805.45 870.952 1805.07 871.198Z" fill="white" fill-opacity="0.4"/>
<path opacity="0.11" d="M1934.05 827.557C1933.67 827.803 1933.56 828.31 1933.81 828.69C1934.05 829.069 1934.56 829.177 1934.94 828.931C1935.32 828.685 1935.43 828.177 1935.18 827.798C1934.93 827.418 1934.43 827.31 1934.05 827.557Z" fill="white" fill-opacity="0.4"/>
<path opacity="0.11" d="M1804.44 829.593C1804.07 829.839 1803.96 830.346 1804.2 830.726C1804.45 831.106 1804.96 831.214 1805.34 830.967C1805.72 830.721 1805.82 830.214 1805.58 829.834C1805.33 829.455 1804.82 829.347 1804.44 829.593Z" fill="white" fill-opacity="0.4"/>
<path opacity="0.3" d="M1974.37 710.525C1973.61 711.018 1973.39 712.034 1973.88 712.793C1974.38 713.552 1975.39 713.768 1976.15 713.276C1976.91 712.783 1977.13 711.767 1976.64 711.008C1976.14 710.247 1975.13 710.032 1974.37 710.525Z" fill="white" fill-opacity="0.4"/>
<path opacity="0.11" d="M1947.19 757.472C1946.43 757.966 1946.21 758.98 1946.7 759.741C1947.2 760.5 1948.21 760.717 1948.97 760.224C1949.73 759.73 1949.95 758.715 1949.45 757.955C1948.96 757.195 1947.95 756.979 1947.19 757.472Z" fill="white" fill-opacity="0.4"/>
<path d="M1963.14 781.313C1962.57 781.683 1962.41 782.444 1962.78 783.014C1963.15 783.583 1963.91 783.746 1964.48 783.376C1965.05 783.006 1965.21 782.245 1964.84 781.675C1964.47 781.106 1963.71 780.944 1963.14 781.313Z" fill="white" fill-opacity="0.4"/>
<path d="M1963.73 678.34C1963.16 678.71 1963 679.472 1963.37 680.042C1963.74 680.611 1964.5 680.773 1965.07 680.403C1965.64 680.035 1965.8 679.273 1965.43 678.703C1965.06 678.134 1964.3 677.972 1963.73 678.34Z" fill="white" fill-opacity="0.4"/>
<path d="M1726.56 812.715C1725.99 813.084 1725.83 813.846 1726.2 814.416C1726.57 814.985 1727.33 815.147 1727.9 814.778C1728.47 814.408 1728.63 813.646 1728.26 813.077C1727.89 812.507 1727.13 812.345 1726.56 812.715Z" fill="white" fill-opacity="0.4"/>
<path d="M2180.34 534.847C2179.77 535.216 2179.61 535.978 2179.98 536.548C2180.35 537.117 2181.11 537.279 2181.68 536.909C2182.25 536.539 2182.41 535.779 2182.04 535.209C2181.67 534.639 2180.91 534.477 2180.34 534.847Z" fill="white" fill-opacity="0.4"/>
<path d="M2282.03 491.323C2281.46 491.693 2281.3 492.453 2281.67 493.023C2282.04 493.592 2282.8 493.755 2283.37 493.386C2283.94 493.016 2284.1 492.254 2283.73 491.684C2283.36 491.115 2282.6 490.953 2282.03 491.323Z" fill="white" fill-opacity="0.4"/>
<path d="M2311.56 511.236C2310.99 511.606 2310.83 512.368 2311.2 512.938C2311.57 513.507 2312.33 513.669 2312.9 513.299C2313.47 512.929 2313.63 512.169 2313.26 511.599C2312.89 511.028 2312.13 510.867 2311.56 511.236Z" fill="white" fill-opacity="0.4"/>
<path d="M1987.21 746.147C1986.64 746.517 1986.48 747.279 1986.85 747.848C1987.22 748.417 1987.98 748.579 1988.55 748.209C1989.12 747.841 1989.28 747.079 1988.91 746.51C1988.54 745.94 1987.78 745.777 1987.21 746.147Z" fill="white" fill-opacity="0.4"/>
<path d="M2073.83 617.641C2073.26 618.011 2073.1 618.773 2073.47 619.343C2073.84 619.912 2074.6 620.074 2075.17 619.704C2075.74 619.334 2075.9 618.574 2075.53 618.004C2075.16 617.435 2074.4 617.272 2073.83 617.641Z" fill="white" fill-opacity="0.4"/>
<path d="M1881.39 700.509C1880.82 700.879 1880.66 701.641 1881.03 702.21C1881.4 702.779 1882.16 702.941 1882.73 702.572C1883.3 702.202 1883.46 701.441 1883.09 700.872C1882.72 700.301 1881.96 700.139 1881.39 700.509Z" fill="white" fill-opacity="0.4"/>
<path d="M1729.55 865.492C1728.98 865.861 1728.82 866.623 1729.19 867.192C1729.55 867.762 1730.32 867.924 1730.89 867.554C1731.46 867.185 1731.62 866.423 1731.25 865.854C1730.88 865.284 1730.12 865.122 1729.55 865.492Z" fill="white" fill-opacity="0.4"/>
<path d="M1737.58 914.012C1737.01 914.382 1736.85 915.143 1737.22 915.713C1737.59 916.282 1738.35 916.445 1738.92 916.075C1739.49 915.705 1739.65 914.944 1739.28 914.374C1738.91 913.805 1738.15 913.643 1737.58 914.012Z" fill="white" fill-opacity="0.4"/>
<path opacity="0.3" d="M1905.98 817.434C1905.22 817.927 1905.01 818.943 1905.5 819.702C1905.99 820.462 1907.01 820.678 1907.77 820.185C1908.53 819.692 1908.75 818.677 1908.25 817.917C1907.76 817.157 1906.74 816.941 1905.98 817.434Z" fill="white" fill-opacity="0.4"/>
<path d="M1937.66 866.245C1936.9 866.738 1936.68 867.753 1937.17 868.513C1937.67 869.273 1938.68 869.489 1939.44 868.996C1940.2 868.503 1940.42 867.488 1939.93 866.728C1939.43 865.968 1938.42 865.752 1937.66 866.245Z" fill="white" fill-opacity="0.4"/>
<path d="M1860.75 825.286C1860.18 825.655 1860.02 826.417 1860.39 826.987C1860.76 827.556 1861.52 827.718 1862.09 827.349C1862.66 826.979 1862.82 826.218 1862.45 825.648C1862.08 825.078 1861.32 824.916 1860.75 825.286Z" fill="white" fill-opacity="0.4"/>
<path opacity="0.3" d="M1844.81 873.738C1844.05 874.231 1843.83 875.247 1844.32 876.006C1844.82 876.766 1845.83 876.982 1846.59 876.489C1847.35 875.996 1847.57 874.981 1847.08 874.221C1846.58 873.461 1845.57 873.245 1844.81 873.738Z" fill="white" fill-opacity="0.4"/>
<path opacity="0.3" d="M1745.07 869.095C1744.31 869.588 1744.09 870.603 1744.59 871.363C1745.08 872.123 1746.09 872.339 1746.85 871.846C1747.61 871.353 1747.83 870.337 1747.34 869.578C1746.84 868.818 1745.83 868.602 1745.07 869.095Z" fill="white" fill-opacity="0.4"/>
<path opacity="0.3" d="M1824.62 815.521C1823.86 816.014 1823.64 817.029 1824.13 817.789C1824.63 818.549 1825.64 818.765 1826.4 818.272C1827.16 817.779 1827.38 816.763 1826.88 816.004C1826.39 815.244 1825.38 815.028 1824.62 815.521Z" fill="white" fill-opacity="0.4"/>
<path opacity="0.3" d="M2211.66 547.739C2210.9 548.233 2210.68 549.247 2211.17 550.008C2211.67 550.767 2212.68 550.984 2213.44 550.491C2214.2 549.997 2214.42 548.982 2213.93 548.222C2213.43 547.463 2212.42 547.246 2211.66 547.739Z" fill="white" fill-opacity="0.4"/>
<path opacity="0.3" d="M2291.89 549.411C2291.13 549.903 2290.91 550.918 2291.41 551.678C2291.9 552.438 2292.92 552.654 2293.68 552.161C2294.44 551.669 2294.65 550.653 2294.16 549.894C2293.66 549.133 2292.65 548.917 2291.89 549.411Z" fill="white" fill-opacity="0.4"/>
<path opacity="0.11" d="M1786.64 871.427C1785.88 871.92 1785.66 872.935 1786.16 873.695C1786.65 874.454 1787.67 874.671 1788.43 874.178C1789.19 873.685 1789.4 872.669 1788.91 871.91C1788.42 871.15 1787.4 870.934 1786.64 871.427Z" fill="white" fill-opacity="0.4"/>
<path opacity="0.3" d="M2208.74 636.585C2207.99 637.079 2207.77 638.093 2208.26 638.854C2208.76 639.613 2209.77 639.83 2210.53 639.337C2211.29 638.843 2211.51 637.828 2211.01 637.068C2210.52 636.309 2209.51 636.092 2208.74 636.585Z" fill="white" fill-opacity="0.4"/>
<path opacity="0.11" d="M2236.23 638.29C2235.47 638.783 2235.25 639.799 2235.75 640.558C2236.24 641.319 2237.26 641.535 2238.02 641.041C2238.78 640.548 2238.99 639.532 2238.5 638.773C2238.01 638.014 2236.99 637.798 2236.23 638.29Z" fill="white" fill-opacity="0.4"/>
<path opacity="0.3" d="M2213.17 590.722C2212.41 591.215 2212.2 592.231 2212.69 592.99C2213.18 593.751 2214.2 593.967 2214.96 593.473C2215.72 592.98 2215.93 591.964 2215.44 591.205C2214.95 590.446 2213.93 590.23 2213.17 590.722Z" fill="white" fill-opacity="0.4"/>
<path d="M2170.65 619.292C2170.09 619.662 2169.92 620.423 2170.29 620.994C2170.66 621.563 2171.42 621.725 2171.99 621.355C2172.56 620.985 2172.73 620.223 2172.36 619.654C2171.99 619.084 2171.23 618.923 2170.65 619.292Z" fill="white" fill-opacity="0.4"/>
<defs>
<filter id="filter0_f_24_27" x="795" y="-75" width="1107.02" height="1034.38" filterUnits="userSpaceOnUse" color-interpolation-filters="sRGB">
<feFlood flood-opacity="0" result="BackgroundImageFix"/>
<feBlend mode="normal" in="SourceGraphic" in2="BackgroundImageFix" result="shape"/>
<feGaussianBlur stdDeviation="50" result="effect1_foregroundBlur_24_27"/>
</filter>
<filter id="filter1_f_24_27" x="565" y="-51" width="1207.02" height="1134.38" filterUnits="userSpaceOnUse" color-interpolation-filters="sRGB">
<feFlood flood-opacity="0" result="BackgroundImageFix"/>
<feBlend mode="normal" in="SourceGraphic" in2="BackgroundImageFix" result="shape"/>
<feGaussianBlur stdDeviation="75" result="effect1_foregroundBlur_24_27"/>
</filter>
<filter id="filter2_f_24_27" x="154" y="-106" width="1307.02" height="1234.38" filterUnits="userSpaceOnUse" color-interpolation-filters="sRGB">
<feFlood flood-opacity="0" result="BackgroundImageFix"/>
<feBlend mode="normal" in="SourceGraphic" in2="BackgroundImageFix" result="shape"/>
<feGaussianBlur stdDeviation="100" result="effect1_foregroundBlur_24_27"/>
</filter>
<linearGradient id="paint0_linear_24_27" x1="910.227" y1="38.8168" x2="1392.74" y2="570.586" gradientUnits="userSpaceOnUse">
<stop stop-color="white"/>
<stop offset="1" stop-color="#D3D8DF"/>
</linearGradient>
<linearGradient id="paint1_linear_24_27" x1="730.227" y1="112.817" x2="1212.74" y2="644.586" gradientUnits="userSpaceOnUse">
<stop stop-color="white"/>
<stop offset="1" stop-color="#D3D8DF"/>
</linearGradient>
<linearGradient id="paint2_linear_24_27" x1="369.227" y1="107.817" x2="851.74" y2="639.586" gradientUnits="userSpaceOnUse">
<stop stop-color="white"/>
<stop offset="1" stop-color="#D3D8DF"/>
</linearGradient>
</defs>
</svg>
