<svg width="147" height="40" viewBox="0 0 147 40" fill="none" xmlns="http://www.w3.org/2000/svg">
<rect width="147" height="40" rx="20" fill="#B1FFB9"/>
<path fill-rule="evenodd" clip-rule="evenodd" d="M37.9405 12.5516C36.9697 11.5804 35.8165 10.8108 34.5471 10.2871C33.2777 9.76334 31.9172 9.49587 30.5441 9.50005C24.7812 9.50005 20.09 14.1679 20.0877 19.9063C20.0851 21.7335 20.5667 23.5288 21.4836 25.1094L20 30.5L25.543 29.053C27.0773 29.8843 28.7948 30.3193 30.5398 30.3186H30.5441C36.3064 30.3186 40.9972 25.6504 41 19.9124C41.0035 18.5439 40.7348 17.1884 40.2095 15.9247C39.6843 14.661 38.913 13.5144 37.9405 12.5516ZM30.5441 28.5622H30.5403C28.9847 28.5627 27.4574 28.1464 26.1172 27.3566L25.7998 27.1691L22.5106 28.0279L23.3886 24.8361L23.1819 24.508C22.3121 23.1309 21.8512 21.5351 21.853 19.9063C21.853 15.1377 25.7534 11.2579 30.5473 11.2579C32.847 11.2538 35.0542 12.1633 36.6833 13.7864C38.3125 15.4094 39.2302 17.6132 39.2347 19.9129C39.2328 24.6819 35.3342 28.5622 30.5441 28.5622ZM35.3108 22.0846C35.0497 21.9543 33.7639 21.3252 33.5258 21.2385C33.2877 21.1518 33.1119 21.1082 32.938 21.3688C32.7641 21.6294 32.263 22.2125 32.1106 22.3883C31.9583 22.5641 31.8059 22.5833 31.5448 22.453C31.2838 22.3227 30.4414 22.0485 29.4434 21.1625C28.6667 20.473 28.1427 19.6218 27.9903 19.3616C27.838 19.1015 27.9739 18.9604 28.1047 18.831C28.2223 18.7143 28.3658 18.5272 28.4966 18.3754C28.6273 18.2235 28.6709 18.1147 28.7577 17.9413C28.8444 17.7679 28.8012 17.616 28.7361 17.4861C28.6709 17.3563 28.1483 16.0761 27.9308 15.5554C27.7184 15.0482 27.5033 15.1171 27.343 15.1091C27.1906 15.1016 27.0148 15.0997 26.8419 15.0997C26.7096 15.1032 26.5795 15.1338 26.4597 15.1898C26.3398 15.2458 26.2328 15.3259 26.1453 15.425C25.9058 15.6857 25.2308 16.3157 25.2308 17.5944C25.2308 18.8732 26.1683 20.1107 26.2977 20.2841C26.427 20.4575 28.1398 23.084 30.7606 24.2104C31.2473 24.4188 31.7445 24.6015 32.2503 24.7579C32.8761 24.9557 33.4456 24.928 33.8956 24.861C34.3977 24.7865 35.4425 24.2319 35.6595 23.6244C35.8766 23.0169 35.877 22.4966 35.8119 22.3883C35.7467 22.28 35.5723 22.2144 35.3108 22.0846Z" fill="#162011"/>
<path d="M53.0293 26L49.802 14.3636H51.6486L53.9157 23.375H54.0236L56.3816 14.3636H58.2111L60.5691 23.3807H60.677L62.9384 14.3636H64.7907L61.5577 26H59.7907L57.3418 17.2841H57.2509L54.802 26H53.0293ZM65.4683 26V17.2727H67.1103V18.6591H67.2013C67.3603 18.1894 67.6406 17.8201 68.0422 17.5511C68.4475 17.2784 68.9058 17.142 69.4172 17.142C69.5232 17.142 69.6482 17.1458 69.7922 17.1534C69.9399 17.161 70.0554 17.1705 70.1388 17.1818V18.8068C70.0706 18.7879 69.9494 18.767 69.7751 18.7443C69.6009 18.7178 69.4266 18.7045 69.2524 18.7045C68.8509 18.7045 68.4929 18.7898 68.1785 18.9602C67.8679 19.1269 67.6217 19.3598 67.4399 19.6591C67.2581 19.9545 67.1672 20.2917 67.1672 20.6705V26H65.4683ZM71.3689 26V17.2727H73.0678V26H71.3689ZM72.2269 15.9261C71.9314 15.9261 71.6776 15.8277 71.4655 15.6307C71.2572 15.4299 71.153 15.1913 71.153 14.9148C71.153 14.6345 71.2572 14.3958 71.4655 14.1989C71.6776 13.9981 71.9314 13.8977 72.2269 13.8977C72.5223 13.8977 72.7742 13.9981 72.9826 14.1989C73.1947 14.3958 73.3007 14.6345 73.3007 14.9148C73.3007 15.1913 73.1947 15.4299 72.9826 15.6307C72.7742 15.8277 72.5223 15.9261 72.2269 15.9261ZM79.1872 17.2727V18.6364H74.4201V17.2727H79.1872ZM75.6985 15.1818H77.3974V23.4375C77.3974 23.767 77.4466 24.0152 77.5451 24.1818C77.6436 24.3447 77.7705 24.4564 77.9258 24.517C78.0849 24.5739 78.2572 24.6023 78.4428 24.6023C78.5792 24.6023 78.6985 24.5928 78.8008 24.5739C78.9031 24.5549 78.9826 24.5398 79.0394 24.5284L79.3463 25.9318C79.2478 25.9697 79.1076 26.0076 78.9258 26.0455C78.744 26.0871 78.5167 26.1098 78.244 26.1136C77.797 26.1212 77.3803 26.0417 76.994 25.875C76.6076 25.7083 76.2951 25.4508 76.0565 25.1023C75.8178 24.7538 75.6985 24.3163 75.6985 23.7898V15.1818ZM84.494 26.1761C83.6342 26.1761 82.8937 25.9924 82.2724 25.625C81.655 25.2538 81.1778 24.733 80.8406 24.0625C80.5073 23.3883 80.3406 22.5985 80.3406 21.6932C80.3406 20.7992 80.5073 20.0114 80.8406 19.3295C81.1778 18.6477 81.6474 18.1155 82.2497 17.733C82.8558 17.3504 83.5641 17.1591 84.3747 17.1591C84.8671 17.1591 85.3444 17.2405 85.8065 17.4034C86.2687 17.5663 86.6834 17.822 87.0509 18.1705C87.4183 18.5189 87.7081 18.9716 87.9202 19.5284C88.1323 20.0814 88.2384 20.7538 88.2384 21.5455V22.1477H81.3009V20.875H86.5736C86.5736 20.428 86.4827 20.0322 86.3009 19.6875C86.119 19.339 85.8634 19.0644 85.5338 18.8636C85.2081 18.6629 84.8255 18.5625 84.3861 18.5625C83.9088 18.5625 83.4921 18.6799 83.1361 18.9148C82.7838 19.1458 82.5111 19.4489 82.3179 19.8239C82.1285 20.1951 82.0338 20.5985 82.0338 21.0341V22.0284C82.0338 22.6117 82.1361 23.108 82.3406 23.517C82.549 23.9261 82.8387 24.2386 83.2099 24.4545C83.5812 24.6667 84.0149 24.7727 84.5111 24.7727C84.8331 24.7727 85.1266 24.7273 85.3918 24.6364C85.6569 24.5417 85.8861 24.4015 86.0793 24.2159C86.2724 24.0303 86.4202 23.8011 86.5224 23.5284L88.1304 23.8182C88.0016 24.2917 87.7706 24.7064 87.4372 25.0625C87.1077 25.4148 86.6929 25.6894 86.1929 25.8864C85.6967 26.0795 85.1304 26.1761 84.494 26.1761ZM94.014 26V14.3636H95.7697V19.4205H101.571V14.3636H103.332V26H101.571V20.9261H95.7697V26H94.014ZM109.274 26.1761C108.414 26.1761 107.674 25.9924 107.052 25.625C106.435 25.2538 105.958 24.733 105.621 24.0625C105.287 23.3883 105.121 22.5985 105.121 21.6932C105.121 20.7992 105.287 20.0114 105.621 19.3295C105.958 18.6477 106.427 18.1155 107.03 17.733C107.636 17.3504 108.344 17.1591 109.155 17.1591C109.647 17.1591 110.124 17.2405 110.587 17.4034C111.049 17.5663 111.463 17.822 111.831 18.1705C112.198 18.5189 112.488 18.9716 112.7 19.5284C112.912 20.0814 113.018 20.7538 113.018 21.5455V22.1477H106.081V20.875H111.354C111.354 20.428 111.263 20.0322 111.081 19.6875C110.899 19.339 110.643 19.0644 110.314 18.8636C109.988 18.6629 109.605 18.5625 109.166 18.5625C108.689 18.5625 108.272 18.6799 107.916 18.9148C107.564 19.1458 107.291 19.4489 107.098 19.8239C106.909 20.1951 106.814 20.5985 106.814 21.0341V22.0284C106.814 22.6117 106.916 23.108 107.121 23.517C107.329 23.9261 107.619 24.2386 107.99 24.4545C108.361 24.6667 108.795 24.7727 109.291 24.7727C109.613 24.7727 109.907 24.7273 110.172 24.6364C110.437 24.5417 110.666 24.4015 110.859 24.2159C111.052 24.0303 111.2 23.8011 111.302 23.5284L112.91 23.8182C112.782 24.2917 112.551 24.7064 112.217 25.0625C111.888 25.4148 111.473 25.6894 110.973 25.8864C110.477 26.0795 109.91 26.1761 109.274 26.1761ZM114.663 26V17.2727H116.305V18.6591H116.396C116.555 18.1894 116.836 17.8201 117.237 17.5511C117.642 17.2784 118.101 17.142 118.612 17.142C118.718 17.142 118.843 17.1458 118.987 17.1534C119.135 17.161 119.25 17.1705 119.334 17.1818V18.8068C119.266 18.7879 119.144 18.767 118.97 18.7443C118.796 18.7178 118.622 18.7045 118.447 18.7045C118.046 18.7045 117.688 18.7898 117.374 18.9602C117.063 19.1269 116.817 19.3598 116.635 19.6591C116.453 19.9545 116.362 20.2917 116.362 20.6705V26H114.663ZM124.013 26.1761C123.153 26.1761 122.412 25.9924 121.791 25.625C121.174 25.2538 120.696 24.733 120.359 24.0625C120.026 23.3883 119.859 22.5985 119.859 21.6932C119.859 20.7992 120.026 20.0114 120.359 19.3295C120.696 18.6477 121.166 18.1155 121.768 17.733C122.375 17.3504 123.083 17.1591 123.893 17.1591C124.386 17.1591 124.863 17.2405 125.325 17.4034C125.787 17.5663 126.202 17.822 126.57 18.1705C126.937 18.5189 127.227 18.9716 127.439 19.5284C127.651 20.0814 127.757 20.7538 127.757 21.5455V22.1477H120.82V20.875H126.092C126.092 20.428 126.001 20.0322 125.82 19.6875C125.638 19.339 125.382 19.0644 125.053 18.8636C124.727 18.6629 124.344 18.5625 123.905 18.5625C123.428 18.5625 123.011 18.6799 122.655 18.9148C122.303 19.1458 122.03 19.4489 121.837 19.8239C121.647 20.1951 121.553 20.5985 121.553 21.0341V22.0284C121.553 22.6117 121.655 23.108 121.859 23.517C122.068 23.9261 122.357 24.2386 122.729 24.4545C123.1 24.6667 123.534 24.7727 124.03 24.7727C124.352 24.7727 124.645 24.7273 124.911 24.6364C125.176 24.5417 125.405 24.4015 125.598 24.2159C125.791 24.0303 125.939 23.8011 126.041 23.5284L127.649 23.8182C127.52 24.2917 127.289 24.7064 126.956 25.0625C126.626 25.4148 126.212 25.6894 125.712 25.8864C125.215 26.0795 124.649 26.1761 124.013 26.1761Z" fill="#162011"/>
</svg>
