<svg width="180" height="42" viewBox="0 0 180 42" fill="none" xmlns="http://www.w3.org/2000/svg">
<path d="M7.42384 2.64499C7.42384 1.72003 8.40745 1.12688 9.22552 1.55851L35.9637 15.666C37.9454 16.7116 39.1855 18.7681 39.1855 21.0088C39.1855 23.2504 37.9442 25.3078 35.9611 26.3529L9.22499 40.4427C8.40694 40.8738 7.42384 40.2806 7.42384 39.3559L7.42384 30.2391C7.42384 29.6932 7.78408 29.2128 8.30811 29.0599L31.3296 22.341C31.9254 22.1671 32.335 21.6209 32.335 21.0002C32.335 20.3795 31.9254 19.8333 31.3296 19.6594L8.30808 12.9399C7.78407 12.787 7.42384 12.3066 7.42384 11.7607L7.42384 2.64499Z" fill="url(#paint0_linear_5167_6689)"/>
<path d="M0.955968 21.5477C0.42667 21.4157 0.42667 20.5828 0.955969 20.4508C4.69757 19.5177 5.9513 18.264 6.88438 14.5224C7.01638 13.9931 7.84926 13.9931 7.98125 14.5224C8.91434 18.264 10.1681 19.5177 13.9097 20.4508C14.439 20.5828 14.439 21.4157 13.9097 21.5477C10.1681 22.4807 8.91434 23.7345 7.98125 27.4761C7.84926 28.0054 7.01638 28.0054 6.88438 27.4761C5.9513 23.7345 4.69757 22.4807 0.955968 21.5477Z" fill="url(#paint1_linear_5167_6689)"/>
<path d="M65.1236 13.3833L71.9183 28.688H65.5067L64.5741 26.523H58.5122L57.5962 28.688H51.1846L57.9459 13.3833H65.1236ZM63.1085 22.3929L61.5431 18.4293L59.961 22.3929H63.1085Z" fill="white"/>
<path d="M122.826 21.9602L125.557 13.3835H132.118L127.072 28.6882H120.278L117.413 21.0775L114.549 28.6882H107.754L102.708 13.3835H109.27L111.984 21.9768L115.381 13.3835H119.428L122.826 21.9602Z" fill="white"/>
<path d="M139.377 13.3835V28.6882H132.898V13.3835H139.377Z" fill="white"/>
<path d="M140.862 23.2919H147.64C147.694 23.5376 147.815 23.7707 148.007 23.9914C148.207 24.2037 148.548 24.3744 149.039 24.5076C149.539 24.6325 150.259 24.6908 151.204 24.6908C152.178 24.6908 152.907 24.6492 153.386 24.5576C153.86 24.4577 154.173 24.3411 154.318 24.2079C154.472 24.0746 154.552 23.9497 154.552 23.8248C154.552 23.7249 154.51 23.625 154.435 23.5251C154.356 23.4252 154.189 23.3336 153.935 23.242C153.69 23.142 153.307 23.0546 152.786 22.9755C152.274 22.8881 151.579 22.8048 150.705 22.7257C148.727 22.5925 147.116 22.3926 145.875 22.1262C144.63 21.8514 143.668 21.51 142.994 21.1103C142.328 20.7106 141.866 20.2443 141.612 19.7114C141.354 19.1702 141.229 18.5706 141.229 17.9128C141.229 17.2716 141.383 16.6555 141.695 16.0643C142.016 15.4772 142.544 14.9568 143.277 14.4988C144.018 14.0325 144.997 13.6661 146.208 13.3997C147.428 13.1332 148.927 13 150.705 13C152.503 13 154.023 13.1582 155.268 13.4663C156.508 13.7786 157.52 14.1991 158.299 14.732C159.073 15.2566 159.652 15.8603 160.031 16.5472C160.418 17.2383 160.638 17.9628 160.697 18.7288H153.952C153.906 18.4957 153.79 18.2792 153.602 18.0793C153.411 17.8712 153.09 17.7046 152.636 17.5797C152.178 17.4465 151.525 17.3799 150.671 17.3799C149.839 17.3799 149.206 17.4257 148.773 17.5131C148.34 17.6047 148.044 17.7088 147.89 17.8295C147.732 17.9544 147.657 18.0877 147.657 18.2292C147.657 18.3416 147.694 18.4457 147.774 18.5457C147.848 18.6372 148.011 18.7288 148.257 18.8288C148.51 18.9204 148.894 19.0078 149.406 19.0952C149.926 19.1868 150.638 19.2742 151.537 19.3617C153.544 19.5199 155.176 19.7364 156.433 20.0112C157.699 20.2776 158.669 20.619 159.348 21.027C160.022 21.4267 160.489 21.8889 160.747 22.4093C161.013 22.9339 161.146 23.5209 161.146 24.1746C161.146 24.8074 160.98 25.4194 160.647 26.0065C160.314 26.5977 159.764 27.1223 158.998 27.5886C158.24 28.0465 157.224 28.4046 155.95 28.671C154.672 28.9375 153.09 29.0707 151.204 29.0707C149.306 29.0707 147.699 28.925 146.391 28.6377C145.092 28.338 144.047 27.93 143.26 27.4054C142.469 26.8725 141.887 26.2563 141.512 25.5568C141.133 24.8574 140.916 24.1038 140.862 23.2919Z" fill="white"/>
<path d="M179.442 28.6882H162.705V13.3835H179.159V17.7301H168.867V19.3289H178.509V22.6263H168.867V24.3083H179.442V28.6882Z" fill="white"/>
<path fill-rule="evenodd" clip-rule="evenodd" d="M80.4616 18.7907V13.3838H73.9834V28.6885H80.4616V23.2975C79.7522 22.1705 78.6424 21.6832 76.5357 21.2391C76.3332 21.1964 76.3332 20.8918 76.5357 20.8491C78.6424 20.4049 79.7522 19.9177 80.4616 18.7907Z" fill="white"/>
<path fill-rule="evenodd" clip-rule="evenodd" d="M92.3572 13.3838H82.748V18.7161C83.4555 19.8969 84.5672 20.3957 86.7201 20.8497C86.9226 20.8923 86.9226 21.1969 86.7201 21.2396C84.5672 21.6935 83.4555 22.1924 82.748 23.3732V28.6885H92.3572C94.0642 28.6885 95.563 28.4969 96.8536 28.1056C98.1526 27.7059 99.2268 27.173 100.084 26.5068C100.938 25.8407 101.575 25.0705 102 24.192C102.433 23.3177 102.649 22.3934 102.649 21.4275V20.6448C102.649 19.6789 102.433 18.7587 102 17.8803C101.575 17.0059 100.938 16.2316 100.084 15.5654C99.2268 14.8909 98.1526 14.358 96.8536 13.9667C95.563 13.5795 94.0642 13.3838 92.3572 13.3838ZM96.0543 20.8446V21.2276C96.0543 21.6523 95.9086 22.052 95.6213 22.4267C95.3423 22.8056 94.8927 23.1178 94.2723 23.3593C93.6478 23.6049 92.8318 23.7257 91.8243 23.7257H89.1763V18.3466H91.8243C92.8318 18.3466 93.6478 18.4715 94.2723 18.7129C94.8927 18.9586 95.3423 19.2708 95.6213 19.6455C95.9086 20.0244 96.0543 20.4241 96.0543 20.8446Z" fill="white"/>
<defs>
<linearGradient id="paint0_linear_5167_6689" x1="39.1855" y1="20.9999" x2="7.42384" y2="20.9999" gradientUnits="userSpaceOnUse">
<stop stop-color="#DD3397"/>
<stop offset="1" stop-color="#FF7F44"/>
</linearGradient>
<linearGradient id="paint1_linear_5167_6689" x1="3.03576" y1="25.483" x2="15.6272" y2="14.5499" gradientUnits="userSpaceOnUse">
<stop stop-color="#8336FF"/>
<stop offset="0.761" stop-color="#E0CDFF"/>
</linearGradient>
</defs>
</svg>
