<svg width="72" height="72" viewBox="0 0 72 72" fill="none" xmlns="http://www.w3.org/2000/svg">
<rect width="72" height="72" rx="8" fill="#F0F0F0"/>
<path d="M17.728 39.888H21.312V42H14.992V30.768H17.728V39.888ZM27.929 42.112C26.873 42.112 25.9023 41.8667 25.017 41.376C24.1423 40.8853 23.4437 40.2027 22.921 39.328C22.409 38.4427 22.153 37.4507 22.153 36.352C22.153 35.2533 22.409 34.2667 22.921 33.392C23.4437 32.5173 24.1423 31.8347 25.017 31.344C25.9023 30.8533 26.873 30.608 27.929 30.608C28.985 30.608 29.9503 30.8533 30.825 31.344C31.7103 31.8347 32.4037 32.5173 32.905 33.392C33.417 34.2667 33.673 35.2533 33.673 36.352C33.673 37.4507 33.417 38.4427 32.905 39.328C32.393 40.2027 31.6997 40.8853 30.825 41.376C29.9503 41.8667 28.985 42.112 27.929 42.112ZM27.929 39.616C28.825 39.616 29.5397 39.3173 30.073 38.72C30.617 38.1227 30.889 37.3333 30.889 36.352C30.889 35.36 30.617 34.5707 30.073 33.984C29.5397 33.3867 28.825 33.088 27.929 33.088C27.0223 33.088 26.297 33.3813 25.753 33.968C25.2197 34.5547 24.953 35.3493 24.953 36.352C24.953 37.344 25.2197 38.1387 25.753 38.736C26.297 39.3227 27.0223 39.616 27.929 39.616ZM42.6511 34.32C42.4485 33.9467 42.1551 33.664 41.7711 33.472C41.3978 33.2693 40.9551 33.168 40.4431 33.168C39.5578 33.168 38.8485 33.4613 38.3151 34.048C37.7818 34.624 37.5151 35.3973 37.5151 36.368C37.5151 37.4027 37.7925 38.2133 38.3471 38.8C38.9125 39.376 39.6858 39.664 40.6671 39.664C41.3391 39.664 41.9045 39.4933 42.3631 39.152C42.8325 38.8107 43.1738 38.32 43.3871 37.68H39.9151V35.664H45.8671V38.208C45.6645 38.8907 45.3178 39.5253 44.8271 40.112C44.3471 40.6987 43.7338 41.1733 42.9871 41.536C42.2405 41.8987 41.3978 42.08 40.4591 42.08C39.3498 42.08 38.3578 41.84 37.4831 41.36C36.6191 40.8693 35.9418 40.192 35.4511 39.328C34.9711 38.464 34.7311 37.4773 34.7311 36.368C34.7311 35.2587 34.9711 34.272 35.4511 33.408C35.9418 32.5333 36.6191 31.856 37.4831 31.376C38.3471 30.8853 39.3338 30.64 40.4431 30.64C41.7871 30.64 42.9178 30.9653 43.8351 31.616C44.7631 32.2667 45.3765 33.168 45.6751 34.32H42.6511ZM52.6946 42.112C51.6386 42.112 50.668 41.8667 49.7826 41.376C48.908 40.8853 48.2093 40.2027 47.6866 39.328C47.1746 38.4427 46.9186 37.4507 46.9186 36.352C46.9186 35.2533 47.1746 34.2667 47.6866 33.392C48.2093 32.5173 48.908 31.8347 49.7826 31.344C50.668 30.8533 51.6386 30.608 52.6946 30.608C53.7506 30.608 54.716 30.8533 55.5906 31.344C56.476 31.8347 57.1693 32.5173 57.6706 33.392C58.1826 34.2667 58.4386 35.2533 58.4386 36.352C58.4386 37.4507 58.1826 38.4427 57.6706 39.328C57.1586 40.2027 56.4653 40.8853 55.5906 41.376C54.716 41.8667 53.7506 42.112 52.6946 42.112ZM52.6946 39.616C53.5906 39.616 54.3053 39.3173 54.8386 38.72C55.3826 38.1227 55.6546 37.3333 55.6546 36.352C55.6546 35.36 55.3826 34.5707 54.8386 33.984C54.3053 33.3867 53.5906 33.088 52.6946 33.088C51.788 33.088 51.0626 33.3813 50.5186 33.968C49.9853 34.5547 49.7186 35.3493 49.7186 36.352C49.7186 37.344 49.9853 38.1387 50.5186 38.736C51.0626 39.3227 51.788 39.616 52.6946 39.616Z" fill="#515854"/>
</svg>
