<svg width="705" height="400" viewBox="0 0 705 400" fill="none" xmlns="http://www.w3.org/2000/svg">
<rect width="705" height="400" rx="20" fill="black"/>
<path fill-rule="evenodd" clip-rule="evenodd" d="M314.6 161.2H391.4C396.702 161.2 401 165.453 401 170.7V227.7C401 232.947 396.702 237.2 391.4 237.2H314.6C309.298 237.2 305 232.947 305 227.7V170.7C305 165.453 309.298 161.2 314.6 161.2ZM349.016 214.495L367.688 202.145C368.694 201.496 369.301 200.389 369.301 199.2C369.301 198.012 368.694 196.904 367.688 196.255L349.016 183.905C347.913 183.168 346.49 183.092 345.314 183.709C344.139 184.326 343.402 185.533 343.4 186.85V211.55C343.402 212.867 344.139 214.075 345.314 214.691C346.49 215.308 347.913 215.232 349.016 214.495Z" fill="#898989" fill-opacity="0.15"/>
<path fill-rule="evenodd" clip-rule="evenodd" d="M333 199.25C333 188.204 341.954 179.25 353 179.25C358.304 179.25 363.391 181.357 367.142 185.108C370.893 188.859 373 193.946 373 199.25C373 210.296 364.045 219.25 353 219.25C341.954 219.25 333 210.296 333 199.25ZM349.34 207.81L361 200.53C361.436 200.251 361.7 199.768 361.7 199.25C361.7 198.732 361.436 198.249 361 197.97L349.3 190.69C348.839 190.399 348.257 190.382 347.779 190.643C347.301 190.905 347.003 191.405 347 191.95V206.55C346.993 207.108 347.297 207.624 347.789 207.888C348.28 208.153 348.877 208.123 349.34 207.81Z" fill="white"/>
</svg>
