<svg width="255" height="61" viewBox="0 0 255 61" fill="none" xmlns="http://www.w3.org/2000/svg">
<g filter="url(#filter0_d_5410_10279)">
<rect x="10.5" y="11" width="234" height="39" rx="19.5" stroke="url(#paint0_radial_5410_10279)" shape-rendering="crispEdges"/>
<path d="M29.93 35.5L34.34 25.7H36.132L40.556 35.5H38.652L34.858 26.666H35.586L31.806 35.5H29.93ZM31.96 33.232L32.45 31.804H37.742L38.232 33.232H31.96ZM42.0823 35.5V25.7H43.9023V35.5H42.0823ZM50.9822 35.5V25.7H55.2662C56.3302 25.7 57.2635 25.9053 58.0662 26.316C58.8688 26.7267 59.4942 27.296 59.9422 28.024C60.3902 28.752 60.6142 29.6107 60.6142 30.6C60.6142 31.58 60.3902 32.4387 59.9422 33.176C59.4942 33.904 58.8688 34.4733 58.0662 34.884C57.2635 35.2947 56.3302 35.5 55.2662 35.5H50.9822ZM52.8022 33.96H55.1822C55.9195 33.96 56.5542 33.82 57.0862 33.54C57.6275 33.26 58.0428 32.868 58.3322 32.364C58.6308 31.86 58.7802 31.272 58.7802 30.6C58.7802 29.9187 58.6308 29.3307 58.3322 28.836C58.0428 28.332 57.6275 27.94 57.0862 27.66C56.5542 27.38 55.9195 27.24 55.1822 27.24H52.8022V33.96ZM61.3059 35.5L65.7159 25.7H67.5079L71.9319 35.5H70.0279L66.2339 26.666H66.9619L63.1819 35.5H61.3059ZM63.3359 33.232L63.8259 31.804H69.1179L69.6079 33.232H63.3359ZM74.954 35.5V27.24H71.706V25.7H80.022V27.24H76.774V35.5H74.954ZM79.7897 35.5L84.1997 25.7H85.9917L90.4157 35.5H88.5117L84.7177 26.666H85.4457L81.6657 35.5H79.7897ZM81.8197 33.232L82.3097 31.804H87.6017L88.0917 33.232H81.8197ZM94.7052 35.5L99.1152 25.7H100.907L105.331 35.5H103.427L99.6332 26.666H100.361L96.5812 35.5H94.7052ZM96.7352 33.232L97.2252 31.804H102.517L103.007 33.232H96.7352ZM106.857 35.5V25.7H108.355L114.501 33.246H113.759V25.7H115.565V35.5H114.067L107.921 27.954H108.663V35.5H106.857ZM117.085 35.5L121.495 25.7H123.287L127.711 35.5H125.807L122.013 26.666H122.741L118.961 35.5H117.085ZM119.115 33.232L119.605 31.804H124.897L125.387 33.232H119.115ZM129.238 35.5V25.7H131.058V33.96H136.182V35.5H129.238ZM139.281 35.5V31.622L139.687 32.742L135.431 25.7H137.377L140.793 31.37H139.701L143.145 25.7H144.937L140.681 32.742L141.101 31.622V35.5H139.281ZM148.247 35.5V27.24H144.999V25.7H153.315V27.24H150.067V35.5H148.247ZM154.961 35.5V25.7H156.781V35.5H154.961ZM164.247 35.64C163.501 35.64 162.805 35.5187 162.161 35.276C161.527 35.024 160.971 34.674 160.495 34.226C160.029 33.7687 159.665 33.232 159.403 32.616C159.142 32 159.011 31.328 159.011 30.6C159.011 29.872 159.142 29.2 159.403 28.584C159.665 27.968 160.033 27.436 160.509 26.988C160.985 26.5307 161.541 26.1807 162.175 25.938C162.81 25.686 163.505 25.56 164.261 25.56C165.064 25.56 165.797 25.7 166.459 25.98C167.122 26.2507 167.682 26.6567 168.139 27.198L166.963 28.304C166.609 27.9213 166.212 27.6367 165.773 27.45C165.335 27.254 164.859 27.156 164.345 27.156C163.832 27.156 163.361 27.24 162.931 27.408C162.511 27.576 162.143 27.814 161.825 28.122C161.517 28.43 161.275 28.794 161.097 29.214C160.929 29.634 160.845 30.096 160.845 30.6C160.845 31.104 160.929 31.566 161.097 31.986C161.275 32.406 161.517 32.77 161.825 33.078C162.143 33.386 162.511 33.624 162.931 33.792C163.361 33.96 163.832 34.044 164.345 34.044C164.859 34.044 165.335 33.9507 165.773 33.764C166.212 33.568 166.609 33.274 166.963 32.882L168.139 34.002C167.682 34.534 167.122 34.94 166.459 35.22C165.797 35.5 165.059 35.64 164.247 35.64ZM173.188 35.64C172.422 35.64 171.69 35.5327 170.99 35.318C170.29 35.094 169.734 34.8093 169.324 34.464L169.954 33.05C170.346 33.358 170.831 33.6147 171.41 33.82C171.988 34.0253 172.581 34.128 173.188 34.128C173.701 34.128 174.116 34.072 174.434 33.96C174.751 33.848 174.984 33.6987 175.134 33.512C175.283 33.316 175.358 33.0967 175.358 32.854C175.358 32.5553 175.25 32.3173 175.036 32.14C174.821 31.9533 174.541 31.8087 174.196 31.706C173.86 31.594 173.482 31.4913 173.062 31.398C172.651 31.3047 172.236 31.1973 171.816 31.076C171.405 30.9453 171.027 30.782 170.682 30.586C170.346 30.3807 170.07 30.11 169.856 29.774C169.641 29.438 169.534 29.0087 169.534 28.486C169.534 27.954 169.674 27.4687 169.954 27.03C170.243 26.582 170.677 26.2273 171.256 25.966C171.844 25.6953 172.586 25.56 173.482 25.56C174.07 25.56 174.653 25.6347 175.232 25.784C175.81 25.9333 176.314 26.148 176.744 26.428L176.17 27.842C175.731 27.5807 175.278 27.3893 174.812 27.268C174.345 27.1373 173.897 27.072 173.468 27.072C172.964 27.072 172.553 27.1327 172.236 27.254C171.928 27.3753 171.699 27.534 171.55 27.73C171.41 27.926 171.34 28.15 171.34 28.402C171.34 28.7007 171.442 28.9433 171.648 29.13C171.862 29.3073 172.138 29.4473 172.474 29.55C172.819 29.6527 173.202 29.7553 173.622 29.858C174.042 29.9513 174.457 30.0587 174.868 30.18C175.288 30.3013 175.666 30.46 176.002 30.656C176.347 30.852 176.622 31.118 176.828 31.454C177.042 31.79 177.15 32.2147 177.15 32.728C177.15 33.2507 177.005 33.736 176.716 34.184C176.436 34.6227 176.002 34.9773 175.414 35.248C174.826 35.5093 174.084 35.64 173.188 35.64ZM182.641 35.5V34.282L188.969 26.554L189.179 27.24H182.739V25.7H190.817V26.918L184.489 34.646L184.265 33.96H190.999V35.5H182.641ZM197.429 35.64C196.664 35.64 195.959 35.514 195.315 35.262C194.671 35.01 194.111 34.66 193.635 34.212C193.159 33.7547 192.791 33.2227 192.529 32.616C192.268 32 192.137 31.328 192.137 30.6C192.137 29.872 192.268 29.2047 192.529 28.598C192.791 27.982 193.159 27.45 193.635 27.002C194.111 26.5447 194.671 26.19 195.315 25.938C195.959 25.686 196.659 25.56 197.415 25.56C198.181 25.56 198.881 25.686 199.515 25.938C200.159 26.19 200.719 26.5447 201.195 27.002C201.671 27.45 202.04 27.982 202.301 28.598C202.563 29.2047 202.693 29.872 202.693 30.6C202.693 31.328 202.563 32 202.301 32.616C202.04 33.232 201.671 33.764 201.195 34.212C200.719 34.66 200.159 35.01 199.515 35.262C198.881 35.514 198.185 35.64 197.429 35.64ZM197.415 34.044C197.91 34.044 198.367 33.96 198.787 33.792C199.207 33.624 199.571 33.386 199.879 33.078C200.187 32.7607 200.425 32.3967 200.593 31.986C200.771 31.566 200.859 31.104 200.859 30.6C200.859 30.096 200.771 29.6387 200.593 29.228C200.425 28.808 200.187 28.444 199.879 28.136C199.571 27.8187 199.207 27.576 198.787 27.408C198.367 27.24 197.91 27.156 197.415 27.156C196.921 27.156 196.463 27.24 196.043 27.408C195.633 27.576 195.269 27.8187 194.951 28.136C194.643 28.444 194.401 28.808 194.223 29.228C194.055 29.6387 193.971 30.096 193.971 30.6C193.971 31.0947 194.055 31.552 194.223 31.972C194.401 32.392 194.643 32.7607 194.951 33.078C195.259 33.386 195.623 33.624 196.043 33.792C196.463 33.96 196.921 34.044 197.415 34.044ZM204.902 35.5V25.7H206.4L212.546 33.246H211.804V25.7H213.61V35.5H212.112L205.966 27.954H206.708V35.5H204.902ZM218.196 29.774H223.068V31.272H218.196V29.774ZM218.336 33.974H223.866V35.5H216.516V25.7H223.67V27.226H218.336V33.974Z" fill="white"/>
</g>
<defs>
<filter id="filter0_d_5410_10279" x="0" y="0.5" width="255" height="60" filterUnits="userSpaceOnUse" color-interpolation-filters="sRGB">
<feFlood flood-opacity="0" result="BackgroundImageFix"/>
<feColorMatrix in="SourceAlpha" type="matrix" values="0 0 0 0 0 0 0 0 0 0 0 0 0 0 0 0 0 0 127 0" result="hardAlpha"/>
<feOffset/>
<feGaussianBlur stdDeviation="5"/>
<feComposite in2="hardAlpha" operator="out"/>
<feColorMatrix type="matrix" values="0 0 0 0 0 0 0 0 0 0 0 0 0 0 0 0 0 0 0.5 0"/>
<feBlend mode="normal" in2="BackgroundImageFix" result="effect1_dropShadow_5410_10279"/>
<feBlend mode="normal" in="SourceGraphic" in2="effect1_dropShadow_5410_10279" result="shape"/>
</filter>
<radialGradient id="paint0_radial_5410_10279" cx="0" cy="0" r="1" gradientUnits="userSpaceOnUse" gradientTransform="translate(20.6309 12.4048) rotate(77.5755) scale(54.6123 372.396)">
<stop stop-color="#AF80FF"/>
<stop offset="1" stop-opacity="0.01"/>
</radialGradient>
</defs>
</svg>
