<svg width="215" height="61" viewBox="0 0 215 61" fill="none" xmlns="http://www.w3.org/2000/svg">
<g filter="url(#filter0_d_5410_10235)">
<rect x="10.5" y="11" width="194" height="39" rx="19.5" stroke="url(#paint0_radial_5410_10235)" shape-rendering="crispEdges"/>
<path d="M31.316 35.5V25.7H35.6C36.664 25.7 37.5973 25.9053 38.4 26.316C39.2027 26.7267 39.828 27.296 40.276 28.024C40.724 28.752 40.948 29.6107 40.948 30.6C40.948 31.58 40.724 32.4387 40.276 33.176C39.828 33.904 39.2027 34.4733 38.4 34.884C37.5973 35.2947 36.664 35.5 35.6 35.5H31.316ZM33.136 33.96H35.516C36.2533 33.96 36.888 33.82 37.42 33.54C37.9613 33.26 38.3767 32.868 38.666 32.364C38.9647 31.86 39.114 31.272 39.114 30.6C39.114 29.9187 38.9647 29.3307 38.666 28.836C38.3767 28.332 37.9613 27.94 37.42 27.66C36.888 27.38 36.2533 27.24 35.516 27.24H33.136V33.96ZM47.7544 35.64C46.9891 35.64 46.2844 35.514 45.6404 35.262C44.9964 35.01 44.4364 34.66 43.9604 34.212C43.4844 33.7547 43.1157 33.2227 42.8544 32.616C42.5931 32 42.4624 31.328 42.4624 30.6C42.4624 29.872 42.5931 29.2047 42.8544 28.598C43.1157 27.982 43.4844 27.45 43.9604 27.002C44.4364 26.5447 44.9964 26.19 45.6404 25.938C46.2844 25.686 46.9844 25.56 47.7404 25.56C48.5057 25.56 49.2057 25.686 49.8404 25.938C50.4844 26.19 51.0444 26.5447 51.5204 27.002C51.9964 27.45 52.3651 27.982 52.6264 28.598C52.8877 29.2047 53.0184 29.872 53.0184 30.6C53.0184 31.328 52.8877 32 52.6264 32.616C52.3651 33.232 51.9964 33.764 51.5204 34.212C51.0444 34.66 50.4844 35.01 49.8404 35.262C49.2057 35.514 48.5104 35.64 47.7544 35.64ZM47.7404 34.044C48.2351 34.044 48.6924 33.96 49.1124 33.792C49.5324 33.624 49.8964 33.386 50.2044 33.078C50.5124 32.7607 50.7504 32.3967 50.9184 31.986C51.0957 31.566 51.1844 31.104 51.1844 30.6C51.1844 30.096 51.0957 29.6387 50.9184 29.228C50.7504 28.808 50.5124 28.444 50.2044 28.136C49.8964 27.8187 49.5324 27.576 49.1124 27.408C48.6924 27.24 48.2351 27.156 47.7404 27.156C47.2457 27.156 46.7884 27.24 46.3684 27.408C45.9577 27.576 45.5937 27.8187 45.2764 28.136C44.9684 28.444 44.7257 28.808 44.5484 29.228C44.3804 29.6387 44.2964 30.096 44.2964 30.6C44.2964 31.0947 44.3804 31.552 44.5484 31.972C44.7257 32.392 44.9684 32.7607 45.2764 33.078C45.5844 33.386 45.9484 33.624 46.3684 33.792C46.7884 33.96 47.2457 34.044 47.7404 34.044ZM55.2276 35.5V25.7H56.7256L61.0096 32.854H60.2256L64.4396 25.7H65.9376L65.9516 35.5H64.2296L64.2156 28.402H64.5796L60.9956 34.38H60.1836L56.5436 28.402H56.9636V35.5H55.2276ZM67.4927 35.5L71.9027 25.7H73.6947L78.1187 35.5H76.2147L72.4207 26.666H73.1487L69.3687 35.5H67.4927ZM69.5227 33.232L70.0127 31.804H75.3047L75.7947 33.232H69.5227ZM79.645 35.5V25.7H81.465V35.5H79.645ZM84.3957 35.5V25.7H85.8937L92.0397 33.246H91.2977V25.7H93.1037V35.5H91.6057L85.4597 27.954H86.2017V35.5H84.3957ZM100.159 35.5V25.7H104.751C105.927 25.7 106.823 25.9333 107.439 26.4C108.055 26.8573 108.363 27.4733 108.363 28.248C108.363 28.7707 108.241 29.2187 107.999 29.592C107.756 29.956 107.429 30.2407 107.019 30.446C106.617 30.642 106.179 30.74 105.703 30.74L105.955 30.236C106.505 30.236 107 30.3387 107.439 30.544C107.877 30.74 108.223 31.0293 108.475 31.412C108.736 31.7947 108.867 32.2707 108.867 32.84C108.867 33.68 108.545 34.3333 107.901 34.8C107.257 35.2667 106.3 35.5 105.031 35.5H100.159ZM101.979 34.072H104.919C105.6 34.072 106.123 33.96 106.487 33.736C106.851 33.512 107.033 33.1527 107.033 32.658C107.033 32.1727 106.851 31.818 106.487 31.594C106.123 31.3607 105.6 31.244 104.919 31.244H101.839V29.83H104.555C105.189 29.83 105.675 29.718 106.011 29.494C106.356 29.27 106.529 28.934 106.529 28.486C106.529 28.0287 106.356 27.688 106.011 27.464C105.675 27.24 105.189 27.128 104.555 27.128H101.979V34.072ZM111.089 35.5V25.7H112.909V33.96H118.033V35.5H111.089ZM123.827 35.64C122.483 35.64 121.429 35.262 120.663 34.506C119.907 33.75 119.529 32.658 119.529 31.23V25.7H121.349V31.16C121.349 32.168 121.564 32.9007 121.993 33.358C122.432 33.8153 123.048 34.044 123.841 34.044C124.635 34.044 125.246 33.8153 125.675 33.358C126.105 32.9007 126.319 32.168 126.319 31.16V25.7H128.111V31.23C128.111 32.658 127.729 33.75 126.963 34.506C126.207 35.262 125.162 35.64 123.827 35.64ZM132.62 29.774H137.492V31.272H132.62V29.774ZM132.76 33.974H138.29V35.5H130.94V25.7H138.094V27.226H132.76V33.974ZM140.599 35.5V25.7H144.631C145.499 25.7 146.241 25.84 146.857 26.12C147.482 26.4 147.963 26.8013 148.299 27.324C148.635 27.8467 148.803 28.4673 148.803 29.186C148.803 29.9047 148.635 30.5253 148.299 31.048C147.963 31.5707 147.482 31.972 146.857 32.252C146.241 32.532 145.499 32.672 144.631 32.672H141.607L142.419 31.818V35.5H140.599ZM142.419 32.014L141.607 31.132H144.547C145.35 31.132 145.952 30.964 146.353 30.628C146.764 30.2827 146.969 29.802 146.969 29.186C146.969 28.5607 146.764 28.08 146.353 27.744C145.952 27.408 145.35 27.24 144.547 27.24H141.607L142.419 26.344V32.014ZM150.901 35.5V25.7H154.933C155.801 25.7 156.543 25.84 157.159 26.12C157.784 26.4 158.265 26.8013 158.601 27.324C158.937 27.8467 159.105 28.4673 159.105 29.186C159.105 29.9047 158.937 30.5253 158.601 31.048C158.265 31.5613 157.784 31.958 157.159 32.238C156.543 32.5087 155.801 32.644 154.933 32.644H151.909L152.721 31.818V35.5H150.901ZM157.313 35.5L154.835 31.944H156.781L159.273 35.5H157.313ZM152.721 32.014L151.909 31.146H154.849C155.651 31.146 156.253 30.9733 156.655 30.628C157.065 30.2827 157.271 29.802 157.271 29.186C157.271 28.5607 157.065 28.08 156.655 27.744C156.253 27.408 155.651 27.24 154.849 27.24H151.909L152.721 26.344V32.014ZM161.421 35.5V25.7H163.241V35.5H161.421ZM166.172 35.5V25.7H167.67L173.816 33.246H173.074V25.7H174.88V35.5H173.382L167.236 27.954H167.978V35.5H166.172ZM179.774 35.5V27.24H176.526V25.7H184.842V27.24H181.594V35.5H179.774Z" fill="white"/>
</g>
<defs>
<filter id="filter0_d_5410_10235" x="0" y="0.5" width="215" height="60" filterUnits="userSpaceOnUse" color-interpolation-filters="sRGB">
<feFlood flood-opacity="0" result="BackgroundImageFix"/>
<feColorMatrix in="SourceAlpha" type="matrix" values="0 0 0 0 0 0 0 0 0 0 0 0 0 0 0 0 0 0 127 0" result="hardAlpha"/>
<feOffset/>
<feGaussianBlur stdDeviation="5"/>
<feComposite in2="hardAlpha" operator="out"/>
<feColorMatrix type="matrix" values="0 0 0 0 0 0 0 0 0 0 0 0 0 0 0 0 0 0 0.5 0"/>
<feBlend mode="normal" in2="BackgroundImageFix" result="effect1_dropShadow_5410_10235"/>
<feBlend mode="normal" in="SourceGraphic" in2="effect1_dropShadow_5410_10235" result="shape"/>
</filter>
<radialGradient id="paint0_radial_5410_10235" cx="0" cy="0" r="1" gradientUnits="userSpaceOnUse" gradientTransform="translate(18.8214 12.4048) rotate(79.64) scale(54.2172 311.262)">
<stop stop-color="#AF80FF"/>
<stop offset="1" stop-opacity="0.01"/>
</radialGradient>
</defs>
</svg>
