<svg width="600" height="336" viewBox="0 0 600 336" fill="none" xmlns="http://www.w3.org/2000/svg">
<rect width="600" height="336" rx="10" fill="#242424"/>
<path d="M317.125 151.344C317.933 151.344 318.594 152.005 318.594 152.812V182.169L318.135 181.572L305.65 165.416C305.237 164.875 304.586 164.562 303.906 164.562C303.227 164.562 302.584 164.875 302.162 165.416L294.543 175.275L291.743 171.355C291.33 170.777 290.669 170.438 289.953 170.438C289.237 170.438 288.576 170.777 288.163 171.365L280.819 181.646L280.406 182.215V152.812C280.406 152.005 281.067 151.344 281.875 151.344H317.125ZM281.875 146.938C278.635 146.938 276 149.572 276 152.812V182.188C276 185.428 278.635 188.062 281.875 188.062H317.125C320.365 188.062 323 185.428 323 182.188V152.812C323 149.572 320.365 146.938 317.125 146.938H281.875ZM289.219 164.562C289.797 164.562 290.37 164.449 290.905 164.227C291.44 164.006 291.925 163.681 292.334 163.272C292.744 162.863 293.068 162.377 293.29 161.842C293.511 161.308 293.625 160.735 293.625 160.156C293.625 159.578 293.511 159.005 293.29 158.47C293.068 157.935 292.744 157.45 292.334 157.041C291.925 156.631 291.44 156.307 290.905 156.085C290.37 155.864 289.797 155.75 289.219 155.75C288.64 155.75 288.067 155.864 287.533 156.085C286.998 156.307 286.512 156.631 286.103 157.041C285.694 157.45 285.369 157.935 285.148 158.47C284.926 159.005 284.812 159.578 284.812 160.156C284.812 160.735 284.926 161.308 285.148 161.842C285.369 162.377 285.694 162.863 286.103 163.272C286.512 163.681 286.998 164.006 287.533 164.227C288.067 164.449 288.64 164.562 289.219 164.562Z" fill="#676767"/>
</svg>
