<svg width="162" height="61" viewBox="0 0 162 61" fill="none" xmlns="http://www.w3.org/2000/svg">
<g filter="url(#filter0_d_5410_10251)">
<rect x="10.5" y="11" width="141" height="39" rx="19.5" stroke="url(#paint0_radial_5410_10251)" shape-rendering="crispEdges"/>
<path d="M38.204 25.7H40.024V35.5H38.204V25.7ZM33.136 35.5H31.316V25.7H33.136V35.5ZM38.344 31.3H32.982V29.746H38.344V31.3ZM44.61 29.774H49.482V31.272H44.61V29.774ZM44.75 33.974H50.28V35.5H42.93V25.7H50.084V27.226H44.75V33.974ZM51.2029 35.5L55.6129 25.7H57.4049L61.8289 35.5H59.9249L56.1309 26.666H56.8589L53.0789 35.5H51.2029ZM53.2329 33.232L53.7229 31.804H59.0149L59.5049 33.232H53.2329ZM63.3552 35.5V25.7H65.1752V33.96H70.2992V35.5H63.3552ZM73.0881 35.5V27.24H69.8401V25.7H78.1561V27.24H74.9081V35.5H73.0881ZM86.6899 25.7H88.5099V35.5H86.6899V25.7ZM81.6219 35.5H79.8019V25.7H81.6219V35.5ZM86.8299 31.3H81.4679V29.746H86.8299V31.3ZM95.9519 35.64C95.2053 35.64 94.5099 35.5187 93.8659 35.276C93.2313 35.024 92.6759 34.674 92.1999 34.226C91.7333 33.7687 91.3693 33.232 91.1079 32.616C90.8466 32 90.7159 31.328 90.7159 30.6C90.7159 29.872 90.8466 29.2 91.1079 28.584C91.3693 27.968 91.7379 27.436 92.2139 26.988C92.6899 26.5307 93.2453 26.1807 93.8799 25.938C94.5146 25.686 95.2099 25.56 95.9659 25.56C96.7686 25.56 97.5013 25.7 98.1639 25.98C98.8266 26.2507 99.3866 26.6567 99.8439 27.198L98.6679 28.304C98.3133 27.9213 97.9166 27.6367 97.4779 27.45C97.0393 27.254 96.5633 27.156 96.0499 27.156C95.5366 27.156 95.0653 27.24 94.6359 27.408C94.2159 27.576 93.8473 27.814 93.5299 28.122C93.2219 28.43 92.9793 28.794 92.8019 29.214C92.6339 29.634 92.5499 30.096 92.5499 30.6C92.5499 31.104 92.6339 31.566 92.8019 31.986C92.9793 32.406 93.2219 32.77 93.5299 33.078C93.8473 33.386 94.2159 33.624 94.6359 33.792C95.0653 33.96 95.5366 34.044 96.0499 34.044C96.5633 34.044 97.0393 33.9507 97.4779 33.764C97.9166 33.568 98.3133 33.274 98.6679 32.882L99.8439 34.002C99.3866 34.534 98.8266 34.94 98.1639 35.22C97.5013 35.5 96.7639 35.64 95.9519 35.64ZM100.277 35.5L104.687 25.7H106.479L110.903 35.5H108.999L105.205 26.666H105.933L102.153 35.5H100.277ZM102.307 33.232L102.797 31.804H108.089L108.579 33.232H102.307ZM112.429 35.5V25.7H116.461C117.329 25.7 118.071 25.84 118.687 26.12C119.312 26.4 119.793 26.8013 120.129 27.324C120.465 27.8467 120.633 28.4673 120.633 29.186C120.633 29.9047 120.465 30.5253 120.129 31.048C119.793 31.5613 119.312 31.958 118.687 32.238C118.071 32.5087 117.329 32.644 116.461 32.644H113.437L114.249 31.818V35.5H112.429ZM118.841 35.5L116.363 31.944H118.309L120.801 35.5H118.841ZM114.249 32.014L113.437 31.146H116.377C117.18 31.146 117.782 30.9733 118.183 30.628C118.594 30.2827 118.799 29.802 118.799 29.186C118.799 28.5607 118.594 28.08 118.183 27.744C117.782 27.408 117.18 27.24 116.377 27.24H113.437L114.249 26.344V32.014ZM124.629 29.774H129.501V31.272H124.629V29.774ZM124.769 33.974H130.299V35.5H122.949V25.7H130.103V27.226H124.769V33.974Z" fill="white"/>
</g>
<defs>
<filter id="filter0_d_5410_10251" x="0" y="0.5" width="162" height="60" filterUnits="userSpaceOnUse" color-interpolation-filters="sRGB">
<feFlood flood-opacity="0" result="BackgroundImageFix"/>
<feColorMatrix in="SourceAlpha" type="matrix" values="0 0 0 0 0 0 0 0 0 0 0 0 0 0 0 0 0 0 127 0" result="hardAlpha"/>
<feOffset/>
<feGaussianBlur stdDeviation="5"/>
<feComposite in2="hardAlpha" operator="out"/>
<feColorMatrix type="matrix" values="0 0 0 0 0 0 0 0 0 0 0 0 0 0 0 0 0 0 0.5 0"/>
<feBlend mode="normal" in2="BackgroundImageFix" result="effect1_dropShadow_5410_10251"/>
<feBlend mode="normal" in="SourceGraphic" in2="effect1_dropShadow_5410_10251" result="shape"/>
</filter>
<radialGradient id="paint0_radial_5410_10251" cx="0" cy="0" r="1" gradientUnits="userSpaceOnUse" gradientTransform="translate(16.4238 12.4048) rotate(82.4171) scale(53.8039 228.404)">
<stop stop-color="#AF80FF"/>
<stop offset="1" stop-opacity="0.01"/>
</radialGradient>
</defs>
</svg>
