<svg width="138" height="60" viewBox="0 0 138 60" fill="none" xmlns="http://www.w3.org/2000/svg">
<g filter="url(#filter0_d_5410_10107)">
<rect x="10.5" y="10.5" width="117" height="39" rx="19.5" stroke="url(#paint0_radial_5410_10107)" shape-rendering="crispEdges"/>
<path d="M34.354 35.14C33.5887 35.14 32.856 35.0327 32.156 34.818C31.456 34.594 30.9007 34.3093 30.49 33.964L31.12 32.55C31.512 32.858 31.9973 33.1147 32.576 33.32C33.1547 33.5253 33.7473 33.628 34.354 33.628C34.8673 33.628 35.2827 33.572 35.6 33.46C35.9173 33.348 36.1507 33.1987 36.3 33.012C36.4493 32.816 36.524 32.5967 36.524 32.354C36.524 32.0553 36.4167 31.8173 36.202 31.64C35.9873 31.4533 35.7073 31.3087 35.362 31.206C35.026 31.094 34.648 30.9913 34.228 30.898C33.8173 30.8047 33.402 30.6973 32.982 30.576C32.5713 30.4453 32.1933 30.282 31.848 30.086C31.512 29.8807 31.2367 29.61 31.022 29.274C30.8073 28.938 30.7 28.5087 30.7 27.986C30.7 27.454 30.84 26.9687 31.12 26.53C31.4093 26.082 31.8433 25.7273 32.422 25.466C33.01 25.1953 33.752 25.06 34.648 25.06C35.236 25.06 35.8193 25.1347 36.398 25.284C36.9767 25.4333 37.4807 25.648 37.91 25.928L37.336 27.342C36.8973 27.0807 36.4447 26.8893 35.978 26.768C35.5113 26.6373 35.0633 26.572 34.634 26.572C34.13 26.572 33.7193 26.6327 33.402 26.754C33.094 26.8753 32.8653 27.034 32.716 27.23C32.576 27.426 32.506 27.65 32.506 27.902C32.506 28.2007 32.6087 28.4433 32.814 28.63C33.0287 28.8073 33.304 28.9473 33.64 29.05C33.9853 29.1527 34.368 29.2553 34.788 29.358C35.208 29.4513 35.6233 29.5587 36.034 29.68C36.454 29.8013 36.832 29.96 37.168 30.156C37.5133 30.352 37.7887 30.618 37.994 30.954C38.2087 31.29 38.316 31.7147 38.316 32.228C38.316 32.7507 38.1713 33.236 37.882 33.684C37.602 34.1227 37.168 34.4773 36.58 34.748C35.992 35.0093 35.25 35.14 34.354 35.14ZM42.252 35V26.74H39.004V25.2H47.32V26.74H44.072V35H42.252ZM48.9658 35V25.2H52.9978C53.8658 25.2 54.6078 25.34 55.2238 25.62C55.8492 25.9 56.3298 26.3013 56.6658 26.824C57.0018 27.3467 57.1698 27.9673 57.1698 28.686C57.1698 29.4047 57.0018 30.0253 56.6658 30.548C56.3298 31.0613 55.8492 31.458 55.2238 31.738C54.6078 32.0087 53.8658 32.144 52.9978 32.144H49.9738L50.7858 31.318V35H48.9658ZM55.3778 35L52.8998 31.444H54.8458L57.3378 35H55.3778ZM50.7858 31.514L49.9738 30.646H52.9138C53.7165 30.646 54.3185 30.4733 54.7198 30.128C55.1305 29.7827 55.3358 29.302 55.3358 28.686C55.3358 28.0607 55.1305 27.58 54.7198 27.244C54.3185 26.908 53.7165 26.74 52.9138 26.74H49.9738L50.7858 25.844V31.514ZM58.1001 35L62.5101 25.2H64.3021L68.7261 35H66.8221L63.0281 26.166H63.7561L59.9761 35H58.1001ZM60.1301 32.732L60.6201 31.304H65.9121L66.4021 32.732H60.1301ZM71.7482 35V26.74H68.5002V25.2H76.8162V26.74H73.5682V35H71.7482ZM80.1421 29.274H85.0141V30.772H80.1421V29.274ZM80.2821 33.474H85.8121V35H78.4621V25.2H85.6161V26.726H80.2821V33.474ZM92.699 35.14C91.9337 35.14 91.229 35.0187 90.585 34.776C89.9503 34.524 89.395 34.174 88.919 33.726C88.443 33.2687 88.0743 32.732 87.813 32.116C87.5517 31.5 87.421 30.828 87.421 30.1C87.421 29.372 87.5517 28.7 87.813 28.084C88.0743 27.468 88.443 26.936 88.919 26.488C89.4043 26.0307 89.969 25.6807 90.613 25.438C91.257 25.186 91.9617 25.06 92.727 25.06C93.5577 25.06 94.3043 25.1953 94.967 25.466C95.639 25.7367 96.2037 26.1333 96.661 26.656L95.513 27.776C95.1303 27.3933 94.715 27.1133 94.267 26.936C93.8283 26.7493 93.343 26.656 92.811 26.656C92.2977 26.656 91.8217 26.74 91.383 26.908C90.9443 27.076 90.5663 27.314 90.249 27.622C89.9317 27.93 89.6843 28.294 89.507 28.714C89.339 29.134 89.255 29.596 89.255 30.1C89.255 30.5947 89.339 31.052 89.507 31.472C89.6843 31.892 89.9317 32.2607 90.249 32.578C90.5663 32.886 90.9397 33.124 91.369 33.292C91.7983 33.46 92.2743 33.544 92.797 33.544C93.2823 33.544 93.749 33.4693 94.197 33.32C94.6543 33.1613 95.0883 32.9 95.499 32.536L96.535 33.894C96.0217 34.3047 95.4243 34.6173 94.743 34.832C94.071 35.0373 93.3897 35.14 92.699 35.14ZM94.813 33.656V29.988H96.535V33.894L94.813 33.656ZM101.623 35V31.122L102.029 32.242L97.7735 25.2H99.7195L103.135 30.87H102.043L105.487 25.2H107.279L103.023 32.242L103.443 31.122V35H101.623Z" fill="white"/>
</g>
<defs>
<filter id="filter0_d_5410_10107" x="0" y="0" width="138" height="60" filterUnits="userSpaceOnUse" color-interpolation-filters="sRGB">
<feFlood flood-opacity="0" result="BackgroundImageFix"/>
<feColorMatrix in="SourceAlpha" type="matrix" values="0 0 0 0 0 0 0 0 0 0 0 0 0 0 0 0 0 0 127 0" result="hardAlpha"/>
<feOffset/>
<feGaussianBlur stdDeviation="5"/>
<feComposite in2="hardAlpha" operator="out"/>
<feColorMatrix type="matrix" values="0 0 0 0 0 0 0 0 0 0 0 0 0 0 0 0 0 0 0.5 0"/>
<feBlend mode="normal" in2="BackgroundImageFix" result="effect1_dropShadow_5410_10107"/>
<feBlend mode="normal" in="SourceGraphic" in2="effect1_dropShadow_5410_10107" result="shape"/>
</filter>
<radialGradient id="paint0_radial_5410_10107" cx="0" cy="0" r="1" gradientUnits="userSpaceOnUse" gradientTransform="translate(15.3381 11.9048) rotate(83.6873) scale(53.6587 190.314)">
<stop stop-color="#AF80FF"/>
<stop offset="1" stop-opacity="0.01"/>
</radialGradient>
</defs>
</svg>
