<svg width="176" height="86" viewBox="0 0 176 86" fill="none" xmlns="http://www.w3.org/2000/svg">
<rect width="176" height="86" rx="10" fill="#242424"/>
<path d="M102.167 28.8333H82.3332V36.1291C80.4528 36.5134 78.7116 37.4 77.2946 38.6945C75.8776 39.9891 74.8377 41.6433 74.2854 43.4814C73.733 45.3195 73.689 47.2729 74.1578 49.1341C74.6266 50.9953 75.5908 52.6947 76.9479 54.0519C78.3051 55.409 80.0045 56.3732 81.8657 56.842C83.7269 57.3108 85.6803 57.2667 87.5184 56.7144C89.3565 56.1621 91.0107 55.1222 92.3053 53.7052C93.5998 52.2882 94.4864 50.547 94.8707 48.6666H102.167V28.8333ZM95.0605 45.8333C94.8892 43.2656 93.7918 40.8473 91.9721 39.0277C90.1525 37.208 87.7342 36.1106 85.1665 35.9393V31.6666H99.3332V45.8333H95.0605ZM84.4582 38.7499C86.5247 38.7499 88.5065 39.5708 89.9678 41.032C91.429 42.4933 92.2499 44.4751 92.2499 46.5416C92.2499 48.6081 91.429 50.5899 89.9678 52.0511C88.5065 53.5123 86.5247 54.3333 84.4582 54.3333C82.3917 54.3333 80.4099 53.5123 78.9487 52.0511C77.4875 50.5899 76.6665 48.6081 76.6665 46.5416C76.6665 44.4751 77.4875 42.4933 78.9487 41.032C80.4099 39.5708 82.3917 38.7499 84.4582 38.7499Z" fill="#676767"/>
</svg>
