<svg width="230" height="60" viewBox="0 0 230 60" fill="none" xmlns="http://www.w3.org/2000/svg">
<g filter="url(#filter0_d_29_19)">
<rect x="10.5" y="10.5" width="209" height="39" rx="19.5" stroke="url(#paint0_radial_29_19)" shape-rendering="crispEdges"/>
<path d="M30.574 35V33.782L36.902 26.054L37.112 26.74H30.672V25.2H38.75V26.418L32.422 34.146L32.198 33.46H38.932V35H30.574ZM42.5592 29.274H47.4312V30.772H42.5592V29.274ZM42.6992 33.474H48.2292V35H40.8792V25.2H48.0332V26.726H42.6992V33.474ZM50.5381 35V25.2H54.5701C55.4381 25.2 56.1801 25.34 56.7961 25.62C57.4214 25.9 57.9021 26.3013 58.2381 26.824C58.5741 27.3467 58.7421 27.9673 58.7421 28.686C58.7421 29.4047 58.5741 30.0253 58.2381 30.548C57.9021 31.0613 57.4214 31.458 56.7961 31.738C56.1801 32.0087 55.4381 32.144 54.5701 32.144H51.5461L52.3581 31.318V35H50.5381ZM56.9501 35L54.4721 31.444H56.4181L58.9101 35H56.9501ZM52.3581 31.514L51.5461 30.646H54.4861C55.2888 30.646 55.8908 30.4733 56.2921 30.128C56.7028 29.7827 56.9081 29.302 56.9081 28.686C56.9081 28.0607 56.7028 27.58 56.2921 27.244C55.8908 26.908 55.2888 26.74 54.4861 26.74H51.5461L52.3581 25.844V31.514ZM65.6503 35.14C64.885 35.14 64.1803 35.014 63.5363 34.762C62.8923 34.51 62.3323 34.16 61.8563 33.712C61.3803 33.2547 61.0117 32.7227 60.7503 32.116C60.489 31.5 60.3583 30.828 60.3583 30.1C60.3583 29.372 60.489 28.7047 60.7503 28.098C61.0117 27.482 61.3803 26.95 61.8563 26.502C62.3323 26.0447 62.8923 25.69 63.5363 25.438C64.1803 25.186 64.8803 25.06 65.6363 25.06C66.4017 25.06 67.1017 25.186 67.7363 25.438C68.3803 25.69 68.9403 26.0447 69.4163 26.502C69.8923 26.95 70.261 27.482 70.5223 28.098C70.7837 28.7047 70.9143 29.372 70.9143 30.1C70.9143 30.828 70.7837 31.5 70.5223 32.116C70.261 32.732 69.8923 33.264 69.4163 33.712C68.9403 34.16 68.3803 34.51 67.7363 34.762C67.1017 35.014 66.4063 35.14 65.6503 35.14ZM65.6363 33.544C66.131 33.544 66.5883 33.46 67.0083 33.292C67.4283 33.124 67.7923 32.886 68.1003 32.578C68.4083 32.2607 68.6463 31.8967 68.8143 31.486C68.9917 31.066 69.0803 30.604 69.0803 30.1C69.0803 29.596 68.9917 29.1387 68.8143 28.728C68.6463 28.308 68.4083 27.944 68.1003 27.636C67.7923 27.3187 67.4283 27.076 67.0083 26.908C66.5883 26.74 66.131 26.656 65.6363 26.656C65.1417 26.656 64.6843 26.74 64.2643 26.908C63.8537 27.076 63.4897 27.3187 63.1723 27.636C62.8643 27.944 62.6217 28.308 62.4443 28.728C62.2763 29.1387 62.1923 29.596 62.1923 30.1C62.1923 30.5947 62.2763 31.052 62.4443 31.472C62.6217 31.892 62.8643 32.2607 63.1723 32.578C63.4803 32.886 63.8443 33.124 64.2643 33.292C64.6843 33.46 65.1417 33.544 65.6363 33.544ZM80.3106 35.14C79.5453 35.14 78.8126 35.0327 78.1126 34.818C77.4126 34.594 76.8573 34.3093 76.4466 33.964L77.0766 32.55C77.4686 32.858 77.954 33.1147 78.5326 33.32C79.1113 33.5253 79.704 33.628 80.3106 33.628C80.824 33.628 81.2393 33.572 81.5566 33.46C81.874 33.348 82.1073 33.1987 82.2566 33.012C82.406 32.816 82.4806 32.5967 82.4806 32.354C82.4806 32.0553 82.3733 31.8173 82.1586 31.64C81.944 31.4533 81.664 31.3087 81.3186 31.206C80.9826 31.094 80.6046 30.9913 80.1846 30.898C79.774 30.8047 79.3586 30.6973 78.9386 30.576C78.528 30.4453 78.15 30.282 77.8046 30.086C77.4686 29.8807 77.1933 29.61 76.9786 29.274C76.764 28.938 76.6566 28.5087 76.6566 27.986C76.6566 27.454 76.7966 26.9687 77.0766 26.53C77.366 26.082 77.8 25.7273 78.3786 25.466C78.9666 25.1953 79.7086 25.06 80.6046 25.06C81.1926 25.06 81.776 25.1347 82.3546 25.284C82.9333 25.4333 83.4373 25.648 83.8666 25.928L83.2926 27.342C82.854 27.0807 82.4013 26.8893 81.9346 26.768C81.468 26.6373 81.02 26.572 80.5906 26.572C80.0866 26.572 79.676 26.6327 79.3586 26.754C79.0506 26.8753 78.822 27.034 78.6726 27.23C78.5326 27.426 78.4626 27.65 78.4626 27.902C78.4626 28.2007 78.5653 28.4433 78.7706 28.63C78.9853 28.8073 79.2606 28.9473 79.5966 29.05C79.942 29.1527 80.3246 29.2553 80.7446 29.358C81.1646 29.4513 81.58 29.5587 81.9906 29.68C82.4106 29.8013 82.7886 29.96 83.1246 30.156C83.47 30.352 83.7453 30.618 83.9506 30.954C84.1653 31.29 84.2726 31.7147 84.2726 32.228C84.2726 32.7507 84.128 33.236 83.8386 33.684C83.5586 34.1227 83.1246 34.4773 82.5366 34.748C81.9486 35.0093 81.2066 35.14 80.3106 35.14ZM93.2453 25.2H95.0653V35H93.2453V25.2ZM88.1773 35H86.3573V25.2H88.1773V35ZM93.3853 30.8H88.0233V29.246H93.3853V30.8ZM102.563 35.14C101.798 35.14 101.093 35.014 100.449 34.762C99.8053 34.51 99.2453 34.16 98.7693 33.712C98.2933 33.2547 97.9246 32.7227 97.6633 32.116C97.402 31.5 97.2713 30.828 97.2713 30.1C97.2713 29.372 97.402 28.7047 97.6633 28.098C97.9246 27.482 98.2933 26.95 98.7693 26.502C99.2453 26.0447 99.8053 25.69 100.449 25.438C101.093 25.186 101.793 25.06 102.549 25.06C103.315 25.06 104.015 25.186 104.649 25.438C105.293 25.69 105.853 26.0447 106.329 26.502C106.805 26.95 107.174 27.482 107.435 28.098C107.697 28.7047 107.827 29.372 107.827 30.1C107.827 30.828 107.697 31.5 107.435 32.116C107.174 32.732 106.805 33.264 106.329 33.712C105.853 34.16 105.293 34.51 104.649 34.762C104.015 35.014 103.319 35.14 102.563 35.14ZM102.549 33.544C103.044 33.544 103.501 33.46 103.921 33.292C104.341 33.124 104.705 32.886 105.013 32.578C105.321 32.2607 105.559 31.8967 105.727 31.486C105.905 31.066 105.993 30.604 105.993 30.1C105.993 29.596 105.905 29.1387 105.727 28.728C105.559 28.308 105.321 27.944 105.013 27.636C104.705 27.3187 104.341 27.076 103.921 26.908C103.501 26.74 103.044 26.656 102.549 26.656C102.055 26.656 101.597 26.74 101.177 26.908C100.767 27.076 100.403 27.3187 100.085 27.636C99.7773 27.944 99.5346 28.308 99.3573 28.728C99.1893 29.1387 99.1053 29.596 99.1053 30.1C99.1053 30.5947 99.1893 31.052 99.3573 31.472C99.5346 31.892 99.7773 32.2607 100.085 32.578C100.393 32.886 100.757 33.124 101.177 33.292C101.597 33.46 102.055 33.544 102.549 33.544ZM111.888 35V26.74H108.64V25.2H116.956V26.74H113.708V35H111.888ZM122.751 35V25.2H124.571V33.46H129.695V35H122.751ZM133.092 29.274H137.964V30.772H133.092V29.274ZM133.232 33.474H138.762V35H131.412V25.2H138.566V26.726H133.232V33.474ZM139.685 35L144.095 25.2H145.887L150.311 35H148.407L144.613 26.166H145.341L141.561 35H139.685ZM141.715 32.732L142.205 31.304H147.497L147.987 32.732H141.715ZM151.837 35V25.2H155.869C156.737 25.2 157.479 25.34 158.095 25.62C158.72 25.9 159.201 26.3013 159.537 26.824C159.873 27.3467 160.041 27.9673 160.041 28.686C160.041 29.4047 159.873 30.0253 159.537 30.548C159.201 31.0613 158.72 31.458 158.095 31.738C157.479 32.0087 156.737 32.144 155.869 32.144H152.845L153.657 31.318V35H151.837ZM158.249 35L155.771 31.444H157.717L160.209 35H158.249ZM153.657 31.514L152.845 30.646H155.785C156.588 30.646 157.19 30.4733 157.591 30.128C158.002 29.7827 158.207 29.302 158.207 28.686C158.207 28.0607 158.002 27.58 157.591 27.244C157.19 26.908 156.588 26.74 155.785 26.74H152.845L153.657 25.844V31.514ZM162.357 35V25.2H163.855L170.001 32.746H169.259V25.2H171.065V35H169.567L163.421 27.454H164.163V35H162.357ZM173.971 35V25.2H175.791V35H173.971ZM178.722 35V25.2H180.22L186.366 32.746H185.624V25.2H187.43V35H185.932L179.786 27.454H180.528V35H178.722ZM194.914 35.14C194.148 35.14 193.444 35.0187 192.8 34.776C192.165 34.524 191.61 34.174 191.134 33.726C190.658 33.2687 190.289 32.732 190.028 32.116C189.766 31.5 189.636 30.828 189.636 30.1C189.636 29.372 189.766 28.7 190.028 28.084C190.289 27.468 190.658 26.936 191.134 26.488C191.619 26.0307 192.184 25.6807 192.828 25.438C193.472 25.186 194.176 25.06 194.942 25.06C195.772 25.06 196.519 25.1953 197.182 25.466C197.854 25.7367 198.418 26.1333 198.876 26.656L197.728 27.776C197.345 27.3933 196.93 27.1133 196.482 26.936C196.043 26.7493 195.558 26.656 195.026 26.656C194.512 26.656 194.036 26.74 193.598 26.908C193.159 27.076 192.781 27.314 192.464 27.622C192.146 27.93 191.899 28.294 191.722 28.714C191.554 29.134 191.47 29.596 191.47 30.1C191.47 30.5947 191.554 31.052 191.722 31.472C191.899 31.892 192.146 32.2607 192.464 32.578C192.781 32.886 193.154 33.124 193.584 33.292C194.013 33.46 194.489 33.544 195.012 33.544C195.497 33.544 195.964 33.4693 196.412 33.32C196.869 33.1613 197.303 32.9 197.714 32.536L198.75 33.894C198.236 34.3047 197.639 34.6173 196.958 34.832C196.286 35.0373 195.604 35.14 194.914 35.14ZM197.028 33.656V29.988H198.75V33.894L197.028 33.656Z" fill="white"/>
</g>
<defs>
<filter id="filter0_d_29_19" x="0" y="0" width="230" height="60" filterUnits="userSpaceOnUse" color-interpolation-filters="sRGB">
<feFlood flood-opacity="0" result="BackgroundImageFix"/>
<feColorMatrix in="SourceAlpha" type="matrix" values="0 0 0 0 0 0 0 0 0 0 0 0 0 0 0 0 0 0 127 0" result="hardAlpha"/>
<feOffset/>
<feGaussianBlur stdDeviation="5"/>
<feComposite in2="hardAlpha" operator="out"/>
<feColorMatrix type="matrix" values="0 0 0 0 0 0 0 0 0 0 0 0 0 0 0 0 0 0 0.5 0"/>
<feBlend mode="normal" in2="BackgroundImageFix" result="effect1_dropShadow_29_19"/>
<feBlend mode="normal" in="SourceGraphic" in2="effect1_dropShadow_29_19" result="shape"/>
</filter>
<radialGradient id="paint0_radial_29_19" cx="0" cy="0" r="1" gradientUnits="userSpaceOnUse" gradientTransform="translate(19.5 11.9048) rotate(78.8623) scale(54.3571 334.342)">
<stop stop-color="#AF80FF"/>
<stop offset="1" stop-opacity="0.01"/>
</radialGradient>
</defs>
</svg>
