<svg width="168" height="141" viewBox="0 0 168 141" fill="none" xmlns="http://www.w3.org/2000/svg">
<rect width="168" height="141" rx="10" fill="#242424"/>
<path d="M98.1665 56.8335H78.3332V64.1293C76.4528 64.5137 74.7116 65.4002 73.2946 66.6948C71.8776 67.9893 70.8377 69.6435 70.2854 71.4816C69.733 73.3198 69.689 75.2732 70.1578 77.1343C70.6266 78.9955 71.5908 80.695 72.9479 82.0521C74.3051 83.4093 76.0045 84.3735 77.8657 84.8423C79.7269 85.3111 81.6803 85.267 83.5184 84.7147C85.3565 84.1624 87.0107 83.1225 88.3053 81.7055C89.5998 80.2885 90.4864 78.5473 90.8707 76.6668H98.1665V56.8335ZM91.0605 73.8335C90.8892 71.2658 89.7918 68.8476 87.9721 67.0279C86.1525 65.2082 83.7342 64.1108 81.1665 63.9395V59.6668H95.3332V73.8335H91.0605ZM80.4582 66.7502C82.5247 66.7502 84.5065 67.5711 85.9678 69.0323C87.429 70.4935 88.2499 72.4754 88.2499 74.5418C88.2499 76.6083 87.429 78.5901 85.9678 80.0514C84.5065 81.5126 82.5247 82.3335 80.4582 82.3335C78.3917 82.3335 76.4099 81.5126 74.9487 80.0514C73.4875 78.5901 72.6665 76.6083 72.6665 74.5418C72.6665 72.4754 73.4875 70.4935 74.9487 69.0323C76.4099 67.5711 78.3917 66.7502 80.4582 66.7502Z" fill="#676767"/>
</svg>
