<svg width="242" height="256" viewBox="0 0 242 256" fill="none" xmlns="http://www.w3.org/2000/svg">
<path d="M198.599 12.7374C198.599 6.95381 192.449 3.24498 187.334 5.94386L20.1457 94.1551C7.75459 100.693 1.86564e-05 113.552 8.20136e-06 127.562V127.562C-2.25865e-06 141.579 7.76179 154.443 20.1619 160.978L187.337 249.078C192.452 251.774 198.599 248.065 198.599 242.283L198.599 185.277C198.599 181.864 196.347 178.86 193.07 177.904L49.1218 135.892C45.3963 134.805 42.8352 131.39 42.8352 127.509V127.509C42.8352 123.628 45.3962 120.212 49.1216 119.125L193.07 77.1095C196.347 76.1532 198.599 73.1494 198.599 69.7361L198.599 12.7374Z" fill="url(#paint0_linear_20_3)"/>
<path d="M239.03 130.942C242.34 130.116 242.34 124.908 239.03 124.083C215.635 118.249 207.795 110.409 201.961 87.0141C201.136 83.7045 195.928 83.7045 195.102 87.0141C189.268 110.409 181.429 118.249 158.033 124.083C154.724 124.908 154.724 130.116 158.033 130.942C181.429 136.776 189.268 144.615 195.102 168.011C195.928 171.32 201.136 171.32 201.961 168.011C207.795 144.615 215.635 136.776 239.03 130.942Z" fill="#8D8D8D"/>
<defs>
<linearGradient id="paint0_linear_20_3" x1="-9.78652e-06" y1="127.507" x2="271.5" y2="127.507" gradientUnits="userSpaceOnUse">
<stop stop-color="white" stop-opacity="0"/>
<stop offset="1" stop-color="white" stop-opacity="0.2"/>
</linearGradient>
</defs>
</svg>
