<svg width="270" height="44" viewBox="0 0 270 44" fill="none" xmlns="http://www.w3.org/2000/svg">
<rect width="270" height="44" rx="22" fill="#0280FF"/>
<path d="M32.0438 20.1477H30.2711C30.2029 19.7689 30.076 19.4356 29.8904 19.1477C29.7048 18.8598 29.4775 18.6155 29.2086 18.4148C28.9396 18.214 28.6385 18.0625 28.3052 17.9602C27.9756 17.858 27.6253 17.8068 27.254 17.8068C26.5836 17.8068 25.9832 17.9754 25.4529 18.3125C24.9264 18.6496 24.5097 19.1439 24.2029 19.7955C23.8999 20.447 23.7484 21.2424 23.7484 22.1818C23.7484 23.1288 23.8999 23.928 24.2029 24.5795C24.5097 25.2311 24.9283 25.7235 25.4586 26.0568C25.9889 26.3902 26.5855 26.5568 27.2484 26.5568C27.6158 26.5568 27.9643 26.5076 28.2938 26.4091C28.6271 26.3068 28.9283 26.1572 29.1972 25.9602C29.4662 25.7633 29.6934 25.5227 29.879 25.2386C30.0684 24.9508 30.1991 24.6212 30.2711 24.25L32.0438 24.2557C31.9491 24.8277 31.7654 25.3542 31.4927 25.8352C31.2237 26.3125 30.8771 26.7254 30.4529 27.0739C30.0325 27.4186 29.5514 27.6856 29.0097 27.875C28.4681 28.0644 27.8771 28.1591 27.237 28.1591C26.2294 28.1591 25.3317 27.9205 24.5438 27.4432C23.7559 26.9621 23.1347 26.2746 22.6802 25.3807C22.2294 24.4867 22.004 23.4205 22.004 22.1818C22.004 20.9394 22.2313 19.8731 22.6859 18.983C23.1404 18.089 23.7616 17.4034 24.5495 16.9261C25.3374 16.4451 26.2332 16.2045 27.237 16.2045C27.8544 16.2045 28.4302 16.2936 28.9643 16.4716C29.5021 16.6458 29.9851 16.9034 30.4131 17.2443C30.8412 17.5814 31.1953 17.9943 31.4756 18.483C31.7559 18.9678 31.9453 19.5227 32.0438 20.1477ZM37.4444 28.1761C36.6263 28.1761 35.9122 27.9886 35.3024 27.6136C34.6925 27.2386 34.2191 26.714 33.8819 26.0398C33.5448 25.3655 33.3763 24.5777 33.3763 23.6761C33.3763 22.7708 33.5448 21.9792 33.8819 21.3011C34.2191 20.6231 34.6925 20.0966 35.3024 19.7216C35.9122 19.3466 36.6263 19.1591 37.4444 19.1591C38.2626 19.1591 38.9766 19.3466 39.5865 19.7216C40.1963 20.0966 40.6698 20.6231 41.0069 21.3011C41.3441 21.9792 41.5126 22.7708 41.5126 23.6761C41.5126 24.5777 41.3441 25.3655 41.0069 26.0398C40.6698 26.714 40.1963 27.2386 39.5865 27.6136C38.9766 27.9886 38.2626 28.1761 37.4444 28.1761ZM37.4501 26.75C37.9804 26.75 38.4198 26.6098 38.7683 26.3295C39.1168 26.0492 39.3744 25.6761 39.541 25.2102C39.7115 24.7443 39.7967 24.2311 39.7967 23.6705C39.7967 23.1136 39.7115 22.6023 39.541 22.1364C39.3744 21.6667 39.1168 21.2898 38.7683 21.0057C38.4198 20.7216 37.9804 20.5795 37.4501 20.5795C36.916 20.5795 36.4728 20.7216 36.1206 21.0057C35.7721 21.2898 35.5126 21.6667 35.3422 22.1364C35.1755 22.6023 35.0922 23.1136 35.0922 23.6705C35.0922 24.2311 35.1755 24.7443 35.3422 25.2102C35.5126 25.6761 35.7721 26.0492 36.1206 26.3295C36.4728 26.6098 36.916 26.75 37.4501 26.75ZM44.8678 22.8182V28H43.1689V19.2727H44.7996V20.6932H44.9076C45.1083 20.2311 45.4227 19.8598 45.8507 19.5795C46.2826 19.2992 46.8261 19.1591 47.4814 19.1591C48.0761 19.1591 48.597 19.2841 49.0439 19.5341C49.4909 19.7803 49.8375 20.1477 50.0837 20.6364C50.3299 21.125 50.453 21.7292 50.453 22.4489V28H48.7542V22.6534C48.7542 22.0208 48.5894 21.5265 48.2598 21.1705C47.9303 20.8106 47.4776 20.6307 46.9019 20.6307C46.5079 20.6307 46.1576 20.7159 45.8507 20.8864C45.5477 21.0568 45.3072 21.3068 45.1292 21.6364C44.9549 21.9621 44.8678 22.3561 44.8678 22.8182ZM56.5653 19.2727V20.6364H51.7982V19.2727H56.5653ZM53.0767 17.1818H54.7755V25.4375C54.7755 25.767 54.8248 26.0152 54.9232 26.1818C55.0217 26.3447 55.1486 26.4564 55.3039 26.517C55.463 26.5739 55.6354 26.6023 55.821 26.6023C55.9573 26.6023 56.0767 26.5928 56.1789 26.5739C56.2812 26.5549 56.3607 26.5398 56.4176 26.5284L56.7244 27.9318C56.6259 27.9697 56.4857 28.0076 56.3039 28.0455C56.1221 28.0871 55.8948 28.1098 55.6221 28.1136C55.1751 28.1212 54.7585 28.0417 54.3721 27.875C53.9857 27.7083 53.6732 27.4508 53.4346 27.1023C53.196 26.7538 53.0767 26.3163 53.0767 25.7898V17.1818ZM60.7443 28.1932C60.1913 28.1932 59.6913 28.0909 59.2443 27.8864C58.7974 27.678 58.4432 27.3769 58.1818 26.983C57.9243 26.589 57.7955 26.1061 57.7955 25.5341C57.7955 25.0417 57.8902 24.6364 58.0796 24.3182C58.2689 24 58.5246 23.7481 58.8466 23.5625C59.1686 23.3769 59.5284 23.2367 59.9261 23.142C60.3239 23.0473 60.7292 22.9754 61.1421 22.9261C61.6648 22.8655 62.089 22.8163 62.4148 22.7784C62.7405 22.7367 62.9773 22.6705 63.125 22.5795C63.2727 22.4886 63.3466 22.3409 63.3466 22.1364V22.0966C63.3466 21.6004 63.2064 21.2159 62.9261 20.9432C62.6496 20.6705 62.2368 20.5341 61.6875 20.5341C61.1155 20.5341 60.6648 20.661 60.3352 20.9148C60.0095 21.1648 59.7841 21.4432 59.6591 21.75L58.0625 21.3864C58.2519 20.8561 58.5284 20.428 58.8921 20.1023C59.2595 19.7727 59.6818 19.5341 60.1591 19.3864C60.6364 19.2348 61.1383 19.1591 61.6648 19.1591C62.0133 19.1591 62.3826 19.2008 62.7727 19.2841C63.1667 19.3636 63.5341 19.5114 63.875 19.7273C64.2197 19.9432 64.5019 20.2519 64.7216 20.6534C64.9413 21.0511 65.0511 21.5682 65.0511 22.2045V28H63.3921V26.8068H63.3239C63.214 27.0265 63.0493 27.2424 62.8296 27.4545C62.6099 27.6667 62.3277 27.8428 61.983 27.983C61.6383 28.1231 61.2254 28.1932 60.7443 28.1932ZM61.1136 26.8295C61.5833 26.8295 61.9849 26.7367 62.3182 26.5511C62.6553 26.3655 62.911 26.1231 63.0852 25.8239C63.2633 25.5208 63.3523 25.197 63.3523 24.8523V23.7273C63.2917 23.7879 63.1743 23.8447 63 23.8977C62.8296 23.947 62.6345 23.9905 62.4148 24.0284C62.1951 24.0625 61.9811 24.0947 61.7727 24.125C61.5644 24.1515 61.3902 24.1742 61.25 24.1932C60.9205 24.2348 60.6193 24.3049 60.3466 24.4034C60.0777 24.5019 59.8618 24.6439 59.6989 24.8295C59.5398 25.0114 59.4602 25.2538 59.4602 25.5568C59.4602 25.9773 59.6155 26.2955 59.9261 26.5114C60.2368 26.7235 60.6326 26.8295 61.1136 26.8295ZM70.7501 28.1761C69.9054 28.1761 69.1781 27.9848 68.5682 27.6023C67.9622 27.2159 67.4963 26.6837 67.1705 26.0057C66.8448 25.3277 66.6819 24.5511 66.6819 23.6761C66.6819 22.7898 66.8485 22.0076 67.1819 21.3295C67.5152 20.6477 67.9849 20.1155 68.591 19.733C69.197 19.3504 69.911 19.1591 70.733 19.1591C71.3959 19.1591 71.9868 19.2822 72.5057 19.5284C73.0247 19.7708 73.4432 20.1117 73.7614 20.5511C74.0834 20.9905 74.2747 21.5038 74.3353 22.0909H72.6819C72.591 21.6818 72.3826 21.3295 72.0569 21.0341C71.7349 20.7386 71.3031 20.5909 70.7614 20.5909C70.2879 20.5909 69.8732 20.7159 69.5171 20.9659C69.1648 21.2121 68.8902 21.5644 68.6932 22.0227C68.4963 22.4773 68.3978 23.0152 68.3978 23.6364C68.3978 24.2727 68.4944 24.822 68.6876 25.2841C68.8807 25.7462 69.1535 26.1042 69.5057 26.358C69.8618 26.6117 70.2804 26.7386 70.7614 26.7386C71.0834 26.7386 71.3751 26.6799 71.6364 26.5625C71.9016 26.4413 72.1232 26.2689 72.3012 26.0455C72.483 25.822 72.6099 25.553 72.6819 25.2386H74.3353C74.2747 25.803 74.091 26.3068 73.7842 26.75C73.4773 27.1932 73.0664 27.5417 72.5512 27.7955C72.0398 28.0492 71.4395 28.1761 70.7501 28.1761ZM79.9859 19.2727V20.6364H75.2189V19.2727H79.9859ZM76.4973 17.1818H78.1961V25.4375C78.1961 25.767 78.2454 26.0152 78.3439 26.1818C78.4424 26.3447 78.5693 26.4564 78.7246 26.517C78.8836 26.5739 79.056 26.6023 79.2416 26.6023C79.378 26.6023 79.4973 26.5928 79.5996 26.5739C79.7018 26.5549 79.7814 26.5398 79.8382 26.5284L80.145 27.9318C80.0465 27.9697 79.9064 28.0076 79.7246 28.0455C79.5427 28.0871 79.3155 28.1098 79.0427 28.1136C78.5958 28.1212 78.1791 28.0417 77.7927 27.875C77.4064 27.7083 77.0939 27.4508 76.8552 27.1023C76.6166 26.7538 76.4973 26.3163 76.4973 25.7898V17.1818ZM89.773 19.2727V20.6364H84.8411V19.2727H89.773ZM86.1934 28V18.2614C86.1934 17.7159 86.3127 17.2633 86.5514 16.9034C86.79 16.5398 87.1063 16.2689 87.5002 16.0909C87.8942 15.9091 88.3222 15.8182 88.7843 15.8182C89.1252 15.8182 89.4169 15.8466 89.6593 15.9034C89.9018 15.9564 90.0817 16.0057 90.1991 16.0511L89.8014 17.4261C89.7218 17.4034 89.6196 17.3769 89.4946 17.3466C89.3696 17.3125 89.218 17.2955 89.04 17.2955C88.6271 17.2955 88.3317 17.3977 88.1536 17.6023C87.9794 17.8068 87.8923 18.1023 87.8923 18.4886V28H86.1934ZM94.6182 28.1761C93.8 28.1761 93.086 27.9886 92.4761 27.6136C91.8663 27.2386 91.3928 26.714 91.0557 26.0398C90.7186 25.3655 90.55 24.5777 90.55 23.6761C90.55 22.7708 90.7186 21.9792 91.0557 21.3011C91.3928 20.6231 91.8663 20.0966 92.4761 19.7216C93.086 19.3466 93.8 19.1591 94.6182 19.1591C95.4364 19.1591 96.1504 19.3466 96.7602 19.7216C97.3701 20.0966 97.8436 20.6231 98.1807 21.3011C98.5178 21.9792 98.6864 22.7708 98.6864 23.6761C98.6864 24.5777 98.5178 25.3655 98.1807 26.0398C97.8436 26.714 97.3701 27.2386 96.7602 27.6136C96.1504 27.9886 95.4364 28.1761 94.6182 28.1761ZM94.6239 26.75C95.1542 26.75 95.5936 26.6098 95.942 26.3295C96.2905 26.0492 96.5481 25.6761 96.7148 25.2102C96.8852 24.7443 96.9705 24.2311 96.9705 23.6705C96.9705 23.1136 96.8852 22.6023 96.7148 22.1364C96.5481 21.6667 96.2905 21.2898 95.942 21.0057C95.5936 20.7216 95.1542 20.5795 94.6239 20.5795C94.0898 20.5795 93.6466 20.7216 93.2943 21.0057C92.9458 21.2898 92.6864 21.6667 92.5159 22.1364C92.3492 22.6023 92.2659 23.1136 92.2659 23.6705C92.2659 24.2311 92.3492 24.7443 92.5159 25.2102C92.6864 25.6761 92.9458 26.0492 93.2943 26.3295C93.6466 26.6098 94.0898 26.75 94.6239 26.75ZM100.343 28V19.2727H101.985V20.6591H102.076C102.235 20.1894 102.515 19.8201 102.917 19.5511C103.322 19.2784 103.78 19.142 104.292 19.142C104.398 19.142 104.523 19.1458 104.667 19.1534C104.814 19.161 104.93 19.1705 105.013 19.1818V20.8068C104.945 20.7879 104.824 20.767 104.649 20.7443C104.475 20.7178 104.301 20.7045 104.127 20.7045C103.725 20.7045 103.367 20.7898 103.053 20.9602C102.742 21.1269 102.496 21.3598 102.314 21.6591C102.132 21.9545 102.042 22.2917 102.042 22.6705V28H100.343ZM110.374 28V16.3636H117.59V17.875H112.13V21.4205H117.073V22.9261H112.13V28H110.374ZM124.354 24.3807V19.2727H126.059V28H124.388V26.4886H124.297C124.097 26.9545 123.775 27.3428 123.331 27.6534C122.892 27.9602 122.345 28.1136 121.689 28.1136C121.129 28.1136 120.633 27.9905 120.201 27.7443C119.773 27.4943 119.436 27.125 119.189 26.6364C118.947 26.1477 118.826 25.5436 118.826 24.8239V19.2727H120.525V24.6193C120.525 25.214 120.689 25.6875 121.019 26.0398C121.349 26.392 121.777 26.5682 122.303 26.5682C122.621 26.5682 122.938 26.4886 123.252 26.3295C123.57 26.1705 123.833 25.9299 124.042 25.608C124.254 25.286 124.358 24.8769 124.354 24.3807ZM128.101 28V19.2727H129.743V20.6591H129.834C129.993 20.1894 130.274 19.8201 130.675 19.5511C131.081 19.2784 131.539 19.142 132.05 19.142C132.156 19.142 132.281 19.1458 132.425 19.1534C132.573 19.161 132.689 19.1705 132.772 19.1818V20.8068C132.704 20.7879 132.582 20.767 132.408 20.7443C132.234 20.7178 132.06 20.7045 131.886 20.7045C131.484 20.7045 131.126 20.7898 130.812 20.9602C130.501 21.1269 130.255 21.3598 130.073 21.6591C129.891 21.9545 129.8 22.2917 129.8 22.6705V28H128.101ZM138.592 19.2727V20.6364H133.824V19.2727H138.592ZM135.103 17.1818H136.802V25.4375C136.802 25.767 136.851 26.0152 136.949 26.1818C137.048 26.3447 137.175 26.4564 137.33 26.517C137.489 26.5739 137.662 26.6023 137.847 26.6023C137.984 26.6023 138.103 26.5928 138.205 26.5739C138.307 26.5549 138.387 26.5398 138.444 26.5284L138.751 27.9318C138.652 27.9697 138.512 28.0076 138.33 28.0455C138.148 28.0871 137.921 28.1098 137.648 28.1136C137.201 28.1212 136.785 28.0417 136.398 27.875C136.012 27.7083 135.699 27.4508 135.461 27.1023C135.222 26.7538 135.103 26.3163 135.103 25.7898V17.1818ZM142.117 22.8182V28H140.418V16.3636H142.094V20.6932H142.202C142.407 20.2235 142.719 19.8504 143.14 19.5739C143.56 19.2973 144.11 19.1591 144.788 19.1591C145.386 19.1591 145.909 19.2822 146.356 19.5284C146.807 19.7746 147.155 20.142 147.401 20.6307C147.651 21.1155 147.776 21.7216 147.776 22.4489V28H146.077V22.6534C146.077 22.0133 145.913 21.517 145.583 21.1648C145.254 20.8087 144.795 20.6307 144.208 20.6307C143.807 20.6307 143.447 20.7159 143.129 20.8864C142.814 21.0568 142.566 21.3068 142.384 21.6364C142.206 21.9621 142.117 22.3561 142.117 22.8182ZM153.565 28.1761C152.705 28.1761 151.964 27.9924 151.343 27.625C150.726 27.2538 150.248 26.733 149.911 26.0625C149.578 25.3883 149.411 24.5985 149.411 23.6932C149.411 22.7992 149.578 22.0114 149.911 21.3295C150.248 20.6477 150.718 20.1155 151.32 19.733C151.926 19.3504 152.635 19.1591 153.445 19.1591C153.938 19.1591 154.415 19.2405 154.877 19.4034C155.339 19.5663 155.754 19.822 156.121 20.1705C156.489 20.5189 156.779 20.9716 156.991 21.5284C157.203 22.0814 157.309 22.7538 157.309 23.5455V24.1477H150.371V22.875H155.644C155.644 22.428 155.553 22.0322 155.371 21.6875C155.19 21.339 154.934 21.0644 154.604 20.8636C154.279 20.6629 153.896 20.5625 153.457 20.5625C152.979 20.5625 152.563 20.6799 152.207 20.9148C151.854 21.1458 151.582 21.4489 151.389 21.8239C151.199 22.1951 151.104 22.5985 151.104 23.0341V24.0284C151.104 24.6117 151.207 25.108 151.411 25.517C151.62 25.9261 151.909 26.2386 152.281 26.4545C152.652 26.6667 153.085 26.7727 153.582 26.7727C153.904 26.7727 154.197 26.7273 154.462 26.6364C154.728 26.5417 154.957 26.4015 155.15 26.2159C155.343 26.0303 155.491 25.8011 155.593 25.5284L157.201 25.8182C157.072 26.2917 156.841 26.7064 156.508 27.0625C156.178 27.4148 155.764 27.6894 155.264 27.8864C154.767 28.0795 154.201 28.1761 153.565 28.1761ZM158.954 28V19.2727H160.596V20.6591H160.687C160.846 20.1894 161.126 19.8201 161.528 19.5511C161.933 19.2784 162.391 19.142 162.903 19.142C163.009 19.142 163.134 19.1458 163.278 19.1534C163.426 19.161 163.541 19.1705 163.624 19.1818V20.8068C163.556 20.7879 163.435 20.767 163.261 20.7443C163.086 20.7178 162.912 20.7045 162.738 20.7045C162.336 20.7045 161.979 20.7898 161.664 20.9602C161.354 21.1269 161.107 21.3598 160.926 21.6591C160.744 21.9545 160.653 22.2917 160.653 22.6705V28H158.954ZM169.968 28H168.105L172.292 16.3636H174.321L178.508 28H176.644L173.355 18.4773H173.264L169.968 28ZM170.281 23.4432H176.326V24.9205H170.281V23.4432ZM186.289 21.4034L184.75 21.6761C184.685 21.4792 184.583 21.2917 184.443 21.1136C184.306 20.9356 184.121 20.7898 183.886 20.6761C183.651 20.5625 183.358 20.5057 183.005 20.5057C182.524 20.5057 182.123 20.6136 181.801 20.8295C181.479 21.0417 181.318 21.3163 181.318 21.6534C181.318 21.9451 181.426 22.1799 181.642 22.358C181.858 22.536 182.206 22.6818 182.687 22.7955L184.073 23.1136C184.876 23.2992 185.475 23.5852 185.869 23.9716C186.263 24.358 186.46 24.8598 186.46 25.4773C186.46 26 186.308 26.4659 186.005 26.875C185.706 27.2803 185.287 27.5985 184.75 27.8295C184.215 28.0606 183.596 28.1761 182.892 28.1761C181.914 28.1761 181.117 27.9678 180.5 27.5511C179.882 27.1307 179.503 26.5341 179.363 25.7614L181.005 25.5114C181.108 25.9394 181.318 26.2633 181.636 26.483C181.954 26.6989 182.369 26.8068 182.88 26.8068C183.437 26.8068 183.882 26.6913 184.215 26.4602C184.549 26.2254 184.715 25.9394 184.715 25.6023C184.715 25.3295 184.613 25.1004 184.409 24.9148C184.208 24.7292 183.899 24.589 183.483 24.4943L182.005 24.1705C181.191 23.9848 180.589 23.6894 180.198 23.2841C179.812 22.8788 179.619 22.3655 179.619 21.7443C179.619 21.2292 179.763 20.7784 180.051 20.392C180.339 20.0057 180.736 19.7045 181.244 19.4886C181.751 19.2689 182.333 19.1591 182.988 19.1591C183.931 19.1591 184.674 19.3636 185.215 19.7727C185.757 20.178 186.115 20.7216 186.289 21.4034ZM194.627 21.4034L193.088 21.6761C193.023 21.4792 192.921 21.2917 192.781 21.1136C192.644 20.9356 192.459 20.7898 192.224 20.6761C191.989 20.5625 191.696 20.5057 191.343 20.5057C190.862 20.5057 190.461 20.6136 190.139 20.8295C189.817 21.0417 189.656 21.3163 189.656 21.6534C189.656 21.9451 189.764 22.1799 189.98 22.358C190.196 22.536 190.544 22.6818 191.025 22.7955L192.412 23.1136C193.215 23.2992 193.813 23.5852 194.207 23.9716C194.601 24.358 194.798 24.8598 194.798 25.4773C194.798 26 194.646 26.4659 194.343 26.875C194.044 27.2803 193.626 27.5985 193.088 27.8295C192.554 28.0606 191.934 28.1761 191.23 28.1761C190.252 28.1761 189.455 27.9678 188.838 27.5511C188.22 27.1307 187.841 26.5341 187.701 25.7614L189.343 25.5114C189.446 25.9394 189.656 26.2633 189.974 26.483C190.292 26.6989 190.707 26.8068 191.218 26.8068C191.775 26.8068 192.22 26.6913 192.554 26.4602C192.887 26.2254 193.054 25.9394 193.054 25.6023C193.054 25.3295 192.951 25.1004 192.747 24.9148C192.546 24.7292 192.237 24.589 191.821 24.4943L190.343 24.1705C189.529 23.9848 188.927 23.6894 188.537 23.2841C188.15 22.8788 187.957 22.3655 187.957 21.7443C187.957 21.2292 188.101 20.7784 188.389 20.392C188.677 20.0057 189.074 19.7045 189.582 19.4886C190.09 19.2689 190.671 19.1591 191.326 19.1591C192.269 19.1591 193.012 19.3636 193.554 19.7727C194.095 20.178 194.453 20.7216 194.627 21.4034ZM196.426 28V19.2727H198.125V28H196.426ZM197.284 17.9261C196.988 17.9261 196.735 17.8277 196.522 17.6307C196.314 17.4299 196.21 17.1913 196.21 16.9148C196.21 16.6345 196.314 16.3958 196.522 16.1989C196.735 15.9981 196.988 15.8977 197.284 15.8977C197.579 15.8977 197.831 15.9981 198.039 16.1989C198.252 16.3958 198.358 16.6345 198.358 16.9148C198.358 17.1913 198.252 17.4299 198.039 17.6307C197.831 17.8277 197.579 17.9261 197.284 17.9261ZM206.71 21.4034L205.17 21.6761C205.106 21.4792 205.004 21.2917 204.863 21.1136C204.727 20.9356 204.541 20.7898 204.307 20.6761C204.072 20.5625 203.778 20.5057 203.426 20.5057C202.945 20.5057 202.543 20.6136 202.221 20.8295C201.899 21.0417 201.738 21.3163 201.738 21.6534C201.738 21.9451 201.846 22.1799 202.062 22.358C202.278 22.536 202.627 22.6818 203.108 22.7955L204.494 23.1136C205.297 23.2992 205.896 23.5852 206.29 23.9716C206.683 24.358 206.88 24.8598 206.88 25.4773C206.88 26 206.729 26.4659 206.426 26.875C206.127 27.2803 205.708 27.5985 205.17 27.8295C204.636 28.0606 204.017 28.1761 203.312 28.1761C202.335 28.1761 201.538 27.9678 200.92 27.5511C200.303 27.1307 199.924 26.5341 199.784 25.7614L201.426 25.5114C201.528 25.9394 201.738 26.2633 202.057 26.483C202.375 26.6989 202.79 26.8068 203.301 26.8068C203.858 26.8068 204.303 26.6913 204.636 26.4602C204.969 26.2254 205.136 25.9394 205.136 25.6023C205.136 25.3295 205.034 25.1004 204.829 24.9148C204.629 24.7292 204.32 24.589 203.903 24.4943L202.426 24.1705C201.611 23.9848 201.009 23.6894 200.619 23.2841C200.233 22.8788 200.04 22.3655 200.04 21.7443C200.04 21.2292 200.183 20.7784 200.471 20.392C200.759 20.0057 201.157 19.7045 201.665 19.4886C202.172 19.2689 202.754 19.1591 203.409 19.1591C204.352 19.1591 205.094 19.3636 205.636 19.7727C206.178 20.178 206.536 20.7216 206.71 21.4034ZM212.582 19.2727V20.6364H207.815V19.2727H212.582ZM209.094 17.1818H210.792V25.4375C210.792 25.767 210.842 26.0152 210.94 26.1818C211.039 26.3447 211.165 26.4564 211.321 26.517C211.48 26.5739 211.652 26.6023 211.838 26.6023C211.974 26.6023 212.094 26.5928 212.196 26.5739C212.298 26.5549 212.378 26.5398 212.434 26.5284L212.741 27.9318C212.643 27.9697 212.503 28.0076 212.321 28.0455C212.139 28.0871 211.912 28.1098 211.639 28.1136C211.192 28.1212 210.775 28.0417 210.389 27.875C210.003 27.7083 209.69 27.4508 209.451 27.1023C209.213 26.7538 209.094 26.3163 209.094 25.7898V17.1818ZM216.761 28.1932C216.208 28.1932 215.708 28.0909 215.261 27.8864C214.814 27.678 214.46 27.3769 214.199 26.983C213.941 26.589 213.812 26.1061 213.812 25.5341C213.812 25.0417 213.907 24.6364 214.096 24.3182C214.286 24 214.541 23.7481 214.863 23.5625C215.185 23.3769 215.545 23.2367 215.943 23.142C216.341 23.0473 216.746 22.9754 217.159 22.9261C217.682 22.8655 218.106 22.8163 218.432 22.7784C218.757 22.7367 218.994 22.6705 219.142 22.5795C219.29 22.4886 219.363 22.3409 219.363 22.1364V22.0966C219.363 21.6004 219.223 21.2159 218.943 20.9432C218.666 20.6705 218.254 20.5341 217.704 20.5341C217.132 20.5341 216.682 20.661 216.352 20.9148C216.026 21.1648 215.801 21.4432 215.676 21.75L214.079 21.3864C214.269 20.8561 214.545 20.428 214.909 20.1023C215.276 19.7727 215.699 19.5341 216.176 19.3864C216.653 19.2348 217.155 19.1591 217.682 19.1591C218.03 19.1591 218.399 19.2008 218.79 19.2841C219.184 19.3636 219.551 19.5114 219.892 19.7273C220.237 19.9432 220.519 20.2519 220.738 20.6534C220.958 21.0511 221.068 21.5682 221.068 22.2045V28H219.409V26.8068H219.341C219.231 27.0265 219.066 27.2424 218.846 27.4545C218.627 27.6667 218.345 27.8428 218 27.983C217.655 28.1231 217.242 28.1932 216.761 28.1932ZM217.131 26.8295C217.6 26.8295 218.002 26.7367 218.335 26.5511C218.672 26.3655 218.928 26.1231 219.102 25.8239C219.28 25.5208 219.369 25.197 219.369 24.8523V23.7273C219.309 23.7879 219.191 23.8447 219.017 23.8977C218.846 23.947 218.651 23.9905 218.432 24.0284C218.212 24.0625 217.998 24.0947 217.79 24.125C217.581 24.1515 217.407 24.1742 217.267 24.1932C216.937 24.2348 216.636 24.3049 216.363 24.4034C216.095 24.5019 215.879 24.6439 215.716 24.8295C215.557 25.0114 215.477 25.2538 215.477 25.5568C215.477 25.9773 215.632 26.2955 215.943 26.5114C216.254 26.7235 216.649 26.8295 217.131 26.8295ZM224.79 22.8182V28H223.091V19.2727H224.721V20.6932H224.829C225.03 20.2311 225.345 19.8598 225.773 19.5795C226.204 19.2992 226.748 19.1591 227.403 19.1591C227.998 19.1591 228.519 19.2841 228.966 19.5341C229.413 19.7803 229.759 20.1477 230.006 20.6364C230.252 21.125 230.375 21.7292 230.375 22.4489V28H228.676V22.6534C228.676 22.0208 228.511 21.5265 228.182 21.1705C227.852 20.8106 227.4 20.6307 226.824 20.6307C226.43 20.6307 226.079 20.7159 225.773 20.8864C225.47 21.0568 225.229 21.3068 225.051 21.6364C224.877 21.9621 224.79 22.3561 224.79 22.8182ZM236.089 28.1761C235.245 28.1761 234.517 27.9848 233.908 27.6023C233.302 27.2159 232.836 26.6837 232.51 26.0057C232.184 25.3277 232.021 24.5511 232.021 23.6761C232.021 22.7898 232.188 22.0076 232.521 21.3295C232.855 20.6477 233.324 20.1155 233.93 19.733C234.536 19.3504 235.25 19.1591 236.072 19.1591C236.735 19.1591 237.326 19.2822 237.845 19.5284C238.364 19.7708 238.783 20.1117 239.101 20.5511C239.423 20.9905 239.614 21.5038 239.675 22.0909H238.021C237.93 21.6818 237.722 21.3295 237.396 21.0341C237.074 20.7386 236.642 20.5909 236.101 20.5909C235.627 20.5909 235.213 20.7159 234.856 20.9659C234.504 21.2121 234.23 21.5644 234.033 22.0227C233.836 22.4773 233.737 23.0152 233.737 23.6364C233.737 24.2727 233.834 24.822 234.027 25.2841C234.22 25.7462 234.493 26.1042 234.845 26.358C235.201 26.6117 235.62 26.7386 236.101 26.7386C236.423 26.7386 236.714 26.6799 236.976 26.5625C237.241 26.4413 237.463 26.2689 237.641 26.0455C237.822 25.822 237.949 25.553 238.021 25.2386H239.675C239.614 25.803 239.43 26.3068 239.124 26.75C238.817 27.1932 238.406 27.5417 237.891 27.7955C237.379 28.0492 236.779 28.1761 236.089 28.1761ZM245.013 28.1761C244.153 28.1761 243.412 27.9924 242.791 27.625C242.174 27.2538 241.696 26.733 241.359 26.0625C241.026 25.3883 240.859 24.5985 240.859 23.6932C240.859 22.7992 241.026 22.0114 241.359 21.3295C241.696 20.6477 242.166 20.1155 242.768 19.733C243.375 19.3504 244.083 19.1591 244.893 19.1591C245.386 19.1591 245.863 19.2405 246.325 19.4034C246.787 19.5663 247.202 19.822 247.57 20.1705C247.937 20.5189 248.227 20.9716 248.439 21.5284C248.651 22.0814 248.757 22.7538 248.757 23.5455V24.1477H241.82V22.875H247.092C247.092 22.428 247.001 22.0322 246.82 21.6875C246.638 21.339 246.382 21.0644 246.053 20.8636C245.727 20.6629 245.344 20.5625 244.905 20.5625C244.428 20.5625 244.011 20.6799 243.655 20.9148C243.303 21.1458 243.03 21.4489 242.837 21.8239C242.647 22.1951 242.553 22.5985 242.553 23.0341V24.0284C242.553 24.6117 242.655 25.108 242.859 25.517C243.068 25.9261 243.357 26.2386 243.729 26.4545C244.1 26.6667 244.534 26.7727 245.03 26.7727C245.352 26.7727 245.645 26.7273 245.911 26.6364C246.176 26.5417 246.405 26.4015 246.598 26.2159C246.791 26.0303 246.939 25.8011 247.041 25.5284L248.649 25.8182C248.52 26.2917 248.289 26.7064 247.956 27.0625C247.626 27.4148 247.212 27.6894 246.712 27.8864C246.215 28.0795 245.649 28.1761 245.013 28.1761Z" fill="white"/>
</svg>
