<svg width="282" height="282" viewBox="0 0 282 282" fill="none" xmlns="http://www.w3.org/2000/svg">
<rect width="282" height="282" rx="10" fill="#242424"/>
<path d="M158.125 124.344C158.933 124.344 159.594 125.005 159.594 125.812V155.169L159.135 154.572L146.65 138.416C146.237 137.875 145.586 137.562 144.906 137.562C144.227 137.562 143.584 137.875 143.162 138.416L135.543 148.275L132.743 144.355C132.33 143.777 131.669 143.438 130.953 143.438C130.237 143.438 129.576 143.777 129.163 144.365L121.819 154.646L121.406 155.215V125.812C121.406 125.005 122.067 124.344 122.875 124.344H158.125ZM122.875 119.938C119.635 119.938 117 122.572 117 125.812V155.188C117 158.428 119.635 161.062 122.875 161.062H158.125C161.365 161.062 164 158.428 164 155.188V125.812C164 122.572 161.365 119.938 158.125 119.938H122.875ZM130.219 137.562C130.797 137.563 131.37 137.449 131.905 137.227C132.44 137.006 132.925 136.681 133.334 136.272C133.744 135.863 134.068 135.377 134.29 134.842C134.511 134.308 134.625 133.735 134.625 133.156C134.625 132.578 134.511 132.005 134.29 131.47C134.068 130.935 133.744 130.45 133.334 130.041C132.925 129.631 132.44 129.307 131.905 129.085C131.37 128.864 130.797 128.75 130.219 128.75C129.64 128.75 129.067 128.864 128.533 129.085C127.998 129.307 127.512 129.631 127.103 130.041C126.694 130.45 126.369 130.935 126.148 131.47C125.926 132.005 125.812 132.578 125.812 133.156C125.812 133.735 125.926 134.308 126.148 134.842C126.369 135.377 126.694 135.863 127.103 136.272C127.512 136.681 127.998 137.006 128.533 137.227C129.067 137.449 129.64 137.563 130.219 137.562Z" fill="#676767"/>
</svg>
