<svg width="380" height="150" viewBox="0 0 380 150" fill="none" xmlns="http://www.w3.org/2000/svg">
<rect width="380" height="150" rx="10" fill="#242424"/>
<path d="M204.167 60.8335H184.333V68.1293C182.453 68.5137 180.712 69.4002 179.295 70.6948C177.878 71.9893 176.838 73.6435 176.285 75.4816C175.733 77.3198 175.689 79.2732 176.158 81.1343C176.627 82.9955 177.591 84.695 178.948 86.0521C180.305 87.4093 182.005 88.3735 183.866 88.8423C185.727 89.3111 187.68 89.267 189.518 88.7147C191.357 88.1624 193.011 87.1225 194.305 85.7055C195.6 84.2885 196.486 82.5473 196.871 80.6668H204.167V60.8335ZM197.061 77.8335C196.889 75.2658 195.792 72.8476 193.972 71.0279C192.152 69.2082 189.734 68.1108 187.167 67.9395V63.6668H201.333V77.8335H197.061ZM186.458 70.7502C188.525 70.7502 190.507 71.5711 191.968 73.0323C193.429 74.4935 194.25 76.4754 194.25 78.5418C194.25 80.6083 193.429 82.5901 191.968 84.0514C190.507 85.5126 188.525 86.3335 186.458 86.3335C184.392 86.3335 182.41 85.5126 180.949 84.0514C179.487 82.5901 178.667 80.6083 178.667 78.5418C178.667 76.4754 179.487 74.4935 180.949 73.0323C182.41 71.5711 184.392 70.7502 186.458 70.7502Z" fill="#676767"/>
</svg>
