<svg width="187" height="46" viewBox="0 0 187 46" fill="none" xmlns="http://www.w3.org/2000/svg">
<rect x="0.5" y="0.5" width="186" height="45" rx="22.5" stroke="white" stroke-opacity="0.2"/>
<path d="M6 23C6 13.6112 13.6112 6 23 6H164C173.389 6 181 13.6112 181 23C181 32.3888 173.389 40 164 40H23C13.6112 40 6 32.3888 6 23Z" fill="url(#paint0_radial_5468_4404)"/>
<path d="M26.9071 20.6172C26.8607 20.183 26.6652 19.8449 26.3205 19.603C25.9791 19.361 25.535 19.2401 24.9881 19.2401C24.6036 19.2401 24.2738 19.2981 23.9987 19.4141C23.7236 19.5301 23.5132 19.6875 23.3673 19.8864C23.2215 20.0852 23.1469 20.3123 23.1436 20.5675C23.1436 20.7796 23.1917 20.9635 23.2878 21.1193C23.3872 21.2751 23.5215 21.4077 23.6905 21.517C23.8595 21.6231 24.0468 21.7126 24.2523 21.7855C24.4578 21.8584 24.6649 21.9197 24.8737 21.9695L25.8283 22.2081C26.2127 22.2976 26.5823 22.4186 26.9369 22.571C27.2949 22.7235 27.6147 22.9157 27.8965 23.1477C28.1815 23.3797 28.4069 23.6598 28.5726 23.9879C28.7383 24.3161 28.8212 24.7005 28.8212 25.1413C28.8212 25.7379 28.6687 26.2633 28.3638 26.7173C28.0589 27.1681 27.618 27.5211 27.0413 27.7763C26.468 28.0282 25.7736 28.1541 24.9582 28.1541C24.1661 28.1541 23.4784 28.0315 22.895 27.7862C22.315 27.541 21.8609 27.183 21.5328 26.7124C21.208 26.2417 21.0323 25.6683 21.0058 24.9922H22.8205C22.847 25.3468 22.9564 25.6418 23.1486 25.8771C23.3408 26.1125 23.5911 26.2881 23.8993 26.4041C24.2109 26.5201 24.5589 26.5781 24.9433 26.5781C25.3444 26.5781 25.6957 26.5185 25.9973 26.3991C26.3022 26.2765 26.5409 26.1075 26.7132 25.892C26.8856 25.6733 26.9734 25.4181 26.9767 25.1264C26.9734 24.8613 26.8955 24.6425 26.743 24.4702C26.5906 24.2945 26.3768 24.1487 26.1017 24.0327C25.8299 23.9134 25.5118 23.8073 25.1472 23.7145L23.9888 23.4162C23.1502 23.2008 22.4874 22.8743 22.0002 22.4368C21.5162 21.996 21.2743 21.411 21.2743 20.6818C21.2743 20.0819 21.4367 19.5566 21.7615 19.1058C22.0896 18.6551 22.5354 18.3054 23.0989 18.0568C23.6623 17.8049 24.3003 17.679 25.0129 17.679C25.7355 17.679 26.3685 17.8049 26.9121 18.0568C27.459 18.3054 27.8882 18.6518 28.1997 19.0959C28.5113 19.5367 28.672 20.0438 28.682 20.6172H26.9071ZM33.7653 28.1491C32.9996 28.1491 32.3384 27.9901 31.7816 27.6719C31.2281 27.3504 30.8022 26.8963 30.5039 26.3097C30.2056 25.7197 30.0565 25.0253 30.0565 24.2266C30.0565 23.4411 30.2056 22.7517 30.5039 22.1584C30.8055 21.5618 31.2264 21.0978 31.7667 20.7663C32.3069 20.4316 32.9416 20.2642 33.6708 20.2642C34.1414 20.2642 34.5856 20.3404 35.0032 20.4929C35.4241 20.642 35.7953 20.8741 36.1168 21.1889C36.4416 21.5038 36.6968 21.9048 36.8825 22.392C37.0681 22.8759 37.1609 23.4527 37.1609 24.1222V24.674H30.9016V23.4609H35.4357C35.4324 23.1162 35.3578 22.8097 35.212 22.5412C35.0662 22.2694 34.8623 22.0556 34.6005 21.8999C34.342 21.7441 34.0404 21.6662 33.6957 21.6662C33.3278 21.6662 33.0046 21.7557 32.7262 21.9347C32.4478 22.1103 32.2307 22.3423 32.0749 22.6307C31.9225 22.9157 31.8446 23.2289 31.8413 23.5703V24.6293C31.8413 25.0734 31.9225 25.4545 32.0849 25.7727C32.2473 26.0876 32.4743 26.3295 32.766 26.4986C33.0576 26.6643 33.399 26.7472 33.7901 26.7472C34.052 26.7472 34.2889 26.7107 34.5011 26.6378C34.7132 26.5616 34.8971 26.4505 35.0529 26.3047C35.2087 26.1589 35.3263 25.9782 35.4059 25.7628L37.0863 25.9517C36.9802 26.3958 36.778 26.7836 36.4798 27.1151C36.1848 27.4432 35.8069 27.6984 35.3462 27.8807C34.8855 28.0597 34.3585 28.1491 33.7653 28.1491ZM42.0627 28.1491C41.2971 28.1491 40.6358 27.9901 40.079 27.6719C39.5255 27.3504 39.0996 26.8963 38.8013 26.3097C38.503 25.7197 38.3539 25.0253 38.3539 24.2266C38.3539 23.4411 38.503 22.7517 38.8013 22.1584C39.1029 21.5618 39.5239 21.0978 40.0641 20.7663C40.6044 20.4316 41.2391 20.2642 41.9682 20.2642C42.4389 20.2642 42.883 20.3404 43.3006 20.4929C43.7215 20.642 44.0928 20.8741 44.4143 21.1889C44.7391 21.5038 44.9943 21.9048 45.1799 22.392C45.3655 22.8759 45.4583 23.4527 45.4583 24.1222V24.674H39.1991V23.4609H43.7331C43.7298 23.1162 43.6553 22.8097 43.5094 22.5412C43.3636 22.2694 43.1598 22.0556 42.8979 21.8999C42.6394 21.7441 42.3378 21.6662 41.9931 21.6662C41.6252 21.6662 41.302 21.7557 41.0236 21.9347C40.7452 22.1103 40.5281 22.3423 40.3724 22.6307C40.2199 22.9157 40.142 23.2289 40.1387 23.5703V24.6293C40.1387 25.0734 40.2199 25.4545 40.3823 25.7727C40.5447 26.0876 40.7717 26.3295 41.0634 26.4986C41.3551 26.6643 41.6965 26.7472 42.0875 26.7472C42.3494 26.7472 42.5864 26.7107 42.7985 26.6378C43.0106 26.5616 43.1946 26.4505 43.3503 26.3047C43.5061 26.1589 43.6238 25.9782 43.7033 25.7628L45.3837 25.9517C45.2777 26.3958 45.0755 26.7836 44.7772 27.1151C44.4822 27.4432 44.1044 27.6984 43.6437 27.8807C43.183 28.0597 42.656 28.1491 42.0627 28.1491ZM51.8378 28H49.869L53.4535 17.8182H55.7305L59.32 28H57.3513L54.6318 19.9062H54.5523L51.8378 28ZM51.9024 24.0078H57.2717V25.4893H51.9024V24.0078ZM60.6348 28V20.3636H62.4346V28H60.6348ZM61.5397 19.2798C61.2546 19.2798 61.0094 19.1854 60.8039 18.9964C60.5984 18.8042 60.4956 18.5739 60.4956 18.3054C60.4956 18.0336 60.5984 17.8033 60.8039 17.6143C61.0094 17.4221 61.2546 17.326 61.5397 17.326C61.828 17.326 62.0733 17.4221 62.2755 17.6143C62.481 17.8033 62.5837 18.0336 62.5837 18.3054C62.5837 18.5739 62.481 18.8042 62.2755 18.9964C62.0733 19.1854 61.828 19.2798 61.5397 19.2798ZM67.1176 28.1342C66.5177 28.1342 65.9808 27.9801 65.5068 27.6719C65.0329 27.3636 64.6584 26.9162 64.3833 26.3295C64.1082 25.7429 63.9706 25.0303 63.9706 24.1918C63.9706 23.3433 64.1098 22.6274 64.3882 22.044C64.67 21.4574 65.0495 21.0149 65.5267 20.7166C66.004 20.415 66.536 20.2642 67.1226 20.2642C67.5701 20.2642 67.938 20.3404 68.2263 20.4929C68.5147 20.642 68.7433 20.8227 68.9124 21.0348C69.0814 21.2436 69.2123 21.4408 69.3051 21.6264H69.3797V17.8182H71.1844V28H69.4145V26.7969H69.3051C69.2123 26.9825 69.0781 27.1797 68.9024 27.3885C68.7268 27.594 68.4948 27.7696 68.2064 27.9155C67.9181 28.0613 67.5551 28.1342 67.1176 28.1342ZM67.6198 26.6577C68.0009 26.6577 68.3257 26.5549 68.5942 26.3494C68.8627 26.1406 69.0665 25.8506 69.2057 25.4794C69.3449 25.1082 69.4145 24.6757 69.4145 24.1818C69.4145 23.688 69.3449 23.2588 69.2057 22.8942C69.0698 22.5296 68.8676 22.2462 68.5992 22.044C68.334 21.8419 68.0076 21.7408 67.6198 21.7408C67.2187 21.7408 66.884 21.8452 66.6155 22.054C66.347 22.2628 66.1449 22.5511 66.009 22.919C65.8731 23.2869 65.8051 23.7079 65.8051 24.1818C65.8051 24.6591 65.8731 25.085 66.009 25.4595C66.1482 25.8307 66.352 26.1241 66.6205 26.3395C66.8923 26.5516 67.2254 26.6577 67.6198 26.6577ZM74.6768 28L72.5191 20.3636H74.3536L75.696 25.733H75.7656L77.1377 20.3636H78.9524L80.3245 25.7031H80.3991L81.7215 20.3636H83.561L81.3984 28H79.5241L78.0923 22.8395H77.9879L76.556 28H74.6768ZM84.8162 28V20.3636H86.6159V28H84.8162ZM85.721 19.2798C85.436 19.2798 85.1907 19.1854 84.9852 18.9964C84.7797 18.8042 84.677 18.5739 84.677 18.3054C84.677 18.0336 84.7797 17.8033 84.9852 17.6143C85.1907 17.4221 85.436 17.326 85.721 17.326C86.0094 17.326 86.2546 17.4221 86.4568 17.6143C86.6623 17.8033 86.7651 18.0336 86.7651 18.3054C86.7651 18.5739 86.6623 18.8042 86.4568 18.9964C86.2546 19.1854 86.0094 19.2798 85.721 19.2798ZM94.5007 22.3821L92.8601 22.5611C92.8137 22.3954 92.7325 22.2396 92.6165 22.0938C92.5038 21.9479 92.3513 21.8303 92.1591 21.7408C91.9668 21.6513 91.7315 21.6065 91.4531 21.6065C91.0786 21.6065 90.7637 21.6877 90.5085 21.8501C90.2566 22.0125 90.1323 22.223 90.1356 22.4815C90.1323 22.7036 90.2135 22.8842 90.3792 23.0234C90.5483 23.1626 90.8267 23.277 91.2145 23.3665L92.517 23.6449C93.2396 23.8007 93.7765 24.0476 94.1278 24.3857C94.4825 24.7237 94.6614 25.1662 94.6647 25.7131C94.6614 26.1937 94.5206 26.6179 94.2422 26.9858C93.9671 27.3504 93.5843 27.6354 93.0937 27.8409C92.6032 28.0464 92.0397 28.1491 91.4034 28.1491C90.4687 28.1491 89.7164 27.9536 89.1463 27.5625C88.5762 27.1681 88.2365 26.6196 88.1271 25.9169L89.8821 25.7479C89.9616 26.0926 90.1307 26.3527 90.3892 26.5284C90.6477 26.7041 90.9841 26.7919 91.3984 26.7919C91.826 26.7919 92.169 26.7041 92.4275 26.5284C92.6894 26.3527 92.8203 26.1357 92.8203 25.8771C92.8203 25.6584 92.7358 25.4777 92.5667 25.3352C92.401 25.1927 92.1425 25.0833 91.7912 25.0071L90.4886 24.7337C89.7561 24.5812 89.2142 24.3243 88.8629 23.9631C88.5116 23.5985 88.3376 23.1378 88.3409 22.581C88.3376 22.1103 88.4652 21.7027 88.7237 21.358C88.9855 21.0099 89.3485 20.7415 89.8125 20.5526C90.2798 20.3603 90.8184 20.2642 91.4282 20.2642C92.3231 20.2642 93.0274 20.4548 93.5412 20.8359C94.0582 21.2171 94.3781 21.7325 94.5007 22.3821ZM99.5281 28.1491C98.7624 28.1491 98.1012 27.9901 97.5444 27.6719C96.9909 27.3504 96.565 26.8963 96.2667 26.3097C95.9684 25.7197 95.8192 25.0253 95.8192 24.2266C95.8192 23.4411 95.9684 22.7517 96.2667 22.1584C96.5683 21.5618 96.9892 21.0978 97.5295 20.7663C98.0697 20.4316 98.7044 20.2642 99.4336 20.2642C99.9042 20.2642 100.348 20.3404 100.766 20.4929C101.187 20.642 101.558 20.8741 101.88 21.1889C102.204 21.5038 102.46 21.9048 102.645 22.392C102.831 22.8759 102.924 23.4527 102.924 24.1222V24.674H96.6644V23.4609H101.199C101.195 23.1162 101.121 22.8097 100.975 22.5412C100.829 22.2694 100.625 22.0556 100.363 21.8999C100.105 21.7441 99.8031 21.6662 99.4585 21.6662C99.0906 21.6662 98.7674 21.7557 98.489 21.9347C98.2106 22.1103 97.9935 22.3423 97.8377 22.6307C97.6853 22.9157 97.6074 23.2289 97.604 23.5703V24.6293C97.604 25.0734 97.6853 25.4545 97.8477 25.7727C98.0101 26.0876 98.2371 26.3295 98.5288 26.4986C98.8204 26.6643 99.1618 26.7472 99.5529 26.7472C99.8147 26.7472 100.052 26.7107 100.264 26.6378C100.476 26.5616 100.66 26.4505 100.816 26.3047C100.971 26.1589 101.089 25.9782 101.169 25.7628L102.849 25.9517C102.743 26.3958 102.541 26.7836 102.243 27.1151C101.948 27.4432 101.57 27.6984 101.109 27.8807C100.648 28.0597 100.121 28.1491 99.5281 28.1491ZM107.916 28V20.3636H109.716V28H107.916ZM108.821 19.2798C108.536 19.2798 108.291 19.1854 108.085 18.9964C107.88 18.8042 107.777 18.5739 107.777 18.3054C107.777 18.0336 107.88 17.8033 108.085 17.6143C108.291 17.4221 108.536 17.326 108.821 17.326C109.109 17.326 109.355 17.4221 109.557 17.6143C109.762 17.8033 109.865 18.0336 109.865 18.3054C109.865 18.5739 109.762 18.8042 109.557 18.9964C109.355 19.1854 109.109 19.2798 108.821 19.2798ZM113.365 23.5256V28H111.565V20.3636H113.285V21.6612H113.375C113.55 21.2337 113.83 20.8939 114.215 20.642C114.603 20.3902 115.082 20.2642 115.652 20.2642C116.179 20.2642 116.638 20.3769 117.029 20.6023C117.423 20.8277 117.728 21.1541 117.944 21.5817C118.162 22.0092 118.27 22.5279 118.267 23.1378V28H116.467V23.4162C116.467 22.9058 116.334 22.5064 116.069 22.218C115.807 21.9297 115.445 21.7855 114.981 21.7855C114.666 21.7855 114.386 21.8551 114.14 21.9943C113.898 22.1302 113.708 22.3274 113.569 22.5859C113.433 22.8445 113.365 23.1577 113.365 23.5256ZM124.953 28H122.984L126.569 17.8182H128.846L132.435 28H130.467L127.747 19.9062H127.668L124.953 28ZM125.018 24.0078H130.387V25.4893H125.018V24.0078ZM136.794 28.1491C136.032 28.1491 135.377 27.9818 134.83 27.647C134.287 27.3123 133.868 26.8499 133.573 26.2599C133.281 25.6667 133.135 24.9839 133.135 24.2116C133.135 23.4361 133.284 22.7517 133.583 22.1584C133.881 21.5618 134.302 21.0978 134.845 20.7663C135.392 20.4316 136.038 20.2642 136.784 20.2642C137.404 20.2642 137.953 20.3786 138.43 20.6072C138.91 20.8326 139.293 21.1525 139.578 21.5668C139.863 21.9777 140.026 22.4583 140.065 23.0085H138.345C138.276 22.6406 138.11 22.334 137.848 22.0888C137.59 21.8402 137.243 21.7159 136.809 21.7159C136.441 21.7159 136.118 21.8153 135.84 22.0142C135.561 22.2098 135.344 22.4915 135.188 22.8594C135.036 23.2273 134.96 23.6681 134.96 24.1818C134.96 24.7022 135.036 25.1496 135.188 25.5241C135.341 25.8954 135.555 26.1821 135.83 26.3842C136.108 26.5831 136.435 26.6825 136.809 26.6825C137.074 26.6825 137.311 26.6328 137.52 26.5334C137.732 26.4306 137.909 26.2831 138.052 26.0909C138.194 25.8987 138.292 25.665 138.345 25.3899H140.065C140.022 25.9302 139.863 26.4091 139.588 26.8267C139.313 27.241 138.939 27.5658 138.465 27.8011C137.991 28.0331 137.434 28.1491 136.794 28.1491ZM145.355 20.3636V21.7557H140.965V20.3636H145.355ZM142.049 18.5341H143.849V25.7031C143.849 25.9451 143.885 26.1307 143.958 26.2599C144.034 26.3859 144.134 26.4721 144.256 26.5185C144.379 26.5649 144.515 26.5881 144.664 26.5881C144.777 26.5881 144.879 26.5798 144.972 26.5632C145.068 26.5466 145.141 26.5317 145.191 26.5185L145.494 27.9254C145.398 27.9586 145.261 27.995 145.082 28.0348C144.906 28.0746 144.691 28.0978 144.435 28.1044C143.985 28.1177 143.579 28.0497 143.217 27.9006C142.856 27.7481 142.569 27.5128 142.357 27.1946C142.148 26.8764 142.046 26.4787 142.049 26.0014V18.5341ZM146.859 28V20.3636H148.659V28H146.859ZM147.764 19.2798C147.479 19.2798 147.233 19.1854 147.028 18.9964C146.822 18.8042 146.72 18.5739 146.72 18.3054C146.72 18.0336 146.822 17.8033 147.028 17.6143C147.233 17.4221 147.479 17.326 147.764 17.326C148.052 17.326 148.297 17.4221 148.499 17.6143C148.705 17.8033 148.808 18.0336 148.808 18.3054C148.808 18.5739 148.705 18.8042 148.499 18.9964C148.297 19.1854 148.052 19.2798 147.764 19.2798ZM153.839 28.1491C153.093 28.1491 152.447 27.9851 151.9 27.657C151.353 27.3288 150.929 26.8698 150.627 26.2798C150.329 25.6899 150.18 25.0005 150.18 24.2116C150.18 23.4228 150.329 22.7318 150.627 22.1385C150.929 21.5452 151.353 21.0845 151.9 20.7564C152.447 20.4283 153.093 20.2642 153.839 20.2642C154.585 20.2642 155.231 20.4283 155.778 20.7564C156.325 21.0845 156.747 21.5452 157.045 22.1385C157.347 22.7318 157.498 23.4228 157.498 24.2116C157.498 25.0005 157.347 25.6899 157.045 26.2798C156.747 26.8698 156.325 27.3288 155.778 27.657C155.231 27.9851 154.585 28.1491 153.839 28.1491ZM153.849 26.7074C154.253 26.7074 154.591 26.5964 154.863 26.3743C155.135 26.1489 155.337 25.8473 155.469 25.4695C155.605 25.0916 155.673 24.6707 155.673 24.2067C155.673 23.7393 155.605 23.3168 155.469 22.9389C155.337 22.5578 155.135 22.2545 154.863 22.0291C154.591 21.8037 154.253 21.6911 153.849 21.6911C153.434 21.6911 153.09 21.8037 152.815 22.0291C152.543 22.2545 152.339 22.5578 152.203 22.9389C152.071 23.3168 152.004 23.7393 152.004 24.2067C152.004 24.6707 152.071 25.0916 152.203 25.4695C152.339 25.8473 152.543 26.1489 152.815 26.3743C153.09 26.5964 153.434 26.7074 153.849 26.7074ZM160.824 23.5256V28H159.024V20.3636H160.744V21.6612H160.834C161.009 21.2337 161.289 20.8939 161.674 20.642C162.062 20.3902 162.541 20.2642 163.111 20.2642C163.638 20.2642 164.097 20.3769 164.488 20.6023C164.882 20.8277 165.187 21.1541 165.403 21.5817C165.621 22.0092 165.729 22.5279 165.726 23.1378V28H163.926V23.4162C163.926 22.9058 163.793 22.5064 163.528 22.218C163.266 21.9297 162.903 21.7855 162.439 21.7855C162.125 21.7855 161.845 21.8551 161.599 21.9943C161.357 22.1302 161.167 22.3274 161.028 22.5859C160.892 22.8445 160.824 23.1577 160.824 23.5256Z" fill="white"/>
<defs>
<radialGradient id="paint0_radial_5468_4404" cx="0" cy="0" r="1" gradientUnits="userSpaceOnUse" gradientTransform="translate(93.5 23) rotate(90) scale(17 87.5)">
<stop stop-color="#AA7CF3"/>
<stop offset="1" stop-color="#813FEA"/>
</radialGradient>
</defs>
</svg>
