<svg width="1535" height="666" viewBox="0 0 1535 666" fill="none" xmlns="http://www.w3.org/2000/svg">
<g clip-path="url(#clip0_30_2)">
<rect width="1535" height="666" fill="black"/>
<path d="M22.23 283.518C22.5046 283.489 22.7036 283.242 22.6742 282.967C22.6456 282.692 22.3988 282.493 22.125 282.523C21.85 282.552 21.6506 282.798 21.68 283.074C21.7087 283.348 21.955 283.548 22.23 283.518Z" fill="white" fill-opacity="0.7"/>
<path d="M73.6314 250.838C73.9059 250.809 74.105 250.562 74.0756 250.287C74.0469 250.012 73.8002 249.813 73.5256 249.842C73.2514 249.872 73.052 250.118 73.0814 250.393C73.1101 250.668 73.3568 250.867 73.6314 250.838Z" fill="white" fill-opacity="0.7"/>
<path d="M96.8808 285.118C97.1554 285.089 97.3552 284.842 97.3258 284.567C97.2972 284.292 97.0504 284.093 96.7758 284.122C96.5009 284.152 96.3022 284.398 96.3316 284.673C96.3603 284.948 96.6066 285.148 96.8808 285.118Z" fill="white" fill-opacity="0.7"/>
<path opacity="0.11" d="M9.66085 297.951C9.93505 297.921 10.1345 297.675 10.1051 297.4C10.0764 297.125 9.82971 296.926 9.55514 296.955C9.28018 296.985 9.08152 297.231 9.11091 297.506C9.13955 297.781 9.38628 297.98 9.66085 297.951Z" fill="white" fill-opacity="0.7"/>
<path opacity="0.3" d="M92.0949 249.372C92.3695 249.343 92.5693 249.096 92.5399 248.821C92.5112 248.546 92.2645 248.347 91.9899 248.376C91.7149 248.406 91.5163 248.652 91.5449 248.927C91.5743 249.202 91.8211 249.401 92.0949 249.372Z" fill="white" fill-opacity="0.7"/>
<path opacity="0.11" d="M9.82006 237.505C10.0939 237.476 10.2937 237.229 10.2639 236.955C10.2353 236.68 9.98891 236.48 9.71395 236.51C9.44014 236.539 9.24033 236.786 9.26973 237.061C9.29837 237.336 9.5451 237.535 9.82006 237.505Z" fill="white" fill-opacity="0.7"/>
<path opacity="0.11" d="M80.9207 272.217C81.1956 272.187 81.3955 271.94 81.3657 271.666C81.337 271.391 81.0907 271.191 80.8157 271.221C80.5411 271.25 80.3421 271.497 80.3715 271.772C80.4001 272.047 80.6469 272.246 80.9207 272.217Z" fill="white" fill-opacity="0.7"/>
<path d="M118.641 302.939C119.053 302.896 119.352 302.525 119.308 302.113C119.264 301.7 118.895 301.402 118.483 301.445C118.07 301.489 117.771 301.86 117.815 302.272C117.859 302.685 118.229 302.983 118.641 302.939Z" fill="white" fill-opacity="0.7"/>
<path d="M3.32132 321.291C3.73356 321.247 4.03253 320.877 3.98881 320.464C3.94509 320.052 3.57591 319.753 3.1629 319.797C2.75066 319.841 2.45211 320.211 2.49582 320.623C2.53916 321.037 2.90831 321.335 3.32132 321.291Z" fill="white" fill-opacity="0.7"/>
<path d="M131.619 273.354C132.031 273.31 132.33 272.94 132.287 272.527C132.243 272.114 131.874 271.816 131.461 271.86C131.049 271.904 130.75 272.274 130.793 272.687C130.837 273.099 131.206 273.398 131.619 273.354Z" fill="white" fill-opacity="0.7"/>
<path d="M140.671 244.692C141.084 244.649 141.383 244.278 141.339 243.866C141.296 243.453 140.926 243.155 140.514 243.198C140.102 243.242 139.803 243.613 139.846 244.025C139.89 244.438 140.259 244.736 140.671 244.692Z" fill="white" fill-opacity="0.7"/>
<path opacity="0.3" d="M22.2981 250.781C22.8476 250.723 23.2465 250.229 23.1888 249.678C23.13 249.128 22.6377 248.73 22.0874 248.788C21.5375 248.847 21.139 249.34 21.1966 249.891C21.2554 250.441 21.7478 250.84 22.2981 250.781Z" fill="white" fill-opacity="0.7"/>
<path d="M18.5611 215.425C19.1107 215.366 19.5095 214.873 19.4507 214.322C19.3927 213.773 18.9004 213.374 18.3501 213.432C17.8005 213.491 17.4017 213.985 17.4597 214.535C17.5174 215.085 18.0108 215.483 18.5611 215.425Z" fill="white" fill-opacity="0.7"/>
<path d="M49.083 259C49.4953 258.956 49.7943 258.586 49.7505 258.173C49.7068 257.761 49.3376 257.462 48.9246 257.506C48.5128 257.549 48.2138 257.92 48.2575 258.332C48.3012 258.745 48.6708 259.045 49.083 259Z" fill="white" fill-opacity="0.7"/>
<path opacity="0.3" d="M71.1694 237.004C71.7189 236.945 72.1178 236.451 72.0597 235.901C72.0013 235.35 71.509 234.952 70.9583 235.011C70.4088 235.07 70.0099 235.564 70.0679 236.113C70.1259 236.663 70.6191 237.062 71.1694 237.004Z" fill="white" fill-opacity="0.7"/>
<path opacity="0.3" d="M124.169 267.101C124.718 267.042 125.117 266.548 125.058 265.998C125 265.448 124.508 265.05 123.957 265.108C123.408 265.167 123.009 265.661 123.067 266.211C123.125 266.761 123.618 267.159 124.169 267.101Z" fill="white" fill-opacity="0.7"/>
<path opacity="0.3" d="M66.0492 274.309C66.5987 274.251 66.9976 273.757 66.9395 273.207C66.8811 272.656 66.3888 272.258 65.8381 272.317C65.2886 272.375 64.8897 272.869 64.9477 273.419C65.0058 273.969 65.4989 274.368 66.0492 274.309Z" fill="white" fill-opacity="0.7"/>
<path opacity="0.11" d="M102.188 254.34C102.738 254.282 103.137 253.788 103.078 253.238C103.02 252.688 102.527 252.289 101.977 252.347C101.428 252.406 101.029 252.9 101.087 253.45C101.145 254.001 101.637 254.399 102.188 254.34Z" fill="white" fill-opacity="0.7"/>
<path opacity="0.11" d="M69.2279 105.084C69.7774 105.025 70.1763 104.531 70.1182 103.981C70.0598 103.43 69.5675 103.032 69.0168 103.091C68.4673 103.15 68.0684 103.644 68.1265 104.194C68.1852 104.744 68.6776 105.142 69.2279 105.084Z" fill="white" fill-opacity="0.7"/>
<path d="M73.0372 110.216C73.4494 110.172 73.7483 109.802 73.7046 109.389C73.6609 108.977 73.2917 108.678 72.8787 108.722C72.4669 108.765 72.1679 109.136 72.2116 109.548C72.2554 109.961 72.6242 110.26 73.0372 110.216Z" fill="white" fill-opacity="0.7"/>
<path d="M88.3577 98.0078C88.7707 97.964 89.0693 97.5943 89.0259 97.1811C88.9822 96.7686 88.6123 96.4697 88.2 96.5139C87.7878 96.5581 87.4888 96.9286 87.5325 97.3411C87.5763 97.7535 87.9454 98.052 88.3577 98.0078Z" fill="white" fill-opacity="0.7"/>
<path d="M45.9512 101.525C46.3634 101.481 46.6624 101.11 46.6187 100.698C46.575 100.285 46.2058 99.9867 45.7928 100.031C45.3809 100.074 45.082 100.444 45.1257 100.857C45.1694 101.269 45.5386 101.568 45.9512 101.525Z" fill="white" fill-opacity="0.7"/>
<path opacity="0.11" d="M22.5778 116.104C23.1273 116.045 23.5262 115.551 23.4681 115.001C23.4093 114.451 22.917 114.053 22.3667 114.111C21.8172 114.17 21.4183 114.664 21.4763 115.214C21.5347 115.765 22.0275 116.162 22.5778 116.104Z" fill="white" fill-opacity="0.7"/>
<path d="M11.9683 106.159C12.2421 106.13 12.4419 105.883 12.4125 105.608C12.3839 105.333 12.1371 105.134 11.8626 105.163C11.5884 105.193 11.3889 105.439 11.4183 105.714C11.447 105.989 11.6933 106.189 11.9683 106.159Z" fill="white" fill-opacity="0.7"/>
<path d="M69.781 124.662C70.0548 124.633 70.2546 124.386 70.2249 124.112C70.1962 123.837 69.9498 123.638 69.6749 123.667C69.4011 123.697 69.2013 123.943 69.2307 124.218C69.2593 124.493 69.5061 124.692 69.781 124.662Z" fill="white" fill-opacity="0.7"/>
<path d="M178.269 113.086C178.544 113.058 178.744 112.811 178.714 112.536C178.686 112.261 178.439 112.062 178.165 112.091C177.89 112.121 177.691 112.367 177.72 112.642C177.749 112.917 177.995 113.117 178.269 113.086Z" fill="white" fill-opacity="0.7"/>
<path d="M229.671 80.4059C229.946 80.3762 230.145 80.1302 230.116 79.8551C230.087 79.5803 229.841 79.3814 229.566 79.4103C229.291 79.44 229.092 79.6864 229.121 79.9611C229.15 80.2362 229.396 80.4348 229.671 80.4059Z" fill="white" fill-opacity="0.7"/>
<path d="M252.92 114.687C253.195 114.658 253.394 114.411 253.365 114.136C253.336 113.861 253.089 113.662 252.815 113.692C252.54 113.721 252.341 113.967 252.37 114.243C252.399 114.517 252.645 114.717 252.92 114.687Z" fill="white" fill-opacity="0.7"/>
<path opacity="0.11" d="M8.17083 113.109C8.44464 113.08 8.64445 112.833 8.61505 112.558C8.58603 112.284 8.33967 112.084 8.06471 112.114C7.79014 112.143 7.59109 112.39 7.62049 112.665C7.64952 112.939 7.89587 113.139 8.17083 113.109Z" fill="white" fill-opacity="0.7"/>
<path opacity="0.11" d="M70.6843 142.698C70.9581 142.668 71.158 142.422 71.1282 142.147C71.0995 141.872 70.8532 141.673 70.5782 141.702C70.3044 141.732 70.1046 141.978 70.134 142.254C70.1626 142.528 70.4094 142.727 70.6843 142.698Z" fill="white" fill-opacity="0.7"/>
<path opacity="0.11" d="M165.702 127.518C165.977 127.489 166.175 127.242 166.146 126.967C166.117 126.692 165.87 126.493 165.597 126.523C165.322 126.552 165.122 126.798 165.152 127.074C165.18 127.348 165.427 127.547 165.702 127.518Z" fill="white" fill-opacity="0.7"/>
<path d="M35.9477 75.9021C36.2227 75.8724 36.4214 75.6261 36.3927 75.3513C36.3633 75.0762 36.1173 74.8776 35.8428 74.9066C35.5682 74.9355 35.3684 75.1822 35.3978 75.4574C35.4264 75.7321 35.6732 75.9311 35.9477 75.9021Z" fill="white" fill-opacity="0.7"/>
<path d="M112.478 66.7271C112.753 66.6981 112.953 66.4514 112.923 66.1763C112.895 65.9015 112.648 65.7026 112.373 65.7315C112.099 65.7612 111.9 66.0076 111.929 66.2827C111.958 66.5574 112.205 66.7564 112.478 66.7271Z" fill="white" fill-opacity="0.7"/>
<path d="M6.94428 125.327C7.21885 125.298 7.41867 125.051 7.38927 124.776C7.36063 124.501 7.11389 124.302 6.83932 124.331C6.56436 124.361 6.36569 124.607 6.39509 124.882C6.42373 125.157 6.67008 125.357 6.94428 125.327Z" fill="white" fill-opacity="0.7"/>
<path opacity="0.3" d="M46.1714 86.8983C46.446 86.8693 46.645 86.6222 46.6156 86.3471C46.587 86.0723 46.3403 85.8734 46.0657 85.9023C45.7915 85.9324 45.5921 86.1783 45.6215 86.4535C45.6501 86.7282 45.8965 86.9279 46.1714 86.8983Z" fill="white" fill-opacity="0.7"/>
<path opacity="0.3" d="M16.4077 133.886C16.6823 133.857 16.8813 133.609 16.8519 133.334C16.8233 133.06 16.5766 132.861 16.3027 132.89C16.0278 132.92 15.8283 133.166 15.8577 133.441C15.8864 133.716 16.1327 133.915 16.4077 133.886Z" fill="white" fill-opacity="0.7"/>
<path opacity="0.3" d="M248.137 78.9393C248.411 78.9092 248.611 78.6632 248.581 78.3881C248.553 78.1133 248.306 77.9144 248.032 77.9433C247.757 77.9734 247.558 78.2194 247.587 78.4945C247.616 78.7692 247.863 78.9682 248.137 78.9393Z" fill="white" fill-opacity="0.7"/>
<path opacity="0.11" d="M165.86 67.0725C166.134 67.0435 166.334 66.7968 166.305 66.5217C166.276 66.2477 166.029 66.048 165.754 66.0777C165.48 66.1066 165.281 66.3537 165.309 66.6285C165.339 66.9028 165.585 67.1022 165.86 67.0725Z" fill="white" fill-opacity="0.7"/>
<path opacity="0.11" d="M236.962 101.784C237.236 101.755 237.435 101.508 237.406 101.232C237.377 100.958 237.13 100.759 236.856 100.789C236.582 100.818 236.382 101.064 236.411 101.34C236.44 101.614 236.687 101.813 236.962 101.784Z" fill="white" fill-opacity="0.7"/>
<path opacity="0.3" d="M111.53 119.704C112.079 119.646 112.478 119.152 112.42 118.602C112.361 118.052 111.869 117.654 111.319 117.712C110.769 117.77 110.37 118.264 110.428 118.814C110.487 119.365 110.98 119.763 111.53 119.704Z" fill="white" fill-opacity="0.7"/>
<path opacity="0.11" d="M139.315 101.633C139.865 101.574 140.263 101.08 140.205 100.53C140.147 99.9795 139.654 99.5813 139.104 99.6395C138.554 99.6989 138.156 100.192 138.213 100.743C138.271 101.292 138.764 101.691 139.315 101.633Z" fill="white" fill-opacity="0.7"/>
<path d="M137.229 84.2306C137.641 84.1865 137.939 83.8167 137.896 83.4043C137.852 82.9918 137.483 82.6926 137.07 82.7363C136.658 82.7805 136.359 83.151 136.403 83.5635C136.446 83.976 136.816 84.2744 137.229 84.2306Z" fill="white" fill-opacity="0.7"/>
<path d="M108.412 140.182C108.825 140.138 109.124 139.768 109.08 139.355C109.037 138.943 108.667 138.644 108.255 138.687C107.843 138.731 107.544 139.102 107.588 139.514C107.631 139.927 108 140.225 108.412 140.182Z" fill="white" fill-opacity="0.7"/>
<path d="M274.681 132.506C275.093 132.462 275.392 132.092 275.348 131.68C275.304 131.267 274.935 130.968 274.522 131.012C274.11 131.056 273.811 131.426 273.855 131.839C273.899 132.251 274.268 132.55 274.681 132.506Z" fill="white" fill-opacity="0.7"/>
<path d="M114.395 96.7416C114.807 96.6975 115.106 96.3269 115.062 95.9145C115.018 95.502 114.649 95.2035 114.236 95.2473C113.824 95.2907 113.525 95.6612 113.569 96.0737C113.613 96.4862 113.982 96.7846 114.395 96.7416Z" fill="white" fill-opacity="0.7"/>
<path d="M31.6934 142.829C32.1056 142.785 32.4046 142.415 32.3609 142.002C32.3172 141.59 31.948 141.291 31.535 141.335C31.1231 141.379 30.8242 141.749 30.8679 142.162C30.9116 142.574 31.2804 142.873 31.6934 142.829Z" fill="white" fill-opacity="0.7"/>
<path d="M159.361 150.858C159.774 150.815 160.073 150.444 160.029 150.032C159.985 149.619 159.615 149.32 159.203 149.364C158.791 149.409 158.492 149.778 158.536 150.191C158.58 150.603 158.948 150.903 159.361 150.858Z" fill="white" fill-opacity="0.7"/>
<path d="M287.66 102.921C288.072 102.877 288.371 102.507 288.328 102.094C288.284 101.682 287.915 101.383 287.502 101.427C287.09 101.471 286.791 101.841 286.834 102.254C286.878 102.667 287.247 102.965 287.66 102.921Z" fill="white" fill-opacity="0.7"/>
<path d="M296.713 74.261C297.125 74.2169 297.424 73.8468 297.38 73.4342C297.337 73.0216 296.968 72.723 296.555 72.7667C296.142 72.8107 295.844 73.1809 295.887 73.5936C295.931 74.0061 296.3 74.3047 296.713 74.261Z" fill="white" fill-opacity="0.7"/>
<path opacity="0.3" d="M178.337 80.3474C178.888 80.2884 179.287 79.7953 179.229 79.2446C179.17 78.6944 178.678 78.2961 178.127 78.3543C177.578 78.4137 177.179 78.9068 177.237 79.4574C177.295 80.0073 177.788 80.406 178.337 80.3474Z" fill="white" fill-opacity="0.7"/>
<path d="M174.602 44.9925C175.152 44.9339 175.551 44.44 175.493 43.8902C175.434 43.3399 174.941 42.9416 174.391 42.9998C173.842 43.0585 173.443 43.5523 173.501 44.1022C173.559 44.6532 174.052 45.0507 174.602 44.9925Z" fill="white" fill-opacity="0.7"/>
<path d="M205.123 88.5678C205.535 88.5236 205.834 88.1531 205.791 87.7406C205.747 87.3281 205.377 87.0293 204.965 87.0735C204.553 87.1169 204.254 87.4874 204.298 87.8999C204.341 88.3124 204.71 88.6108 205.123 88.5678Z" fill="white" fill-opacity="0.7"/>
<path opacity="0.3" d="M227.21 66.5711C227.76 66.5125 228.159 66.0187 228.101 65.4688C228.042 64.9178 227.55 64.5195 226.999 64.5785C226.45 64.6371 226.051 65.131 226.109 65.6808C226.168 66.2311 226.66 66.6294 227.21 66.5711Z" fill="white" fill-opacity="0.7"/>
<path opacity="0.3" d="M280.21 96.6683C280.759 96.6097 281.158 96.1158 281.1 95.5659C281.041 95.0157 280.549 94.6174 279.999 94.6756C279.449 94.7342 279.05 95.2281 279.108 95.778C279.167 96.329 279.659 96.7265 280.21 96.6683Z" fill="white" fill-opacity="0.7"/>
<path opacity="0.3" d="M222.089 103.877C222.639 103.818 223.038 103.324 222.98 102.774C222.921 102.223 222.429 101.825 221.878 101.884C221.329 101.943 220.93 102.436 220.988 102.986C221.047 103.537 221.539 103.935 222.089 103.877Z" fill="white" fill-opacity="0.7"/>
<path opacity="0.11" d="M258.228 83.9066C258.778 83.8479 259.177 83.3541 259.119 82.8042C259.06 82.254 258.567 81.8557 258.017 81.9139C257.468 81.9725 257.069 82.4664 257.127 83.0162C257.185 83.5673 257.677 83.9656 258.228 83.9066Z" fill="white" fill-opacity="0.7"/>
<path opacity="0.11" d="M339.144 155.177C339.694 155.119 340.092 154.625 340.034 154.075C339.976 153.524 339.483 153.126 338.933 153.185C338.383 153.243 337.985 153.737 338.043 154.287C338.101 154.837 338.594 155.236 339.144 155.177Z" fill="white" fill-opacity="0.7"/>
<path d="M342.954 160.309C343.366 160.265 343.665 159.894 343.622 159.482C343.578 159.069 343.209 158.771 342.796 158.815C342.384 158.859 342.085 159.229 342.129 159.641C342.172 160.054 342.541 160.353 342.954 160.309Z" fill="white" fill-opacity="0.7"/>
<path d="M358.274 148.101C358.687 148.057 358.985 147.687 358.942 147.275C358.898 146.861 358.529 146.563 358.116 146.607C357.704 146.651 357.405 147.021 357.449 147.434C357.492 147.846 357.861 148.145 358.274 148.101Z" fill="white" fill-opacity="0.7"/>
<path d="M315.868 151.618C316.28 151.573 316.579 151.203 316.536 150.79C316.492 150.378 316.123 150.08 315.71 150.123C315.298 150.167 314.999 150.537 315.043 150.95C315.086 151.362 315.455 151.661 315.868 151.618Z" fill="white" fill-opacity="0.7"/>
<path opacity="0.11" d="M292.495 166.197C293.044 166.138 293.443 165.644 293.385 165.094C293.326 164.544 292.834 164.146 292.284 164.204C291.734 164.263 291.335 164.756 291.393 165.306C291.452 165.857 291.944 166.256 292.495 166.197Z" fill="white" fill-opacity="0.7"/>
<path d="M281.885 156.252C282.16 156.223 282.359 155.976 282.33 155.701C282.301 155.426 282.054 155.227 281.78 155.256C281.505 155.286 281.306 155.532 281.335 155.807C281.364 156.082 281.61 156.281 281.885 156.252Z" fill="white" fill-opacity="0.7"/>
<path d="M339.696 174.755C339.97 174.725 340.169 174.479 340.14 174.204C340.111 173.929 339.865 173.729 339.59 173.759C339.316 173.788 339.116 174.035 339.146 174.31C339.175 174.585 339.421 174.784 339.696 174.755Z" fill="white" fill-opacity="0.7"/>
<path d="M448.186 163.18C448.46 163.15 448.66 162.904 448.63 162.628C448.602 162.354 448.355 162.155 448.081 162.184C447.806 162.213 447.607 162.46 447.636 162.735C447.665 163.01 447.911 163.209 448.186 163.18Z" fill="white" fill-opacity="0.7"/>
<path d="M499.588 130.499C499.863 130.469 500.062 130.223 500.033 129.948C500.004 129.673 499.758 129.474 499.483 129.503C499.208 129.532 499.009 129.779 499.039 130.054C499.067 130.329 499.314 130.528 499.588 130.499Z" fill="white" fill-opacity="0.7"/>
<path d="M522.838 164.778C523.113 164.749 523.312 164.502 523.283 164.227C523.254 163.952 523.007 163.753 522.733 163.782C522.459 163.812 522.259 164.059 522.288 164.334C522.317 164.608 522.564 164.807 522.838 164.778Z" fill="white" fill-opacity="0.7"/>
<path d="M172.666 179.993C172.94 179.964 173.139 179.717 173.11 179.442C173.081 179.167 172.834 178.968 172.56 178.997C172.286 179.027 172.086 179.273 172.116 179.548C172.144 179.823 172.391 180.023 172.666 179.993Z" fill="white" fill-opacity="0.7"/>
<path opacity="0.11" d="M162.366 153.901C162.641 153.872 162.84 153.625 162.81 153.35C162.781 153.076 162.535 152.876 162.261 152.906C161.986 152.935 161.786 153.182 161.816 153.457C161.844 153.731 162.091 153.93 162.366 153.901Z" fill="white" fill-opacity="0.7"/>
<path opacity="0.11" d="M142.178 167.638C142.452 167.608 142.652 167.362 142.623 167.087C142.594 166.812 142.347 166.612 142.073 166.642C141.798 166.671 141.599 166.918 141.628 167.193C141.657 167.468 141.904 167.667 142.178 167.638Z" fill="white" fill-opacity="0.7"/>
<path opacity="0.11" d="M161.754 195.763C162.028 195.734 162.227 195.487 162.198 195.213C162.169 194.938 161.923 194.738 161.648 194.768C161.373 194.797 161.174 195.044 161.204 195.319C161.232 195.594 161.479 195.793 161.754 195.763Z" fill="white" fill-opacity="0.7"/>
<path opacity="0.11" d="M278.087 163.201C278.361 163.172 278.56 162.924 278.53 162.65C278.502 162.375 278.256 162.176 277.981 162.206C277.707 162.235 277.507 162.481 277.536 162.757C277.565 163.031 277.812 163.23 278.087 163.201Z" fill="white" fill-opacity="0.7"/>
<path opacity="0.11" d="M340.594 192.787C340.868 192.757 341.068 192.511 341.039 192.236C341.01 191.961 340.764 191.762 340.489 191.791C340.214 191.82 340.015 192.067 340.044 192.343C340.073 192.617 340.32 192.816 340.594 192.787Z" fill="white" fill-opacity="0.7"/>
<path opacity="0.11" d="M435.618 177.612C435.892 177.582 436.092 177.336 436.062 177.061C436.033 176.786 435.787 176.587 435.512 176.616C435.237 176.646 435.039 176.892 435.068 177.167C435.097 177.442 435.343 177.641 435.618 177.612Z" fill="white" fill-opacity="0.7"/>
<path opacity="0.3" d="M194.245 165.101C194.52 165.071 194.719 164.825 194.69 164.55C194.661 164.275 194.415 164.075 194.14 164.105C193.866 164.134 193.666 164.381 193.695 164.656C193.725 164.931 193.971 165.129 194.245 165.101Z" fill="white" fill-opacity="0.7"/>
<path d="M305.863 125.995C306.137 125.965 306.337 125.719 306.307 125.444C306.279 125.169 306.032 124.97 305.757 124.999C305.482 125.029 305.284 125.275 305.313 125.55C305.342 125.825 305.588 126.024 305.863 125.995Z" fill="white" fill-opacity="0.7"/>
<path d="M382.395 116.821C382.669 116.792 382.869 116.545 382.839 116.27C382.811 115.995 382.564 115.796 382.289 115.825C382.015 115.855 381.816 116.101 381.845 116.377C381.874 116.651 382.12 116.851 382.395 116.821Z" fill="white" fill-opacity="0.7"/>
<path d="M276.861 175.42C277.136 175.391 277.335 175.143 277.305 174.868C277.277 174.594 277.03 174.395 276.755 174.424C276.481 174.454 276.281 174.7 276.311 174.975C276.34 175.25 276.586 175.449 276.861 175.42Z" fill="white" fill-opacity="0.7"/>
<path opacity="0.3" d="M242.025 179.137C242.299 179.108 242.499 178.862 242.47 178.587C242.441 178.312 242.194 178.113 241.92 178.142C241.645 178.171 241.446 178.418 241.475 178.693C241.504 178.968 241.75 179.167 242.025 179.137Z" fill="white" fill-opacity="0.7"/>
<path opacity="0.11" d="M197.964 152.62C198.238 152.591 198.438 152.344 198.409 152.069C198.38 151.794 198.133 151.595 197.859 151.624C197.584 151.654 197.385 151.9 197.415 152.175C197.443 152.45 197.69 152.65 197.964 152.62Z" fill="white" fill-opacity="0.7"/>
<path opacity="0.3" d="M316.087 136.992C316.362 136.963 316.561 136.716 316.532 136.441C316.503 136.166 316.257 135.967 315.982 135.996C315.707 136.026 315.508 136.272 315.537 136.547C315.567 136.822 315.812 137.021 316.087 136.992Z" fill="white" fill-opacity="0.7"/>
<path opacity="0.3" d="M286.324 183.979C286.598 183.95 286.797 183.703 286.769 183.428C286.739 183.153 286.493 182.954 286.219 182.984C285.944 183.013 285.744 183.259 285.774 183.535C285.802 183.809 286.049 184.009 286.324 183.979Z" fill="white" fill-opacity="0.7"/>
<path opacity="0.3" d="M226.631 195.384C226.906 195.354 227.105 195.108 227.076 194.833C227.047 194.558 226.801 194.358 226.526 194.388C226.251 194.417 226.052 194.664 226.081 194.939C226.11 195.214 226.356 195.413 226.631 195.384Z" fill="white" fill-opacity="0.7"/>
<path opacity="0.3" d="M208.679 163.563C208.953 163.534 209.153 163.287 209.124 163.012C209.095 162.737 208.848 162.539 208.574 162.567C208.299 162.597 208.1 162.843 208.129 163.119C208.158 163.393 208.404 163.593 208.679 163.563Z" fill="white" fill-opacity="0.7"/>
<path opacity="0.3" d="M518.052 129.033C518.327 129.004 518.526 128.757 518.496 128.482C518.468 128.207 518.222 128.008 517.947 128.038C517.672 128.067 517.473 128.313 517.502 128.588C517.531 128.863 517.777 129.062 518.052 129.033Z" fill="white" fill-opacity="0.7"/>
<path opacity="0.11" d="M435.776 117.166C436.051 117.136 436.251 116.89 436.221 116.615C436.193 116.34 435.946 116.141 435.671 116.17C435.396 116.199 435.198 116.446 435.227 116.721C435.256 116.996 435.502 117.195 435.776 117.166Z" fill="white" fill-opacity="0.7"/>
<path opacity="0.11" d="M506.878 151.877C507.152 151.847 507.351 151.601 507.322 151.326C507.293 151.051 507.047 150.852 506.772 150.881C506.497 150.91 506.298 151.157 506.328 151.432C506.356 151.707 506.603 151.906 506.878 151.877Z" fill="white" fill-opacity="0.7"/>
<path opacity="0.3" d="M381.446 169.797C381.995 169.739 382.394 169.245 382.336 168.695C382.277 168.145 381.785 167.746 381.235 167.805C380.685 167.863 380.286 168.357 380.344 168.907C380.403 169.458 380.896 169.855 381.446 169.797Z" fill="white" fill-opacity="0.7"/>
<path opacity="0.11" d="M409.232 151.727C409.782 151.667 410.18 151.174 410.122 150.624C410.064 150.073 409.571 149.675 409.021 149.733C408.471 149.793 408.073 150.286 408.13 150.836C408.189 151.387 408.681 151.785 409.232 151.727Z" fill="white" fill-opacity="0.7"/>
<path d="M407.145 134.324C407.557 134.28 407.856 133.91 407.812 133.498C407.768 133.085 407.399 132.787 406.986 132.83C406.574 132.874 406.275 133.244 406.319 133.657C406.363 134.07 406.732 134.368 407.145 134.324Z" fill="white" fill-opacity="0.7"/>
<path d="M378.329 190.276C378.741 190.232 379.04 189.861 378.997 189.449C378.953 189.036 378.583 188.737 378.171 188.781C377.759 188.825 377.46 189.195 377.504 189.608C377.547 190.02 377.916 190.319 378.329 190.276Z" fill="white" fill-opacity="0.7"/>
<path d="M544.597 182.6C545.009 182.556 545.308 182.186 545.264 181.773C545.22 181.36 544.851 181.062 544.438 181.106C544.026 181.15 543.727 181.52 543.771 181.932C543.815 182.345 544.184 182.644 544.597 182.6Z" fill="white" fill-opacity="0.7"/>
<path d="M220.729 208.603C221.141 208.559 221.44 208.188 221.396 207.776C221.352 207.363 220.983 207.065 220.57 207.109C220.158 207.153 219.859 207.523 219.903 207.935C219.946 208.348 220.316 208.647 220.729 208.603Z" fill="white" fill-opacity="0.7"/>
<path d="M153.338 204.215C153.75 204.171 154.049 203.801 154.005 203.389C153.961 202.976 153.593 202.677 153.18 202.721C152.767 202.765 152.468 203.135 152.512 203.548C152.556 203.96 152.925 204.259 153.338 204.215Z" fill="white" fill-opacity="0.7"/>
<path d="M142.773 185.2C143.186 185.155 143.485 184.785 143.441 184.372C143.397 183.96 143.028 183.662 142.615 183.705C142.203 183.749 141.904 184.119 141.948 184.532C141.991 184.945 142.36 185.243 142.773 185.2Z" fill="white" fill-opacity="0.7"/>
<path d="M384.311 146.834C384.723 146.79 385.022 146.42 384.978 146.007C384.934 145.595 384.565 145.296 384.152 145.34C383.74 145.383 383.441 145.754 383.485 146.166C383.529 146.579 383.898 146.878 384.311 146.834Z" fill="white" fill-opacity="0.7"/>
<path d="M301.61 192.923C302.023 192.879 302.322 192.509 302.278 192.096C302.234 191.684 301.865 191.385 301.452 191.429C301.04 191.473 300.741 191.843 300.785 192.255C300.829 192.668 301.197 192.967 301.61 192.923Z" fill="white" fill-opacity="0.7"/>
<path d="M429.277 200.953C429.69 200.908 429.989 200.538 429.945 200.125C429.901 199.713 429.532 199.414 429.119 199.458C428.707 199.502 428.408 199.872 428.452 200.285C428.495 200.698 428.864 200.996 429.277 200.953Z" fill="white" fill-opacity="0.7"/>
<path d="M557.576 153.015C557.988 152.971 558.287 152.6 558.243 152.188C558.2 151.776 557.83 151.477 557.418 151.521C557.006 151.565 556.707 151.935 556.75 152.347C556.794 152.76 557.163 153.059 557.576 153.015Z" fill="white" fill-opacity="0.7"/>
<path d="M566.629 124.354C567.041 124.31 567.34 123.94 567.296 123.527C567.253 123.114 566.884 122.816 566.471 122.86C566.058 122.904 565.76 123.274 565.803 123.686C565.847 124.099 566.216 124.397 566.629 124.354Z" fill="white" fill-opacity="0.7"/>
<path opacity="0.3" d="M448.248 130.438C448.798 130.379 449.197 129.886 449.139 129.336C449.08 128.785 448.588 128.387 448.038 128.445C447.488 128.504 447.089 128.998 447.147 129.548C447.206 130.098 447.698 130.497 448.248 130.438Z" fill="white" fill-opacity="0.7"/>
<path d="M444.518 95.0856C445.068 95.0268 445.466 94.5332 445.409 93.983C445.35 93.4326 444.857 93.0344 444.307 93.0927C443.757 93.1516 443.359 93.6451 443.417 94.1953C443.475 94.7459 443.968 95.1441 444.518 95.0856Z" fill="white" fill-opacity="0.7"/>
<path d="M475.039 138.661C475.451 138.617 475.75 138.247 475.706 137.835C475.663 137.422 475.294 137.123 474.881 137.167C474.469 137.211 474.17 137.581 474.213 137.994C474.257 138.407 474.626 138.705 475.039 138.661Z" fill="white" fill-opacity="0.7"/>
<path opacity="0.3" d="M497.125 116.665C497.675 116.606 498.074 116.112 498.016 115.562C497.957 115.012 497.465 114.613 496.914 114.672C496.365 114.731 495.966 115.224 496.024 115.774C496.083 116.325 496.575 116.723 497.125 116.665Z" fill="white" fill-opacity="0.7"/>
<path opacity="0.3" d="M550.126 146.761C550.676 146.703 551.074 146.209 551.016 145.658C550.958 145.108 550.465 144.71 549.915 144.769C549.366 144.827 548.967 145.321 549.025 145.871C549.083 146.421 549.576 146.82 550.126 146.761Z" fill="white" fill-opacity="0.7"/>
<path opacity="0.3" d="M492.005 153.97C492.555 153.912 492.954 153.418 492.896 152.868C492.837 152.317 492.345 151.919 491.794 151.978C491.245 152.036 490.846 152.53 490.904 153.08C490.963 153.631 491.455 154.029 492.005 153.97Z" fill="white" fill-opacity="0.7"/>
<path opacity="0.3" d="M207.25 192.921C207.8 192.862 208.199 192.369 208.141 191.818C208.082 191.268 207.59 190.869 207.04 190.928C206.49 190.987 206.091 191.48 206.149 192.031C206.208 192.581 206.7 192.979 207.25 192.921Z" fill="white" fill-opacity="0.7"/>
<path opacity="0.3" d="M164.045 169.835C164.594 169.777 164.993 169.284 164.935 168.733C164.876 168.183 164.384 167.784 163.833 167.843C163.284 167.901 162.885 168.395 162.943 168.945C163.002 169.496 163.494 169.894 164.045 169.835Z" fill="white" fill-opacity="0.7"/>
<path opacity="0.11" d="M528.144 134.001C528.694 133.942 529.092 133.448 529.034 132.898C528.976 132.348 528.483 131.949 527.933 132.008C527.383 132.067 526.985 132.56 527.043 133.11C527.101 133.661 527.594 134.059 528.144 134.001Z" fill="white" fill-opacity="0.7"/>
<path opacity="0.3" d="M233.421 145.311C233.971 145.251 234.37 144.758 234.312 144.208C234.253 143.657 233.761 143.259 233.21 143.317C232.661 143.377 232.262 143.87 232.32 144.42C232.378 144.971 232.871 145.369 233.421 145.311Z" fill="white" fill-opacity="0.7"/>
<path opacity="0.11" d="M218.934 136.785C219.483 136.726 219.882 136.233 219.824 135.683C219.766 135.132 219.274 134.733 218.723 134.792C218.173 134.851 217.774 135.345 217.833 135.895C217.891 136.445 218.384 136.843 218.934 136.785Z" fill="white" fill-opacity="0.7"/>
<path opacity="0.3" d="M218.321 169.079C218.87 169.02 219.269 168.526 219.211 167.977C219.153 167.426 218.66 167.027 218.11 167.086C217.56 167.145 217.161 167.639 217.219 168.189C217.278 168.739 217.77 169.137 218.321 169.079Z" fill="white" fill-opacity="0.7"/>
<path d="M249.366 165.261C249.779 165.217 250.077 164.847 250.034 164.434C249.99 164.021 249.621 163.723 249.208 163.767C248.796 163.811 248.497 164.181 248.54 164.594C248.584 165.006 248.953 165.305 249.366 165.261Z" fill="white" fill-opacity="0.7"/>
<path d="M1485.99 451.617C1485.78 451.639 1485.63 451.827 1485.66 452.037C1485.68 452.246 1485.87 452.398 1486.07 452.375C1486.28 452.353 1486.44 452.165 1486.41 451.956C1486.39 451.747 1486.2 451.594 1485.99 451.617Z" fill="white" fill-opacity="0.7"/>
<path d="M1446.84 476.512C1446.63 476.535 1446.48 476.723 1446.5 476.932C1446.52 477.142 1446.71 477.293 1446.92 477.271C1447.13 477.248 1447.28 477.061 1447.26 476.851C1447.23 476.642 1447.05 476.49 1446.84 476.512Z" fill="white" fill-opacity="0.7"/>
<path d="M1429.13 450.398C1428.92 450.42 1428.76 450.608 1428.79 450.818C1428.81 451.027 1429 451.179 1429.21 451.157C1429.42 451.134 1429.57 450.947 1429.54 450.737C1429.52 450.528 1429.33 450.376 1429.13 450.398Z" fill="white" fill-opacity="0.7"/>
<path opacity="0.11" d="M1495.57 440.623C1495.36 440.646 1495.21 440.833 1495.23 441.043C1495.25 441.252 1495.44 441.403 1495.65 441.381C1495.86 441.359 1496.01 441.171 1495.99 440.962C1495.97 440.752 1495.78 440.601 1495.57 440.623Z" fill="white" fill-opacity="0.7"/>
<path opacity="0.3" d="M1432.77 477.63C1432.56 477.652 1432.41 477.84 1432.43 478.049C1432.46 478.259 1432.64 478.41 1432.85 478.388C1433.06 478.366 1433.21 478.178 1433.19 477.969C1433.17 477.759 1432.98 477.607 1432.77 477.63Z" fill="white" fill-opacity="0.7"/>
<path opacity="0.11" d="M1495.45 486.669C1495.24 486.691 1495.09 486.879 1495.11 487.088C1495.13 487.298 1495.32 487.45 1495.53 487.427C1495.74 487.405 1495.89 487.217 1495.87 487.007C1495.85 486.798 1495.66 486.646 1495.45 486.669Z" fill="white" fill-opacity="0.7"/>
<path opacity="0.11" d="M1441.28 460.227C1441.07 460.25 1440.92 460.438 1440.95 460.647C1440.97 460.856 1441.15 461.008 1441.36 460.986C1441.57 460.964 1441.73 460.775 1441.7 460.566C1441.68 460.356 1441.49 460.205 1441.28 460.227Z" fill="white" fill-opacity="0.7"/>
<path opacity="0.11" d="M1515.67 460.341C1515.25 460.387 1514.95 460.762 1514.99 461.182C1515.04 461.601 1515.41 461.904 1515.83 461.86C1516.25 461.815 1516.55 461.439 1516.51 461.02C1516.46 460.6 1516.09 460.297 1515.67 460.341Z" fill="white" fill-opacity="0.7"/>
<path d="M1517.26 473.599C1516.95 473.631 1516.72 473.914 1516.75 474.228C1516.79 474.542 1517.07 474.77 1517.38 474.737C1517.69 474.703 1517.92 474.421 1517.89 474.107C1517.86 473.792 1517.57 473.565 1517.26 473.599Z" fill="white" fill-opacity="0.7"/>
<path d="M1412.55 436.823C1412.24 436.856 1412.01 437.138 1412.04 437.452C1412.08 437.767 1412.36 437.994 1412.67 437.961C1412.98 437.928 1413.21 437.645 1413.18 437.331C1413.15 437.017 1412.86 436.789 1412.55 436.823Z" fill="white" fill-opacity="0.7"/>
<path d="M1534.66 464.069C1534.34 464.102 1534.11 464.384 1534.15 464.699C1534.18 465.013 1534.46 465.241 1534.78 465.207C1535.09 465.174 1535.32 464.892 1535.28 464.577C1535.25 464.263 1534.97 464.035 1534.66 464.069Z" fill="white" fill-opacity="0.7"/>
<path d="M1500.4 422.842C1500.08 422.876 1499.86 423.158 1499.89 423.472C1499.92 423.786 1500.2 424.014 1500.52 423.98C1500.83 423.947 1501.06 423.665 1501.03 423.351C1500.99 423.036 1500.71 422.809 1500.4 422.842Z" fill="white" fill-opacity="0.7"/>
<path d="M1402.66 459.361C1402.35 459.394 1402.12 459.676 1402.16 459.991C1402.19 460.305 1402.47 460.532 1402.78 460.499C1403.1 460.465 1403.33 460.184 1403.29 459.869C1403.26 459.555 1402.98 459.327 1402.66 459.361Z" fill="white" fill-opacity="0.7"/>
<path d="M1395.77 481.194C1395.45 481.227 1395.23 481.509 1395.26 481.824C1395.29 482.138 1395.57 482.365 1395.89 482.332C1396.2 482.299 1396.43 482.016 1396.4 481.702C1396.36 481.388 1396.08 481.161 1395.77 481.194Z" fill="white" fill-opacity="0.7"/>
<path opacity="0.3" d="M1485.94 476.556C1485.52 476.601 1485.22 476.977 1485.26 477.397C1485.31 477.816 1485.68 478.119 1486.1 478.075C1486.52 478.03 1486.83 477.654 1486.78 477.235C1486.74 476.815 1486.36 476.512 1485.94 476.556Z" fill="white" fill-opacity="0.7"/>
<path d="M1488.79 503.489C1488.37 503.534 1488.07 503.91 1488.11 504.33C1488.16 504.748 1488.53 505.052 1488.95 505.007C1489.37 504.963 1489.67 504.587 1489.63 504.168C1489.58 503.748 1489.21 503.445 1488.79 503.489Z" fill="white" fill-opacity="0.7"/>
<path d="M1465.54 470.294C1465.22 470.328 1465 470.61 1465.03 470.924C1465.06 471.239 1465.34 471.466 1465.66 471.433C1465.97 471.399 1466.2 471.117 1466.17 470.803C1466.13 470.489 1465.85 470.261 1465.54 470.294Z" fill="white" fill-opacity="0.7"/>
<path opacity="0.3" d="M1448.71 487.052C1448.29 487.096 1447.99 487.472 1448.03 487.891C1448.08 488.311 1448.45 488.615 1448.87 488.57C1449.29 488.525 1449.6 488.149 1449.55 487.73C1449.51 487.311 1449.13 487.007 1448.71 487.052Z" fill="white" fill-opacity="0.7"/>
<path opacity="0.3" d="M1408.34 464.124C1407.92 464.169 1407.62 464.545 1407.66 464.964C1407.71 465.383 1408.08 465.687 1408.5 465.642C1408.92 465.598 1409.22 465.221 1409.18 464.802C1409.13 464.383 1408.76 464.08 1408.34 464.124Z" fill="white" fill-opacity="0.7"/>
<path opacity="0.3" d="M1452.61 458.633C1452.19 458.677 1451.89 459.054 1451.94 459.472C1451.98 459.892 1452.35 460.196 1452.77 460.151C1453.19 460.106 1453.5 459.73 1453.45 459.311C1453.41 458.892 1453.03 458.588 1452.61 458.633Z" fill="white" fill-opacity="0.7"/>
<path opacity="0.11" d="M1425.08 473.845C1424.67 473.89 1424.36 474.266 1424.41 474.685C1424.45 475.104 1424.83 475.407 1425.24 475.363C1425.66 475.318 1425.97 474.942 1425.92 474.523C1425.88 474.103 1425.5 473.8 1425.08 473.845Z" fill="white" fill-opacity="0.7"/>
<path opacity="0.11" d="M1450.19 587.546C1449.77 587.59 1449.47 587.967 1449.51 588.385C1449.56 588.805 1449.93 589.109 1450.35 589.064C1450.77 589.019 1451.08 588.643 1451.03 588.224C1450.99 587.805 1450.61 587.501 1450.19 587.546Z" fill="white" fill-opacity="0.7"/>
<path d="M1447.29 583.636C1446.98 583.67 1446.75 583.952 1446.78 584.266C1446.82 584.58 1447.1 584.808 1447.41 584.774C1447.72 584.741 1447.95 584.459 1447.92 584.145C1447.89 583.831 1447.61 583.603 1447.29 583.636Z" fill="white" fill-opacity="0.7"/>
<path d="M1435.62 592.937C1435.31 592.97 1435.08 593.252 1435.11 593.567C1435.14 593.881 1435.43 594.109 1435.74 594.075C1436.05 594.041 1436.28 593.759 1436.25 593.445C1436.22 593.131 1435.93 592.903 1435.62 592.937Z" fill="white" fill-opacity="0.7"/>
<path d="M1467.92 590.257C1467.61 590.291 1467.38 590.573 1467.42 590.887C1467.45 591.201 1467.73 591.429 1468.04 591.395C1468.36 591.362 1468.59 591.08 1468.55 590.766C1468.52 590.452 1468.24 590.224 1467.92 590.257Z" fill="white" fill-opacity="0.7"/>
<path opacity="0.11" d="M1485.73 579.152C1485.31 579.196 1485.01 579.572 1485.05 579.991C1485.1 580.411 1485.47 580.714 1485.89 580.67C1486.31 580.625 1486.61 580.249 1486.57 579.83C1486.52 579.41 1486.15 579.107 1485.73 579.152Z" fill="white" fill-opacity="0.7"/>
<path d="M1493.81 586.727C1493.6 586.75 1493.45 586.938 1493.47 587.147C1493.49 587.356 1493.68 587.508 1493.89 587.486C1494.1 587.463 1494.25 587.276 1494.23 587.066C1494.21 586.857 1494.02 586.705 1493.81 586.727Z" fill="white" fill-opacity="0.7"/>
<path d="M1449.77 572.632C1449.56 572.654 1449.41 572.842 1449.43 573.051C1449.45 573.261 1449.64 573.413 1449.85 573.39C1450.06 573.368 1450.21 573.18 1450.19 572.97C1450.17 572.761 1449.98 572.609 1449.77 572.632Z" fill="white" fill-opacity="0.7"/>
<path d="M1367.13 581.45C1366.92 581.472 1366.76 581.66 1366.79 581.87C1366.81 582.079 1367 582.231 1367.21 582.209C1367.42 582.186 1367.57 581.998 1367.54 581.789C1367.52 581.579 1367.33 581.427 1367.13 581.45Z" fill="white" fill-opacity="0.7"/>
<path d="M1327.97 606.346C1327.76 606.368 1327.61 606.556 1327.63 606.765C1327.65 606.974 1327.84 607.126 1328.05 607.104C1328.26 607.081 1328.41 606.894 1328.39 606.684C1328.37 606.475 1328.18 606.324 1327.97 606.346Z" fill="white" fill-opacity="0.7"/>
<path d="M1310.26 580.23C1310.05 580.252 1309.9 580.441 1309.92 580.65C1309.94 580.859 1310.13 581.011 1310.34 580.989C1310.55 580.966 1310.7 580.779 1310.68 580.569C1310.65 580.36 1310.47 580.208 1310.26 580.23Z" fill="white" fill-opacity="0.7"/>
<path opacity="0.11" d="M1496.7 581.433C1496.5 581.455 1496.34 581.643 1496.37 581.852C1496.39 582.061 1496.58 582.213 1496.79 582.191C1496.99 582.169 1497.15 581.98 1497.12 581.771C1497.1 581.562 1496.91 581.41 1496.7 581.433Z" fill="white" fill-opacity="0.7"/>
<path opacity="0.11" d="M1449.08 558.893C1448.87 558.915 1448.72 559.103 1448.74 559.312C1448.77 559.521 1448.95 559.673 1449.16 559.651C1449.37 559.628 1449.52 559.441 1449.5 559.231C1449.48 559.022 1449.29 558.87 1449.08 558.893Z" fill="white" fill-opacity="0.7"/>
<path opacity="0.11" d="M1376.7 570.456C1376.49 570.478 1376.34 570.666 1376.36 570.876C1376.38 571.085 1376.57 571.237 1376.78 571.214C1376.99 571.192 1377.14 571.004 1377.12 570.795C1377.1 570.585 1376.91 570.434 1376.7 570.456Z" fill="white" fill-opacity="0.7"/>
<path d="M1475.54 609.776C1475.34 609.799 1475.18 609.986 1475.21 610.196C1475.23 610.405 1475.42 610.557 1475.62 610.535C1475.83 610.513 1475.99 610.325 1475.96 610.115C1475.94 609.906 1475.75 609.754 1475.54 609.776Z" fill="white" fill-opacity="0.7"/>
<path d="M1417.24 616.766C1417.04 616.788 1416.88 616.976 1416.91 617.185C1416.93 617.394 1417.12 617.546 1417.32 617.524C1417.53 617.501 1417.69 617.314 1417.66 617.104C1417.64 616.895 1417.45 616.743 1417.24 616.766Z" fill="white" fill-opacity="0.7"/>
<path d="M1497.64 572.126C1497.43 572.148 1497.28 572.336 1497.3 572.546C1497.32 572.755 1497.51 572.906 1497.72 572.884C1497.93 572.862 1498.08 572.674 1498.06 572.465C1498.04 572.255 1497.85 572.103 1497.64 572.126Z" fill="white" fill-opacity="0.7"/>
<path opacity="0.3" d="M1524.18 569.293C1523.97 569.315 1523.81 569.503 1523.84 569.713C1523.86 569.922 1524.05 570.073 1524.26 570.051C1524.46 570.029 1524.62 569.841 1524.59 569.632C1524.57 569.422 1524.38 569.27 1524.18 569.293Z" fill="white" fill-opacity="0.7"/>
<path opacity="0.3" d="M1467.76 601.399C1467.55 601.421 1467.39 601.609 1467.42 601.819C1467.44 602.028 1467.63 602.18 1467.84 602.158C1468.04 602.135 1468.2 601.948 1468.17 601.738C1468.15 601.529 1467.97 601.377 1467.76 601.399Z" fill="white" fill-opacity="0.7"/>
<path opacity="0.3" d="M1490.43 565.605C1490.22 565.627 1490.07 565.816 1490.09 566.025C1490.11 566.234 1490.3 566.386 1490.51 566.364C1490.72 566.341 1490.87 566.154 1490.85 565.944C1490.83 565.735 1490.64 565.583 1490.43 565.605Z" fill="white" fill-opacity="0.7"/>
<path opacity="0.3" d="M1313.9 607.463C1313.69 607.486 1313.54 607.673 1313.56 607.883C1313.59 608.092 1313.77 608.243 1313.98 608.221C1314.19 608.198 1314.34 608.011 1314.32 607.801C1314.3 607.592 1314.11 607.441 1313.9 607.463Z" fill="white" fill-opacity="0.7"/>
<path opacity="0.11" d="M1376.58 616.502C1376.37 616.524 1376.22 616.712 1376.24 616.922C1376.26 617.13 1376.45 617.283 1376.66 617.26C1376.87 617.238 1377.02 617.05 1377 616.84C1376.98 616.631 1376.79 616.48 1376.58 616.502Z" fill="white" fill-opacity="0.7"/>
<path opacity="0.11" d="M1322.41 590.06C1322.21 590.082 1322.05 590.27 1322.08 590.48C1322.1 590.688 1322.29 590.84 1322.49 590.817C1322.7 590.795 1322.86 590.607 1322.83 590.398C1322.81 590.189 1322.62 590.037 1322.41 590.06Z" fill="white" fill-opacity="0.7"/>
<path opacity="0.3" d="M1417.97 576.408C1417.55 576.453 1417.24 576.829 1417.29 577.248C1417.33 577.667 1417.71 577.971 1418.13 577.926C1418.55 577.882 1418.85 577.506 1418.81 577.087C1418.76 576.667 1418.39 576.364 1417.97 576.408Z" fill="white" fill-opacity="0.7"/>
<path opacity="0.11" d="M1396.8 590.174C1396.38 590.22 1396.08 590.595 1396.12 591.015C1396.17 591.434 1396.54 591.737 1396.96 591.693C1397.38 591.648 1397.68 591.272 1397.64 590.853C1397.6 590.434 1397.22 590.13 1396.8 590.174Z" fill="white" fill-opacity="0.7"/>
<path d="M1398.39 603.431C1398.08 603.465 1397.85 603.746 1397.88 604.061C1397.92 604.375 1398.2 604.603 1398.51 604.569C1398.82 604.536 1399.05 604.254 1399.02 603.939C1398.99 603.625 1398.7 603.398 1398.39 603.431Z" fill="white" fill-opacity="0.7"/>
<path d="M1420.34 560.809C1420.03 560.842 1419.8 561.125 1419.83 561.439C1419.87 561.753 1420.15 561.981 1420.46 561.948C1420.78 561.914 1421 561.632 1420.97 561.317C1420.94 561.003 1420.66 560.776 1420.34 560.809Z" fill="white" fill-opacity="0.7"/>
<path d="M1293.68 566.656C1293.37 566.689 1293.14 566.971 1293.17 567.285C1293.21 567.599 1293.49 567.827 1293.8 567.794C1294.12 567.76 1294.34 567.478 1294.31 567.164C1294.28 566.85 1294 566.622 1293.68 566.656Z" fill="white" fill-opacity="0.7"/>
<path d="M1415.78 593.901C1415.47 593.934 1415.24 594.217 1415.28 594.531C1415.31 594.845 1415.59 595.072 1415.91 595.039C1416.22 595.006 1416.45 594.724 1416.41 594.409C1416.38 594.095 1416.1 593.868 1415.78 593.901Z" fill="white" fill-opacity="0.7"/>
<path d="M1478.79 558.792C1478.47 558.826 1478.24 559.108 1478.28 559.422C1478.31 559.737 1478.59 559.964 1478.91 559.931C1479.22 559.898 1479.45 559.615 1479.41 559.301C1479.38 558.987 1479.1 558.759 1478.79 558.792Z" fill="white" fill-opacity="0.7"/>
<path d="M1381.53 552.675C1381.22 552.709 1380.99 552.991 1381.02 553.305C1381.05 553.619 1381.34 553.847 1381.65 553.813C1381.96 553.78 1382.19 553.498 1382.16 553.184C1382.13 552.87 1381.84 552.642 1381.53 552.675Z" fill="white" fill-opacity="0.7"/>
<path d="M1283.79 589.194C1283.48 589.227 1283.25 589.509 1283.28 589.824C1283.32 590.138 1283.6 590.365 1283.91 590.332C1284.23 590.298 1284.46 590.017 1284.42 589.702C1284.39 589.388 1284.11 589.16 1283.79 589.194Z" fill="white" fill-opacity="0.7"/>
<path d="M1276.9 611.027C1276.58 611.06 1276.36 611.342 1276.39 611.657C1276.42 611.971 1276.7 612.198 1277.02 612.165C1277.33 612.131 1277.56 611.85 1277.53 611.535C1277.49 611.221 1277.21 610.993 1276.9 611.027Z" fill="white" fill-opacity="0.7"/>
<path opacity="0.3" d="M1367.07 606.39C1366.65 606.435 1366.35 606.81 1366.4 607.23C1366.44 607.649 1366.81 607.952 1367.23 607.908C1367.65 607.863 1367.96 607.487 1367.91 607.068C1367.87 606.649 1367.49 606.345 1367.07 606.39Z" fill="white" fill-opacity="0.7"/>
<path d="M1369.92 633.322C1369.5 633.367 1369.2 633.743 1369.24 634.162C1369.29 634.581 1369.66 634.885 1370.08 634.84C1370.5 634.796 1370.8 634.42 1370.76 634.001C1370.71 633.581 1370.34 633.278 1369.92 633.322Z" fill="white" fill-opacity="0.7"/>
<path d="M1346.67 600.127C1346.36 600.161 1346.13 600.443 1346.16 600.757C1346.19 601.072 1346.48 601.299 1346.79 601.266C1347.1 601.232 1347.33 600.95 1347.3 600.636C1347.26 600.322 1346.98 600.094 1346.67 600.127Z" fill="white" fill-opacity="0.7"/>
<path opacity="0.3" d="M1329.84 616.885C1329.43 616.929 1329.12 617.305 1329.17 617.724C1329.21 618.144 1329.59 618.448 1330 618.403C1330.42 618.358 1330.73 617.982 1330.68 617.563C1330.64 617.144 1330.26 616.84 1329.84 616.885Z" fill="white" fill-opacity="0.7"/>
<path opacity="0.3" d="M1289.47 593.957C1289.05 594.002 1288.75 594.378 1288.79 594.797C1288.84 595.216 1289.21 595.52 1289.63 595.475C1290.05 595.431 1290.35 595.054 1290.31 594.635C1290.26 594.216 1289.89 593.913 1289.47 593.957Z" fill="white" fill-opacity="0.7"/>
<path opacity="0.3" d="M1333.74 588.466C1333.33 588.51 1333.02 588.887 1333.07 589.305C1333.11 589.725 1333.49 590.029 1333.91 589.984C1334.32 589.939 1334.63 589.563 1334.58 589.144C1334.54 588.725 1334.16 588.421 1333.74 588.466Z" fill="white" fill-opacity="0.7"/>
<path opacity="0.11" d="M1306.21 603.678C1305.8 603.723 1305.49 604.099 1305.54 604.518C1305.58 604.937 1305.96 605.24 1306.37 605.196C1306.79 605.151 1307.1 604.775 1307.05 604.356C1307.01 603.936 1306.63 603.633 1306.21 603.678Z" fill="white" fill-opacity="0.7"/>
<path opacity="0.3" d="M1530.73 595.061C1530.31 595.106 1530.01 595.482 1530.05 595.902C1530.1 596.321 1530.47 596.624 1530.89 596.58C1531.31 596.534 1531.61 596.159 1531.57 595.739C1531.53 595.32 1531.15 595.017 1530.73 595.061Z" fill="white" fill-opacity="0.7"/>
<path d="M1518.58 579.864C1518.27 579.897 1518.04 580.179 1518.07 580.494C1518.11 580.808 1518.39 581.035 1518.7 581.002C1519.02 580.968 1519.25 580.687 1519.21 580.372C1519.18 580.058 1518.9 579.83 1518.58 579.864Z" fill="white" fill-opacity="0.7"/>
<path opacity="0.11" d="M1244.57 549.386C1244.16 549.43 1243.85 549.807 1243.9 550.226C1243.94 550.645 1244.32 550.948 1244.74 550.904C1245.15 550.859 1245.46 550.483 1245.41 550.064C1245.37 549.645 1244.99 549.341 1244.57 549.386Z" fill="white" fill-opacity="0.7"/>
<path d="M1241.67 545.477C1241.36 545.51 1241.13 545.793 1241.16 546.107C1241.2 546.421 1241.48 546.648 1241.79 546.615C1242.11 546.581 1242.33 546.3 1242.3 545.986C1242.27 545.671 1241.99 545.443 1241.67 545.477Z" fill="white" fill-opacity="0.7"/>
<path d="M1230 554.776C1229.69 554.809 1229.46 555.091 1229.49 555.405C1229.53 555.72 1229.81 555.947 1230.12 555.914C1230.44 555.88 1230.66 555.598 1230.63 555.284C1230.6 554.97 1230.32 554.742 1230 554.776Z" fill="white" fill-opacity="0.7"/>
<path d="M1262.31 552.097C1261.99 552.131 1261.76 552.413 1261.8 552.727C1261.83 553.041 1262.11 553.269 1262.43 553.235C1262.74 553.202 1262.97 552.92 1262.93 552.606C1262.9 552.291 1262.62 552.064 1262.31 552.097Z" fill="white" fill-opacity="0.7"/>
<path opacity="0.11" d="M1280.11 540.991C1279.69 541.036 1279.39 541.412 1279.43 541.831C1279.48 542.25 1279.85 542.554 1280.27 542.509C1280.69 542.465 1280.99 542.089 1280.95 541.67C1280.9 541.25 1280.53 540.946 1280.11 540.991Z" fill="white" fill-opacity="0.7"/>
<path d="M1288.19 548.567C1287.98 548.589 1287.83 548.777 1287.85 548.987C1287.88 549.196 1288.06 549.348 1288.27 549.326C1288.48 549.303 1288.63 549.116 1288.61 548.906C1288.59 548.697 1288.4 548.545 1288.19 548.567Z" fill="white" fill-opacity="0.7"/>
<path d="M1244.15 534.471C1243.94 534.494 1243.79 534.681 1243.81 534.891C1243.84 535.1 1244.02 535.252 1244.23 535.23C1244.44 535.208 1244.59 535.02 1244.57 534.81C1244.55 534.601 1244.36 534.449 1244.15 534.471Z" fill="white" fill-opacity="0.7"/>
<path d="M1161.51 543.29C1161.3 543.312 1161.15 543.5 1161.17 543.71C1161.19 543.919 1161.38 544.07 1161.59 544.048C1161.8 544.026 1161.95 543.838 1161.93 543.629C1161.9 543.419 1161.72 543.267 1161.51 543.29Z" fill="white" fill-opacity="0.7"/>
<path d="M1122.35 568.185C1122.14 568.208 1121.99 568.396 1122.01 568.605C1122.03 568.814 1122.22 568.966 1122.43 568.944C1122.64 568.921 1122.79 568.734 1122.77 568.524C1122.75 568.315 1122.56 568.163 1122.35 568.185Z" fill="white" fill-opacity="0.7"/>
<path d="M1104.64 542.071C1104.43 542.093 1104.28 542.281 1104.3 542.491C1104.32 542.7 1104.51 542.852 1104.72 542.83C1104.93 542.807 1105.08 542.619 1105.06 542.41C1105.04 542.2 1104.85 542.049 1104.64 542.071Z" fill="white" fill-opacity="0.7"/>
<path d="M1371.39 530.481C1371.19 530.503 1371.03 530.692 1371.06 530.901C1371.08 531.11 1371.27 531.262 1371.47 531.24C1371.68 531.217 1371.84 531.03 1371.81 530.82C1371.79 530.611 1371.6 530.459 1371.39 530.481Z" fill="white" fill-opacity="0.7"/>
<path opacity="0.11" d="M1379.24 550.358C1379.03 550.38 1378.88 550.568 1378.9 550.777C1378.92 550.986 1379.11 551.138 1379.32 551.115C1379.53 551.093 1379.68 550.905 1379.66 550.696C1379.64 550.486 1379.45 550.335 1379.24 550.358Z" fill="white" fill-opacity="0.7"/>
<path opacity="0.11" d="M1394.62 539.893C1394.41 539.916 1394.26 540.103 1394.28 540.313C1394.3 540.522 1394.49 540.674 1394.7 540.652C1394.91 540.63 1395.06 540.441 1395.04 540.232C1395.02 540.023 1394.83 539.871 1394.62 539.893Z" fill="white" fill-opacity="0.7"/>
<path opacity="0.11" d="M1379.71 518.468C1379.5 518.49 1379.35 518.678 1379.37 518.887C1379.39 519.096 1379.58 519.249 1379.79 519.226C1380 519.204 1380.15 519.016 1380.13 518.806C1380.1 518.597 1379.92 518.445 1379.71 518.468Z" fill="white" fill-opacity="0.7"/>
<path opacity="0.11" d="M1291.09 543.274C1290.88 543.296 1290.73 543.484 1290.75 543.693C1290.77 543.902 1290.96 544.054 1291.17 544.031C1291.38 544.009 1291.53 543.821 1291.51 543.612C1291.48 543.402 1291.3 543.251 1291.09 543.274Z" fill="white" fill-opacity="0.7"/>
<path opacity="0.11" d="M1243.47 520.734C1243.26 520.757 1243.11 520.944 1243.13 521.154C1243.15 521.363 1243.34 521.515 1243.55 521.493C1243.76 521.47 1243.91 521.282 1243.89 521.073C1243.87 520.863 1243.68 520.712 1243.47 520.734Z" fill="white" fill-opacity="0.7"/>
<path opacity="0.11" d="M1171.08 532.296C1170.87 532.319 1170.72 532.506 1170.74 532.715C1170.76 532.925 1170.95 533.076 1171.16 533.054C1171.37 533.032 1171.52 532.844 1171.5 532.634C1171.48 532.425 1171.29 532.274 1171.08 532.296Z" fill="white" fill-opacity="0.7"/>
<path opacity="0.3" d="M1354.96 541.826C1354.75 541.848 1354.59 542.036 1354.62 542.245C1354.64 542.455 1354.83 542.607 1355.04 542.584C1355.25 542.562 1355.4 542.374 1355.38 542.165C1355.35 541.955 1355.17 541.804 1354.96 541.826Z" fill="white" fill-opacity="0.7"/>
<path d="M1269.93 571.616C1269.72 571.639 1269.57 571.826 1269.59 572.036C1269.61 572.245 1269.8 572.397 1270.01 572.375C1270.22 572.352 1270.37 572.164 1270.35 571.955C1270.32 571.745 1270.14 571.594 1269.93 571.616Z" fill="white" fill-opacity="0.7"/>
<path d="M1211.63 578.604C1211.42 578.627 1211.26 578.814 1211.29 579.024C1211.31 579.233 1211.5 579.385 1211.71 579.363C1211.92 579.34 1212.07 579.152 1212.04 578.943C1212.02 578.734 1211.83 578.582 1211.63 578.604Z" fill="white" fill-opacity="0.7"/>
<path d="M1292.02 533.965C1291.81 533.987 1291.66 534.175 1291.68 534.385C1291.7 534.594 1291.89 534.746 1292.1 534.723C1292.31 534.701 1292.46 534.513 1292.44 534.304C1292.42 534.094 1292.23 533.942 1292.02 533.965Z" fill="white" fill-opacity="0.7"/>
<path opacity="0.3" d="M1318.56 531.133C1318.35 531.155 1318.2 531.343 1318.22 531.552C1318.24 531.762 1318.43 531.913 1318.64 531.891C1318.85 531.869 1319 531.681 1318.98 531.472C1318.95 531.262 1318.77 531.11 1318.56 531.133Z" fill="white" fill-opacity="0.7"/>
<path opacity="0.11" d="M1352.12 551.334C1351.91 551.356 1351.76 551.544 1351.78 551.754C1351.81 551.963 1351.99 552.114 1352.2 552.092C1352.41 552.07 1352.56 551.882 1352.54 551.672C1352.52 551.463 1352.33 551.311 1352.12 551.334Z" fill="white" fill-opacity="0.7"/>
<path opacity="0.3" d="M1262.14 563.239C1261.93 563.261 1261.78 563.449 1261.8 563.659C1261.82 563.868 1262.01 564.02 1262.22 563.998C1262.43 563.975 1262.58 563.787 1262.56 563.578C1262.53 563.368 1262.35 563.217 1262.14 563.239Z" fill="white" fill-opacity="0.7"/>
<path opacity="0.3" d="M1284.81 527.445C1284.6 527.467 1284.45 527.655 1284.47 527.865C1284.49 528.074 1284.68 528.226 1284.89 528.203C1285.1 528.181 1285.25 527.994 1285.23 527.784C1285.21 527.575 1285.02 527.422 1284.81 527.445Z" fill="white" fill-opacity="0.7"/>
<path opacity="0.3" d="M1330.29 518.756C1330.08 518.779 1329.92 518.966 1329.95 519.176C1329.97 519.385 1330.16 519.538 1330.37 519.515C1330.57 519.493 1330.73 519.305 1330.7 519.095C1330.68 518.886 1330.49 518.734 1330.29 518.756Z" fill="white" fill-opacity="0.7"/>
<path opacity="0.3" d="M1343.96 542.997C1343.75 543.019 1343.6 543.207 1343.62 543.417C1343.64 543.626 1343.83 543.778 1344.04 543.755C1344.25 543.733 1344.4 543.545 1344.38 543.336C1344.36 543.126 1344.17 542.974 1343.96 542.997Z" fill="white" fill-opacity="0.7"/>
<path opacity="0.3" d="M1108.28 569.302C1108.07 569.325 1107.92 569.513 1107.95 569.722C1107.97 569.932 1108.15 570.083 1108.36 570.061C1108.57 570.038 1108.73 569.851 1108.7 569.641C1108.68 569.432 1108.49 569.28 1108.28 569.302Z" fill="white" fill-opacity="0.7"/>
<path opacity="0.11" d="M1170.96 578.342C1170.75 578.364 1170.6 578.552 1170.62 578.761C1170.64 578.971 1170.83 579.122 1171.04 579.1C1171.25 579.078 1171.4 578.89 1171.38 578.68C1171.36 578.471 1171.17 578.319 1170.96 578.342Z" fill="white" fill-opacity="0.7"/>
<path opacity="0.11" d="M1116.8 551.9C1116.59 551.923 1116.44 552.11 1116.46 552.32C1116.48 552.529 1116.67 552.681 1116.88 552.659C1117.09 552.636 1117.24 552.448 1117.22 552.239C1117.19 552.03 1117.01 551.878 1116.8 551.9Z" fill="white" fill-opacity="0.7"/>
<path opacity="0.3" d="M1212.35 538.248C1211.93 538.293 1211.63 538.669 1211.67 539.088C1211.72 539.507 1212.09 539.811 1212.51 539.766C1212.93 539.722 1213.23 539.345 1213.19 538.927C1213.14 538.507 1212.77 538.204 1212.35 538.248Z" fill="white" fill-opacity="0.7"/>
<path opacity="0.11" d="M1191.18 552.014C1190.76 552.06 1190.46 552.435 1190.5 552.855C1190.55 553.274 1190.92 553.577 1191.34 553.533C1191.76 553.488 1192.06 553.112 1192.02 552.693C1191.98 552.273 1191.6 551.97 1191.18 552.014Z" fill="white" fill-opacity="0.7"/>
<path d="M1192.77 565.271C1192.46 565.304 1192.23 565.586 1192.26 565.901C1192.3 566.215 1192.58 566.442 1192.89 566.409C1193.21 566.376 1193.43 566.094 1193.4 565.779C1193.37 565.465 1193.09 565.238 1192.77 565.271Z" fill="white" fill-opacity="0.7"/>
<path d="M1214.72 522.649C1214.41 522.682 1214.18 522.965 1214.21 523.279C1214.25 523.593 1214.53 523.821 1214.84 523.787C1215.16 523.754 1215.39 523.472 1215.35 523.157C1215.32 522.843 1215.04 522.616 1214.72 522.649Z" fill="white" fill-opacity="0.7"/>
<path d="M1088.06 528.495C1087.75 528.529 1087.52 528.811 1087.55 529.125C1087.59 529.44 1087.87 529.667 1088.18 529.634C1088.5 529.6 1088.73 529.318 1088.69 529.004C1088.66 528.69 1088.38 528.462 1088.06 528.495Z" fill="white" fill-opacity="0.7"/>
<path d="M1334.78 508.687C1334.47 508.72 1334.24 509.003 1334.27 509.317C1334.31 509.631 1334.59 509.858 1334.9 509.825C1335.22 509.791 1335.44 509.51 1335.41 509.196C1335.38 508.881 1335.1 508.653 1334.78 508.687Z" fill="white" fill-opacity="0.7"/>
<path d="M1386.12 512.03C1385.8 512.063 1385.58 512.345 1385.61 512.659C1385.64 512.973 1385.92 513.201 1386.24 513.168C1386.55 513.134 1386.78 512.852 1386.75 512.538C1386.71 512.224 1386.43 511.996 1386.12 512.03Z" fill="white" fill-opacity="0.7"/>
<path d="M1394.17 526.515C1393.85 526.549 1393.62 526.831 1393.66 527.145C1393.69 527.459 1393.97 527.687 1394.29 527.653C1394.6 527.62 1394.83 527.338 1394.8 527.024C1394.76 526.709 1394.48 526.482 1394.17 526.515Z" fill="white" fill-opacity="0.7"/>
<path d="M1210.17 555.74C1209.85 555.774 1209.62 556.056 1209.66 556.371C1209.69 556.685 1209.97 556.912 1210.29 556.879C1210.6 556.846 1210.83 556.564 1210.8 556.249C1210.76 555.935 1210.48 555.707 1210.17 555.74Z" fill="white" fill-opacity="0.7"/>
<path d="M1273.17 520.631C1272.85 520.665 1272.62 520.947 1272.66 521.261C1272.69 521.575 1272.97 521.803 1273.29 521.769C1273.6 521.736 1273.83 521.454 1273.8 521.14C1273.76 520.826 1273.48 520.598 1273.17 520.631Z" fill="white" fill-opacity="0.7"/>
<path d="M1175.91 514.515C1175.6 514.549 1175.37 514.831 1175.4 515.145C1175.44 515.459 1175.72 515.687 1176.03 515.653C1176.35 515.62 1176.57 515.338 1176.54 515.024C1176.51 514.709 1176.23 514.482 1175.91 514.515Z" fill="white" fill-opacity="0.7"/>
<path d="M1078.18 551.033C1077.86 551.066 1077.63 551.348 1077.67 551.663C1077.7 551.977 1077.98 552.204 1078.3 552.171C1078.61 552.137 1078.84 551.855 1078.8 551.541C1078.77 551.227 1078.49 550.999 1078.18 551.033Z" fill="white" fill-opacity="0.7"/>
<path d="M1071.28 572.867C1070.96 572.9 1070.74 573.182 1070.77 573.496C1070.8 573.811 1071.08 574.038 1071.4 574.005C1071.71 573.971 1071.94 573.689 1071.91 573.375C1071.87 573.061 1071.59 572.833 1071.28 572.867Z" fill="white" fill-opacity="0.7"/>
<path opacity="0.3" d="M1161.46 568.231C1161.04 568.276 1160.74 568.652 1160.78 569.071C1160.83 569.491 1161.2 569.794 1161.62 569.75C1162.04 569.705 1162.34 569.329 1162.3 568.91C1162.25 568.49 1161.88 568.187 1161.46 568.231Z" fill="white" fill-opacity="0.7"/>
<path d="M1164.3 595.162C1163.88 595.207 1163.58 595.583 1163.62 596.002C1163.67 596.421 1164.04 596.725 1164.46 596.68C1164.88 596.635 1165.19 596.259 1165.14 595.84C1165.1 595.421 1164.72 595.118 1164.3 595.162Z" fill="white" fill-opacity="0.7"/>
<path d="M1141.05 561.967C1140.74 562.001 1140.51 562.283 1140.54 562.597C1140.58 562.911 1140.86 563.139 1141.17 563.105C1141.48 563.072 1141.71 562.79 1141.68 562.476C1141.65 562.161 1141.36 561.934 1141.05 561.967Z" fill="white" fill-opacity="0.7"/>
<path opacity="0.3" d="M1124.23 578.724C1123.81 578.768 1123.5 579.144 1123.55 579.563C1123.59 579.983 1123.97 580.286 1124.39 580.242C1124.81 580.197 1125.11 579.821 1125.06 579.402C1125.02 578.982 1124.65 578.679 1124.23 578.724Z" fill="white" fill-opacity="0.7"/>
<path opacity="0.3" d="M1083.85 555.796C1083.43 555.841 1083.13 556.217 1083.17 556.636C1083.22 557.055 1083.59 557.359 1084.01 557.314C1084.43 557.269 1084.73 556.893 1084.69 556.474C1084.65 556.055 1084.27 555.751 1083.85 555.796Z" fill="white" fill-opacity="0.7"/>
<path opacity="0.3" d="M1128.13 550.305C1127.71 550.349 1127.4 550.725 1127.45 551.145C1127.49 551.564 1127.87 551.867 1128.29 551.823C1128.71 551.778 1129.01 551.402 1128.97 550.983C1128.92 550.564 1128.55 550.26 1128.13 550.305Z" fill="white" fill-opacity="0.7"/>
<path opacity="0.3" d="M1345.05 520.632C1344.63 520.678 1344.33 521.053 1344.37 521.473C1344.41 521.892 1344.79 522.195 1345.21 522.151C1345.63 522.106 1345.93 521.73 1345.89 521.311C1345.84 520.892 1345.47 520.588 1345.05 520.632Z" fill="white" fill-opacity="0.7"/>
<path opacity="0.3" d="M1377.96 538.22C1377.54 538.265 1377.24 538.64 1377.28 539.06C1377.33 539.479 1377.7 539.782 1378.12 539.738C1378.54 539.693 1378.85 539.317 1378.8 538.898C1378.76 538.478 1378.38 538.175 1377.96 538.22Z" fill="white" fill-opacity="0.7"/>
<path opacity="0.11" d="M1100.6 565.518C1100.18 565.562 1099.87 565.938 1099.92 566.357C1099.96 566.777 1100.34 567.08 1100.76 567.036C1101.18 566.991 1101.48 566.615 1101.43 566.196C1101.39 565.776 1101.02 565.473 1100.6 565.518Z" fill="white" fill-opacity="0.7"/>
<path opacity="0.3" d="M1325.11 556.902C1324.69 556.947 1324.39 557.323 1324.43 557.742C1324.48 558.161 1324.85 558.465 1325.27 558.421C1325.69 558.375 1325.99 558 1325.95 557.58C1325.91 557.161 1325.53 556.858 1325.11 556.902Z" fill="white" fill-opacity="0.7"/>
<path opacity="0.11" d="M1336.15 563.396C1335.73 563.441 1335.43 563.817 1335.47 564.236C1335.51 564.656 1335.89 564.959 1336.31 564.914C1336.73 564.87 1337.03 564.493 1336.99 564.075C1336.94 563.655 1336.57 563.352 1336.15 563.396Z" fill="white" fill-opacity="0.7"/>
<path opacity="0.3" d="M1336.62 538.795C1336.2 538.839 1335.89 539.216 1335.94 539.635C1335.98 540.054 1336.36 540.358 1336.78 540.313C1337.19 540.268 1337.5 539.892 1337.45 539.473C1337.41 539.054 1337.03 538.75 1336.62 538.795Z" fill="white" fill-opacity="0.7"/>
<path d="M1312.97 541.703C1312.65 541.737 1312.42 542.019 1312.46 542.333C1312.49 542.648 1312.77 542.875 1313.09 542.842C1313.4 542.808 1313.63 542.526 1313.59 542.212C1313.56 541.897 1313.28 541.67 1312.97 541.703Z" fill="white" fill-opacity="0.7"/>
</g>
<defs>
<clipPath id="clip0_30_2">
<rect width="1535" height="666" fill="white"/>
</clipPath>
</defs>
</svg>
