<svg width="158" height="136" viewBox="0 0 158 136" fill="none" xmlns="http://www.w3.org/2000/svg">
<path d="M14.2754 74.0089C14.6246 73.6269 14.6246 73.0415 14.2754 72.6595L8.53524 66.3802C7.89029 65.6747 8.39081 64.5391 9.34667 64.5391H22.4476C23.4035 64.5391 23.904 65.6747 23.2591 66.3802L17.5189 72.6595C17.1697 73.0415 17.1697 73.6269 17.5189 74.0089L23.2591 80.2882C23.904 80.9937 23.4035 82.1294 22.4476 82.1294H9.34667C8.39081 82.1294 7.89029 80.9937 8.53524 80.2882L14.2754 74.0089Z" fill="url(#paint0_linear_5669_4377)"/>
<path d="M139.488 11.9468C138.053 11.4405 138.053 8.97215 139.488 8.46583C143.253 7.13835 145.137 5.25366 146.465 1.48942C146.971 0.0536871 149.439 0.0536892 149.946 1.48942C151.273 5.25366 153.158 7.13835 156.922 8.46584C158.358 8.97215 158.358 11.4405 156.922 11.9468C153.158 13.2743 151.273 15.159 149.946 18.9232C149.439 20.3589 146.971 20.3589 146.465 18.9232C145.137 15.159 143.253 13.2743 139.488 11.9468Z" fill="url(#paint1_linear_5669_4377)"/>
<path d="M14.8409 136C14.8409 127.41 16.5329 118.904 19.8202 110.967C23.1076 103.031 27.926 95.8195 34.0002 89.7453C40.0745 83.671 47.2857 78.8527 55.2221 75.5653C63.1585 72.2779 71.6646 70.586 80.2549 70.586C88.8452 70.586 97.3514 72.2779 105.288 75.5653C113.224 78.8527 120.435 83.671 126.51 89.7453C132.584 95.8195 137.402 103.031 140.69 110.967C143.977 118.904 145.669 127.41 145.669 136L14.8409 136Z" fill="url(#paint2_linear_5669_4377)"/>
<path d="M31.8825 19.4642C31.8825 28.2683 24.7453 35.4054 15.9412 35.4054C7.13713 35.4054 0 28.2683 0 19.4642C0 10.6601 7.13713 3.52295 15.9412 3.52295C24.7453 3.52295 31.8825 10.6601 31.8825 19.4642ZM7.33837 19.4642C7.33837 24.2154 11.19 28.0671 15.9412 28.0671C20.6925 28.0671 24.5441 24.2154 24.5441 19.4642C24.5441 14.713 20.6925 10.8613 15.9412 10.8613C11.19 10.8613 7.33837 14.713 7.33837 19.4642Z" fill="url(#paint3_radial_5669_4377)"/>
<path fill-rule="evenodd" clip-rule="evenodd" d="M86.3008 76.0828C93.1064 76.0828 98.8422 71.5022 100.593 65.2558C102.344 71.5022 108.08 76.0828 114.886 76.0828C123.083 76.0828 129.728 69.4379 129.728 61.241C129.728 54.4358 125.147 48.7003 118.902 46.9489C125.147 45.1975 129.728 39.462 129.728 32.6568C129.728 24.4599 123.083 17.8149 114.886 17.8149C108.08 17.8149 102.344 22.3956 100.593 28.6419C98.8422 22.3956 93.1064 17.8149 86.3008 17.8149C78.1039 17.8149 71.459 24.4599 71.459 32.6568C71.459 39.462 76.039 45.1975 82.2848 46.9489C76.039 48.7003 71.459 54.4358 71.459 61.241C71.459 69.4379 78.1039 76.0828 86.3008 76.0828Z" fill="url(#paint4_radial_5669_4377)"/>
<defs>
<linearGradient id="paint0_linear_5669_4377" x1="20.8882" y1="74.1588" x2="8.24512" y2="81.03" gradientUnits="userSpaceOnUse">
<stop stop-color="#FF7F44"/>
<stop offset="1" stop-color="white"/>
</linearGradient>
<linearGradient id="paint1_linear_5669_4377" x1="139.054" y1="19.555" x2="158.098" y2="0.510747" gradientUnits="userSpaceOnUse">
<stop stop-color="#A56EFE"/>
<stop offset="1" stop-color="#FFB79A"/>
</linearGradient>
<linearGradient id="paint2_linear_5669_4377" x1="135.795" y1="75.5229" x2="91.6098" y2="163.894" gradientUnits="userSpaceOnUse">
<stop stop-color="#E0CDFE"/>
<stop offset="1" stop-color="#7B2CFF"/>
</linearGradient>
<radialGradient id="paint3_radial_5669_4377" cx="0" cy="0" r="1" gradientUnits="userSpaceOnUse" gradientTransform="translate(22.1034 3.52295) rotate(123.473) scale(29.3889 30.2821)">
<stop stop-color="#FFE8D4"/>
<stop offset="0.331" stop-color="#904DFF"/>
<stop offset="1" stop-color="#FF9D4D"/>
</radialGradient>
<radialGradient id="paint4_radial_5669_4377" cx="0" cy="0" r="1" gradientUnits="userSpaceOnUse" gradientTransform="translate(111.855 17.8149) rotate(123.473) scale(53.7108 55.3435)">
<stop stop-color="#B0F4A4"/>
<stop offset="0.548901" stop-color="#1FE34C"/>
<stop offset="1" stop-color="#00AEAD"/>
</radialGradient>
</defs>
</svg>
