<svg width="263" height="62" viewBox="0 0 263 62" fill="none" xmlns="http://www.w3.org/2000/svg">
<rect x="29" y="30" width="234" height="32" rx="4" fill="#FFAB54"/>
<path d="M46.8225 52.5V50.556L46.6965 50.142V46.74C46.6965 46.08 46.4985 45.57 46.1025 45.21C45.7065 44.838 45.1065 44.652 44.3025 44.652C43.7625 44.652 43.2285 44.736 42.7005 44.904C42.1845 45.072 41.7465 45.306 41.3865 45.606L40.5045 43.968C41.0205 43.572 41.6325 43.278 42.3405 43.086C43.0605 42.882 43.8045 42.78 44.5725 42.78C45.9645 42.78 47.0385 43.116 47.7945 43.788C48.5625 44.448 48.9465 45.474 48.9465 46.866V52.5H46.8225ZM43.7985 52.626C43.0785 52.626 42.4485 52.506 41.9085 52.266C41.3685 52.014 40.9485 51.672 40.6485 51.24C40.3605 50.796 40.2165 50.298 40.2165 49.746C40.2165 49.206 40.3425 48.72 40.5945 48.288C40.8585 47.856 41.2845 47.514 41.8725 47.262C42.4605 47.01 43.2405 46.884 44.2125 46.884H47.0025V48.378H44.3745C43.6065 48.378 43.0905 48.504 42.8265 48.756C42.5625 48.996 42.4305 49.296 42.4305 49.656C42.4305 50.064 42.5925 50.388 42.9165 50.628C43.2405 50.868 43.6905 50.988 44.2665 50.988C44.8185 50.988 45.3105 50.862 45.7425 50.61C46.1865 50.358 46.5045 49.986 46.6965 49.494L47.0745 50.844C46.8585 51.408 46.4685 51.846 45.9045 52.158C45.3525 52.47 44.6505 52.626 43.7985 52.626ZM56.9281 42.78C57.6961 42.78 58.3801 42.93 58.9801 43.23C59.5921 43.53 60.0721 43.992 60.4201 44.616C60.7681 45.228 60.9421 46.02 60.9421 46.992V52.5H58.6921V47.28C58.6921 46.428 58.4881 45.792 58.0801 45.372C57.6841 44.952 57.1261 44.742 56.4061 44.742C55.8781 44.742 55.4101 44.85 55.0021 45.066C54.5941 45.282 54.2761 45.606 54.0481 46.038C53.8321 46.458 53.7241 46.992 53.7241 47.64V52.5H51.4741V42.888H53.6161V45.48L53.2381 44.688C53.5741 44.076 54.0601 43.608 54.6961 43.284C55.3441 42.948 56.0881 42.78 56.9281 42.78ZM67.522 52.626C66.598 52.626 65.764 52.422 65.02 52.014C64.288 51.594 63.712 51.018 63.292 50.286C62.872 49.554 62.662 48.69 62.662 47.694C62.662 46.698 62.872 45.834 63.292 45.102C63.712 44.37 64.288 43.8 65.02 43.392C65.764 42.984 66.598 42.78 67.522 42.78C68.326 42.78 69.046 42.96 69.682 43.32C70.318 43.668 70.822 44.202 71.194 44.922C71.566 45.642 71.752 46.566 71.752 47.694C71.752 48.81 71.572 49.734 71.212 50.466C70.852 51.186 70.354 51.726 69.718 52.086C69.082 52.446 68.35 52.626 67.522 52.626ZM67.792 50.7C68.332 50.7 68.812 50.58 69.232 50.34C69.664 50.1 70.006 49.752 70.258 49.296C70.522 48.84 70.654 48.306 70.654 47.694C70.654 47.07 70.522 46.536 70.258 46.092C70.006 45.636 69.664 45.288 69.232 45.048C68.812 44.808 68.332 44.688 67.792 44.688C67.252 44.688 66.766 44.808 66.334 45.048C65.914 45.288 65.572 45.636 65.308 46.092C65.056 46.536 64.93 47.07 64.93 47.694C64.93 48.306 65.056 48.84 65.308 49.296C65.572 49.752 65.914 50.1 66.334 50.34C66.766 50.58 67.252 50.7 67.792 50.7ZM70.708 52.5V50.232L70.798 47.676L70.618 45.12V39.144H72.85V52.5H70.708ZM84.476 52.626C83.468 52.626 82.568 52.416 81.776 51.996C80.996 51.564 80.384 50.976 79.94 50.232C79.496 49.488 79.274 48.642 79.274 47.694C79.274 46.734 79.496 45.888 79.94 45.156C80.384 44.412 80.996 43.83 81.776 43.41C82.568 42.99 83.468 42.78 84.476 42.78C85.412 42.78 86.234 42.972 86.942 43.356C87.662 43.728 88.208 44.28 88.58 45.012L86.852 46.02C86.564 45.564 86.21 45.228 85.79 45.012C85.382 44.796 84.938 44.688 84.458 44.688C83.906 44.688 83.408 44.808 82.964 45.048C82.52 45.288 82.172 45.636 81.92 46.092C81.668 46.536 81.542 47.07 81.542 47.694C81.542 48.318 81.668 48.858 81.92 49.314C82.172 49.758 82.52 50.1 82.964 50.34C83.408 50.58 83.906 50.7 84.458 50.7C84.938 50.7 85.382 50.592 85.79 50.376C86.21 50.16 86.564 49.824 86.852 49.368L88.58 50.376C88.208 51.096 87.662 51.654 86.942 52.05C86.234 52.434 85.412 52.626 84.476 52.626ZM94.3444 52.626C93.3604 52.626 92.4844 52.416 91.7164 51.996C90.9484 51.564 90.3424 50.976 89.8984 50.232C89.4544 49.488 89.2324 48.642 89.2324 47.694C89.2324 46.734 89.4544 45.888 89.8984 45.156C90.3424 44.412 90.9484 43.83 91.7164 43.41C92.4844 42.99 93.3604 42.78 94.3444 42.78C95.3404 42.78 96.2224 42.99 96.9904 43.41C97.7704 43.83 98.3764 44.406 98.8084 45.138C99.2524 45.87 99.4744 46.722 99.4744 47.694C99.4744 48.642 99.2524 49.488 98.8084 50.232C98.3764 50.976 97.7704 51.564 96.9904 51.996C96.2224 52.416 95.3404 52.626 94.3444 52.626ZM94.3444 50.7C94.8964 50.7 95.3884 50.58 95.8204 50.34C96.2524 50.1 96.5884 49.752 96.8284 49.296C97.0804 48.84 97.2064 48.306 97.2064 47.694C97.2064 47.07 97.0804 46.536 96.8284 46.092C96.5884 45.636 96.2524 45.288 95.8204 45.048C95.3884 44.808 94.9024 44.688 94.3624 44.688C93.8104 44.688 93.3184 44.808 92.8864 45.048C92.4664 45.288 92.1304 45.636 91.8784 46.092C91.6264 46.536 91.5004 47.07 91.5004 47.694C91.5004 48.306 91.6264 48.84 91.8784 49.296C92.1304 49.752 92.4664 50.1 92.8864 50.34C93.3184 50.58 93.8044 50.7 94.3444 50.7ZM106.72 42.78C107.488 42.78 108.172 42.93 108.772 43.23C109.384 43.53 109.864 43.992 110.212 44.616C110.56 45.228 110.734 46.02 110.734 46.992V52.5H108.484V47.28C108.484 46.428 108.28 45.792 107.872 45.372C107.476 44.952 106.918 44.742 106.198 44.742C105.67 44.742 105.202 44.85 104.794 45.066C104.386 45.282 104.068 45.606 103.84 46.038C103.624 46.458 103.516 46.992 103.516 47.64V52.5H101.266V42.888H103.408V45.48L103.03 44.688C103.366 44.076 103.852 43.608 104.488 43.284C105.136 42.948 105.88 42.78 106.72 42.78ZM118.682 42.78C119.45 42.78 120.134 42.93 120.734 43.23C121.346 43.53 121.826 43.992 122.174 44.616C122.522 45.228 122.696 46.02 122.696 46.992V52.5H120.446V47.28C120.446 46.428 120.242 45.792 119.834 45.372C119.438 44.952 118.88 44.742 118.16 44.742C117.632 44.742 117.164 44.85 116.756 45.066C116.348 45.282 116.03 45.606 115.802 46.038C115.586 46.458 115.478 46.992 115.478 47.64V52.5H113.228V42.888H115.37V45.48L114.992 44.688C115.328 44.076 115.814 43.608 116.45 43.284C117.098 42.948 117.842 42.78 118.682 42.78ZM129.726 52.626C128.658 52.626 127.722 52.416 126.918 51.996C126.126 51.564 125.508 50.976 125.064 50.232C124.632 49.488 124.416 48.642 124.416 47.694C124.416 46.734 124.626 45.888 125.046 45.156C125.478 44.412 126.066 43.83 126.81 43.41C127.566 42.99 128.424 42.78 129.384 42.78C130.32 42.78 131.154 42.984 131.886 43.392C132.618 43.8 133.194 44.376 133.614 45.12C134.034 45.864 134.244 46.74 134.244 47.748C134.244 47.844 134.238 47.952 134.226 48.072C134.226 48.192 134.22 48.306 134.208 48.414H126.198V46.92H133.02L132.138 47.388C132.15 46.836 132.036 46.35 131.796 45.93C131.556 45.51 131.226 45.18 130.806 44.94C130.398 44.7 129.924 44.58 129.384 44.58C128.832 44.58 128.346 44.7 127.926 44.94C127.518 45.18 127.194 45.516 126.954 45.948C126.726 46.368 126.612 46.866 126.612 47.442V47.802C126.612 48.378 126.744 48.888 127.008 49.332C127.272 49.776 127.644 50.118 128.124 50.358C128.604 50.598 129.156 50.718 129.78 50.718C130.32 50.718 130.806 50.634 131.238 50.466C131.67 50.298 132.054 50.034 132.39 49.674L133.596 51.06C133.164 51.564 132.618 51.954 131.958 52.23C131.31 52.494 130.566 52.626 129.726 52.626ZM140.455 52.626C139.447 52.626 138.547 52.416 137.755 51.996C136.975 51.564 136.363 50.976 135.919 50.232C135.475 49.488 135.253 48.642 135.253 47.694C135.253 46.734 135.475 45.888 135.919 45.156C136.363 44.412 136.975 43.83 137.755 43.41C138.547 42.99 139.447 42.78 140.455 42.78C141.391 42.78 142.213 42.972 142.921 43.356C143.641 43.728 144.187 44.28 144.559 45.012L142.831 46.02C142.543 45.564 142.189 45.228 141.769 45.012C141.361 44.796 140.917 44.688 140.437 44.688C139.885 44.688 139.387 44.808 138.943 45.048C138.499 45.288 138.151 45.636 137.899 46.092C137.647 46.536 137.521 47.07 137.521 47.694C137.521 48.318 137.647 48.858 137.899 49.314C138.151 49.758 138.499 50.1 138.943 50.34C139.387 50.58 139.885 50.7 140.437 50.7C140.917 50.7 141.361 50.592 141.769 50.376C142.189 50.16 142.543 49.824 142.831 49.368L144.559 50.376C144.187 51.096 143.641 51.654 142.921 52.05C142.213 52.434 141.391 52.626 140.455 52.626ZM149.885 52.626C148.829 52.626 148.013 52.356 147.437 51.816C146.861 51.264 146.573 50.454 146.573 49.386V40.764H148.823V49.332C148.823 49.788 148.937 50.142 149.165 50.394C149.405 50.646 149.735 50.772 150.155 50.772C150.659 50.772 151.079 50.64 151.415 50.376L152.045 51.978C151.781 52.194 151.457 52.356 151.073 52.464C150.689 52.572 150.293 52.626 149.885 52.626ZM144.989 44.76V42.96H151.397V44.76H144.989ZM162.471 52.626C161.487 52.626 160.611 52.416 159.843 51.996C159.075 51.564 158.469 50.976 158.025 50.232C157.581 49.488 157.359 48.642 157.359 47.694C157.359 46.734 157.581 45.888 158.025 45.156C158.469 44.412 159.075 43.83 159.843 43.41C160.611 42.99 161.487 42.78 162.471 42.78C163.467 42.78 164.349 42.99 165.117 43.41C165.897 43.83 166.503 44.406 166.935 45.138C167.379 45.87 167.601 46.722 167.601 47.694C167.601 48.642 167.379 49.488 166.935 50.232C166.503 50.976 165.897 51.564 165.117 51.996C164.349 52.416 163.467 52.626 162.471 52.626ZM162.471 50.7C163.023 50.7 163.515 50.58 163.947 50.34C164.379 50.1 164.715 49.752 164.955 49.296C165.207 48.84 165.333 48.306 165.333 47.694C165.333 47.07 165.207 46.536 164.955 46.092C164.715 45.636 164.379 45.288 163.947 45.048C163.515 44.808 163.029 44.688 162.489 44.688C161.937 44.688 161.445 44.808 161.013 45.048C160.593 45.288 160.257 45.636 160.005 46.092C159.753 46.536 159.627 47.07 159.627 47.694C159.627 48.306 159.753 48.84 160.005 49.296C160.257 49.752 160.593 50.1 161.013 50.34C161.445 50.58 161.931 50.7 162.471 50.7ZM174.846 42.78C175.614 42.78 176.298 42.93 176.898 43.23C177.51 43.53 177.99 43.992 178.338 44.616C178.686 45.228 178.86 46.02 178.86 46.992V52.5H176.61V47.28C176.61 46.428 176.406 45.792 175.998 45.372C175.602 44.952 175.044 44.742 174.324 44.742C173.796 44.742 173.328 44.85 172.92 45.066C172.512 45.282 172.194 45.606 171.966 46.038C171.75 46.458 171.642 46.992 171.642 47.64V52.5H169.392V42.888H171.534V45.48L171.156 44.688C171.492 44.076 171.978 43.608 172.614 43.284C173.262 42.948 174.006 42.78 174.846 42.78ZM185.89 52.626C184.822 52.626 183.886 52.416 183.082 51.996C182.29 51.564 181.672 50.976 181.228 50.232C180.796 49.488 180.58 48.642 180.58 47.694C180.58 46.734 180.79 45.888 181.21 45.156C181.642 44.412 182.23 43.83 182.974 43.41C183.73 42.99 184.588 42.78 185.548 42.78C186.484 42.78 187.318 42.984 188.05 43.392C188.782 43.8 189.358 44.376 189.778 45.12C190.198 45.864 190.408 46.74 190.408 47.748C190.408 47.844 190.402 47.952 190.39 48.072C190.39 48.192 190.384 48.306 190.372 48.414H182.362V46.92H189.184L188.302 47.388C188.314 46.836 188.2 46.35 187.96 45.93C187.72 45.51 187.39 45.18 186.97 44.94C186.562 44.7 186.088 44.58 185.548 44.58C184.996 44.58 184.51 44.7 184.09 44.94C183.682 45.18 183.358 45.516 183.118 45.948C182.89 46.368 182.776 46.866 182.776 47.442V47.802C182.776 48.378 182.908 48.888 183.172 49.332C183.436 49.776 183.808 50.118 184.288 50.358C184.768 50.598 185.32 50.718 185.944 50.718C186.484 50.718 186.97 50.634 187.402 50.466C187.834 50.298 188.218 50.034 188.554 49.674L189.76 51.06C189.328 51.564 188.782 51.954 188.122 52.23C187.474 52.494 186.73 52.626 185.89 52.626ZM200.442 52.626C199.386 52.626 198.57 52.356 197.994 51.816C197.418 51.264 197.13 50.454 197.13 49.386V40.764H199.38V49.332C199.38 49.788 199.494 50.142 199.722 50.394C199.962 50.646 200.292 50.772 200.712 50.772C201.216 50.772 201.636 50.64 201.972 50.376L202.602 51.978C202.338 52.194 202.014 52.356 201.63 52.464C201.246 52.572 200.85 52.626 200.442 52.626ZM195.546 44.76V42.96H201.954V44.76H195.546ZM208.097 52.626C207.113 52.626 206.237 52.416 205.469 51.996C204.701 51.564 204.095 50.976 203.651 50.232C203.207 49.488 202.985 48.642 202.985 47.694C202.985 46.734 203.207 45.888 203.651 45.156C204.095 44.412 204.701 43.83 205.469 43.41C206.237 42.99 207.113 42.78 208.097 42.78C209.093 42.78 209.975 42.99 210.743 43.41C211.523 43.83 212.129 44.406 212.561 45.138C213.005 45.87 213.227 46.722 213.227 47.694C213.227 48.642 213.005 49.488 212.561 50.232C212.129 50.976 211.523 51.564 210.743 51.996C209.975 52.416 209.093 52.626 208.097 52.626ZM208.097 50.7C208.649 50.7 209.141 50.58 209.573 50.34C210.005 50.1 210.341 49.752 210.581 49.296C210.833 48.84 210.959 48.306 210.959 47.694C210.959 47.07 210.833 46.536 210.581 46.092C210.341 45.636 210.005 45.288 209.573 45.048C209.141 44.808 208.655 44.688 208.115 44.688C207.563 44.688 207.071 44.808 206.639 45.048C206.219 45.288 205.883 45.636 205.631 46.092C205.379 46.536 205.253 47.07 205.253 47.694C205.253 48.306 205.379 48.84 205.631 49.296C205.883 49.752 206.219 50.1 206.639 50.34C207.071 50.58 207.557 50.7 208.097 50.7ZM223.953 52.626C222.969 52.626 222.093 52.416 221.325 51.996C220.557 51.564 219.951 50.976 219.507 50.232C219.063 49.488 218.841 48.642 218.841 47.694C218.841 46.734 219.063 45.888 219.507 45.156C219.951 44.412 220.557 43.83 221.325 43.41C222.093 42.99 222.969 42.78 223.953 42.78C224.949 42.78 225.831 42.99 226.599 43.41C227.379 43.83 227.985 44.406 228.417 45.138C228.861 45.87 229.083 46.722 229.083 47.694C229.083 48.642 228.861 49.488 228.417 50.232C227.985 50.976 227.379 51.564 226.599 51.996C225.831 52.416 224.949 52.626 223.953 52.626ZM223.953 50.7C224.505 50.7 224.997 50.58 225.429 50.34C225.861 50.1 226.197 49.752 226.437 49.296C226.689 48.84 226.815 48.306 226.815 47.694C226.815 47.07 226.689 46.536 226.437 46.092C226.197 45.636 225.861 45.288 225.429 45.048C224.997 44.808 224.511 44.688 223.971 44.688C223.419 44.688 222.927 44.808 222.495 45.048C222.075 45.288 221.739 45.636 221.487 46.092C221.235 46.536 221.109 47.07 221.109 47.694C221.109 48.306 221.235 48.84 221.487 49.296C221.739 49.752 222.075 50.1 222.495 50.34C222.927 50.58 223.413 50.7 223.953 50.7ZM236.328 42.78C237.096 42.78 237.78 42.93 238.38 43.23C238.992 43.53 239.472 43.992 239.82 44.616C240.168 45.228 240.342 46.02 240.342 46.992V52.5H238.092V47.28C238.092 46.428 237.888 45.792 237.48 45.372C237.084 44.952 236.526 44.742 235.806 44.742C235.278 44.742 234.81 44.85 234.402 45.066C233.994 45.282 233.676 45.606 233.448 46.038C233.232 46.458 233.124 46.992 233.124 47.64V52.5H230.874V42.888H233.016V45.48L232.638 44.688C232.974 44.076 233.46 43.608 234.096 43.284C234.744 42.948 235.488 42.78 236.328 42.78ZM247.372 52.626C246.304 52.626 245.368 52.416 244.564 51.996C243.772 51.564 243.154 50.976 242.71 50.232C242.278 49.488 242.062 48.642 242.062 47.694C242.062 46.734 242.272 45.888 242.692 45.156C243.124 44.412 243.712 43.83 244.456 43.41C245.212 42.99 246.07 42.78 247.03 42.78C247.966 42.78 248.8 42.984 249.532 43.392C250.264 43.8 250.84 44.376 251.26 45.12C251.68 45.864 251.89 46.74 251.89 47.748C251.89 47.844 251.884 47.952 251.872 48.072C251.872 48.192 251.866 48.306 251.854 48.414H243.844V46.92H250.666L249.784 47.388C249.796 46.836 249.682 46.35 249.442 45.93C249.202 45.51 248.872 45.18 248.452 44.94C248.044 44.7 247.57 44.58 247.03 44.58C246.478 44.58 245.992 44.7 245.572 44.94C245.164 45.18 244.84 45.516 244.6 45.948C244.372 46.368 244.258 46.866 244.258 47.442V47.802C244.258 48.378 244.39 48.888 244.654 49.332C244.918 49.776 245.29 50.118 245.77 50.358C246.25 50.598 246.802 50.718 247.426 50.718C247.966 50.718 248.452 50.634 248.884 50.466C249.316 50.298 249.7 50.034 250.036 49.674L251.242 51.06C250.81 51.564 250.264 51.954 249.604 52.23C248.956 52.494 248.212 52.626 247.372 52.626Z" fill="#141414"/>
<rect width="154" height="30" rx="4" fill="#CBABFF"/>
<path d="M11.8887 20.5V9.3H16.4967C17.4887 9.3 18.3367 9.46 19.0407 9.78C19.7554 10.1 20.3047 10.5587 20.6887 11.156C21.0727 11.7533 21.2647 12.4627 21.2647 13.284C21.2647 14.1053 21.0727 14.8147 20.6887 15.412C20.3047 15.9987 19.7554 16.452 19.0407 16.772C18.3367 17.0813 17.4887 17.236 16.4967 17.236H13.0407L13.9687 16.292V20.5H11.8887ZM19.2167 20.5L16.3847 16.436H18.6087L21.4567 20.5H19.2167ZM13.9687 16.516L13.0407 15.524H16.4007C17.318 15.524 18.006 15.3267 18.4647 14.932C18.934 14.5373 19.1687 13.988 19.1687 13.284C19.1687 12.5693 18.934 12.02 18.4647 11.636C18.006 11.252 17.318 11.06 16.4007 11.06H13.0407L13.9687 10.036V16.516ZM27.0958 20.612C26.1465 20.612 25.3145 20.4253 24.5998 20.052C23.8958 19.668 23.3465 19.1453 22.9518 18.484C22.5678 17.8227 22.3758 17.0707 22.3758 16.228C22.3758 15.3747 22.5625 14.6227 22.9358 13.972C23.3198 13.3107 23.8425 12.7933 24.5038 12.42C25.1758 12.0467 25.9385 11.86 26.7918 11.86C27.6238 11.86 28.3651 12.0413 29.0158 12.404C29.6665 12.7667 30.1785 13.2787 30.5518 13.94C30.9251 14.6013 31.1118 15.38 31.1118 16.276C31.1118 16.3613 31.1065 16.4573 31.0958 16.564C31.0958 16.6707 31.0905 16.772 31.0798 16.868H23.9598V15.54H30.0238L29.2398 15.956C29.2505 15.4653 29.1491 15.0333 28.9358 14.66C28.7225 14.2867 28.4291 13.9933 28.0558 13.78C27.6931 13.5667 27.2718 13.46 26.7918 13.46C26.3011 13.46 25.8691 13.5667 25.4958 13.78C25.1331 13.9933 24.8451 14.292 24.6318 14.676C24.4291 15.0493 24.3278 15.492 24.3278 16.004V16.324C24.3278 16.836 24.4451 17.2893 24.6798 17.684C24.9145 18.0787 25.2451 18.3827 25.6718 18.596C26.0985 18.8093 26.5891 18.916 27.1438 18.916C27.6238 18.916 28.0558 18.8413 28.4398 18.692C28.8238 18.5427 29.1651 18.308 29.4638 17.988L30.5358 19.22C30.1518 19.668 29.6665 20.0147 29.0798 20.26C28.5038 20.4947 27.8425 20.612 27.0958 20.612ZM36.3289 20.612C35.5076 20.612 34.7663 20.4307 34.1049 20.068C33.4543 19.7053 32.9423 19.1987 32.5689 18.548C32.1956 17.8867 32.0089 17.1133 32.0089 16.228C32.0089 15.3427 32.1956 14.5747 32.5689 13.924C32.9423 13.2733 33.4543 12.7667 34.1049 12.404C34.7663 12.0413 35.5076 11.86 36.3289 11.86C37.0649 11.86 37.7103 12.02 38.2649 12.34C38.8303 12.6493 39.2729 13.124 39.5929 13.764C39.9236 14.404 40.0889 15.2253 40.0889 16.228C40.0889 17.22 39.9183 18.0413 39.5769 18.692C39.2463 19.332 38.7983 19.812 38.2329 20.132C37.6676 20.452 37.0329 20.612 36.3289 20.612ZM36.5529 18.9C37.0329 18.9 37.4649 18.7933 37.8489 18.58C38.2329 18.3667 38.5369 18.0573 38.7609 17.652C38.9849 17.2467 39.0969 16.772 39.0969 16.228C39.0969 15.6733 38.9849 15.1987 38.7609 14.804C38.5369 14.3987 38.2329 14.0893 37.8489 13.876C37.4649 13.6627 37.0329 13.556 36.5529 13.556C36.0729 13.556 35.6409 13.6627 35.2569 13.876C34.8836 14.0893 34.5849 14.3987 34.3609 14.804C34.1369 15.1987 34.0249 15.6733 34.0249 16.228C34.0249 16.772 34.1369 17.2467 34.3609 17.652C34.5849 18.0573 34.8836 18.3667 35.2569 18.58C35.6409 18.7933 36.0729 18.9 36.5529 18.9ZM39.0649 23.604V18.516L39.2249 16.244L39.1609 13.972V11.956H41.0649V23.604H39.0649ZM46.9777 20.612C46.2524 20.612 45.6124 20.4787 45.0577 20.212C44.503 19.9347 44.071 19.5187 43.7617 18.964C43.4524 18.3987 43.2977 17.6893 43.2977 16.836V11.956H45.2977V16.564C45.2977 17.332 45.4684 17.908 45.8097 18.292C46.1617 18.6653 46.6577 18.852 47.2977 18.852C47.767 18.852 48.1724 18.756 48.5137 18.564C48.8657 18.372 49.1377 18.084 49.3297 17.7C49.5324 17.316 49.6337 16.8413 49.6337 16.276V11.956H51.6337V20.5H49.7297V18.196L50.0657 18.9C49.7777 19.4547 49.3564 19.8813 48.8017 20.18C48.247 20.468 47.639 20.612 46.9777 20.612ZM57.9483 20.612C56.999 20.612 56.167 20.4253 55.4523 20.052C54.7483 19.668 54.199 19.1453 53.8043 18.484C53.4203 17.8227 53.2283 17.0707 53.2283 16.228C53.2283 15.3747 53.415 14.6227 53.7883 13.972C54.1723 13.3107 54.695 12.7933 55.3563 12.42C56.0283 12.0467 56.791 11.86 57.6443 11.86C58.4763 11.86 59.2176 12.0413 59.8683 12.404C60.519 12.7667 61.031 13.2787 61.4043 13.94C61.7776 14.6013 61.9643 15.38 61.9643 16.276C61.9643 16.3613 61.959 16.4573 61.9483 16.564C61.9483 16.6707 61.943 16.772 61.9323 16.868H54.8123V15.54H60.8763L60.0923 15.956C60.103 15.4653 60.0016 15.0333 59.7883 14.66C59.575 14.2867 59.2816 13.9933 58.9083 13.78C58.5456 13.5667 58.1243 13.46 57.6443 13.46C57.1536 13.46 56.7216 13.5667 56.3483 13.78C55.9856 13.9933 55.6976 14.292 55.4843 14.676C55.2816 15.0493 55.1803 15.492 55.1803 16.004V16.324C55.1803 16.836 55.2976 17.2893 55.5323 17.684C55.767 18.0787 56.0976 18.3827 56.5243 18.596C56.951 18.8093 57.4416 18.916 57.9963 18.916C58.4763 18.916 58.9083 18.8413 59.2923 18.692C59.6763 18.5427 60.0176 18.308 60.3163 17.988L61.3883 19.22C61.0043 19.668 60.519 20.0147 59.9323 20.26C59.3563 20.4947 58.695 20.612 57.9483 20.612ZM66.2054 20.612C65.4908 20.612 64.8028 20.5213 64.1414 20.34C63.4908 20.148 62.9734 19.9187 62.5894 19.652L63.3574 18.132C63.7414 18.3773 64.2001 18.58 64.7334 18.74C65.2668 18.9 65.8001 18.98 66.3334 18.98C66.9628 18.98 67.4161 18.8947 67.6934 18.724C67.9814 18.5533 68.1254 18.324 68.1254 18.036C68.1254 17.8013 68.0294 17.6253 67.8374 17.508C67.6454 17.38 67.3948 17.284 67.0854 17.22C66.7761 17.156 66.4294 17.0973 66.0454 17.044C65.6721 16.9907 65.2934 16.9213 64.9094 16.836C64.5361 16.74 64.1948 16.6067 63.8854 16.436C63.5761 16.2547 63.3254 16.0147 63.1334 15.716C62.9414 15.4173 62.8454 15.0227 62.8454 14.532C62.8454 13.988 63.0001 13.5187 63.3094 13.124C63.6188 12.7187 64.0508 12.4093 64.6054 12.196C65.1708 11.972 65.8374 11.86 66.6054 11.86C67.1814 11.86 67.7628 11.924 68.3494 12.052C68.9361 12.18 69.4214 12.3613 69.8054 12.596L69.0374 14.116C68.6321 13.8707 68.2214 13.7053 67.8054 13.62C67.4001 13.524 66.9948 13.476 66.5894 13.476C65.9814 13.476 65.5281 13.5667 65.2294 13.748C64.9414 13.9293 64.7974 14.1587 64.7974 14.436C64.7974 14.692 64.8934 14.884 65.0854 15.012C65.2774 15.14 65.5281 15.2413 65.8374 15.316C66.1468 15.3907 66.4881 15.4547 66.8614 15.508C67.2454 15.5507 67.6241 15.62 67.9974 15.716C68.3708 15.812 68.7121 15.9453 69.0214 16.116C69.3414 16.276 69.5974 16.5053 69.7894 16.804C69.9814 17.1027 70.0774 17.492 70.0774 17.972C70.0774 18.5053 69.9174 18.9693 69.5974 19.364C69.2881 19.7587 68.8454 20.068 68.2694 20.292C67.6934 20.5053 67.0054 20.612 66.2054 20.612ZM74.6958 20.612C73.7571 20.612 73.0318 20.372 72.5198 19.892C72.0078 19.4013 71.7518 18.6813 71.7518 17.732V10.068H73.7518V17.684C73.7518 18.0893 73.8531 18.404 74.0558 18.628C74.2691 18.852 74.5625 18.964 74.9358 18.964C75.3838 18.964 75.7571 18.8467 76.0558 18.612L76.6158 20.036C76.3811 20.228 76.0931 20.372 75.7518 20.468C75.4105 20.564 75.0585 20.612 74.6958 20.612ZM70.3438 13.62V12.02H76.0398V13.62H70.3438ZM87.3069 20.5V18.772L87.1949 18.404V15.38C87.1949 14.7933 87.0189 14.34 86.6669 14.02C86.3149 13.6893 85.7816 13.524 85.0669 13.524C84.5869 13.524 84.1123 13.5987 83.6429 13.748C83.1843 13.8973 82.7949 14.1053 82.4749 14.372L81.6909 12.916C82.1496 12.564 82.6936 12.3027 83.3229 12.132C83.9629 11.9507 84.6243 11.86 85.3069 11.86C86.5443 11.86 87.4989 12.1587 88.1709 12.756C88.8536 13.3427 89.1949 14.2547 89.1949 15.492V20.5H87.3069ZM84.6189 20.612C83.9789 20.612 83.4189 20.5053 82.9389 20.292C82.4589 20.068 82.0856 19.764 81.8189 19.38C81.5629 18.9853 81.4349 18.5427 81.4349 18.052C81.4349 17.572 81.5469 17.14 81.7709 16.756C82.0056 16.372 82.3843 16.068 82.9069 15.844C83.4296 15.62 84.1229 15.508 84.9869 15.508H87.4669V16.836H85.1309C84.4483 16.836 83.9896 16.948 83.7549 17.172C83.5203 17.3853 83.4029 17.652 83.4029 17.972C83.4029 18.3347 83.5469 18.6227 83.8349 18.836C84.1229 19.0493 84.5229 19.156 85.0349 19.156C85.5256 19.156 85.9629 19.044 86.3469 18.82C86.7416 18.596 87.0243 18.2653 87.1949 17.828L87.5309 19.028C87.3389 19.5293 86.9923 19.9187 86.4909 20.196C86.0003 20.4733 85.3763 20.612 84.6189 20.612ZM95.7356 20.5V9.3H100.632C101.848 9.3 102.914 9.53467 103.832 10.004C104.749 10.4733 105.464 11.124 105.976 11.956C106.488 12.788 106.744 13.7693 106.744 14.9C106.744 16.02 106.488 17.0013 105.976 17.844C105.464 18.676 104.749 19.3267 103.832 19.796C102.914 20.2653 101.848 20.5 100.632 20.5H95.7356ZM97.8156 18.74H100.536C101.378 18.74 102.104 18.58 102.712 18.26C103.33 17.94 103.805 17.492 104.136 16.916C104.477 16.34 104.648 15.668 104.648 14.9C104.648 14.1213 104.477 13.4493 104.136 12.884C103.805 12.308 103.33 11.86 102.712 11.54C102.104 11.22 101.378 11.06 100.536 11.06H97.8156V18.74ZM112.458 20.612C111.509 20.612 110.677 20.4253 109.962 20.052C109.258 19.668 108.709 19.1453 108.314 18.484C107.93 17.8227 107.738 17.0707 107.738 16.228C107.738 15.3747 107.925 14.6227 108.298 13.972C108.682 13.3107 109.205 12.7933 109.866 12.42C110.538 12.0467 111.301 11.86 112.154 11.86C112.986 11.86 113.728 12.0413 114.378 12.404C115.029 12.7667 115.541 13.2787 115.914 13.94C116.288 14.6013 116.474 15.38 116.474 16.276C116.474 16.3613 116.469 16.4573 116.458 16.564C116.458 16.6707 116.453 16.772 116.442 16.868H109.322V15.54H115.386L114.602 15.956C114.613 15.4653 114.512 15.0333 114.298 14.66C114.085 14.2867 113.792 13.9933 113.418 13.78C113.056 13.5667 112.634 13.46 112.154 13.46C111.664 13.46 111.232 13.5667 110.858 13.78C110.496 13.9933 110.208 14.292 109.994 14.676C109.792 15.0493 109.69 15.492 109.69 16.004V16.324C109.69 16.836 109.808 17.2893 110.042 17.684C110.277 18.0787 110.608 18.3827 111.034 18.596C111.461 18.8093 111.952 18.916 112.506 18.916C112.986 18.916 113.418 18.8413 113.802 18.692C114.186 18.5427 114.528 18.308 114.826 17.988L115.898 19.22C115.514 19.668 115.029 20.0147 114.442 20.26C113.866 20.4947 113.205 20.612 112.458 20.612ZM128.859 11.86C129.542 11.86 130.145 11.9933 130.667 12.26C131.201 12.5267 131.617 12.9373 131.915 13.492C132.214 14.036 132.363 14.74 132.363 15.604V20.5H130.363V15.86C130.363 15.1027 130.198 14.5373 129.867 14.164C129.537 13.7907 129.062 13.604 128.443 13.604C128.006 13.604 127.617 13.7 127.275 13.892C126.945 14.084 126.683 14.3667 126.491 14.74C126.31 15.1133 126.219 15.588 126.219 16.164V20.5H124.219V15.86C124.219 15.1027 124.054 14.5373 123.723 14.164C123.393 13.7907 122.918 13.604 122.299 13.604C121.862 13.604 121.473 13.7 121.131 13.892C120.801 14.084 120.539 14.3667 120.347 14.74C120.166 15.1133 120.075 15.588 120.075 16.164V20.5H118.075V11.956H119.979V14.228L119.643 13.556C119.931 13.0013 120.347 12.58 120.891 12.292C121.446 12.004 122.075 11.86 122.779 11.86C123.579 11.86 124.273 12.0573 124.859 12.452C125.457 12.8467 125.851 13.444 126.043 14.244L125.259 13.972C125.537 13.332 125.995 12.82 126.635 12.436C127.275 12.052 128.017 11.86 128.859 11.86ZM138.455 20.612C137.58 20.612 136.801 20.4253 136.119 20.052C135.436 19.668 134.897 19.1453 134.503 18.484C134.108 17.8227 133.911 17.0707 133.911 16.228C133.911 15.3747 134.108 14.6227 134.503 13.972C134.897 13.3107 135.436 12.7933 136.119 12.42C136.801 12.0467 137.58 11.86 138.455 11.86C139.34 11.86 140.124 12.0467 140.807 12.42C141.5 12.7933 142.039 13.3053 142.423 13.956C142.817 14.6067 143.015 15.364 143.015 16.228C143.015 17.0707 142.817 17.8227 142.423 18.484C142.039 19.1453 141.5 19.668 140.807 20.052C140.124 20.4253 139.34 20.612 138.455 20.612ZM138.455 18.9C138.945 18.9 139.383 18.7933 139.767 18.58C140.151 18.3667 140.449 18.0573 140.663 17.652C140.887 17.2467 140.999 16.772 140.999 16.228C140.999 15.6733 140.887 15.1987 140.663 14.804C140.449 14.3987 140.151 14.0893 139.767 13.876C139.383 13.6627 138.951 13.556 138.471 13.556C137.98 13.556 137.543 13.6627 137.159 13.876C136.785 14.0893 136.487 14.3987 136.263 14.804C136.039 15.1987 135.927 15.6733 135.927 16.228C135.927 16.772 136.039 17.2467 136.263 17.652C136.487 18.0573 136.785 18.3667 137.159 18.58C137.543 18.7933 137.975 18.9 138.455 18.9Z" fill="#141414"/>
<path d="M28 34C28 31.7909 29.7909 30 32 30H159C159 33.3137 156.314 36 153 36H28V34Z" fill="#9F5000" fill-opacity="0.5"/>
</svg>
